<svg width="47" height="46" viewBox="0 0 47 46" fill="none" xmlns="http://www.w3.org/2000/svg">
<circle opacity="0.2" cx="23.8159" cy="22.967" r="22.8889" fill="#F5F5FF"/>
<mask id="mask0_633_3480" style="mask-type:alpha" maskUnits="userSpaceOnUse" x="8" y="7" width="32" height="32">
<circle cx="24.0775" cy="23.2286" r="15.3029" fill="#C4C4C4"/>
</mask>
<g mask="url(#mask0_633_3480)">
<g clip-path="url(#clip0_633_3480)">
<path d="M0.927124 7.92578H48.0129V39.3166H0.927124V7.92578Z" fill="#0052B4"/>
<path d="M21.4717 23.6213C21.4968 23.5933 21.5216 23.5653 21.5465 23.537C21.5216 23.5654 21.4963 23.5931 21.4711 23.6213H21.4717ZM18.3284 27.4771L19.3361 29.5842L21.6119 29.0584L20.5927 31.1601L22.4228 32.6113L20.1443 33.125L20.1506 35.4607L18.3284 33.9994L16.5062 35.4607L16.5125 33.125L14.234 32.6113L16.0641 31.1601L15.0449 29.0584L17.3206 29.5842L18.3284 27.4771ZM36.5243 30.0947L37.005 31.0998L38.0905 30.8489L37.6044 31.8514L38.4773 32.5437L37.3905 32.7886L37.3934 33.9026L36.5243 33.2057L35.6553 33.9026L35.6582 32.7886L34.5715 32.5437L35.4443 31.8514L34.9583 30.8489L36.0437 31.0998L36.5243 30.0947ZM32.0527 19.4325L32.5334 20.4377L33.6189 20.1867L33.1328 21.1892L34.0056 21.8815L32.9189 22.1264L32.9218 23.2405L32.0527 22.5435L31.1836 23.2405L31.1866 22.1264L30.0998 21.8815L30.9726 21.1892L30.4867 20.1867L31.5721 20.4377L32.0527 19.4325ZM36.5243 13.3398L37.005 14.345L38.0905 14.094L37.6044 15.0965L38.4772 15.7888L37.3905 16.0338L37.3934 17.1478L36.5243 16.4507L35.6553 17.1478L35.6582 16.0338L34.5715 15.7888L35.4443 15.0965L34.9583 14.094L36.0437 14.345L36.5243 13.3398ZM40.4302 17.9094L40.9108 18.9144L41.9962 18.6636L41.5103 19.666L42.3831 20.3582L41.2963 20.6032L41.2993 21.7172L40.4302 21.0203L39.5611 21.7172L39.564 20.6032L38.4773 20.3582L39.3501 19.666L38.864 18.6636L39.9495 18.9144L40.4302 17.9094ZM37.6374 23.2405L38.0154 24.4041H39.2388L38.249 25.1232L38.6272 26.2868L37.6374 25.5677L36.6474 26.2868L37.0255 25.1232L36.0357 24.4041H37.2592L37.6374 23.2405Z" fill="white"/>
<path d="M24.47 7.92578V10.7356L20.3162 13.0438H24.47V18.5027H19.0346L24.47 21.5223V23.6207H22.0164L15.2576 19.8662V23.6207H10.1396V19.1537L2.09912 23.6207H0.927124V20.8109L5.08088 18.5027H0.927124V13.0438H6.36249L0.927124 10.0231V7.92578H3.38073L10.1396 11.6804V7.92578H15.2576V12.3928L23.298 7.92578H24.47Z" fill="white"/>
<path d="M14.17 7.92578H11.2271V14.3019H0.927124V17.2447H11.2271V23.621H14.17V17.2447H24.47V14.3019H14.17V7.92578Z" fill="#D80027"/>
<path d="M15.2576 18.502L24.47 23.62V22.1727L17.8626 18.502H15.2576Z" fill="#0052B4"/>
<path d="M15.2576 18.502L24.47 23.62V22.1727L17.8626 18.502H15.2576Z" fill="white"/>
<path d="M15.2576 18.502L24.47 23.62V22.1727L17.8626 18.502H15.2576ZM7.5344 18.502L0.927124 22.1727V23.62L10.1396 18.502H7.5344Z" fill="#D80027"/>
<path d="M10.1396 13.0438L0.927124 7.92578V9.37302L7.53449 13.0438H10.1396Z" fill="#0052B4"/>
<path d="M10.1396 13.0438L0.927124 7.92578V9.37302L7.53449 13.0438H10.1396Z" fill="white"/>
<path d="M10.1396 13.0438L0.927124 7.92578V9.37302L7.53449 13.0438H10.1396ZM17.8627 13.0438L24.47 9.37302V7.92578L15.2576 13.0438H17.8627Z" fill="#D80027"/>
</g>
</g>
<defs>
<clipPath id="clip0_633_3480">
<rect width="47.0858" height="31.3905" fill="white" transform="translate(0.927124 7.92578)"/>
</clipPath>
</defs>
</svg>
