<svg width="293" height="178" viewBox="0 0 293 178" fill="none" xmlns="http://www.w3.org/2000/svg">
<rect width="293" height="178" rx="10" fill="#F5F5FF"/>
<rect opacity="0.1" x="90" y="116" width="139" height="40" rx="6" fill="white"/>
<path d="M108.516 141.266C107.639 141.266 106.864 141.121 106.192 140.832C105.529 140.533 104.969 140.137 104.512 139.642C104.064 139.147 103.723 138.583 103.49 137.948C103.266 137.313 103.154 136.655 103.154 135.974V135.666C103.154 135.022 103.266 134.392 103.49 133.776C103.714 133.16 104.041 132.605 104.47 132.11C104.909 131.615 105.445 131.223 106.08 130.934C106.715 130.635 107.452 130.486 108.292 130.486C109.179 130.486 109.967 130.654 110.658 130.99C111.358 131.326 111.918 131.793 112.338 132.39C112.758 132.978 113.005 133.659 113.08 134.434H111.078C111.013 133.995 110.849 133.622 110.588 133.314C110.327 132.997 109.995 132.754 109.594 132.586C109.202 132.418 108.768 132.334 108.292 132.334C107.648 132.334 107.093 132.483 106.626 132.782C106.159 133.071 105.8 133.482 105.548 134.014C105.296 134.537 105.17 135.143 105.17 135.834C105.17 136.973 105.469 137.864 106.066 138.508C106.673 139.143 107.489 139.46 108.516 139.46C109.057 139.46 109.547 139.367 109.986 139.18C110.434 138.993 110.798 138.746 111.078 138.438V137.29H108.194V135.806H113.766V137.29H112.912V139.166C112.473 139.838 111.876 140.356 111.12 140.72C110.364 141.084 109.496 141.266 108.516 141.266ZM118.903 141.266C118.249 141.266 117.675 141.154 117.181 140.93C116.695 140.706 116.289 140.407 115.963 140.034C115.645 139.651 115.403 139.227 115.235 138.76C115.076 138.293 114.997 137.817 114.997 137.332V137.066C114.997 136.562 115.076 136.077 115.235 135.61C115.403 135.143 115.645 134.723 115.963 134.35C116.289 133.977 116.691 133.683 117.167 133.468C117.643 133.244 118.193 133.132 118.819 133.132C119.64 133.132 120.326 133.314 120.877 133.678C121.427 134.033 121.843 134.504 122.123 135.092C122.412 135.671 122.557 136.296 122.557 136.968V137.668H116.845C116.91 138.265 117.106 138.746 117.433 139.11C117.769 139.474 118.259 139.656 118.903 139.656C119.369 139.656 119.752 139.563 120.051 139.376C120.359 139.18 120.555 138.942 120.639 138.662H122.431C122.263 139.446 121.866 140.076 121.241 140.552C120.615 141.028 119.836 141.266 118.903 141.266ZM118.819 134.742C118.268 134.742 117.829 134.896 117.503 135.204C117.176 135.512 116.966 135.937 116.873 136.478H120.695C120.62 135.937 120.424 135.512 120.107 135.204C119.799 134.896 119.369 134.742 118.819 134.742ZM127.736 141.098C127.036 141.098 126.458 141.009 126 140.832C125.543 140.645 125.202 140.337 124.978 139.908C124.764 139.479 124.656 138.891 124.656 138.144V134.826H123.452V133.398H124.656L124.67 131.256H126.49L126.476 133.398H128.828V134.826H126.476V138.27C126.476 138.643 126.574 138.933 126.77 139.138C126.976 139.334 127.265 139.432 127.638 139.432H128.828V141.098H127.736ZM137.623 141.266C136.718 141.266 135.952 141.121 135.327 140.832C134.702 140.543 134.226 140.146 133.899 139.642C133.582 139.138 133.423 138.559 133.423 137.906H135.369C135.369 138.186 135.444 138.452 135.593 138.704C135.742 138.956 135.98 139.161 136.307 139.32C136.643 139.479 137.082 139.558 137.623 139.558C138.351 139.558 138.897 139.409 139.261 139.11C139.625 138.811 139.807 138.447 139.807 138.018C139.807 137.663 139.653 137.374 139.345 137.15C139.037 136.926 138.561 136.786 137.917 136.73L137.021 136.66C136.041 136.576 135.257 136.273 134.669 135.75C134.09 135.218 133.801 134.518 133.801 133.65C133.801 133.006 133.95 132.446 134.249 131.97C134.557 131.494 134.991 131.13 135.551 130.878C136.111 130.617 136.764 130.486 137.511 130.486C138.276 130.486 138.939 130.621 139.499 130.892C140.068 131.163 140.507 131.545 140.815 132.04C141.123 132.525 141.277 133.099 141.277 133.762H139.331C139.331 133.351 139.177 132.987 138.869 132.67C138.57 132.353 138.118 132.194 137.511 132.194C136.914 132.194 136.47 132.339 136.181 132.628C135.892 132.917 135.747 133.258 135.747 133.65C135.747 133.967 135.859 134.247 136.083 134.49C136.316 134.723 136.69 134.859 137.203 134.896L138.099 134.98C138.827 135.045 139.462 135.204 140.003 135.456C140.554 135.699 140.983 136.035 141.291 136.464C141.599 136.893 141.753 137.411 141.753 138.018C141.753 138.662 141.58 139.231 141.235 139.726C140.899 140.211 140.423 140.589 139.807 140.86C139.191 141.131 138.463 141.266 137.623 141.266ZM146.971 141.098C146.271 141.098 145.692 141.009 145.235 140.832C144.777 140.645 144.437 140.337 144.213 139.908C143.998 139.479 143.891 138.891 143.891 138.144V134.826H142.687V133.398H143.891L143.905 131.256H145.725L145.711 133.398H148.063V134.826H145.711V138.27C145.711 138.643 145.809 138.933 146.005 139.138C146.21 139.334 146.499 139.432 146.873 139.432H148.063V141.098H146.971ZM152.075 141.196C151.235 141.196 150.563 140.981 150.059 140.552C149.564 140.123 149.317 139.521 149.317 138.746C149.317 137.915 149.615 137.304 150.213 136.912C150.819 136.511 151.631 136.31 152.649 136.31H154.203V136.24C154.203 135.372 153.764 134.938 152.887 134.938C152.653 134.938 152.373 134.943 152.047 134.952C151.72 134.961 151.389 134.975 151.053 134.994C150.726 135.003 150.432 135.017 150.171 135.036V133.384C150.488 133.356 150.866 133.333 151.305 133.314C151.753 133.295 152.163 133.286 152.537 133.286C153.703 133.286 154.581 133.524 155.169 134C155.766 134.467 156.065 135.227 156.065 136.282V141H154.525V139.544C154.179 140.645 153.363 141.196 152.075 141.196ZM152.621 139.81C152.882 139.81 153.129 139.763 153.363 139.67C153.596 139.567 153.787 139.399 153.937 139.166C154.095 138.923 154.184 138.597 154.203 138.186V137.472H152.621C152.173 137.472 151.827 137.584 151.585 137.808C151.351 138.023 151.235 138.303 151.235 138.648C151.235 139.003 151.351 139.287 151.585 139.502C151.827 139.707 152.173 139.81 152.621 139.81ZM158.399 141V133.398H159.939V135.876C160.144 134.159 161.05 133.3 162.655 133.3H162.935V134.994H162.403C161.74 134.994 161.232 135.171 160.877 135.526C160.522 135.881 160.345 136.385 160.345 137.038V141H158.399ZM167.955 141.098C167.255 141.098 166.676 141.009 166.219 140.832C165.762 140.645 165.421 140.337 165.197 139.908C164.982 139.479 164.875 138.891 164.875 138.144V134.826H163.671V133.398H164.875L164.889 131.256H166.709L166.695 133.398H169.047V134.826H166.695V138.27C166.695 138.643 166.793 138.933 166.989 139.138C167.194 139.334 167.484 139.432 167.857 139.432H169.047V141.098H167.955ZM174.291 141.266C173.638 141.266 173.064 141.154 172.569 140.93C172.084 140.706 171.678 140.407 171.351 140.034C171.034 139.651 170.791 139.227 170.623 138.76C170.465 138.293 170.385 137.817 170.385 137.332V137.066C170.385 136.562 170.465 136.077 170.623 135.61C170.791 135.143 171.034 134.723 171.351 134.35C171.678 133.977 172.079 133.683 172.555 133.468C173.031 133.244 173.582 133.132 174.207 133.132C175.029 133.132 175.715 133.314 176.265 133.678C176.816 134.033 177.231 134.504 177.511 135.092C177.801 135.671 177.945 136.296 177.945 136.968V137.668H172.233C172.299 138.265 172.495 138.746 172.821 139.11C173.157 139.474 173.647 139.656 174.291 139.656C174.758 139.656 175.141 139.563 175.439 139.376C175.747 139.18 175.943 138.942 176.027 138.662H177.819C177.651 139.446 177.255 140.076 176.629 140.552C176.004 141.028 175.225 141.266 174.291 141.266ZM174.207 134.742C173.657 134.742 173.218 134.896 172.891 135.204C172.565 135.512 172.355 135.937 172.261 136.478H176.083C176.009 135.937 175.813 135.512 175.495 135.204C175.187 134.896 174.758 134.742 174.207 134.742ZM182.971 141.252C182.262 141.252 181.632 141.084 181.081 140.748C180.53 140.403 180.096 139.936 179.779 139.348C179.471 138.76 179.317 138.097 179.317 137.36V137.066C179.317 136.338 179.466 135.68 179.765 135.092C180.064 134.504 180.479 134.037 181.011 133.692C181.552 133.337 182.187 133.16 182.915 133.16C183.456 133.16 183.942 133.272 184.371 133.496C184.81 133.711 185.169 134.037 185.449 134.476V130.78H187.395V141H185.855V139.404C185.594 140.02 185.206 140.482 184.693 140.79C184.189 141.098 183.615 141.252 182.971 141.252ZM183.405 139.614C183.788 139.614 184.138 139.53 184.455 139.362C184.772 139.185 185.024 138.933 185.211 138.606C185.407 138.279 185.505 137.887 185.505 137.43V136.87C185.505 136.431 185.402 136.058 185.197 135.75C185.001 135.442 184.744 135.209 184.427 135.05C184.11 134.882 183.769 134.798 183.405 134.798C182.77 134.798 182.252 135.022 181.851 135.47C181.459 135.909 181.263 136.492 181.263 137.22C181.263 137.948 181.464 138.531 181.865 138.97C182.266 139.399 182.78 139.614 183.405 139.614Z" fill="#7E57FF"/>
<path d="M198 136H212" stroke="#7E57FF" stroke-width="2" stroke-linecap="round" stroke-linejoin="round"/>
<path d="M205 129L212 136L205 143" stroke="#7E57FF" stroke-width="2" stroke-linecap="round" stroke-linejoin="round"/>
<g filter="url(#filter0_d_34_840)">
<rect x="13" y="25" width="64" height="64" rx="25" fill="white"/>
</g>
<path d="M54.1875 57.0132C52.2101 57.0151 50.286 57.6549 48.7012 58.8376L43.1625 53.2988C44.3591 51.7256 45.0049 49.8023 45 47.8257C45.0052 45.7558 44.3112 43.7447 43.0305 42.1185C41.7499 40.4923 39.9576 39.3462 37.9441 38.8659C35.9307 38.3857 33.814 38.5994 31.9372 39.4725C30.0604 40.3456 28.5335 41.8269 27.6038 43.6764C26.6741 45.5258 26.3962 47.635 26.8151 49.6621C27.234 51.6892 28.3252 53.5154 29.9118 54.8449C31.4984 56.1743 33.4874 56.929 35.5566 56.9867C37.6257 57.0443 39.6537 56.4016 41.3119 55.1626L46.8375 60.7013C45.5988 62.3591 44.9561 64.3864 45.0133 66.455C45.0706 68.5236 45.8246 70.5123 47.1531 72.0989C48.4816 73.6855 50.3068 74.7772 52.3331 75.1971C54.3595 75.617 56.4682 75.3405 58.3178 74.4124C60.1674 73.4843 61.6495 71.959 62.524 70.0834C63.3986 68.2079 63.6144 66.0921 63.1364 64.0787C62.6584 62.0653 61.5147 60.2722 59.8906 58.9898C58.2664 57.7075 56.2569 57.011 54.1875 57.0132ZM29.25 47.8257C29.25 46.5278 29.6349 45.259 30.356 44.1798C31.0771 43.1006 32.102 42.2595 33.3011 41.7628C34.5003 41.2661 35.8198 41.1361 37.0928 41.3893C38.3658 41.6425 39.5351 42.2675 40.4529 43.1853C41.3707 44.1031 41.9957 45.2724 42.2489 46.5454C42.5021 47.8184 42.3721 49.1379 41.8754 50.3371C41.3787 51.5362 40.5376 52.5611 39.4584 53.2822C38.3792 54.0033 37.1104 54.3882 35.8125 54.3882C34.072 54.3882 32.4028 53.6968 31.1721 52.4661C29.9414 51.2354 29.25 49.5662 29.25 47.8257Z" fill="#7E57FF"/>
<path d="M91.44 40V28.24H95.472C96.944 28.24 98.08 28.5973 98.88 29.312C99.6907 30.016 100.096 30.976 100.096 32.192V32.448C100.096 33.664 99.6907 34.6293 98.88 35.344C98.08 36.0587 96.944 36.416 95.472 36.416H93.712V40H91.44ZM95.664 30.208H93.712V34.448H95.664C96.3467 34.448 96.8693 34.2507 97.232 33.856C97.6053 33.4613 97.792 32.9493 97.792 32.32C97.792 31.6907 97.6053 31.184 97.232 30.8C96.8693 30.4053 96.3467 30.208 95.664 30.208ZM101.821 40V37.76C101.821 37.024 102.003 36.4267 102.365 35.968C102.728 35.5093 103.352 35.088 104.237 34.704L106.221 33.824C106.712 33.6107 107.085 33.3387 107.341 33.008C107.608 32.6773 107.741 32.256 107.741 31.744C107.741 31.1787 107.571 30.7307 107.229 30.4C106.899 30.0587 106.424 29.888 105.805 29.888C105.187 29.888 104.707 30.064 104.365 30.416C104.035 30.7573 103.869 31.2267 103.869 31.824H101.677C101.677 31.1093 101.827 30.464 102.125 29.888C102.435 29.3013 102.893 28.8373 103.501 28.496C104.12 28.1547 104.888 27.984 105.805 27.984C106.712 27.984 107.469 28.1493 108.077 28.48C108.696 28.8107 109.16 29.2533 109.469 29.808C109.779 30.3627 109.933 30.9707 109.933 31.632V31.84C109.933 32.7253 109.688 33.4613 109.197 34.048C108.707 34.624 107.987 35.12 107.037 35.536L105.053 36.416C104.669 36.576 104.403 36.7467 104.253 36.928C104.115 37.1093 104.045 37.344 104.045 37.632V38.064H109.981V40H101.821ZM112.503 40V28.24H116.535C118.007 28.24 119.143 28.5973 119.943 29.312C120.753 30.016 121.159 30.976 121.159 32.192V32.448C121.159 33.664 120.753 34.6293 119.943 35.344C119.143 36.0587 118.007 36.416 116.535 36.416H114.775V40H112.503ZM116.727 30.208H114.775V34.448H116.727C117.409 34.448 117.932 34.2507 118.295 33.856C118.668 33.4613 118.855 32.9493 118.855 32.32C118.855 31.6907 118.668 31.184 118.295 30.8C117.932 30.4053 117.409 30.208 116.727 30.208ZM126.987 40V28.32H130.091L133.019 35.296H133.307L136.219 28.32H139.371V40H137.115V30.752L134.251 37.616H131.931L129.067 30.8V40H126.987ZM144.791 40.224C143.831 40.224 143.063 39.9787 142.487 39.488C141.921 38.9973 141.639 38.3093 141.639 37.424C141.639 36.4747 141.98 35.776 142.663 35.328C143.356 34.8693 144.284 34.64 145.447 34.64H147.223V34.56C147.223 33.568 146.721 33.072 145.719 33.072C145.452 33.072 145.132 33.0773 144.759 33.088C144.385 33.0987 144.007 33.1147 143.623 33.136C143.249 33.1467 142.913 33.1627 142.615 33.184V31.296C142.977 31.264 143.409 31.2373 143.911 31.216C144.423 31.1947 144.892 31.184 145.319 31.184C146.652 31.184 147.655 31.456 148.327 32C149.009 32.5333 149.351 33.4027 149.351 34.608V40H147.591V38.336C147.196 39.5947 146.263 40.224 144.791 40.224ZM145.415 38.64C145.713 38.64 145.996 38.5867 146.263 38.48C146.529 38.3627 146.748 38.1707 146.919 37.904C147.1 37.6267 147.201 37.2533 147.223 36.784V35.968H145.415C144.903 35.968 144.508 36.096 144.231 36.352C143.964 36.5973 143.831 36.9173 143.831 37.312C143.831 37.7173 143.964 38.0427 144.231 38.288C144.508 38.5227 144.903 38.64 145.415 38.64ZM151.983 40V31.312H153.743V34.144C153.977 32.1813 155.012 31.2 156.847 31.2H157.167V33.136H156.559C155.801 33.136 155.22 33.3387 154.815 33.744C154.409 34.1493 154.207 34.7253 154.207 35.472V40H151.983ZM158.905 40V28.32H161.129V35.504L164.473 31.312H166.793L163.833 35.008L167.497 40H164.985L162.073 35.936H161.129V40H158.905ZM172.636 40.304C171.89 40.304 171.234 40.176 170.668 39.92C170.114 39.664 169.65 39.3227 169.276 38.896C168.914 38.4587 168.636 37.9733 168.444 37.44C168.263 36.9067 168.172 36.3627 168.172 35.808V35.504C168.172 34.928 168.263 34.3733 168.444 33.84C168.636 33.3067 168.914 32.8267 169.276 32.4C169.65 31.9733 170.108 31.6373 170.652 31.392C171.196 31.136 171.826 31.008 172.54 31.008C173.479 31.008 174.263 31.216 174.892 31.632C175.522 32.0373 175.996 32.576 176.316 33.248C176.647 33.9093 176.812 34.624 176.812 35.392V36.192H170.284C170.359 36.8747 170.583 37.424 170.956 37.84C171.34 38.256 171.9 38.464 172.636 38.464C173.17 38.464 173.607 38.3573 173.948 38.144C174.3 37.92 174.524 37.648 174.62 37.328H176.668C176.476 38.224 176.023 38.944 175.308 39.488C174.594 40.032 173.703 40.304 172.636 40.304ZM172.54 32.848C171.911 32.848 171.41 33.024 171.036 33.376C170.663 33.728 170.423 34.2133 170.316 34.832H174.684C174.599 34.2133 174.375 33.728 174.012 33.376C173.66 33.024 173.17 32.848 172.54 32.848ZM182.696 40.112C181.896 40.112 181.235 40.0107 180.712 39.808C180.19 39.5947 179.8 39.2427 179.544 38.752C179.299 38.2613 179.176 37.5893 179.176 36.736V32.944H177.8V31.312H179.176L179.192 28.864H181.272L181.256 31.312H183.944V32.944H181.256V36.88C181.256 37.3067 181.368 37.6373 181.592 37.872C181.827 38.096 182.158 38.208 182.584 38.208H183.944V40.112H182.696Z" fill="#202020"/>
<path d="M92.728 66V58.718H93.806V66H92.728ZM90.286 58.938V57.97H96.248V58.938H90.286ZM97.4602 66V60.126H98.2962V62.546H98.2522C98.2522 61.688 98.4392 61.061 98.8132 60.665C99.1946 60.2617 99.7629 60.06 100.518 60.06H100.716V61.006H100.342C99.7556 61.006 99.3046 61.1637 98.9892 61.479C98.6739 61.787 98.5162 62.2343 98.5162 62.821V66H97.4602ZM105.753 66V64.24H105.577V62.205C105.577 61.8017 105.471 61.4973 105.258 61.292C105.053 61.0867 104.749 60.984 104.345 60.984C104.118 60.984 103.883 60.9877 103.641 60.995C103.399 61.0023 103.168 61.0097 102.948 61.017C102.728 61.0243 102.538 61.0353 102.376 61.05V60.126C102.538 60.1113 102.706 60.1003 102.882 60.093C103.066 60.0783 103.253 60.071 103.443 60.071C103.634 60.0637 103.817 60.06 103.993 60.06C104.595 60.06 105.086 60.1333 105.467 60.28C105.849 60.4193 106.131 60.6503 106.314 60.973C106.498 61.2957 106.589 61.732 106.589 62.282V66H105.753ZM103.828 66.154C103.388 66.154 103.007 66.0807 102.684 65.934C102.369 65.78 102.123 65.56 101.947 65.274C101.779 64.988 101.694 64.6433 101.694 64.24C101.694 63.822 101.786 63.4737 101.969 63.195C102.16 62.9163 102.435 62.7073 102.794 62.568C103.154 62.4213 103.586 62.348 104.092 62.348H105.687V63.14H104.048C103.623 63.14 103.297 63.2427 103.069 63.448C102.842 63.6533 102.728 63.9173 102.728 64.24C102.728 64.5627 102.842 64.823 103.069 65.021C103.297 65.219 103.623 65.318 104.048 65.318C104.298 65.318 104.536 65.274 104.763 65.186C104.991 65.0907 105.178 64.9367 105.324 64.724C105.478 64.504 105.563 64.2033 105.577 63.822L105.863 64.24C105.827 64.658 105.724 65.01 105.555 65.296C105.394 65.5747 105.167 65.7873 104.873 65.934C104.587 66.0807 104.239 66.154 103.828 66.154ZM108.778 66V60.126H109.614V62.645H109.482C109.482 62.0657 109.559 61.578 109.713 61.182C109.874 60.7787 110.116 60.4743 110.439 60.269C110.761 60.0563 111.168 59.95 111.66 59.95H111.704C112.444 59.95 112.991 60.181 113.343 60.643C113.702 61.105 113.882 61.7723 113.882 62.645V66H112.826V62.425C112.826 61.9703 112.697 61.6073 112.441 61.336C112.184 61.0573 111.832 60.918 111.385 60.918C110.923 60.918 110.549 61.061 110.263 61.347C109.977 61.633 109.834 62.0143 109.834 62.491V66H108.778ZM117.989 66.176C117.219 66.176 116.621 66.011 116.196 65.681C115.778 65.351 115.561 64.9 115.547 64.328H116.537C116.551 64.5553 116.665 64.7717 116.878 64.977C117.098 65.175 117.468 65.274 117.989 65.274C118.458 65.274 118.817 65.1823 119.067 64.999C119.316 64.8083 119.441 64.5773 119.441 64.306C119.441 64.064 119.349 63.877 119.166 63.745C118.982 63.6057 118.685 63.514 118.275 63.47L117.637 63.404C117.079 63.3453 116.625 63.1803 116.273 62.909C115.921 62.6303 115.745 62.2417 115.745 61.743C115.745 61.369 115.84 61.05 116.031 60.786C116.221 60.5147 116.485 60.3093 116.823 60.17C117.16 60.0233 117.549 59.95 117.989 59.95C118.649 59.95 119.184 60.0967 119.595 60.39C120.005 60.6833 120.218 61.1197 120.233 61.699H119.243C119.235 61.4643 119.125 61.2663 118.913 61.105C118.707 60.9363 118.399 60.852 117.989 60.852C117.578 60.852 117.266 60.9363 117.054 61.105C116.841 61.2737 116.735 61.4863 116.735 61.743C116.735 61.963 116.808 62.139 116.955 62.271C117.109 62.403 117.358 62.4873 117.703 62.524L118.341 62.59C118.971 62.656 119.477 62.832 119.859 63.118C120.24 63.3967 120.431 63.7927 120.431 64.306C120.431 64.6727 120.324 64.999 120.112 65.285C119.906 65.5637 119.62 65.7837 119.254 65.945C118.887 66.099 118.465 66.176 117.989 66.176ZM125.764 66V64.24H125.588V62.205C125.588 61.8017 125.482 61.4973 125.269 61.292C125.064 61.0867 124.76 60.984 124.356 60.984C124.129 60.984 123.894 60.9877 123.652 60.995C123.41 61.0023 123.179 61.0097 122.959 61.017C122.739 61.0243 122.549 61.0353 122.387 61.05V60.126C122.549 60.1113 122.717 60.1003 122.893 60.093C123.077 60.0783 123.264 60.071 123.454 60.071C123.645 60.0637 123.828 60.06 124.004 60.06C124.606 60.06 125.097 60.1333 125.478 60.28C125.86 60.4193 126.142 60.6503 126.325 60.973C126.509 61.2957 126.6 61.732 126.6 62.282V66H125.764ZM123.839 66.154C123.399 66.154 123.018 66.0807 122.695 65.934C122.38 65.78 122.134 65.56 121.958 65.274C121.79 64.988 121.705 64.6433 121.705 64.24C121.705 63.822 121.797 63.4737 121.98 63.195C122.171 62.9163 122.446 62.7073 122.805 62.568C123.165 62.4213 123.597 62.348 124.103 62.348H125.698V63.14H124.059C123.634 63.14 123.308 63.2427 123.08 63.448C122.853 63.6533 122.739 63.9173 122.739 64.24C122.739 64.5627 122.853 64.823 123.08 65.021C123.308 65.219 123.634 65.318 124.059 65.318C124.309 65.318 124.547 65.274 124.774 65.186C125.002 65.0907 125.189 64.9367 125.335 64.724C125.489 64.504 125.574 64.2033 125.588 63.822L125.874 64.24C125.838 64.658 125.735 65.01 125.566 65.296C125.405 65.5747 125.178 65.7873 124.884 65.934C124.598 66.0807 124.25 66.154 123.839 66.154ZM131.307 66.198C130.801 66.198 130.361 66.11 129.987 65.934C129.621 65.758 129.316 65.5233 129.074 65.23C128.832 64.9293 128.649 64.5993 128.524 64.24C128.407 63.8807 128.348 63.5213 128.348 63.162V62.964C128.348 62.59 128.407 62.2233 128.524 61.864C128.649 61.5047 128.832 61.182 129.074 60.896C129.324 60.6027 129.632 60.368 129.998 60.192C130.365 60.016 130.794 59.928 131.285 59.928C131.777 59.928 132.217 60.0197 132.605 60.203C133.001 60.3863 133.317 60.6467 133.551 60.984C133.793 61.314 133.929 61.7063 133.958 62.161H132.946C132.895 61.7943 132.726 61.49 132.44 61.248C132.154 60.9987 131.769 60.874 131.285 60.874C130.867 60.874 130.519 60.9693 130.24 61.16C129.962 61.3507 129.753 61.611 129.613 61.941C129.474 62.271 129.404 62.645 129.404 63.063C129.404 63.4663 129.474 63.8367 129.613 64.174C129.753 64.504 129.962 64.768 130.24 64.966C130.526 65.1567 130.882 65.252 131.307 65.252C131.637 65.252 131.923 65.1933 132.165 65.076C132.407 64.9587 132.602 64.801 132.748 64.603C132.895 64.405 132.983 64.1813 133.012 63.932H134.024C134.002 64.394 133.867 64.7937 133.617 65.131C133.375 65.4683 133.053 65.7323 132.649 65.923C132.253 66.1063 131.806 66.198 131.307 66.198ZM137.997 66.066C137.557 66.066 137.176 66.0037 136.853 65.879C136.538 65.7543 136.292 65.5417 136.116 65.241C135.948 64.933 135.863 64.5187 135.863 63.998V58.344H136.875V64.13C136.875 64.4453 136.96 64.691 137.128 64.867C137.304 65.0357 137.55 65.12 137.865 65.12H138.899V66.066H137.997ZM134.851 60.918V60.126H138.899V60.918H134.851ZM145.112 66L146.3 60.324H147.73L149.116 66H148.214L146.828 60.346H147.18L145.981 66H145.112ZM144.573 66V65.164H145.794V66H144.573ZM144.331 66L142.67 60.126H143.682L145.299 66H144.331ZM148.434 66V65.164H149.655V66H148.434ZM148.929 66L150.337 60.126H151.294L149.853 66H148.929ZM153.256 66V60.126H154.312V66H153.256ZM152.354 60.962V60.126H154.312V60.962H152.354ZM153.553 59.18C153.318 59.18 153.142 59.1177 153.025 58.993C152.915 58.8683 152.86 58.7107 152.86 58.52C152.86 58.3293 152.915 58.1717 153.025 58.047C153.142 57.9223 153.318 57.86 153.553 57.86C153.788 57.86 153.96 57.9223 154.07 58.047C154.187 58.1717 154.246 58.3293 154.246 58.52C154.246 58.7107 154.187 58.8683 154.07 58.993C153.96 59.1177 153.788 59.18 153.553 59.18ZM158.892 66.066C158.452 66.066 158.07 66.0037 157.748 65.879C157.432 65.7543 157.187 65.5417 157.011 65.241C156.842 64.933 156.758 64.5187 156.758 63.998V58.344H157.77V64.13C157.77 64.4453 157.854 64.691 158.023 64.867C158.199 65.0357 158.444 65.12 158.76 65.12H159.794V66.066H158.892ZM155.746 60.918V60.126H159.794V60.918H155.746ZM161.537 66V57.97H162.593V62.766H162.329C162.329 62.1867 162.403 61.688 162.549 61.27C162.703 60.8447 162.938 60.5183 163.253 60.291C163.569 60.0637 163.972 59.95 164.463 59.95H164.507C165.211 59.95 165.743 60.1847 166.102 60.654C166.462 61.116 166.641 61.7797 166.641 62.645V66H165.585V62.425C165.585 61.9483 165.45 61.578 165.178 61.314C164.914 61.05 164.57 60.918 164.144 60.918C163.675 60.918 163.297 61.0757 163.011 61.391C162.733 61.699 162.593 62.106 162.593 62.612V66H161.537ZM174.282 66.198C173.769 66.198 173.318 66.11 172.929 65.934C172.541 65.758 172.211 65.527 171.939 65.241C171.675 64.9477 171.474 64.6213 171.334 64.262C171.202 63.9027 171.136 63.536 171.136 63.162V62.964C171.136 62.59 171.206 62.2233 171.345 61.864C171.485 61.4973 171.69 61.171 171.961 60.885C172.233 60.5917 172.563 60.3607 172.951 60.192C173.34 60.016 173.784 59.928 174.282 59.928C174.781 59.928 175.225 60.016 175.613 60.192C176.002 60.3607 176.332 60.5917 176.603 60.885C176.875 61.171 177.08 61.4973 177.219 61.864C177.359 62.2233 177.428 62.59 177.428 62.964V63.162C177.428 63.536 177.359 63.9027 177.219 64.262C177.087 64.6213 176.886 64.9477 176.614 65.241C176.35 65.527 176.024 65.758 175.635 65.934C175.247 66.11 174.796 66.198 174.282 66.198ZM174.282 65.252C174.722 65.252 175.096 65.1567 175.404 64.966C175.72 64.768 175.958 64.504 176.119 64.174C176.288 63.844 176.372 63.4737 176.372 63.063C176.372 62.645 176.288 62.271 176.119 61.941C175.951 61.611 175.709 61.3507 175.393 61.16C175.085 60.9693 174.715 60.874 174.282 60.874C173.857 60.874 173.487 60.9693 173.171 61.16C172.856 61.3507 172.614 61.611 172.445 61.941C172.277 62.271 172.192 62.645 172.192 63.063C172.192 63.4737 172.273 63.844 172.434 64.174C172.603 64.504 172.841 64.768 173.149 64.966C173.465 65.1567 173.842 65.252 174.282 65.252ZM181.548 66.066C181.108 66.066 180.727 66.0037 180.404 65.879C180.089 65.7543 179.843 65.5417 179.667 65.241C179.498 64.933 179.414 64.5187 179.414 63.998V58.344H180.426V64.13C180.426 64.4453 180.51 64.691 180.679 64.867C180.855 65.0357 181.101 65.12 181.416 65.12H182.45V66.066H181.548ZM178.402 60.918V60.126H182.45V60.918H178.402ZM184.194 66V57.97H185.25V62.766H184.986C184.986 62.1867 185.059 61.688 185.206 61.27C185.36 60.8447 185.594 60.5183 185.91 60.291C186.225 60.0637 186.628 59.95 187.12 59.95H187.164C187.868 59.95 188.399 60.1847 188.759 60.654C189.118 61.116 189.298 61.7797 189.298 62.645V66H188.242V62.425C188.242 61.9483 188.106 61.578 187.835 61.314C187.571 61.05 187.226 60.918 186.801 60.918C186.331 60.918 185.954 61.0757 185.668 61.391C185.389 61.699 185.25 62.106 185.25 62.612V66H184.194ZM193.977 66.198C193.463 66.198 193.02 66.11 192.646 65.934C192.272 65.758 191.967 65.527 191.733 65.241C191.498 64.9477 191.322 64.6213 191.205 64.262C191.095 63.9027 191.04 63.536 191.04 63.162V62.964C191.04 62.5827 191.095 62.2123 191.205 61.853C191.322 61.4937 191.498 61.171 191.733 60.885C191.967 60.5917 192.264 60.3607 192.624 60.192C192.99 60.016 193.419 59.928 193.911 59.928C194.549 59.928 195.073 60.0673 195.484 60.346C195.902 60.6173 196.21 60.9693 196.408 61.402C196.613 61.8347 196.716 62.2967 196.716 62.788V63.261H191.502V62.469H195.946L195.704 62.898C195.704 62.48 195.638 62.1207 195.506 61.82C195.374 61.512 195.176 61.2737 194.912 61.105C194.648 60.9363 194.314 60.852 193.911 60.852C193.493 60.852 193.144 60.9473 192.866 61.138C192.594 61.3287 192.389 61.589 192.25 61.919C192.118 62.249 192.052 62.6303 192.052 63.063C192.052 63.481 192.118 63.8587 192.25 64.196C192.389 64.526 192.602 64.79 192.888 64.988C193.174 65.1787 193.537 65.274 193.977 65.274C194.439 65.274 194.813 65.1713 195.099 64.966C195.392 64.7607 195.568 64.5223 195.627 64.251H196.617C196.536 64.6543 196.375 65.0027 196.133 65.296C195.891 65.5893 195.586 65.813 195.22 65.967C194.853 66.121 194.439 66.198 193.977 66.198ZM198.465 66V60.126H199.301V62.546H199.257C199.257 61.688 199.444 61.061 199.818 60.665C200.199 60.2617 200.768 60.06 201.523 60.06H201.721V61.006H201.347C200.76 61.006 200.309 61.1637 199.994 61.479C199.679 61.787 199.521 62.2343 199.521 62.821V66H198.465ZM205.152 66.176C204.382 66.176 203.784 66.011 203.359 65.681C202.941 65.351 202.725 64.9 202.71 64.328H203.7C203.715 64.5553 203.828 64.7717 204.041 64.977C204.261 65.175 204.631 65.274 205.152 65.274C205.621 65.274 205.981 65.1823 206.23 64.999C206.479 64.8083 206.604 64.5773 206.604 64.306C206.604 64.064 206.512 63.877 206.329 63.745C206.146 63.6057 205.849 63.514 205.438 63.47L204.8 63.404C204.243 63.3453 203.788 63.1803 203.436 62.909C203.084 62.6303 202.908 62.2417 202.908 61.743C202.908 61.369 203.003 61.05 203.194 60.786C203.385 60.5147 203.649 60.3093 203.986 60.17C204.323 60.0233 204.712 59.95 205.152 59.95C205.812 59.95 206.347 60.0967 206.758 60.39C207.169 60.6833 207.381 61.1197 207.396 61.699H206.406C206.399 61.4643 206.289 61.2663 206.076 61.105C205.871 60.9363 205.563 60.852 205.152 60.852C204.741 60.852 204.43 60.9363 204.217 61.105C204.004 61.2737 203.898 61.4863 203.898 61.743C203.898 61.963 203.971 62.139 204.118 62.271C204.272 62.403 204.521 62.4873 204.866 62.524L205.504 62.59C206.135 62.656 206.641 62.832 207.022 63.118C207.403 63.3967 207.594 63.7927 207.594 64.306C207.594 64.6727 207.488 64.999 207.275 65.285C207.07 65.5637 206.784 65.7837 206.417 65.945C206.05 66.099 205.629 66.176 205.152 66.176ZM215.768 66.198C215.035 66.198 214.408 66.0697 213.887 65.813C213.374 65.5563 212.96 65.2227 212.644 64.812C212.329 64.4013 212.098 63.9577 211.951 63.481C211.805 62.997 211.731 62.5313 211.731 62.084V61.842C211.731 61.358 211.805 60.874 211.951 60.39C212.105 59.906 212.34 59.466 212.655 59.07C212.971 58.674 213.381 58.355 213.887 58.113C214.393 57.871 214.998 57.75 215.702 57.75C216.421 57.75 217.037 57.8747 217.55 58.124C218.064 58.3733 218.471 58.7217 218.771 59.169C219.072 59.6163 219.255 60.1443 219.321 60.753H218.221C218.163 60.2983 218.016 59.9243 217.781 59.631C217.547 59.3303 217.25 59.1067 216.89 58.96C216.538 58.8133 216.142 58.74 215.702 58.74C215.226 58.74 214.808 58.8243 214.448 58.993C214.089 59.1543 213.788 59.3853 213.546 59.686C213.312 59.9793 213.132 60.3203 213.007 60.709C212.89 61.0977 212.831 61.5193 212.831 61.974C212.831 62.4067 212.89 62.8173 213.007 63.206C213.132 63.5947 213.315 63.9393 213.557 64.24C213.807 64.5407 214.115 64.779 214.481 64.955C214.848 65.1237 215.277 65.208 215.768 65.208C216.458 65.208 217.037 65.0357 217.506 64.691C217.976 64.3463 218.262 63.8477 218.364 63.195H219.464C219.391 63.745 219.204 64.2473 218.903 64.702C218.61 65.1567 218.199 65.5197 217.671 65.791C217.151 66.0623 216.516 66.198 215.768 66.198ZM224.674 66V64.24H224.498V62.205C224.498 61.8017 224.392 61.4973 224.179 61.292C223.974 61.0867 223.67 60.984 223.266 60.984C223.039 60.984 222.804 60.9877 222.562 60.995C222.32 61.0023 222.089 61.0097 221.869 61.017C221.649 61.0243 221.459 61.0353 221.297 61.05V60.126C221.459 60.1113 221.627 60.1003 221.803 60.093C221.987 60.0783 222.174 60.071 222.364 60.071C222.555 60.0637 222.738 60.06 222.914 60.06C223.516 60.06 224.007 60.1333 224.388 60.28C224.77 60.4193 225.052 60.6503 225.235 60.973C225.419 61.2957 225.51 61.732 225.51 62.282V66H224.674ZM222.749 66.154C222.309 66.154 221.928 66.0807 221.605 65.934C221.29 65.78 221.044 65.56 220.868 65.274C220.7 64.988 220.615 64.6433 220.615 64.24C220.615 63.822 220.707 63.4737 220.89 63.195C221.081 62.9163 221.356 62.7073 221.715 62.568C222.075 62.4213 222.507 62.348 223.013 62.348H224.608V63.14H222.969C222.544 63.14 222.218 63.2427 221.99 63.448C221.763 63.6533 221.649 63.9173 221.649 64.24C221.649 64.5627 221.763 64.823 221.99 65.021C222.218 65.219 222.544 65.318 222.969 65.318C223.219 65.318 223.457 65.274 223.684 65.186C223.912 65.0907 224.099 64.9367 224.245 64.724C224.399 64.504 224.484 64.2033 224.498 63.822L224.784 64.24C224.748 64.658 224.645 65.01 224.476 65.296C224.315 65.5747 224.088 65.7873 223.794 65.934C223.508 66.0807 223.16 66.154 222.749 66.154ZM227.699 66V60.126H228.535V62.546H228.491C228.491 61.688 228.678 61.061 229.052 60.665C229.433 60.2617 230.001 60.06 230.757 60.06H230.955V61.006H230.581C229.994 61.006 229.543 61.1637 229.228 61.479C228.912 61.787 228.755 62.2343 228.755 62.821V66H227.699ZM234.849 66.198C234.431 66.198 234.046 66.121 233.694 65.967C233.342 65.813 233.034 65.5967 232.77 65.318C232.513 65.0393 232.311 64.7167 232.165 64.35C232.025 63.9833 231.956 63.5873 231.956 63.162V62.964C231.956 62.546 232.025 62.1537 232.165 61.787C232.304 61.4203 232.498 61.0977 232.748 60.819C233.004 60.5403 233.305 60.324 233.65 60.17C234.002 60.0087 234.39 59.928 234.816 59.928C235.263 59.928 235.67 60.0233 236.037 60.214C236.403 60.3973 236.704 60.687 236.939 61.083C237.173 61.479 237.305 61.9923 237.335 62.623L236.895 61.919V57.97H237.951V66H237.115V63.393H237.423C237.393 64.0603 237.254 64.603 237.005 65.021C236.755 65.4317 236.44 65.7323 236.059 65.923C235.685 66.1063 235.281 66.198 234.849 66.198ZM234.992 65.274C235.351 65.274 235.677 65.1933 235.971 65.032C236.264 64.8707 236.499 64.6397 236.675 64.339C236.851 64.031 236.939 63.6717 236.939 63.261V62.755C236.939 62.3517 236.847 62.0107 236.664 61.732C236.488 61.446 236.249 61.2297 235.949 61.083C235.655 60.929 235.333 60.852 234.981 60.852C234.592 60.852 234.247 60.9437 233.947 61.127C233.653 61.3103 233.422 61.567 233.254 61.897C233.092 62.227 233.012 62.6157 233.012 63.063C233.012 63.5103 233.096 63.9027 233.265 64.24C233.433 64.57 233.668 64.8267 233.969 65.01C234.269 65.186 234.61 65.274 234.992 65.274ZM240.23 66V60.126H241.066V62.546H241.022C241.022 61.688 241.209 61.061 241.583 60.665C241.964 60.2617 242.532 60.06 243.288 60.06H243.486V61.006H243.112C242.525 61.006 242.074 61.1637 241.759 61.479C241.443 61.787 241.286 62.2343 241.286 62.821V66H240.23ZM245.277 66V60.126H246.333V66H245.277ZM244.375 60.962V60.126H246.333V60.962H244.375ZM245.574 59.18C245.34 59.18 245.164 59.1177 245.046 58.993C244.936 58.8683 244.881 58.7107 244.881 58.52C244.881 58.3293 244.936 58.1717 245.046 58.047C245.164 57.9223 245.34 57.86 245.574 57.86C245.809 57.86 245.981 57.9223 246.091 58.047C246.209 58.1717 246.267 58.3293 246.267 58.52C246.267 58.7107 246.209 58.8683 246.091 58.993C245.981 59.1177 245.809 59.18 245.574 59.18ZM252.178 66V64.24H252.002V62.205C252.002 61.8017 251.896 61.4973 251.683 61.292C251.478 61.0867 251.174 60.984 250.77 60.984C250.543 60.984 250.308 60.9877 250.066 60.995C249.824 61.0023 249.593 61.0097 249.373 61.017C249.153 61.0243 248.963 61.0353 248.801 61.05V60.126C248.963 60.1113 249.131 60.1003 249.307 60.093C249.491 60.0783 249.678 60.071 249.868 60.071C250.059 60.0637 250.242 60.06 250.418 60.06C251.02 60.06 251.511 60.1333 251.892 60.28C252.274 60.4193 252.556 60.6503 252.739 60.973C252.923 61.2957 253.014 61.732 253.014 62.282V66H252.178ZM250.253 66.154C249.813 66.154 249.432 66.0807 249.109 65.934C248.794 65.78 248.548 65.56 248.372 65.274C248.204 64.988 248.119 64.6433 248.119 64.24C248.119 63.822 248.211 63.4737 248.394 63.195C248.585 62.9163 248.86 62.7073 249.219 62.568C249.579 62.4213 250.011 62.348 250.517 62.348H252.112V63.14H250.473C250.048 63.14 249.722 63.2427 249.494 63.448C249.267 63.6533 249.153 63.9173 249.153 64.24C249.153 64.5627 249.267 64.823 249.494 65.021C249.722 65.219 250.048 65.318 250.473 65.318C250.723 65.318 250.961 65.274 251.188 65.186C251.416 65.0907 251.603 64.9367 251.749 64.724C251.903 64.504 251.988 64.2033 252.002 63.822L252.288 64.24C252.252 64.658 252.149 65.01 251.98 65.296C251.819 65.5747 251.592 65.7873 251.298 65.934C251.012 66.0807 250.664 66.154 250.253 66.154ZM255.202 66V60.126H256.038V62.645H255.906C255.906 62.0657 255.983 61.578 256.137 61.182C256.299 60.7787 256.541 60.4743 256.863 60.269C257.186 60.0563 257.593 59.95 258.084 59.95H258.128C258.869 59.95 259.415 60.181 259.767 60.643C260.127 61.105 260.306 61.7723 260.306 62.645V66H259.25V62.425C259.25 61.9703 259.122 61.6073 258.865 61.336C258.609 61.0573 258.257 60.918 257.809 60.918C257.347 60.918 256.973 61.061 256.687 61.347C256.401 61.633 256.258 62.0143 256.258 62.491V66H255.202ZM264.414 66.176C263.644 66.176 263.046 66.011 262.621 65.681C262.203 65.351 261.986 64.9 261.972 64.328H262.962C262.976 64.5553 263.09 64.7717 263.303 64.977C263.523 65.175 263.893 65.274 264.414 65.274C264.883 65.274 265.242 65.1823 265.492 64.999C265.741 64.8083 265.866 64.5773 265.866 64.306C265.866 64.064 265.774 63.877 265.591 63.745C265.407 63.6057 265.11 63.514 264.7 63.47L264.062 63.404C263.504 63.3453 263.05 63.1803 262.698 62.909C262.346 62.6303 262.17 62.2417 262.17 61.743C262.17 61.369 262.265 61.05 262.456 60.786C262.646 60.5147 262.91 60.3093 263.248 60.17C263.585 60.0233 263.974 59.95 264.414 59.95C265.074 59.95 265.609 60.0967 266.02 60.39C266.43 60.6833 266.643 61.1197 266.658 61.699H265.668C265.66 61.4643 265.55 61.2663 265.338 61.105C265.132 60.9363 264.824 60.852 264.414 60.852C264.003 60.852 263.691 60.9363 263.479 61.105C263.266 61.2737 263.16 61.4863 263.16 61.743C263.16 61.963 263.233 62.139 263.38 62.271C263.534 62.403 263.783 62.4873 264.128 62.524L264.766 62.59C265.396 62.656 265.902 62.832 266.284 63.118C266.665 63.3967 266.856 63.7927 266.856 64.306C266.856 64.6727 266.749 64.999 266.537 65.285C266.331 65.5637 266.045 65.7837 265.679 65.945C265.312 66.099 264.89 66.176 264.414 66.176ZM93.047 81.176C92.3503 81.176 91.815 80.9487 91.441 80.494C91.067 80.0393 90.88 79.383 90.88 78.525V75.115H91.936V78.734C91.936 79.196 92.0607 79.559 92.31 79.823C92.5593 80.0797 92.8967 80.208 93.322 80.208C93.762 80.208 94.1213 80.0687 94.4 79.79C94.6787 79.504 94.818 79.1153 94.818 78.624V75.115H95.874V81H95.038V78.481H95.17C95.17 79.0603 95.093 79.5517 94.939 79.955C94.785 80.351 94.554 80.6553 94.246 80.868C93.9453 81.0733 93.5603 81.176 93.091 81.176H93.047ZM100.094 81.176C99.3242 81.176 98.7266 81.011 98.3012 80.681C97.8832 80.351 97.6669 79.9 97.6522 79.328H98.6422C98.6569 79.5553 98.7706 79.7717 98.9832 79.977C99.2032 80.175 99.5736 80.274 100.094 80.274C100.564 80.274 100.923 80.1823 101.172 79.999C101.422 79.8083 101.546 79.5773 101.546 79.306C101.546 79.064 101.455 78.877 101.271 78.745C101.088 78.6057 100.791 78.514 100.38 78.47L99.7422 78.404C99.1849 78.3453 98.7302 78.1803 98.3782 77.909C98.0262 77.6303 97.8502 77.2417 97.8502 76.743C97.8502 76.369 97.9456 76.05 98.1362 75.786C98.3269 75.5147 98.5909 75.3093 98.9282 75.17C99.2656 75.0233 99.6542 74.95 100.094 74.95C100.754 74.95 101.29 75.0967 101.7 75.39C102.111 75.6833 102.324 76.1197 102.338 76.699H101.348C101.341 76.4643 101.231 76.2663 101.018 76.105C100.813 75.9363 100.505 75.852 100.094 75.852C99.6836 75.852 99.3719 75.9363 99.1592 76.105C98.9466 76.2737 98.8402 76.4863 98.8402 76.743C98.8402 76.963 98.9136 77.139 99.0602 77.271C99.2142 77.403 99.4636 77.4873 99.8082 77.524L100.446 77.59C101.077 77.656 101.583 77.832 101.964 78.118C102.346 78.3967 102.536 78.7927 102.536 79.306C102.536 79.6727 102.43 79.999 102.217 80.285C102.012 80.5637 101.726 80.7837 101.359 80.945C100.993 81.099 100.571 81.176 100.094 81.176ZM104.603 81V75.126H105.659V81H104.603ZM103.701 75.962V75.126H105.659V75.962H103.701ZM104.9 74.18C104.665 74.18 104.489 74.1177 104.372 73.993C104.262 73.8683 104.207 73.7107 104.207 73.52C104.207 73.3293 104.262 73.1717 104.372 73.047C104.489 72.9223 104.665 72.86 104.9 72.86C105.134 72.86 105.307 72.9223 105.417 73.047C105.534 73.1717 105.593 73.3293 105.593 73.52C105.593 73.7107 105.534 73.8683 105.417 73.993C105.307 74.1177 105.134 74.18 104.9 74.18ZM107.95 81V75.126H108.786V77.645H108.654C108.654 77.0657 108.731 76.578 108.885 76.182C109.047 75.7787 109.289 75.4743 109.611 75.269C109.934 75.0563 110.341 74.95 110.832 74.95H110.876C111.617 74.95 112.163 75.181 112.515 75.643C112.875 76.105 113.054 76.7723 113.054 77.645V81H111.998V77.425C111.998 76.9703 111.87 76.6073 111.613 76.336C111.357 76.0573 111.005 75.918 110.557 75.918C110.095 75.918 109.721 76.061 109.435 76.347C109.149 76.633 109.006 77.0143 109.006 77.491V81H107.95ZM117.459 83.288C117.187 83.288 116.912 83.277 116.634 83.255C116.362 83.233 116.102 83.2037 115.853 83.167V82.276C116.117 82.3127 116.392 82.342 116.678 82.364C116.971 82.3933 117.246 82.408 117.503 82.408C118.038 82.408 118.463 82.3347 118.779 82.188C119.101 82.0487 119.332 81.825 119.472 81.517C119.618 81.2163 119.692 80.8277 119.692 80.351V79.229L120.044 78.393C120.022 78.987 119.897 79.482 119.67 79.878C119.442 80.2667 119.145 80.56 118.779 80.758C118.419 80.9487 118.02 81.044 117.58 81.044C117.169 81.044 116.791 80.967 116.447 80.813C116.109 80.6517 115.816 80.4317 115.567 80.153C115.325 79.8743 115.134 79.5553 114.995 79.196C114.863 78.8293 114.797 78.4443 114.797 78.041V77.843C114.797 77.4323 114.866 77.051 115.006 76.699C115.145 76.3397 115.339 76.028 115.589 75.764C115.838 75.5 116.135 75.2947 116.48 75.148C116.832 75.0013 117.217 74.928 117.635 74.928C118.126 74.928 118.559 75.0343 118.933 75.247C119.307 75.4523 119.6 75.7567 119.813 76.16C120.033 76.556 120.154 77.0437 120.176 77.623L119.868 77.634V75.126H120.704V80.307C120.704 81.011 120.594 81.5793 120.374 82.012C120.161 82.452 119.816 82.7747 119.34 82.98C118.87 83.1853 118.243 83.288 117.459 83.288ZM117.778 80.076C118.13 80.076 118.449 79.999 118.735 79.845C119.028 79.691 119.259 79.471 119.428 79.185C119.604 78.8917 119.692 78.5433 119.692 78.14V77.634C119.692 77.238 119.6 76.9043 119.417 76.633C119.241 76.3617 119.01 76.1563 118.724 76.017C118.438 75.8777 118.126 75.808 117.789 75.808C117.407 75.808 117.07 75.896 116.777 76.072C116.483 76.248 116.256 76.4973 116.095 76.82C115.933 77.1353 115.853 77.5093 115.853 77.942C115.853 78.3747 115.933 78.7523 116.095 79.075C116.263 79.3977 116.491 79.647 116.777 79.823C117.07 79.9917 117.404 80.076 117.778 80.076ZM125.662 83.2V75.126H126.498V77.667L126.3 77.645C126.337 77.0143 126.469 76.501 126.696 76.105C126.931 75.7017 127.235 75.4047 127.609 75.214C127.983 75.0233 128.39 74.928 128.83 74.928C129.256 74.928 129.641 75.0087 129.985 75.17C130.337 75.3313 130.638 75.5513 130.887 75.83C131.137 76.1087 131.327 76.4313 131.459 76.798C131.591 77.1647 131.657 77.5533 131.657 77.964V78.162C131.657 78.5727 131.588 78.9613 131.448 79.328C131.309 79.6947 131.111 80.0173 130.854 80.296C130.605 80.5747 130.304 80.7947 129.952 80.956C129.608 81.1173 129.226 81.198 128.808 81.198C128.39 81.198 127.991 81.1063 127.609 80.923C127.228 80.7397 126.913 80.4427 126.663 80.032C126.414 79.6213 126.271 79.0823 126.234 78.415L126.718 79.295V83.2H125.662ZM128.643 80.274C129.039 80.274 129.384 80.1823 129.677 79.999C129.971 79.8083 130.198 79.548 130.359 79.218C130.521 78.8807 130.601 78.4957 130.601 78.063C130.601 77.623 130.521 77.238 130.359 76.908C130.198 76.578 129.971 76.3213 129.677 76.138C129.384 75.9473 129.039 75.852 128.643 75.852C128.291 75.852 127.965 75.9327 127.664 76.094C127.364 76.248 127.122 76.4753 126.938 76.776C126.762 77.0693 126.674 77.425 126.674 77.843V78.349C126.674 78.7523 126.766 79.097 126.949 79.383C127.133 79.669 127.375 79.889 127.675 80.043C127.976 80.197 128.299 80.274 128.643 80.274ZM137.049 81V79.24H136.873V77.205C136.873 76.8017 136.767 76.4973 136.554 76.292C136.349 76.0867 136.045 75.984 135.641 75.984C135.414 75.984 135.179 75.9877 134.937 75.995C134.695 76.0023 134.464 76.0097 134.244 76.017C134.024 76.0243 133.834 76.0353 133.672 76.05V75.126C133.834 75.1113 134.002 75.1003 134.178 75.093C134.362 75.0783 134.549 75.071 134.739 75.071C134.93 75.0637 135.113 75.06 135.289 75.06C135.891 75.06 136.382 75.1333 136.763 75.28C137.145 75.4193 137.427 75.6503 137.61 75.973C137.794 76.2957 137.885 76.732 137.885 77.282V81H137.049ZM135.124 81.154C134.684 81.154 134.303 81.0807 133.98 80.934C133.665 80.78 133.419 80.56 133.243 80.274C133.075 79.988 132.99 79.6433 132.99 79.24C132.99 78.822 133.082 78.4737 133.265 78.195C133.456 77.9163 133.731 77.7073 134.09 77.568C134.45 77.4213 134.882 77.348 135.388 77.348H136.983V78.14H135.344C134.919 78.14 134.593 78.2427 134.365 78.448C134.138 78.6533 134.024 78.9173 134.024 79.24C134.024 79.5627 134.138 79.823 134.365 80.021C134.593 80.219 134.919 80.318 135.344 80.318C135.594 80.318 135.832 80.274 136.059 80.186C136.287 80.0907 136.474 79.9367 136.62 79.724C136.774 79.504 136.859 79.2033 136.873 78.822L137.159 79.24C137.123 79.658 137.02 80.01 136.851 80.296C136.69 80.5747 136.463 80.7873 136.169 80.934C135.883 81.0807 135.535 81.154 135.124 81.154ZM140.36 81V75.126H141.416V81H140.36ZM139.458 75.962V75.126H141.416V75.962H139.458ZM140.657 74.18C140.422 74.18 140.246 74.1177 140.129 73.993C140.019 73.8683 139.964 73.7107 139.964 73.52C139.964 73.3293 140.019 73.1717 140.129 73.047C140.246 72.9223 140.422 72.86 140.657 72.86C140.891 72.86 141.064 72.9223 141.174 73.047C141.291 73.1717 141.35 73.3293 141.35 73.52C141.35 73.7107 141.291 73.8683 141.174 73.993C141.064 74.1177 140.891 74.18 140.657 74.18ZM143.707 81V75.126H144.543V77.546H144.499C144.499 76.688 144.686 76.061 145.06 75.665C145.442 75.2617 146.01 75.06 146.765 75.06H146.963V76.006H146.589C146.003 76.006 145.552 76.1637 145.236 76.479C144.921 76.787 144.763 77.2343 144.763 77.821V81H143.707ZM153.51 81.066C153.07 81.066 152.689 81.0037 152.366 80.879C152.051 80.7543 151.805 80.5417 151.629 80.241C151.46 79.933 151.376 79.5187 151.376 78.998V73.344H152.388V79.13C152.388 79.4453 152.472 79.691 152.641 79.867C152.817 80.0357 153.063 80.12 153.378 80.12H154.412V81.066H153.51ZM150.364 75.918V75.126H154.412V75.918H150.364ZM158.819 81.198C158.305 81.198 157.854 81.11 157.466 80.934C157.077 80.758 156.747 80.527 156.476 80.241C156.212 79.9477 156.01 79.6213 155.871 79.262C155.739 78.9027 155.673 78.536 155.673 78.162V77.964C155.673 77.59 155.742 77.2233 155.882 76.864C156.021 76.4973 156.226 76.171 156.498 75.885C156.769 75.5917 157.099 75.3607 157.488 75.192C157.876 75.016 158.32 74.928 158.819 74.928C159.317 74.928 159.761 75.016 160.15 75.192C160.538 75.3607 160.868 75.5917 161.14 75.885C161.411 76.171 161.616 76.4973 161.756 76.864C161.895 77.2233 161.965 77.59 161.965 77.964V78.162C161.965 78.536 161.895 78.9027 161.756 79.262C161.624 79.6213 161.422 79.9477 161.151 80.241C160.887 80.527 160.56 80.758 160.172 80.934C159.783 81.11 159.332 81.198 158.819 81.198ZM158.819 80.252C159.259 80.252 159.633 80.1567 159.941 79.966C160.256 79.768 160.494 79.504 160.656 79.174C160.824 78.844 160.909 78.4737 160.909 78.063C160.909 77.645 160.824 77.271 160.656 76.941C160.487 76.611 160.245 76.3507 159.93 76.16C159.622 75.9693 159.251 75.874 158.819 75.874C158.393 75.874 158.023 75.9693 157.708 76.16C157.392 76.3507 157.15 76.611 156.982 76.941C156.813 77.271 156.729 77.645 156.729 78.063C156.729 78.4737 156.809 78.844 156.971 79.174C157.139 79.504 157.378 79.768 157.686 79.966C158.001 80.1567 158.379 80.252 158.819 80.252ZM166.549 83.2V75.126H167.385V77.667L167.187 77.645C167.224 77.0143 167.356 76.501 167.583 76.105C167.818 75.7017 168.122 75.4047 168.496 75.214C168.87 75.0233 169.277 74.928 169.717 74.928C170.142 74.928 170.527 75.0087 170.872 75.17C171.224 75.3313 171.525 75.5513 171.774 75.83C172.023 76.1087 172.214 76.4313 172.346 76.798C172.478 77.1647 172.544 77.5533 172.544 77.964V78.162C172.544 78.5727 172.474 78.9613 172.335 79.328C172.196 79.6947 171.998 80.0173 171.741 80.296C171.492 80.5747 171.191 80.7947 170.839 80.956C170.494 81.1173 170.113 81.198 169.695 81.198C169.277 81.198 168.877 81.1063 168.496 80.923C168.115 80.7397 167.799 80.4427 167.55 80.032C167.301 79.6213 167.158 79.0823 167.121 78.415L167.605 79.295V83.2H166.549ZM169.53 80.274C169.926 80.274 170.271 80.1823 170.564 79.999C170.857 79.8083 171.085 79.548 171.246 79.218C171.407 78.8807 171.488 78.4957 171.488 78.063C171.488 77.623 171.407 77.238 171.246 76.908C171.085 76.578 170.857 76.3213 170.564 76.138C170.271 75.9473 169.926 75.852 169.53 75.852C169.178 75.852 168.852 75.9327 168.551 76.094C168.25 76.248 168.008 76.4753 167.825 76.776C167.649 77.0693 167.561 77.425 167.561 77.843V78.349C167.561 78.7523 167.653 79.097 167.836 79.383C168.019 79.669 168.261 79.889 168.562 80.043C168.863 80.197 169.185 80.274 169.53 80.274ZM177.936 81V79.24H177.76V77.205C177.76 76.8017 177.654 76.4973 177.441 76.292C177.236 76.0867 176.931 75.984 176.528 75.984C176.301 75.984 176.066 75.9877 175.824 75.995C175.582 76.0023 175.351 76.0097 175.131 76.017C174.911 76.0243 174.72 76.0353 174.559 76.05V75.126C174.72 75.1113 174.889 75.1003 175.065 75.093C175.248 75.0783 175.435 75.071 175.626 75.071C175.817 75.0637 176 75.06 176.176 75.06C176.777 75.06 177.269 75.1333 177.65 75.28C178.031 75.4193 178.314 75.6503 178.497 75.973C178.68 76.2957 178.772 76.732 178.772 77.282V81H177.936ZM176.011 81.154C175.571 81.154 175.19 81.0807 174.867 80.934C174.552 80.78 174.306 80.56 174.13 80.274C173.961 79.988 173.877 79.6433 173.877 79.24C173.877 78.822 173.969 78.4737 174.152 78.195C174.343 77.9163 174.618 77.7073 174.977 77.568C175.336 77.4213 175.769 77.348 176.275 77.348H177.87V78.14H176.231C175.806 78.14 175.479 78.2427 175.252 78.448C175.025 78.6533 174.911 78.9173 174.911 79.24C174.911 79.5627 175.025 79.823 175.252 80.021C175.479 80.219 175.806 80.318 176.231 80.318C176.48 80.318 176.719 80.274 176.946 80.186C177.173 80.0907 177.36 79.9367 177.507 79.724C177.661 79.504 177.745 79.2033 177.76 78.822L178.046 79.24C178.009 79.658 177.907 80.01 177.738 80.296C177.577 80.5747 177.349 80.7873 177.056 80.934C176.77 81.0807 176.422 81.154 176.011 81.154ZM181.246 81V75.126H182.302V81H181.246ZM180.344 75.962V75.126H182.302V75.962H180.344ZM181.543 74.18C181.309 74.18 181.133 74.1177 181.015 73.993C180.905 73.8683 180.85 73.7107 180.85 73.52C180.85 73.3293 180.905 73.1717 181.015 73.047C181.133 72.9223 181.309 72.86 181.543 72.86C181.778 72.86 181.95 72.9223 182.06 73.047C182.178 73.1717 182.236 73.3293 182.236 73.52C182.236 73.7107 182.178 73.8683 182.06 73.993C181.95 74.1177 181.778 74.18 181.543 74.18ZM184.594 81V75.126H185.43V77.546H185.386C185.386 76.688 185.573 76.061 185.947 75.665C186.328 75.2617 186.897 75.06 187.652 75.06H187.85V76.006H187.476C186.889 76.006 186.438 76.1637 186.123 76.479C185.808 76.787 185.65 77.2343 185.65 77.821V81H184.594ZM192.109 81V75.126H192.945V77.645H192.813C192.813 77.073 192.886 76.589 193.033 76.193C193.187 75.7897 193.414 75.4817 193.715 75.269C194.015 75.0563 194.397 74.95 194.859 74.95H194.903C195.365 74.95 195.746 75.0563 196.047 75.269C196.355 75.4817 196.582 75.7897 196.729 76.193C196.875 76.589 196.949 77.073 196.949 77.645H196.641C196.641 77.073 196.718 76.589 196.872 76.193C197.026 75.7897 197.253 75.4817 197.554 75.269C197.862 75.0563 198.247 74.95 198.709 74.95H198.753C199.215 74.95 199.6 75.0563 199.908 75.269C200.216 75.4817 200.443 75.7897 200.59 76.193C200.744 76.589 200.821 77.073 200.821 77.645V81H199.765V77.414C199.765 76.9373 199.647 76.5707 199.413 76.314C199.178 76.05 198.852 75.918 198.434 75.918C198.001 75.918 197.653 76.0573 197.389 76.336C197.125 76.6073 196.993 76.9887 196.993 77.48V81H195.937V77.414C195.937 76.9373 195.819 76.5707 195.585 76.314C195.35 76.05 195.024 75.918 194.606 75.918C194.173 75.918 193.825 76.0573 193.561 76.336C193.297 76.6073 193.165 76.9887 193.165 77.48V81H192.109ZM206.557 81V79.24H206.381V77.205C206.381 76.8017 206.275 76.4973 206.062 76.292C205.857 76.0867 205.553 75.984 205.149 75.984C204.922 75.984 204.687 75.9877 204.445 75.995C204.203 76.0023 203.972 76.0097 203.752 76.017C203.532 76.0243 203.342 76.0353 203.18 76.05V75.126C203.342 75.1113 203.51 75.1003 203.686 75.093C203.87 75.0783 204.057 75.071 204.247 75.071C204.438 75.0637 204.621 75.06 204.797 75.06C205.399 75.06 205.89 75.1333 206.271 75.28C206.653 75.4193 206.935 75.6503 207.118 75.973C207.302 76.2957 207.393 76.732 207.393 77.282V81H206.557ZM204.632 81.154C204.192 81.154 203.811 81.0807 203.488 80.934C203.173 80.78 202.927 80.56 202.751 80.274C202.583 79.988 202.498 79.6433 202.498 79.24C202.498 78.822 202.59 78.4737 202.773 78.195C202.964 77.9163 203.239 77.7073 203.598 77.568C203.958 77.4213 204.39 77.348 204.896 77.348H206.491V78.14H204.852C204.427 78.14 204.101 78.2427 203.873 78.448C203.646 78.6533 203.532 78.9173 203.532 79.24C203.532 79.5627 203.646 79.823 203.873 80.021C204.101 80.219 204.427 80.318 204.852 80.318C205.102 80.318 205.34 80.274 205.567 80.186C205.795 80.0907 205.982 79.9367 206.128 79.724C206.282 79.504 206.367 79.2033 206.381 78.822L206.667 79.24C206.631 79.658 206.528 80.01 206.359 80.296C206.198 80.5747 205.971 80.7873 205.677 80.934C205.391 81.0807 205.043 81.154 204.632 81.154ZM209.581 81V75.126H210.417V77.546H210.373C210.373 76.688 210.56 76.061 210.934 75.665C211.316 75.2617 211.884 75.06 212.639 75.06H212.837V76.006H212.463C211.877 76.006 211.426 76.1637 211.11 76.479C210.795 76.787 210.637 77.2343 210.637 77.821V81H209.581ZM218.391 81L216.18 78.261H215.212L217.907 75.126H219.018L216.576 77.953L216.653 77.392L219.612 81H218.391ZM214.343 81V72.97H215.399V81H214.343ZM223.267 81.198C222.753 81.198 222.31 81.11 221.936 80.934C221.562 80.758 221.257 80.527 221.023 80.241C220.788 79.9477 220.612 79.6213 220.495 79.262C220.385 78.9027 220.33 78.536 220.33 78.162V77.964C220.33 77.5827 220.385 77.2123 220.495 76.853C220.612 76.4937 220.788 76.171 221.023 75.885C221.257 75.5917 221.554 75.3607 221.914 75.192C222.28 75.016 222.709 74.928 223.201 74.928C223.839 74.928 224.363 75.0673 224.774 75.346C225.192 75.6173 225.5 75.9693 225.698 76.402C225.903 76.8347 226.006 77.2967 226.006 77.788V78.261H220.792V77.469H225.236L224.994 77.898C224.994 77.48 224.928 77.1207 224.796 76.82C224.664 76.512 224.466 76.2737 224.202 76.105C223.938 75.9363 223.604 75.852 223.201 75.852C222.783 75.852 222.434 75.9473 222.156 76.138C221.884 76.3287 221.679 76.589 221.54 76.919C221.408 77.249 221.342 77.6303 221.342 78.063C221.342 78.481 221.408 78.8587 221.54 79.196C221.679 79.526 221.892 79.79 222.178 79.988C222.464 80.1787 222.827 80.274 223.267 80.274C223.729 80.274 224.103 80.1713 224.389 79.966C224.682 79.7607 224.858 79.5223 224.917 79.251H225.907C225.826 79.6543 225.665 80.0027 225.423 80.296C225.181 80.5893 224.876 80.813 224.51 80.967C224.143 81.121 223.729 81.198 223.267 81.198ZM230.043 81.066C229.603 81.066 229.222 81.0037 228.899 80.879C228.584 80.7543 228.338 80.5417 228.162 80.241C227.993 79.933 227.909 79.5187 227.909 78.998V73.344H228.921V79.13C228.921 79.4453 229.005 79.691 229.174 79.867C229.35 80.0357 229.596 80.12 229.911 80.12H230.945V81.066H230.043ZM226.897 75.918V75.126H230.945V75.918H226.897ZM232.48 81V79.658H233.756V81H232.48Z" fill="#4A4E50"/>
<defs>
<filter id="filter0_d_34_840" x="8" y="20" width="74" height="74" filterUnits="userSpaceOnUse" color-interpolation-filters="sRGB">
<feFlood flood-opacity="0" result="BackgroundImageFix"/>
<feColorMatrix in="SourceAlpha" type="matrix" values="0 0 0 0 0 0 0 0 0 0 0 0 0 0 0 0 0 0 127 0" result="hardAlpha"/>
<feOffset/>
<feGaussianBlur stdDeviation="2.5"/>
<feComposite in2="hardAlpha" operator="out"/>
<feColorMatrix type="matrix" values="0 0 0 0 0.278431 0 0 0 0 0.0196078 0 0 0 0 0.686275 0 0 0 0.08 0"/>
<feBlend mode="normal" in2="BackgroundImageFix" result="effect1_dropShadow_34_840"/>
<feBlend mode="normal" in="SourceGraphic" in2="effect1_dropShadow_34_840" result="shape"/>
</filter>
</defs>
</svg>
