<svg width="24" height="19" viewBox="0 0 24 19" fill="none" xmlns="http://www.w3.org/2000/svg">
<path d="M23.25 17.4999C23.25 17.6988 23.171 17.8895 23.0303 18.0302C22.8897 18.1708 22.6989 18.2499 22.5 18.2499H1.5C1.30109 18.2499 1.11032 18.1708 0.96967 18.0302C0.829018 17.8895 0.75 17.6988 0.75 17.4999C0.75 17.301 0.829018 17.1102 0.96967 16.9695C1.11032 16.8289 1.30109 16.7499 1.5 16.7499H22.5C22.6989 16.7499 22.8897 16.8289 23.0303 16.9695C23.171 17.1102 23.25 17.301 23.25 17.4999ZM1.52812 7.20611C1.48343 7.04893 1.49129 6.88145 1.55052 6.72915C1.60975 6.57684 1.7171 6.44805 1.85625 6.36236L11.6063 0.362364C11.7242 0.288307 11.8607 0.249023 12 0.249023C12.1393 0.249023 12.2758 0.288307 12.3937 0.362364L22.1437 6.36236C22.2823 6.44822 22.3891 6.57687 22.448 6.72884C22.5069 6.88081 22.5147 7.04783 22.4702 7.20462C22.4257 7.36141 22.3313 7.49944 22.2014 7.59782C22.0714 7.6962 21.913 7.74957 21.75 7.74986H19.5V13.7499H21C21.1989 13.7499 21.3897 13.8289 21.5303 13.9695C21.671 14.1102 21.75 14.301 21.75 14.4999C21.75 14.6988 21.671 14.8895 21.5303 15.0302C21.3897 15.1708 21.1989 15.2499 21 15.2499H3C2.80109 15.2499 2.61032 15.1708 2.46967 15.0302C2.32902 14.8895 2.25 14.6988 2.25 14.4999C2.25 14.301 2.32902 14.1102 2.46967 13.9695C2.61032 13.8289 2.80109 13.7499 3 13.7499H4.5V7.74986H2.25C2.08692 7.75004 1.92823 7.69705 1.79796 7.59893C1.6677 7.50081 1.57297 7.36291 1.52812 7.20611ZM13.5 12.9999C13.5 13.1988 13.579 13.3895 13.7197 13.5302C13.8603 13.6708 14.0511 13.7499 14.25 13.7499C14.4489 13.7499 14.6397 13.6708 14.7803 13.5302C14.921 13.3895 15 13.1988 15 12.9999V8.49986C15 8.30095 14.921 8.11019 14.7803 7.96953C14.6397 7.82888 14.4489 7.74986 14.25 7.74986C14.0511 7.74986 13.8603 7.82888 13.7197 7.96953C13.579 8.11019 13.5 8.30095 13.5 8.49986V12.9999ZM9 12.9999C9 13.1988 9.07902 13.3895 9.21967 13.5302C9.36032 13.6708 9.55109 13.7499 9.75 13.7499C9.94891 13.7499 10.1397 13.6708 10.2803 13.5302C10.421 13.3895 10.5 13.1988 10.5 12.9999V8.49986C10.5 8.30095 10.421 8.11019 10.2803 7.96953C10.1397 7.82888 9.94891 7.74986 9.75 7.74986C9.55109 7.74986 9.36032 7.82888 9.21967 7.96953C9.07902 8.11019 9 8.30095 9 8.49986V12.9999Z" fill="#12BD89"/>
</svg>
