<svg width="16" height="16" viewBox="0 0 16 16" fill="none" xmlns="http://www.w3.org/2000/svg">
<path fill-rule="evenodd" clip-rule="evenodd" d="M2.66663 3.33331C2.66663 2.80288 2.87734 2.29417 3.25241 1.9191C3.62749 1.54403 4.13619 1.33331 4.66663 1.33331H11.3333C11.8637 1.33331 12.3724 1.54403 12.7475 1.9191C13.1226 2.29417 13.3333 2.80288 13.3333 3.33331V14C13.3332 14.1255 13.2977 14.2485 13.2308 14.3548C13.1639 14.461 13.0683 14.5462 12.9551 14.6006C12.8419 14.6549 12.7157 14.6762 12.5909 14.6619C12.4662 14.6477 12.348 14.5985 12.25 14.52L11 13.52L9.74996 14.52C9.6219 14.6226 9.4605 14.6743 9.29666 14.6654C9.13282 14.6564 8.97804 14.5873 8.86196 14.4713L7.99996 13.6093L7.13796 14.4713C7.02196 14.5874 6.86723 14.6566 6.70339 14.6657C6.53954 14.6748 6.3781 14.6232 6.24996 14.5206L4.99996 13.52L3.74996 14.52C3.65194 14.5985 3.53375 14.6477 3.409 14.6619C3.28425 14.6762 3.158 14.6549 3.04481 14.6006C2.93161 14.5462 2.83605 14.461 2.76915 14.3548C2.70224 14.2485 2.6667 14.1255 2.66663 14V3.33331ZM4.66663 2.66665C4.48981 2.66665 4.32025 2.73688 4.19522 2.86191C4.0702 2.98693 3.99996 3.1565 3.99996 3.33331V12.6133L4.58329 12.1466C4.70153 12.052 4.84849 12.0004 4.99996 12.0004C5.15143 12.0004 5.29838 12.052 5.41663 12.1466L6.61663 13.1066L7.52863 12.1953C7.65364 12.0703 7.82318 12.0001 7.99996 12.0001C8.17674 12.0001 8.34627 12.0703 8.47129 12.1953L9.38263 13.1066L10.5833 12.1466C10.7015 12.052 10.8485 12.0004 11 12.0004C11.1514 12.0004 11.2984 12.052 11.4166 12.1466L12 12.6133V3.33331C12 3.1565 11.9297 2.98693 11.8047 2.86191C11.6797 2.73688 11.5101 2.66665 11.3333 2.66665H4.66663ZM5.33329 5.99998C5.33329 5.82317 5.40353 5.6536 5.52855 5.52857C5.65358 5.40355 5.82315 5.33331 5.99996 5.33331H9.99996C10.1768 5.33331 10.3463 5.40355 10.4714 5.52857C10.5964 5.6536 10.6666 5.82317 10.6666 5.99998C10.6666 6.17679 10.5964 6.34636 10.4714 6.47138C10.3463 6.59641 10.1768 6.66665 9.99996 6.66665H5.99996C5.82315 6.66665 5.65358 6.59641 5.52855 6.47138C5.40353 6.34636 5.33329 6.17679 5.33329 5.99998ZM5.99996 7.99998C5.82315 7.99998 5.65358 8.07022 5.52855 8.19524C5.40353 8.32027 5.33329 8.48983 5.33329 8.66665C5.33329 8.84346 5.40353 9.01303 5.52855 9.13805C5.65358 9.26307 5.82315 9.33331 5.99996 9.33331H7.99996C8.17677 9.33331 8.34634 9.26307 8.47136 9.13805C8.59639 9.01303 8.66663 8.84346 8.66663 8.66665C8.66663 8.48983 8.59639 8.32027 8.47136 8.19524C8.34634 8.07022 8.17677 7.99998 7.99996 7.99998H5.99996Z" fill="white"/>
</svg>
