<svg width="530" height="203" viewBox="0 0 530 203" fill="none" xmlns="http://www.w3.org/2000/svg">
<g clip-path="url(#clip0_266_841)">
<path fill-rule="evenodd" clip-rule="evenodd" d="M20.0121 0H509.988C520.994 0 530 11.7273 530 26.0619V176.938C530 191.273 520.994 203 509.988 203H20.0121C9.00564 203 0 191.273 0 176.938V26.0619C0 11.7273 9.00564 0 20.0121 0V0Z" fill="#4705AF"/>
<path fill-rule="evenodd" clip-rule="evenodd" d="M1.00925 102.159C110.133 102.159 198.594 217.361 198.594 359.469C198.594 501.579 110.133 616.78 1.00925 616.78C-108.114 616.78 -196.575 501.579 -196.575 359.469C-196.575 217.361 -108.114 102.159 1.00925 102.159Z" fill="white" fill-opacity="0.101961"/>
<path fill-rule="evenodd" clip-rule="evenodd" d="M473.441 -413.919C582.564 -413.919 671.026 -298.718 671.026 -156.609C671.026 -14.4992 582.564 100.702 473.441 100.702C364.318 100.702 275.856 -14.4992 275.856 -156.609C275.856 -298.718 364.318 -413.919 473.441 -413.919Z" fill="white" fill-opacity="0.101961"/>
<path fill-rule="evenodd" clip-rule="evenodd" d="M667.799 18.3379C776.923 18.3379 865.384 133.541 865.384 275.649C865.384 417.758 776.923 532.96 667.799 532.96C558.676 532.96 470.215 417.757 470.215 275.649C470.215 133.54 558.676 18.3379 667.799 18.3379Z" fill="white" fill-opacity="0.101961"/>
</g>
<defs>
<clipPath id="clip0_266_841">
<rect width="530" height="203" fill="white"/>
</clipPath>
</defs>
</svg>
