<svg width="64" height="25" viewBox="0 0 64 25" fill="none" xmlns="http://www.w3.org/2000/svg">
<g clip-path="url(#clip0_662_1364)">
<path fill-rule="evenodd" clip-rule="evenodd" d="M9.49114 5.28161C10.8122 5.28161 12.0722 5.55532 13.2177 6.04855C13.8015 5.43659 14.1601 4.60778 14.1601 3.69531C14.1601 3.66036 14.1593 3.62542 14.1583 3.5907H16.8045C16.8037 5.03396 16.2889 6.35675 15.4331 7.38616C15.887 7.75257 16.3067 8.15982 16.6867 8.60205C17.8003 9.68262 18.4925 11.1951 18.4925 12.8694C18.4925 16.1534 15.8304 18.8155 12.5464 18.8155C9.26238 18.8155 6.60032 16.1534 6.60032 12.8694C6.60032 11.7778 6.89451 10.7549 7.40765 9.87577C7.8766 9.07279 8.49221 8.41867 9.21355 7.93172C5.57502 8.0786 2.64394 11.0996 2.64394 14.7727V14.7729C2.64394 18.5386 5.72512 21.6198 9.49102 21.6198H12.9146H16.3382H18.9822V24.2637H9.49114C4.27085 24.2637 0 19.9929 0 14.7727C0 9.55242 4.27085 5.28161 9.49114 5.28161ZM15.4814 0C14.7536 0 14.1583 0.595283 14.1583 1.32306C14.1583 2.05083 14.7536 2.64612 15.4814 2.64612C16.2092 2.64612 16.8045 2.05083 16.8045 1.32306C16.8045 0.595283 16.2092 0 15.4814 0ZM12.4387 9.56758C14.3217 9.56758 15.8482 11.0941 15.8482 12.9771C15.8482 14.8601 14.3217 16.3866 12.4387 16.3866C10.5556 16.3866 9.02912 14.8601 9.02912 12.9771C9.02912 11.0941 10.5556 9.56758 12.4387 9.56758Z" fill="white"/>
<path d="M27.699 20.5218C26.7858 20.5218 26.0074 20.362 25.3636 20.0424C24.7198 19.7228 24.1947 19.3073 23.7883 18.796C23.382 18.2846 23.0829 17.7299 22.8912 17.1317C22.6994 16.5336 22.6035 15.9514 22.6035 15.3853V15.084C22.6035 14.4721 22.7017 13.8626 22.898 13.2553C23.0943 12.6481 23.398 12.0979 23.8089 11.6048C24.2198 11.1117 24.7403 10.7167 25.3704 10.42C26.0005 10.1232 26.7539 9.9748 27.6305 9.9748C28.5254 9.9748 29.3107 10.1392 29.9865 10.4679C30.6622 10.7967 31.201 11.2532 31.6028 11.8376C32.0046 12.4221 32.2465 13.1069 32.3287 13.8923H30.37C30.2604 13.2074 29.9568 12.6846 29.4591 12.3239C28.9614 11.9632 28.3519 11.7829 27.6305 11.7829C26.9639 11.7829 26.4046 11.9313 25.9525 12.228C25.5005 12.5248 25.1581 12.9335 24.9252 13.454C24.6924 13.9745 24.576 14.5726 24.576 15.2483C24.576 15.9058 24.6947 16.4948 24.9321 17.0153C25.1695 17.5358 25.5211 17.949 25.9868 18.2549C26.4525 18.5608 27.0232 18.7138 27.699 18.7138C28.4478 18.7138 29.0801 18.5289 29.5961 18.159C30.112 17.7892 30.4248 17.271 30.5343 16.6044H32.4931C32.4018 17.3258 32.1575 17.9832 31.7603 18.5768C31.363 19.1704 30.8243 19.6429 30.144 19.9945C29.4637 20.3461 28.6487 20.5218 27.699 20.5218ZM35.8469 20.4533C35.025 20.4533 34.3698 20.2433 33.8813 19.8233C33.3927 19.4032 33.1485 18.8142 33.1485 18.0563C33.1485 17.2436 33.443 16.6432 34.0319 16.2551C34.6209 15.867 35.4131 15.6729 36.4084 15.6729H37.9288V15.6045C37.9288 14.7552 37.4997 14.3306 36.6413 14.3306C36.413 14.3306 36.1391 14.3352 35.8194 14.3443C35.4998 14.3534 35.178 14.3648 34.8538 14.3785C34.5296 14.3922 34.2397 14.4082 33.984 14.4265V12.8102C34.2945 12.7828 34.6666 12.76 35.1004 12.7417C35.5341 12.7234 35.9336 12.7143 36.2989 12.7143C37.4403 12.7143 38.301 12.9449 38.8808 13.406C39.4607 13.8672 39.7506 14.6137 39.7506 15.6455V20.2616H38.2439V18.8371C37.906 19.9146 37.107 20.4533 35.8469 20.4533ZM36.3811 19.0973C36.6367 19.0973 36.8787 19.0494 37.107 18.9535C37.3353 18.8576 37.5248 18.6933 37.6755 18.4604C37.8261 18.2275 37.9106 17.9102 37.9288 17.5084V16.8098H36.3811C35.9427 16.8098 35.6071 16.9171 35.3743 17.1317C35.1414 17.3463 35.025 17.6225 35.025 17.9604C35.025 18.3074 35.1414 18.5836 35.3743 18.7891C35.6071 18.9946 35.9427 19.0973 36.3811 19.0973ZM41.5429 20.2616V12.8239H43.0496V15.2483C43.2505 13.5681 44.1363 12.728 45.7069 12.728H45.9808V14.3854H45.4603C44.812 14.3854 44.3143 14.5589 43.9673 14.9059C43.6203 15.2529 43.4468 15.746 43.4468 16.3852V20.2616H41.5429ZM50.0332 20.5082C49.3392 20.5082 48.7228 20.3415 48.1841 20.0082C47.6453 19.6749 47.2229 19.2206 46.917 18.6453C46.6111 18.07 46.4582 17.4217 46.4582 16.7002V16.4126C46.4582 15.7004 46.6043 15.0565 46.8965 14.4813C47.1887 13.906 47.5973 13.4471 48.1224 13.1047C48.6475 12.7623 49.2661 12.591 49.9784 12.591C50.5081 12.591 50.9852 12.6983 51.4098 12.9129C51.8344 13.1275 52.1837 13.4494 52.4577 13.8786V10.2624H54.3616V20.2616H52.8549V18.7001C52.5992 19.3028 52.2225 19.7548 51.7248 20.0561C51.2271 20.3575 50.6633 20.5082 50.0332 20.5082ZM50.4578 18.9055C50.8322 18.9055 51.1746 18.8211 51.4851 18.6521C51.7956 18.4832 52.0444 18.2389 52.2316 17.9193C52.4188 17.5997 52.5124 17.2162 52.5124 16.7687V16.2209C52.5124 15.7917 52.4143 15.4264 52.2179 15.125C52.0216 14.8237 51.7682 14.5931 51.4577 14.4333C51.1472 14.2735 50.814 14.1936 50.4578 14.1936C49.8369 14.1936 49.3323 14.4105 48.9443 14.8442C48.5562 15.278 48.3621 15.851 48.3621 16.5633C48.3621 17.2756 48.5584 17.844 48.9511 18.2686C49.3437 18.6933 49.846 18.9055 50.4578 18.9055ZM56.2771 20.2616V12.8239H57.7839V15.2483C57.9847 13.5681 58.8705 12.728 60.4412 12.728H60.7151V14.3854H60.1946C59.5462 14.3854 59.0486 14.5589 58.7016 14.9059C58.3546 15.2529 58.1811 15.746 58.1811 16.3852V20.2616H56.2771ZM62.795 11.9336C62.4206 11.9336 62.1444 11.8354 61.9663 11.6391C61.7882 11.4427 61.6992 11.1939 61.6992 10.8926C61.6992 10.5912 61.7882 10.3446 61.9663 10.1529C62.1444 9.96111 62.4206 9.86523 62.795 9.86523C63.1603 9.86523 63.4319 9.96111 63.61 10.1529C63.788 10.3446 63.8771 10.5912 63.8771 10.8926C63.8771 11.1939 63.788 11.4427 63.61 11.6391C63.4319 11.8354 63.1603 11.9336 62.795 11.9336ZM62.0964 20.2616V14.2484H61.0554V12.8239H64.0004V20.2616H62.0964Z" fill="white"/>
</g>
<defs>
<clipPath id="clip0_662_1364">
<rect width="64" height="24.2638" fill="white"/>
</clipPath>
</defs>
</svg>
