<svg width="400" height="400" viewBox="0 0 400 400" fill="none" xmlns="http://www.w3.org/2000/svg">
<rect width="400" height="400" rx="200" fill="url(#paint0_linear_182_2446)"/>
<path opacity="0.4" d="M20 232.633C20 211.139 20 200.392 21.6217 191.429C29.1598 149.767 61.7665 117.16 103.429 109.622C112.392 108 123.139 108 144.633 108L289.709 108C339.133 108 379.2 148.067 379.2 197.492C379.2 250.129 336.529 292.8 283.892 292.8H80.1674C69.791 292.8 64.6028 292.8 60.2759 292.017C40.1632 288.378 24.422 272.637 20.7829 252.524C20 248.197 20 243.009 20 232.633Z" fill="url(#paint1_linear_182_2446)"/>
<defs>
<linearGradient id="paint0_linear_182_2446" x1="200" y1="131.559" x2="148.652" y2="874.779" gradientUnits="userSpaceOnUse">
<stop stop-color="#4705AF"/>
<stop offset="0.973753" stop-color="#A382D7"/>
</linearGradient>
<linearGradient id="paint1_linear_182_2446" x1="185.232" y1="259.572" x2="193.412" y2="61.8811" gradientUnits="userSpaceOnUse">
<stop stop-color="#4705AF"/>
<stop offset="0.973753" stop-color="#A382D7"/>
</linearGradient>
</defs>
</svg>
