<svg width="430" height="462" viewBox="0 0 430 462" fill="none" xmlns="http://www.w3.org/2000/svg">
<rect width="462" height="462" rx="231" fill="url(#paint0_linear_182_2464)"/>
<path opacity="0.4" d="M23.1 268.691C23.1 229.176 23.1 209.418 28.5268 193.496C38.6783 163.711 62.0706 140.318 91.8557 130.167C107.778 124.74 127.536 124.74 167.051 124.74H334.613C337.735 124.74 339.297 124.74 340.617 124.775C393.775 126.179 436.537 168.941 437.941 222.099C437.976 223.419 437.976 224.98 437.976 228.103V228.103C437.976 231.428 437.976 233.09 437.939 234.496C436.443 291.11 390.902 336.651 334.288 338.147C332.882 338.184 331.22 338.184 327.895 338.184H92.5933C73.5172 338.184 63.9791 338.184 56.2924 335.564C41.9134 330.663 30.6206 319.371 25.7198 304.992C23.1 297.305 23.1 287.767 23.1 268.691V268.691Z" fill="url(#paint1_linear_182_2464)"/>
<defs>
<linearGradient id="paint0_linear_182_2464" x1="231" y1="151.951" x2="171.693" y2="1010.37" gradientUnits="userSpaceOnUse">
<stop stop-color="#4705AF"/>
<stop offset="0.973753" stop-color="#A382D7"/>
</linearGradient>
<linearGradient id="paint1_linear_182_2464" x1="213.943" y1="299.806" x2="223.39" y2="71.4727" gradientUnits="userSpaceOnUse">
<stop stop-color="#4705AF"/>
<stop offset="0.973753" stop-color="#A382D7"/>
</linearGradient>
</defs>
</svg>
