<svg width="1366" height="888" viewBox="0 0 1366 888" fill="none" xmlns="http://www.w3.org/2000/svg">
<path d="M697.653 -7.52231H799.06C800.808 -6.29786 801.391 -5.07342 801.974 -3.84898C803.723 1.04879 805.471 5.94656 807.219 10.8443C812.465 26.1499 818.292 42.6798 822.372 58.5976C824.703 68.3931 827.035 78.1886 829.366 87.372C831.114 94.1064 832.28 100.229 834.028 106.963C838.691 127.166 846.85 143.084 859.671 157.165C863.168 160.838 866.665 164.512 870.162 168.797C875.99 174.92 881.818 181.042 887.063 187.164C902.799 207.367 911.54 231.856 914.454 263.079L915.037 269.814C916.203 285.732 917.951 302.262 920.865 318.179C927.276 354.3 931.938 391.646 934.27 432.665C934.852 443.685 936.601 457.766 941.263 471.235C947.674 488.377 958.747 499.397 973.9 502.458C977.98 503.07 981.477 503.682 985.556 503.682C997.795 503.682 1009.45 499.397 1020.52 490.213C1036.26 477.969 1047.33 459.602 1055.49 435.114C1062.49 414.298 1063.07 392.258 1063.65 373.279C1064.23 358.586 1064.82 343.28 1067.15 327.975C1072.39 294.915 1086.96 267.365 1110.28 247.162C1119.02 239.203 1128.92 232.468 1138.25 225.734L1144.66 220.836C1184.29 192.062 1179.05 142.472 1174.97 122.881C1173.8 117.371 1170.89 113.085 1167.97 108.8C1159.81 97.7797 1148.16 94.7186 1137.67 93.4942C1129.51 92.2697 1120.77 92.2697 1114.94 92.2697C1111.44 92.2697 1108.53 92.2697 1105.03 92.2697C1101.53 92.2697 1098.62 92.2697 1095.12 92.2697C1093.37 92.2697 1091.63 92.2697 1089.88 92.2697C1080.55 92.2697 1072.98 91.0453 1065.4 89.2086C1034.51 80.6375 1007.7 62.2709 983.225 32.8843C975.649 23.701 969.238 11.4565 963.41 -3.84898C962.244 -6.29786 962.244 -7.52231 962.827 -8.13453H1010.62C1012.36 -6.91009 1013.53 -5.07342 1014.7 -2.62454C1022.27 12.681 1030.43 24.3132 1039.76 32.8843C1058.41 49.4143 1080.55 57.3731 1108.53 57.3731C1113.19 57.3731 1118.43 57.3731 1123.68 56.7609C1138.25 55.5365 1153.4 54.312 1168.56 52.4754C1178.46 51.2509 1188.37 50.0265 1198.28 47.5776C1207.02 45.1287 1212.27 39.6187 1215.76 30.4354C1218.68 22.4765 1220.42 13.2932 1222.17 1.66101V-0.175654C1222.17 -3.23676 1222.76 -5.68564 1224.5 -7.52231H1269.38C1271.13 -6.29786 1272.29 -4.4612 1273.46 -2.62454C1280.45 7.78322 1288.03 14.5177 1296.77 18.8032C1304.93 22.4765 1313.67 24.9254 1321.83 27.3743H1322.41C1325.33 27.9865 1327.66 28.5987 1330.57 29.8232C1341.06 32.8843 1352.14 35.9454 1362.63 40.8432C1377.78 48.1898 1387.11 56.1487 1392.93 67.7809C1403.42 87.372 1406.92 109.412 1404.01 132.064C1399.34 166.348 1384.19 190.837 1357.97 206.143C1335.82 219 1313.09 226.346 1295.02 231.856C1291.53 233.081 1288.03 233.693 1285.12 234.917C1273.46 237.978 1261.8 241.652 1250.73 247.162C1230.91 256.345 1218.68 272.875 1214.6 296.139C1212.27 307.159 1212.27 318.792 1212.27 329.812V335.934C1212.27 346.341 1214.01 357.361 1216.93 370.218C1225.67 403.89 1244.9 431.44 1275.79 453.48C1292.69 465.112 1310.18 474.296 1328.24 483.479C1332.32 485.928 1336.98 487.765 1341.06 490.213C1357.38 498.785 1374.28 508.58 1390.6 520.825C1398.18 526.335 1405.75 533.069 1410.42 542.252V656.738C1409.83 656.738 1408.67 655.513 1408.09 654.901C1407.5 654.289 1406.92 653.676 1406.34 653.676C1393.52 641.432 1383.03 631.637 1373.7 622.453C1355.63 604.087 1339.9 583.271 1321.25 558.782C1304.93 537.354 1291.53 521.437 1277.54 507.356C1274.04 504.295 1270.55 500.621 1267.63 497.56C1255.39 485.928 1243.15 473.071 1231.5 460.215C1219.84 446.746 1209.35 430.828 1200.61 411.849C1188.95 387.36 1183.71 360.423 1179.63 337.158L1177.88 334.097C1176.13 321.853 1173.8 309.608 1169.72 297.976C1165.64 287.568 1158.06 281.446 1148.74 281.446C1146.99 281.446 1144.66 281.446 1142.91 282.058C1138.25 283.283 1133.59 285.119 1128.34 288.18C1112.61 297.364 1105.61 313.282 1100.95 327.975C1095.12 345.117 1093.96 362.871 1092.21 380.626L1091.63 388.585C1089.29 421.645 1079.97 452.868 1064.82 480.418C1053.16 501.233 1038.59 517.763 1021.69 528.783C1006.54 538.579 989.636 543.477 970.403 543.477C961.661 543.477 954.085 542.864 944.76 541.028C927.276 537.967 915.62 527.559 910.375 509.805C907.461 499.397 906.878 488.377 906.295 479.193C905.713 470.01 905.712 460.827 905.13 451.644C905.13 441.236 904.547 430.828 903.964 420.42C902.798 398.38 898.719 376.953 891.725 356.137C884.732 335.322 875.407 313.894 862.585 287.568C850.347 263.079 835.777 245.937 817.127 236.142C807.802 231.244 799.643 227.571 792.066 227.571C782.159 227.571 774 233.693 765.258 248.386C751.27 271.038 736.7 290.629 721.548 308.996C707.56 325.526 691.825 341.444 668.513 361.035C648.698 377.565 635.293 394.095 625.968 413.074C624.22 418.584 621.306 424.094 618.975 430.216C615.478 437.562 611.981 445.521 607.902 453.48C593.332 481.642 574.682 499.397 550.787 507.968C543.794 510.417 536.217 512.253 528.641 514.702C518.15 517.763 507.66 521.437 497.17 525.722C462.784 539.191 441.221 561.231 430.73 593.679C423.737 615.107 421.988 633.473 424.902 651.228C427.816 667.145 434.227 682.451 445.3 695.92C466.864 723.47 484.931 750.407 500.666 778.57C506.494 788.365 511.157 796.324 516.402 803.058C527.475 816.527 539.131 823.262 553.118 823.262H554.867C574.682 822.649 592.749 813.466 611.398 794.487C625.968 780.406 634.71 761.427 643.452 743.061L644.035 741.836C656.857 714.899 672.592 692.246 691.242 674.492C709.892 656.738 728.541 638.983 747.191 621.229C757.681 611.433 768.172 601.638 778.662 591.23C800.226 571.027 821.789 561.231 845.101 561.231C846.85 561.231 848.598 561.231 850.347 561.231C866.665 562.456 877.738 567.353 886.48 578.373C892.308 585.72 896.971 593.679 901.633 603.474C903.964 608.984 906.295 613.882 908.626 618.78C916.203 636.534 924.945 654.289 934.853 670.819C945.926 689.185 957.582 701.43 970.986 710.001C982.642 717.347 994.298 721.021 1005.37 721.021C1012.95 721.021 1019.94 719.184 1027.52 716.123C1035.09 713.062 1041.5 709.389 1047.33 705.715C1051.41 703.266 1054.91 700.817 1058.99 698.369C1068.31 692.246 1078.22 685.512 1088.71 680.002C1103.86 672.043 1119.02 668.37 1134.75 668.37C1141.16 668.37 1148.16 668.982 1155.15 670.819C1184.87 676.941 1205.85 700.818 1211.1 734.49C1213.43 746.734 1213.43 760.815 1211.1 777.345C1208.19 805.507 1191.28 825.711 1166.81 831.833C1152.82 834.894 1138.83 835.506 1124.85 836.118C1118.43 836.118 1112.02 836.731 1106.2 837.343C1102.7 837.343 1099.2 837.343 1095.71 837.343C1090.46 837.343 1084.63 837.343 1078.8 838.567C1053.16 842.241 1033.93 854.485 1020.52 874.688C1015.86 882.035 1011.78 889.994 1007.7 900.402C1006.54 902.85 1005.37 904.687 1003.62 905.912H942.429C941.846 904.687 941.263 904.075 941.263 903.463C941.263 901.014 940.681 898.565 940.681 896.116C940.681 893.667 940.098 891.218 940.098 888.157C940.098 869.791 940.681 847.751 944.76 826.323C947.091 812.854 944.76 799.997 937.766 787.141C931.356 774.284 924.945 760.203 918.534 742.449C916.203 736.326 913.872 729.592 911.541 723.47C905.13 705.715 898.136 687.349 889.977 670.206C881.818 653.064 874.241 640.82 865.499 631.024C855.009 619.392 842.77 613.27 828.783 613.27C828.2 613.27 827.035 613.27 826.452 613.27C814.213 613.882 802.557 618.168 790.901 626.127C774.582 637.147 759.43 650.003 744.277 662.248L734.369 670.206C719.799 681.839 706.395 695.92 694.156 711.225C680.169 728.98 671.427 750.407 663.85 770.611C651.612 802.446 634.711 831.221 610.816 859.383C601.491 870.403 591.583 883.872 587.504 902.238C586.921 904.687 586.338 905.912 584.59 907.136H514.654C513.488 905.912 512.322 904.687 511.74 902.85C506.494 887.545 497.17 874.688 483.182 863.668L477.354 858.771C465.116 848.975 452.294 838.567 441.221 826.935C424.32 809.181 409.167 789.59 394.597 766.325C381.775 745.51 367.205 729.592 350.304 716.123C342.728 710.001 335.151 702.654 326.409 692.859C312.422 677.553 299.018 660.411 286.196 643.881C282.116 638.371 278.037 633.473 273.957 627.963C262.301 612.658 253.559 599.189 247.148 585.108C231.996 550.211 228.499 512.866 226.75 481.03C226.168 459.602 228.499 436.95 234.91 410.012C238.989 392.87 242.486 373.891 241.903 354.3C240.738 324.914 233.744 297.976 220.34 274.099C206.935 251.447 186.537 239.815 160.311 239.815C159.146 239.815 157.98 239.815 156.232 239.815C139.33 240.427 122.429 245.325 105.528 255.121C91.5408 262.467 78.7192 272.263 64.1492 283.895C35.0092 307.772 1.78961 323.077 -36.6752 330.424C-37.258 330.424 -37.8408 330.424 -38.4236 331.036C-39.5892 331.036 -40.7548 331.648 -41.3376 331.648C-41.9204 331.648 -42.5032 331.648 -43.086 331.036V267.365C-41.9204 266.753 -41.3376 266.141 -40.7548 266.141C-37.258 266.141 -34.344 265.528 -32.0128 265.528C-29.6816 265.528 -27.3504 264.916 -25.602 264.916C-12.7804 264.304 -0.541593 262.467 10.5316 258.794C25.1016 254.508 39.0888 247.162 52.4932 240.427C57.1556 237.978 61.2352 236.142 65.3148 233.693C96.2032 218.387 125.343 211.041 154.483 211.041C162.642 211.041 170.802 211.653 178.961 212.877C204.604 216.551 224.419 230.632 237.824 256.345C249.48 277.161 257.639 302.262 264.05 334.709C268.129 354.3 268.712 372.055 266.381 388.585C265.215 400.217 262.884 411.237 260.553 422.257C259.387 426.542 258.804 430.216 257.639 434.501C251.811 460.827 250.645 484.703 253.559 508.58C259.97 557.558 282.116 594.903 319.998 618.168C329.906 624.29 339.231 627.351 347.39 627.351C360.212 627.351 371.285 620.004 381.775 605.923C389.352 596.128 395.18 585.108 401.008 574.7C403.339 571.027 405.67 566.741 407.418 563.068C423.154 536.13 445.3 515.315 472.692 501.233C484.348 495.723 496.004 490.826 507.077 485.928C514.071 482.867 520.482 480.418 527.475 477.357C559.529 462.664 577.013 438.787 582.258 403.278C584.59 386.748 585.755 369.606 585.172 352.464C585.172 346.341 585.755 339.607 587.504 333.485C590.418 321.24 597.411 314.506 608.484 312.669C613.147 311.445 618.392 311.445 623.054 311.445H625.386H627.717H629.465C648.698 311.445 666.764 302.262 679.586 286.344C693.573 268.589 699.984 245.325 696.487 222.061C692.408 193.898 682.5 168.185 673.175 145.533C671.427 141.247 669.678 136.962 667.93 132.676C662.102 117.983 655.691 103.29 651.612 87.372C645.201 64.7198 646.949 46.9654 657.44 31.0476C663.268 21.8643 670.844 14.5177 677.838 7.78322C679.586 5.94656 681.917 4.10989 683.666 2.27323C688.328 -1.4001 692.408 -5.68564 697.653 -7.52231ZM697.653 -9.97119C688.911 -7.52231 683.666 1.04879 677.255 6.55878C669.678 13.2932 662.102 20.6399 656.274 29.8232C644.618 48.1898 644.618 67.7809 650.446 87.9842C656.274 108.187 664.433 126.554 672.01 146.145C681.334 170.634 691.242 195.735 694.739 222.673C701.15 267.977 670.261 308.996 630.048 308.996C629.465 308.996 628.882 308.996 628.3 308.996C626.551 308.996 624.803 308.996 623.054 308.996C617.809 308.996 613.147 308.996 608.484 310.22C596.246 312.669 589.252 320.016 585.755 332.873C584.007 338.995 583.424 345.729 583.424 352.464C583.424 369.606 582.841 386.136 580.51 403.278C575.265 439.399 556.615 462.051 526.892 475.52C508.243 483.479 489.593 490.213 472.109 499.397C444.718 512.866 422.571 533.681 405.67 561.843C397.511 575.924 389.352 591.23 380.027 604.699C370.119 618.78 359.629 625.514 347.973 625.514C339.814 625.514 331.072 622.453 321.747 616.943C283.865 593.067 262.301 556.333 255.89 508.58C252.976 483.479 254.725 459.602 259.97 435.114C263.467 419.808 266.964 404.502 269.295 389.197C271.626 370.83 270.46 352.464 266.964 334.709C261.136 306.547 254.142 279.609 240.738 255.121C226.75 230.019 206.352 214.714 180.126 211.041C171.384 209.816 163.225 209.204 155.066 209.204C124.178 209.204 93.872 217.775 64.732 231.856C46.6652 240.427 29.1812 250.835 9.9488 256.345C-1.7072 260.018 -13.946 261.855 -25.602 262.467C-30.8472 262.467 -35.5096 263.692 -40.7548 263.692C-40.7548 263.692 -40.7548 263.692 -41.3376 263.692C-43.086 263.692 -44.8344 264.916 -46 266.141C-46 288.181 -46 310.22 -46 332.26C-44.8344 333.485 -43.086 334.097 -41.9204 334.097C-40.172 334.097 -38.4236 333.485 -36.6752 332.873C0.624004 325.526 35.0092 310.833 65.8976 285.732C78.7192 275.324 92.1236 264.916 106.694 256.957C122.429 248.386 139.33 242.264 156.814 241.652C157.98 241.652 159.146 241.652 160.894 241.652C184.789 241.652 204.604 251.447 218.591 275.324C231.996 299.2 238.989 326.138 239.572 354.3C240.155 373.279 236.658 391.034 232.578 408.788C226.75 432.665 223.254 456.541 224.419 481.03C226.168 517.151 230.247 552.66 245.4 585.108C252.394 601.025 262.301 615.107 272.209 628.575C289.693 650.615 306.011 673.268 324.661 693.471C332.237 702.042 340.396 710.001 349.138 716.735C366.622 730.204 380.61 746.734 392.848 766.325C406.836 788.365 421.988 808.568 440.055 827.547C452.877 841.016 467.447 852.648 482.017 864.281C494.256 874.076 504.163 886.32 509.991 902.238C511.157 904.687 512.905 906.524 514.654 908.36C538.548 908.36 562.443 908.36 586.338 908.36C588.669 906.524 589.835 904.687 590.418 901.626C594.497 885.096 603.239 871.627 613.147 859.995C635.293 833.669 653.943 804.283 666.764 770.611C674.924 749.795 683.666 728.98 697.07 711.837C708.726 696.532 722.131 683.063 736.701 671.431C755.35 656.125 773.417 640.82 793.232 627.351C803.722 620.004 815.378 615.719 827.617 615.107C828.2 615.107 829.366 615.107 829.948 615.107C843.353 615.107 855.592 621.229 864.917 632.249C874.824 643.269 882.4 656.738 889.394 670.819C900.467 694.083 908.627 718.572 917.951 743.061C923.779 758.366 930.19 773.672 937.766 788.365C944.177 799.997 946.508 812.242 944.177 826.323C940.68 847.138 940.098 867.954 939.515 888.769C939.515 894.279 940.681 899.177 940.681 904.075C940.681 906.524 941.846 907.748 943.012 908.973C963.992 908.973 984.973 908.973 1005.95 908.973C1008.87 907.748 1010.03 905.299 1011.2 902.238C1014.7 893.667 1018.78 884.484 1024.02 877.137C1038.01 855.709 1057.82 845.302 1080.55 841.628C1089.29 840.404 1098.62 841.016 1107.94 840.404C1128.34 838.567 1148.74 839.792 1169.14 834.894C1194.2 828.772 1212.27 808.568 1215.18 778.57C1216.93 763.876 1217.51 749.183 1215.18 734.49C1209.35 700.205 1188.37 675.104 1157.48 668.37C1150.49 666.533 1143.49 665.921 1137.08 665.921C1120.77 665.921 1105.61 670.206 1090.46 678.165C1075.89 685.512 1063.07 695.308 1049.08 703.879C1042.67 708.164 1036.26 711.225 1029.27 714.286C1022.27 717.347 1015.28 719.184 1008.29 719.184C996.629 719.184 986.139 715.511 975.066 708.164C960.496 698.981 949.423 685.512 939.515 670.206C926.693 648.779 916.786 625.514 906.295 602.862C902.216 593.679 896.97 585.108 890.56 577.149C880.069 564.292 867.248 560.007 852.678 559.394C850.929 559.394 849.181 559.394 846.85 559.394C820.624 559.394 798.477 571.639 778.662 590.006C749.522 617.555 720.382 645.105 691.242 672.655C671.427 691.634 655.691 714.899 643.452 740.612C634.71 759.591 625.386 778.57 611.398 792.651C595.663 808.568 578.179 820.201 556.615 820.813C556.032 820.813 555.45 820.813 554.867 820.813C540.88 820.813 529.224 813.466 519.899 801.834C512.322 793.875 507.66 785.916 502.998 777.345C486.679 747.959 467.447 720.409 447.049 694.695C437.141 681.839 430.148 667.758 427.234 651.228C424.32 631.637 427.234 613.27 433.062 594.903C444.718 560.007 468.03 540.416 497.752 528.171C515.819 520.825 533.886 516.539 551.953 509.805C578.179 500.009 596.828 480.418 610.233 454.092C617.226 441.236 622.472 427.155 628.882 413.686C638.79 392.87 653.943 376.953 670.844 362.871C689.494 346.954 708.143 329.812 723.879 310.22C739.614 291.242 754.184 270.426 767.589 248.998C776.331 234.917 783.907 229.407 792.649 229.407C799.643 229.407 807.219 232.468 816.544 237.978C836.942 248.998 850.347 266.753 860.837 288.793C871.91 310.833 881.818 332.873 889.977 356.749C896.97 377.565 901.05 398.38 902.216 420.42C903.381 440.011 903.381 459.602 904.547 479.193C905.13 489.601 906.295 500.009 909.209 510.417C913.872 530.62 927.276 541.028 944.76 543.477C952.919 544.701 961.661 545.926 969.821 545.926C987.887 545.926 1005.95 541.64 1022.27 531.232C1040.92 518.988 1054.91 502.458 1066.57 482.255C1082.3 454.092 1091.04 422.869 1093.96 389.809C1095.71 369.606 1096.29 349.403 1103.28 329.812C1108.53 313.894 1115.52 299.813 1129.51 291.242C1134.17 288.793 1138.25 286.344 1143.49 285.119C1145.24 284.507 1146.99 284.507 1148.74 284.507C1157.48 284.507 1163.89 289.405 1167.39 299.2C1172.05 311.445 1173.8 324.914 1176.13 337.77C1180.21 364.096 1185.46 389.809 1197.11 413.074C1205.85 430.828 1215.76 447.358 1228.58 461.439C1243.15 478.581 1259.47 493.275 1275.21 508.58C1290.94 523.886 1304.93 541.64 1318.33 559.394C1334.65 582.047 1352.14 604.087 1370.79 623.678C1381.28 634.698 1392.35 645.105 1403.42 655.513C1405.17 656.738 1406.92 659.799 1409.25 659.799C1409.83 659.799 1410.42 659.799 1411.58 659.186C1411.58 620.004 1411.58 580.822 1411.58 542.252C1406.34 532.457 1398.76 525.722 1390.6 519.6C1374.87 507.356 1357.97 497.56 1341.06 488.377C1318.92 476.745 1296.77 466.337 1276.37 451.644C1248.4 432.052 1227.42 406.339 1218.09 370.218C1215.18 359.198 1213.43 348.178 1213.43 336.546C1213.43 323.689 1212.85 310.22 1215.76 297.364C1219.84 274.099 1231.5 258.794 1250.73 249.611C1264.13 242.876 1279.29 239.203 1294.44 234.917C1316 228.183 1337.57 220.224 1357.97 208.592C1385.94 192.674 1400.51 166.961 1405.17 133.289C1408.09 110.024 1404.59 87.9842 1394.1 67.1687C1387.11 53.0876 1375.45 45.1287 1362.63 39.0065C1349.81 32.8843 1335.82 29.8232 1322.41 25.5376C1313.67 23.0887 1305.51 20.6399 1296.77 16.9665C1287.45 12.681 1280.45 5.33434 1274.62 -3.23676C1272.88 -5.68564 1271.13 -8.13453 1268.8 -9.97119C1253.06 -9.97119 1237.33 -9.97119 1222.17 -9.97119C1219.26 -6.91009 1219.26 -2.62454 1218.68 1.66101C1217.51 11.4565 1215.76 20.6399 1212.85 29.8232C1209.93 38.3943 1204.69 43.292 1197.11 45.1287C1187.2 48.1898 1177.88 48.802 1167.97 50.0265C1152.82 51.8631 1137.67 53.0876 1123.1 54.312C1118.43 54.9242 1113.19 54.9242 1108.53 54.9242C1084.05 54.9242 1061.32 49.4143 1040.92 31.0476C1030.43 21.2521 1022.86 9.61988 1016.44 -3.84898C1014.11 -5.68564 1012.95 -8.13453 1010.03 -9.97119C993.715 -9.97119 977.397 -9.97119 961.079 -9.97119C958.747 -7.52231 959.33 -5.07342 960.496 -2.62454C965.158 10.8443 971.569 24.3132 980.311 35.3332C1003.62 62.8831 1030.43 83.0864 1063.65 92.2697C1071.81 94.7186 1079.97 95.3308 1088.71 95.3308C1090.46 95.3308 1092.21 95.3308 1093.96 95.3308C1100.37 95.3308 1107.36 95.3308 1113.77 95.3308C1121.35 95.3308 1128.92 95.3308 1136.5 96.5553C1147.57 98.3919 1158.06 100.841 1165.64 111.249C1168.56 114.922 1170.89 119.207 1172.05 124.105C1179.05 157.165 1174.38 196.347 1142.91 219.612C1131.26 228.183 1119.6 236.142 1108.53 245.937C1084.05 266.753 1070.06 294.915 1064.23 328.587C1061.9 343.893 1061.32 359.198 1060.74 374.504C1060.15 395.319 1058.99 416.135 1052.58 435.726C1045.58 457.154 1035.68 476.132 1018.78 489.601C1008.29 498.172 997.212 502.458 984.973 502.458C981.477 502.458 977.397 501.846 973.9 501.233C958.747 497.56 948.84 486.54 943.012 471.235C938.349 458.99 936.601 446.134 936.018 433.277C933.687 394.707 929.607 356.749 922.614 318.179C919.7 299.813 917.951 281.446 916.786 263.079C914.455 234.305 906.295 207.98 888.811 185.94C880.069 175.532 870.744 165.736 861.42 155.941C849.181 141.86 841.022 125.942 836.359 106.963C832.28 91.0453 829.366 74.5153 825.286 58.5976C819.458 37.1698 811.882 16.9665 804.888 -4.4612C803.723 -6.91009 801.974 -8.74675 799.643 -9.97119C765.841 -9.97119 731.455 -9.97119 697.653 -9.97119Z" fill="#4705AF"/>
<path d="M-40.7548 545.926C-40.172 545.926 -40.172 545.926 -39.5892 545.926C-25.602 547.763 -15.1116 549.599 -5.204 551.436C35.0092 559.395 68.2288 580.823 92.7064 613.882C99.7 623.066 105.528 632.249 110.19 641.432C124.76 670.819 129.423 702.042 131.754 732.041V733.878C133.502 752.857 135.251 773.06 140.496 792.039C146.324 814.079 155.066 829.997 168.47 841.017C177.795 848.975 187.703 855.71 197.61 862.444C201.107 864.893 205.187 867.342 208.684 869.791C220.34 877.75 230.247 888.158 238.989 900.402C240.738 902.851 241.32 904.075 240.738 905.3H187.12C183.623 904.075 180.126 903.463 177.212 902.851C174.881 902.239 172.55 901.626 170.219 901.014C166.139 899.79 162.06 899.178 157.98 899.178C150.404 899.178 143.41 901.014 136.416 905.3C76.9708 905.3 17.5252 905.3 -41.3376 905.3C-42.5032 905.3 -42.5032 905.3 -43.086 905.3C-43.086 905.3 -43.086 904.688 -43.086 903.463C-43.086 894.892 -43.086 885.709 -43.086 877.138V866.73C-41.9204 866.118 -41.3376 865.505 -39.5892 865.505C-38.4236 865.505 -37.8408 865.505 -36.6752 865.505C-32.0128 866.118 -27.3504 866.118 -23.2708 866.118H-15.1116H-6.3696C4.12081 866.118 15.194 866.118 26.2672 864.893C40.8372 863.669 57.7384 861.22 73.474 855.71C86.8784 850.812 95.6204 840.404 99.1172 824.487C102.614 807.344 103.78 790.202 104.362 770.611C104.945 752.857 106.111 735.715 104.945 717.96C103.197 688.574 97.3688 665.921 87.4612 646.33C72.8912 618.168 53.076 599.189 26.85 589.394C12.28 583.884 -1.7072 583.271 -12.1976 583.271C-18.6084 583.271 -24.4364 583.271 -30.8472 583.884H-34.344C-34.9268 583.884 -35.5096 583.884 -36.0924 583.884C-37.258 583.884 -37.8408 583.884 -38.4236 583.884C-40.172 583.884 -40.7548 583.271 -41.9204 582.659V547.15C-43.086 545.926 -41.9204 545.926 -40.7548 545.926ZM-40.7548 543.477C-42.5032 543.477 -44.2516 544.089 -46 545.926C-46 559.395 -46 572.251 -46 585.72C-44.2516 588.169 -42.5032 588.169 -40.172 588.169C-38.4236 588.169 -37.258 588.169 -35.5096 587.557C-27.9332 587.557 -20.9396 586.945 -13.3632 586.945C-0.541595 586.945 12.28 588.169 25.1016 592.455C51.9104 602.25 71.1428 621.229 84.5472 648.167C95.6204 670.207 100.283 694.083 102.031 719.185C103.197 736.939 102.614 754.081 101.448 771.836C100.866 789.59 99.7 807.344 96.2032 825.099C92.7064 839.792 85.13 849.588 72.3084 854.485C57.1556 859.995 41.42 861.832 25.6844 863.669C14.6112 864.893 4.12081 864.893 -6.95239 864.893C-12.7804 864.893 -18.0256 864.893 -23.8536 864.893C-28.516 864.893 -32.5956 864.893 -37.258 864.281C-38.4236 864.281 -39.5892 864.281 -40.172 864.281C-42.5032 864.281 -44.2516 864.893 -46 867.342C-46 879.587 -46 892.443 -46 904.688C-46 907.749 -45.4172 908.361 -41.9204 908.361C17.5252 908.361 76.9708 908.361 136.416 908.361C143.41 904.075 150.404 902.239 157.397 902.239C161.477 902.239 165.556 902.851 169.053 904.075C174.881 905.912 180.709 906.524 186.537 908.361C205.187 908.361 224.419 908.361 243.069 908.361C245.4 904.688 243.652 902.239 241.903 899.79C233.161 887.545 222.671 876.525 211.015 868.567C197.61 858.771 183.623 850.2 170.802 839.18C156.814 826.935 148.655 810.406 143.993 791.427C138.748 771.836 136.999 752.244 135.251 732.041C132.337 700.206 127.674 668.982 113.104 640.208C107.859 630.412 102.031 620.617 95.6204 612.046C68.8116 577.761 35.592 557.558 -4.6212 548.987C-16.2772 546.538 -27.9332 544.701 -39.5892 543.477C-39.5892 543.477 -40.172 543.477 -40.7548 543.477Z" fill="#4705AF"/>
<path d="M265.801 -7.52231H287.365C289.113 -6.29786 289.696 -4.4612 290.279 -0.787874C293.776 16.3543 300.186 34.1087 311.26 55.5365C316.505 65.332 321.167 75.1275 326.412 84.3109C334.572 99.6164 342.731 115.534 350.89 130.84C360.215 149.206 370.122 168.797 385.275 183.491C403.925 201.245 421.992 209.816 440.641 209.816C442.39 209.816 444.138 209.816 445.886 209.816C463.37 208.592 477.358 200.633 487.848 185.327C501.252 166.349 505.915 143.696 508.829 124.105C511.743 108.8 512.326 92.882 513.491 78.1887L514.074 70.2298C515.24 46.9654 518.736 24.3132 521.65 1.66101L522.233 -2.01232C522.233 -3.84898 523.399 -5.07342 524.564 -6.91009H575.268C572.937 5.33434 569.44 16.9665 564.195 28.5987C551.956 54.9243 543.214 83.6986 537.386 116.759L536.22 120.432C532.724 141.86 528.644 163.287 521.65 184.103C518.154 195.735 514.074 207.98 505.915 217.163C493.093 231.856 477.358 239.203 456.96 239.203C452.297 239.203 447.635 238.591 442.39 237.978C408.004 232.468 378.864 212.877 353.221 176.756C342.148 160.839 332.24 143.084 322.916 125.33L321.75 123.493C318.253 117.371 314.756 111.249 311.26 105.126C300.186 84.9231 288.53 64.1076 279.788 42.0676C272.212 23.0888 267.55 7.78322 265.801 -7.52231ZM263.47 -9.97119C265.218 8.39544 271.046 26.1499 277.457 43.292C289.113 72.0664 304.849 97.7797 319.419 124.717C329.326 143.084 339.234 161.451 351.473 178.593C374.785 211.653 404.508 234.917 442.39 240.427C447.052 241.039 452.297 241.652 456.96 241.652C475.609 241.652 493.093 235.529 507.663 219C515.822 209.204 519.902 197.572 523.982 185.327C530.975 163.287 535.055 139.411 539.134 116.759C544.38 86.1475 553.122 57.3731 565.943 29.211C571.771 16.9665 575.851 4.10989 578.182 -9.35897C560.115 -9.35897 542.048 -9.35897 523.982 -9.35897C521.65 -8.13453 520.485 -6.29786 519.902 -2.62454C516.405 21.2521 512.908 45.1287 511.743 69.6176C510.577 87.9842 509.412 105.739 507.08 124.105C504.166 145.533 499.504 166.349 486.683 184.103C476.192 198.184 462.205 206.143 445.886 206.755C444.138 206.755 442.39 206.755 440.641 206.755C420.243 207.367 402.759 196.96 387.024 181.654C372.454 167.573 362.546 148.594 353.221 130.227C340.4 104.514 326.412 79.4131 313.591 54.312C304.849 36.5576 296.69 18.8032 293.193 -0.787874C292.027 -4.4612 291.444 -8.13453 287.948 -9.97119C279.788 -9.97119 271.629 -9.97119 263.47 -9.97119Z" fill="#4705AF"/>
<path d="M47.248 -7.52231H114.853C113.104 1.04879 111.356 8.39544 107.859 16.3543C96.2032 43.9043 77.5536 67.7809 52.4932 86.1475C37.3404 97.1675 21.022 102.678 4.1208 102.678C-0.5416 102.678 -5.7868 102.065 -10.4492 101.453L-37.258 96.5553L-43.6688 95.9431V13.9054C-41.9204 12.681 -40.172 12.0688 -37.8408 12.0688C-36.0924 12.0688 -34.9268 12.0688 -33.1784 12.681C-32.0128 12.681 -30.8472 13.2932 -29.6816 13.2932L-23.8536 13.9054C-17.4428 14.5177 -10.4492 15.1299 -3.4556 15.1299C0.624 15.1299 3.538 15.1299 7.0348 14.5177C21.6048 13.2932 33.2608 7.78322 42.0028 -2.01232C43.7512 -5.07342 45.4996 -6.29786 47.248 -7.52231ZM46.6652 -9.97119C44.334 -8.74675 42.5856 -6.91009 40.2544 -5.07342C30.9296 5.33434 19.8564 10.2321 7.0348 11.4565C3.538 11.4565 0.0412001 12.0688 -3.4556 12.0688C-12.1976 12.0688 -20.9396 11.4566 -29.6816 10.8443C-32.0128 10.8443 -34.9268 10.2321 -37.8408 10.2321C-40.7548 10.2321 -43.6688 10.8443 -46 13.2932C-46 41.4554 -46 69.6176 -46 97.7797C-34.344 99.6164 -22.688 102.065 -11.032 103.902C-5.7868 104.514 -1.1244 105.126 4.1208 105.126C21.6048 105.126 38.506 99.0042 54.2416 87.9842C78.7192 70.2298 97.9516 46.9654 110.19 16.9665C113.687 8.39544 116.018 -0.787873 118.35 -9.97119C94.4548 -9.97119 70.56 -9.97119 46.6652 -9.97119Z" fill="#4705AF"/>
<path d="M1408.67 751.02V829.997C1408.09 831.221 1407.5 831.833 1407.5 833.058C1406.92 834.894 1405.75 836.731 1405.17 837.343C1397.6 844.078 1388.85 852.037 1378.95 858.159C1366.12 866.118 1351.55 871.628 1338.15 876.525C1334.07 878.362 1329.41 879.586 1325.33 881.423C1313.67 885.709 1303.76 889.994 1295.61 898.565C1292.69 901.626 1289.78 904.075 1286.28 905.912H1239.07C1240.24 882.648 1253.06 864.281 1272.88 856.322C1280.45 853.261 1288.03 850.812 1295.61 848.363C1303.76 845.302 1311.92 842.853 1320.08 839.792C1339.32 832.445 1356.22 821.426 1369.04 807.344C1377.2 798.161 1384.19 788.366 1390.6 777.958L1394.68 772.448C1396.43 769.387 1398.18 766.938 1399.93 763.877C1402.84 759.591 1405.75 755.306 1408.67 751.02ZM1411 744.286C1404.01 752.245 1398.76 762.04 1392.93 770.611C1384.77 782.243 1377.2 794.488 1367.87 804.896C1353.89 819.589 1337.57 829.997 1319.5 836.731C1303.76 842.853 1287.45 847.751 1271.71 853.261C1250.15 861.22 1236.74 882.648 1236.16 907.136C1253.06 907.136 1269.38 907.136 1286.28 907.136C1290.36 905.3 1293.27 902.239 1296.77 899.178C1305.51 891.219 1315.42 886.933 1325.91 882.648C1343.98 875.301 1362.63 869.791 1380.11 859.383C1390.02 853.261 1398.18 845.914 1406.34 838.568C1408.67 836.119 1409.25 833.058 1411 829.997C1411 801.834 1411 773.06 1411 744.286Z" fill="#4705AF"/>
<path d="M803.14 -7.52231H851.513C853.844 -5.68564 855.009 -3.23676 855.592 -0.175653L856.175 1.66101C860.837 14.5177 867.831 26.1499 877.739 37.1698C880.653 40.2309 884.149 43.9043 888.812 43.9043C889.977 43.9043 891.143 43.9043 892.309 43.292C898.137 40.8432 899.302 35.3332 899.885 30.4354V29.211C901.051 22.4765 901.051 15.7421 901.051 9.00766C901.051 5.33434 901.051 2.27323 901.051 -1.4001V-2.62454C901.051 -5.07342 901.051 -6.29786 902.216 -7.52231H958.165C961.079 2.88545 965.741 13.9054 972.735 24.9254C983.225 42.0676 998.378 56.7609 1018.78 70.842C1038.59 84.3109 1057.82 92.2697 1077.06 94.1064C1084.63 94.7186 1092.21 95.3308 1097.45 95.3308C1100.37 95.3308 1103.86 95.3308 1106.78 95.3308C1109.69 95.3308 1113.19 95.3308 1116.1 95.3308C1118.43 95.3308 1120.18 95.3308 1122.51 95.3308C1133 95.3308 1141.16 96.5553 1148.16 99.0042C1161.56 103.29 1169.72 113.085 1172.05 128.391C1173.8 138.186 1174.38 147.982 1173.22 160.839C1171.47 184.103 1162.73 202.47 1145.83 216.551C1139.42 222.061 1132.42 226.958 1125.43 231.856C1122.51 234.917 1119.02 237.978 1115.52 240.427C1088.71 260.631 1071.81 289.405 1064.82 324.914C1061.9 341.444 1061.32 357.974 1060.74 373.891C1060.74 379.401 1060.15 385.524 1060.15 391.034C1058.99 417.359 1053.74 438.175 1045 455.929C1031.01 483.479 1014.11 498.172 991.384 502.458C989.053 503.07 986.722 503.07 984.391 503.07C965.159 503.07 948.257 489.601 942.429 469.398C937.184 452.868 936.019 435.726 934.853 420.42L934.27 410.625C933.105 395.319 931.939 380.014 929.608 364.708C924.363 331.648 918.535 293.078 915.038 254.508C912.124 225.734 901.633 200.021 882.401 179.205C879.487 176.144 875.99 172.471 873.076 169.41C867.831 163.9 862.586 158.39 857.341 152.267C850.347 144.309 844.519 134.513 841.022 124.105C835.777 110.024 832.863 94.7186 829.366 80.0253C824.121 55.5365 815.962 32.2721 808.385 9.61988C807.22 4.10989 804.889 -2.01232 803.14 -7.52231ZM799.643 -9.97119C809.551 20.0276 821.207 48.802 827.618 80.0253C830.532 95.3308 834.029 110.024 839.274 124.717C843.353 135.737 848.599 144.921 856.175 153.492C864.334 162.675 872.493 171.858 880.653 180.43C899.302 200.633 910.375 225.122 912.707 253.896C916.203 290.629 921.449 327.363 927.277 364.096C930.191 382.463 931.356 401.441 932.522 419.808C933.687 436.338 934.853 453.48 940.098 469.398C946.509 490.826 964.576 504.295 984.391 504.295C986.722 504.295 989.053 504.295 991.967 503.682C1018.19 498.785 1035.09 480.418 1047.33 455.929C1057.24 436.95 1061.32 414.91 1062.49 391.646C1063.65 369.606 1063.07 347.566 1067.15 325.526C1073.56 290.017 1090.46 262.467 1116.69 242.264C1127.18 234.305 1137.67 226.958 1148.16 218.387C1165.06 204.306 1174.97 185.327 1176.71 160.839C1177.3 149.819 1177.3 138.799 1175.55 127.779C1172.64 111.249 1163.31 101.453 1149.91 96.5553C1141.16 93.4942 1132.42 92.882 1123.68 92.882C1121.35 92.882 1119.6 92.882 1117.27 92.882C1110.86 92.882 1105.03 92.882 1098.62 92.882C1091.63 92.882 1085.22 92.882 1078.22 92.2697C1057.24 89.8209 1038.59 81.2498 1021.11 69.0053C1003.62 56.7609 987.305 42.6798 975.649 23.701C969.238 13.2932 963.41 2.27323 961.079 -9.97119C941.847 -9.97119 922.031 -9.97119 902.216 -9.97119C899.302 -7.52231 899.885 -4.4612 899.885 -1.4001C899.302 9.00766 901.05 18.8032 898.719 29.211C897.554 34.1087 897.554 39.6187 892.309 41.4554C891.143 42.0676 890.56 42.0676 889.395 42.0676C885.315 42.0676 882.401 39.0065 880.07 35.9454C870.745 25.5376 863.751 14.5177 858.506 1.66101C857.341 -2.62454 856.175 -7.52231 852.095 -9.97119C834.611 -9.97119 817.127 -9.97119 799.643 -9.97119Z" fill="#4705AF"/>
<path d="M829.364 614.495C839.272 614.495 848.014 617.556 855.59 623.678C863.167 629.8 869.578 637.759 876.571 648.167C889.976 669.595 898.718 693.471 907.46 717.348L909.791 723.47L910.374 725.919C917.95 746.735 926.109 768.775 936.6 788.978C943.01 800.61 944.759 812.854 942.428 825.711C939.514 844.69 937.765 866.118 937.765 889.382C937.765 891.831 938.348 894.892 938.348 897.341C938.348 899.79 938.931 902.851 938.931 905.912H871.326C868.995 904.075 867.246 901.014 865.498 897.953C864.915 896.729 864.332 895.504 863.75 894.28C856.756 882.648 850.345 871.628 846.266 858.771C835.192 825.099 831.696 787.753 834.61 744.898L835.192 738.776C836.358 727.756 836.941 716.124 835.192 704.491C832.861 687.349 820.622 675.717 805.47 675.717C803.721 675.717 802.556 675.717 800.807 675.717C783.906 678.166 767.005 684.9 747.772 697.145C737.282 703.879 727.957 712.45 719.798 722.246C706.977 738.163 697.069 757.755 690.658 780.407C679.002 823.262 669.677 861.832 663.267 897.953V899.178C662.684 902.239 662.101 904.688 660.353 905.3H588.085C590.999 893.055 594.496 883.26 600.324 875.301C606.735 865.505 613.729 856.934 620.139 848.975C632.961 833.058 642.869 818.364 651.028 802.447C657.439 790.202 662.684 777.346 667.929 765.101C671.426 757.142 674.923 748.571 678.419 740.612C687.744 720.409 700.566 702.655 718.05 686.125C740.196 665.309 764.674 646.33 787.403 629.8C796.728 622.454 806.052 618.168 815.96 615.719C820.622 615.107 824.702 614.495 829.364 614.495ZM829.364 612.046C824.702 612.046 820.04 612.658 815.377 613.883C804.887 616.331 794.979 621.229 786.237 627.964C762.342 645.718 738.448 664.085 716.301 684.9C699.983 700.206 685.996 718.572 676.088 740C666.763 760.816 659.187 782.243 648.697 801.834C639.955 818.364 629.464 833.67 618.391 847.751C611.397 856.322 604.404 864.893 598.576 874.077C591.582 884.484 588.085 895.504 585.754 907.749C610.815 907.749 636.458 907.749 661.518 907.749C665.015 905.912 665.598 902.239 666.181 898.565C673.174 858.771 683.082 820.201 693.572 781.631C699.4 760.203 708.725 740.612 722.129 724.082C730.289 714.287 739.613 706.328 749.521 699.594C765.839 689.186 782.74 681.227 801.973 678.166C803.138 678.166 804.887 678.166 806.052 678.166C820.04 678.166 831.113 688.574 833.444 705.104C835.775 718.572 834.027 731.429 832.861 744.898C829.947 784.08 832.278 822.65 844.517 859.995C848.597 872.852 855.59 884.484 862.584 896.117C864.915 900.402 867.246 905.912 871.326 908.361C894.638 908.361 917.95 908.361 941.845 908.361C942.428 901.626 940.679 895.504 940.679 889.382C940.679 867.954 941.845 846.527 945.342 825.711C947.673 812.242 945.342 799.386 938.931 787.141C928.44 766.326 920.281 744.286 912.122 722.246C902.797 696.532 893.472 670.207 878.902 646.942C873.074 637.147 866.081 628.576 857.339 621.841C848.014 615.107 838.689 612.046 829.364 612.046Z" fill="#4705AF"/>
<path d="M1135.34 700.205V702.653C1150.49 702.653 1162.14 709.388 1170.3 722.857C1179.63 738.162 1180.79 769.998 1158.06 788.364C1146.41 798.16 1132.42 799.997 1119.6 799.997C1101.53 799.384 1086.96 795.711 1074.72 788.977C1068.9 785.916 1063.65 782.242 1062.49 774.896C1061.32 766.324 1062.49 758.366 1066.57 751.631C1070.06 745.509 1073.56 740.611 1077.64 735.713C1093.37 715.51 1109.69 705.102 1128.34 703.266C1130.67 703.266 1133 702.653 1135.34 702.653V700.205V700.205ZM1135.34 700.205C1133 700.205 1130.67 700.205 1127.76 700.817C1106.2 703.878 1089.88 716.735 1075.89 734.489C1071.81 739.387 1068.31 744.897 1064.82 750.407C1060.15 757.753 1058.99 766.937 1060.15 775.508C1061.32 783.467 1067.73 787.752 1073.56 791.426C1088.13 799.384 1103.86 801.833 1119.6 802.446C1133.59 801.833 1147.57 799.997 1159.23 790.201C1182.54 771.222 1181.96 738.162 1172.05 721.632C1163.31 706.327 1150.49 700.205 1135.34 700.205Z" fill="#4705AF"/>
<path d="M1141.17 419.807C1143.5 419.807 1145.83 420.419 1148.74 422.256C1156.9 426.542 1162.73 434.501 1168.56 441.847L1171.47 445.521C1184.88 463.275 1199.45 482.254 1214.6 500.008C1219.26 505.518 1223.92 510.416 1228.59 515.926C1246.65 536.129 1265.89 556.945 1281.62 580.209C1290.36 593.066 1299.69 605.31 1308.43 617.555C1320.67 634.697 1333.49 651.839 1345.15 670.206C1357.38 689.185 1362.05 705.102 1359.72 722.245C1355.05 758.978 1334.07 786.528 1304.35 793.874C1300.27 795.099 1296.19 795.711 1292.11 795.711C1281.62 795.711 1262.97 792.038 1255.39 765.712C1252.48 755.917 1250.15 746.121 1248.4 736.326C1247.24 731.428 1246.07 726.53 1244.9 721.02C1236.75 686.123 1219.84 662.247 1193.62 649.39C1173.8 639.595 1152.24 634.697 1127.76 634.697C1118.44 634.697 1108.53 635.309 1098.62 636.534C1080.55 638.982 1064.24 646.941 1048.5 654.288C1038.01 659.186 1026.35 664.084 1013.53 664.696C993.718 664.696 973.32 646.941 968.074 625.514C965.16 614.494 969.24 603.474 977.982 596.739C984.393 591.841 991.969 587.556 1000.13 584.495C1029.85 573.475 1054.91 552.659 1074.73 520.824C1086.38 502.457 1097.46 482.866 1110.28 458.377L1112.61 453.479C1117.85 443.072 1123.1 433.276 1130.68 424.705C1135.34 421.644 1138.25 419.807 1141.17 419.807ZM1141.17 417.358C1137.09 417.358 1134.17 419.195 1130.09 423.481C1121.35 433.276 1115.52 445.521 1109.69 457.153C1098.62 478.581 1086.97 499.396 1074.14 519.599C1055.49 548.986 1031.6 571.026 1000.71 582.658C992.552 585.719 984.976 589.393 977.982 594.903C968.657 602.249 963.995 613.881 967.492 626.126C972.737 648.778 994.301 667.145 1014.7 667.145C1027.52 666.532 1039.18 662.247 1050.83 656.737C1067.15 649.39 1082.89 641.431 1100.37 638.982C1110.28 637.758 1119.6 637.146 1129.51 637.146C1151.66 637.146 1173.8 641.431 1194.78 651.839C1221.59 665.308 1237.33 690.409 1244.9 721.632C1248.4 736.326 1251.32 751.631 1255.39 766.324C1261.81 788.977 1277.54 797.548 1293.86 797.548C1297.94 797.548 1302.6 796.935 1306.68 795.711C1339.9 787.14 1359.72 756.529 1363.8 721.632C1366.13 701.429 1359.13 683.675 1348.64 667.757C1328.83 636.534 1306.1 608.371 1285.12 578.373C1264.72 548.986 1240.82 523.885 1217.51 498.172C1202.36 481.029 1188.37 462.663 1174.39 443.684C1167.39 434.501 1160.98 424.705 1151.07 419.195C1146.99 418.583 1144.08 417.358 1141.17 417.358Z" fill="#4705AF"/>
<path d="M807.22 677.553C813.631 677.553 818.876 680.002 824.121 684.9C834.611 695.92 835.194 709.389 834.611 725.307C834.611 732.041 834.029 738.776 833.446 745.51C832.863 753.469 832.28 761.428 831.697 769.387C831.115 785.917 832.863 802.447 834.611 817.14C838.108 843.465 845.102 865.505 856.175 884.484C857.341 886.321 858.506 888.157 859.089 889.994C862.003 894.892 865.5 900.402 867.831 906.524H663.851C668.513 877.138 675.507 848.363 682.501 820.201L686.58 804.283C694.739 771.223 705.813 737.551 732.039 713.674C754.768 692.859 778.08 681.839 803.723 678.778C805.471 677.553 806.637 677.553 807.22 677.553ZM807.22 675.104C806.054 675.104 804.889 675.104 803.723 675.104C776.331 678.166 751.854 691.022 730.873 710.613C704.647 734.49 692.991 767.55 684.832 802.447C676.672 836.731 667.93 870.403 662.102 905.3C662.102 905.912 661.52 907.136 661.52 907.749C731.456 907.749 801.392 907.749 871.328 907.749C868.414 897.953 863.169 890.606 858.506 882.647C846.85 862.444 840.439 839.792 837.525 816.528C835.194 800.61 834.029 784.692 834.029 768.774C834.611 754.081 836.36 739.388 836.943 724.694C837.525 709.389 837.525 694.083 825.869 682.451C820.041 677.553 814.213 675.104 807.22 675.104Z" fill="#4705AF"/>
<path d="M1341.06 261.242C1349.81 261.242 1359.13 261.854 1369.04 263.691C1377.78 264.915 1386.52 268.589 1395.27 271.65C1399.35 273.487 1404.01 275.323 1408.67 276.548V418.583C1402.84 420.42 1396.43 421.644 1390.6 423.481C1373.7 427.766 1357.97 430.215 1343.4 430.215C1329.99 430.215 1317.17 428.378 1304.93 424.705C1276.96 416.134 1245.49 386.747 1241.99 347.565C1239.66 316.954 1251.31 290.017 1274.04 278.384C1294.44 266.752 1316.59 261.242 1341.06 261.242ZM1341.06 258.793C1317.75 258.793 1294.44 263.691 1272.29 275.935C1247.82 288.792 1236.74 317.566 1239.08 347.565C1242.57 385.523 1272.29 417.359 1303.77 426.542C1316.59 430.215 1329.99 432.052 1342.81 432.052C1358.55 432.052 1374.87 429.603 1390.6 425.317C1397.01 423.481 1404.01 421.644 1410.42 419.807C1410.42 371.442 1410.42 322.464 1410.42 274.099C1396.43 269.813 1383.61 262.467 1369.04 260.63C1360.3 259.405 1350.39 258.793 1341.06 258.793Z" fill="#4705AF"/>
<path d="M-0.5416 618.779C4.1208 618.779 8.2004 619.391 12.28 620.003C42.0028 625.513 61.818 646.941 71.1428 682.45C76.9708 705.102 76.388 730.203 69.3944 758.978C61.818 790.201 44.9168 809.18 18.108 816.526C-0.541596 822.036 -19.1912 822.036 -41.3376 822.036H-43.6688V775.508C-42.5032 774.283 -41.3376 774.283 -39.0064 774.283H-38.4236C-36.6752 774.283 -34.9268 774.283 -33.1784 774.283H-32.0128H-30.8472C-24.4364 774.283 -18.6084 774.283 -12.1976 773.059C21.022 766.936 41.42 738.774 40.2544 702.041C39.6716 678.777 26.2672 662.247 6.452 658.573C5.2864 657.961 2.9552 657.349 0.624003 657.349C-2.29 657.349 -5.204 657.349 -8.118 657.961C-18.6084 659.798 -27.9332 662.859 -39.0064 665.92H-39.5892C-40.7548 666.532 -41.3376 666.532 -41.9204 666.532C-42.5032 666.532 -42.5032 666.532 -43.086 665.92V623.677C-37.8408 623.065 -32.0128 621.84 -26.7676 620.616C-19.774 620.003 -9.8664 618.779 -0.5416 618.779ZM-0.5416 616.33C-9.2836 616.33 -18.6084 617.555 -27.3504 619.391C-33.7612 620.616 -39.5892 621.84 -46 622.452C-46 637.758 -46 653.063 -46 667.757C-44.8344 668.981 -43.6688 669.593 -42.5032 669.593C-41.3376 669.593 -40.172 668.981 -38.4236 668.369C-28.516 665.308 -18.0256 661.634 -8.118 660.41C-5.204 659.798 -2.29 659.798 0.624003 659.798C2.9552 659.798 4.7036 659.798 7.0348 660.41C26.2672 663.471 38.506 679.389 39.0888 701.429C40.2544 737.55 20.4392 763.875 -11.6148 769.998C-17.4428 771.222 -23.8536 771.222 -29.6816 771.222C-30.8472 771.222 -31.43 771.222 -32.5956 771.222C-34.344 771.222 -36.0924 771.222 -37.8408 771.222C-40.7548 771.222 -43.6688 771.222 -45.4172 774.283C-45.4172 790.813 -45.4172 807.955 -45.4172 824.485C-43.6688 824.485 -42.5032 824.485 -40.7548 824.485C-20.3568 824.485 -0.541598 824.485 19.2736 818.363C47.248 810.404 64.732 790.201 72.3084 758.978C78.7192 733.264 80.4676 706.939 74.0568 681.226C65.3148 646.941 46.0824 623.065 13.4456 616.942C8.2004 616.33 4.1208 616.33 -0.5416 616.33Z" fill="#4705AF"/>
<path d="M957 105.738V108.187C975.066 108.187 990.802 114.309 1010.03 122.268C1031.6 131.451 1057.24 141.859 1083.47 147.981C1087.55 148.594 1092.79 149.818 1096.29 152.267C1106.78 159.613 1108.53 164.511 1103.87 176.143C1102.12 181.041 1099.79 184.715 1097.45 187.776L1095.12 190.837C1088.13 200.02 1081.14 209.203 1074.14 218.999C1055.49 244.1 1042.67 267.977 1035.09 293.69C1028.68 313.893 1026.35 337.158 1027.52 362.871C1027.52 367.156 1027.52 371.442 1027.52 375.115C1027.52 382.462 1027.52 387.972 1027.52 393.482C1026.94 405.726 1025.77 419.807 1019.36 433.276C1015.86 440.623 1011.2 446.745 1005.37 451.031C1001.29 454.092 996.63 455.928 992.55 455.928C983.808 455.928 976.232 449.194 972.152 437.562C968.073 426.542 967.49 414.297 966.907 402.053V399.604C966.324 390.421 966.325 381.237 966.325 372.054C966.325 362.259 966.325 351.851 965.742 341.443C964.576 318.179 964.576 294.302 964.576 271.65V257.569C964.576 244.1 963.411 230.019 960.497 212.877C958.748 200.632 955.834 188.388 952.92 176.756C951.172 170.633 950.006 164.511 948.84 159.001C948.258 155.94 947.675 153.491 946.509 150.43C944.178 141.247 941.847 132.064 942.43 122.268C942.43 116.146 944.761 109.411 954.086 108.799C955.251 108.799 956.417 108.799 957 108.799V105.738ZM957 105.738C955.834 105.738 954.668 105.738 953.503 105.738C944.761 106.35 940.098 111.86 939.516 121.656C938.933 134.512 943.013 146.757 945.927 159.001C950.006 176.756 955.251 194.51 958.165 212.877C960.496 227.57 962.245 242.263 962.245 257.569C962.245 285.119 961.662 313.281 963.41 340.831C964.576 360.422 963.41 379.401 964.576 398.992C965.159 411.849 965.742 425.317 969.821 437.562C974.484 451.031 983.226 457.765 992.55 457.765C997.213 457.765 1001.88 455.928 1006.54 452.867C1012.95 448.582 1017.61 441.847 1021.69 434.501C1028.1 421.644 1029.85 407.563 1030.43 393.482C1031.02 384.911 1030.43 375.727 1030.43 362.871C1029.85 342.668 1031.02 318.179 1038.01 294.302C1046.17 266.752 1060.16 242.876 1076.47 220.836C1084.05 210.428 1092.21 200.02 1099.79 189.612C1102.7 185.939 1104.45 181.653 1106.2 177.368C1110.86 165.123 1109.69 158.389 1097.45 150.43C1093.37 147.981 1088.71 146.757 1084.05 145.532C1058.99 139.41 1034.51 130.227 1010.62 119.819C993.133 113.085 975.649 105.738 957 105.738Z" fill="#4705AF"/>
<path d="M1.2068 659.798C1.7896 659.798 2.3724 659.798 2.9552 659.798C18.6908 660.411 31.5124 671.431 36.7576 687.961C41.42 705.103 39.0888 724.694 30.3468 740.612C22.1876 755.917 8.7832 766.325 -6.3696 769.998C-15.1116 771.835 -23.8536 772.447 -33.1784 772.447H-34.9268H-37.258C-39.5892 772.447 -41.3376 772.447 -43.6688 772.447V669.594C-41.9204 668.982 -40.172 668.37 -37.8408 667.757L-36.0924 667.145C-23.8536 663.472 -11.6148 659.798 1.2068 659.798ZM1.2068 657.35C-12.7804 657.35 -25.602 661.635 -39.0064 665.921C-41.3376 666.533 -43.6688 667.145 -46 667.757C-46 703.266 -46 738.775 -46 774.284C-43.086 774.284 -40.172 774.284 -37.258 774.284C-36.0924 774.284 -34.344 774.284 -33.1784 774.284C-23.8536 774.284 -15.1116 774.284 -5.7868 771.835C28.0156 763.876 49.5792 722.857 39.0888 686.736C33.8436 669.594 19.8564 657.962 3.538 657.35C2.9552 657.35 2.3724 657.35 1.2068 657.35Z" fill="#4705AF"/>
<path d="M322.33 250.835C324.079 250.835 326.41 251.447 328.741 252.06C339.814 255.121 349.722 261.855 359.63 268.59L361.961 269.814C382.359 283.895 403.34 297.976 422.572 312.057C436.559 321.853 449.381 331.036 459.871 343.893C470.944 357.362 476.19 370.83 475.024 386.136C475.607 397.768 472.11 408.176 463.368 418.584C452.295 430.828 438.308 440.012 427.817 446.134L419.658 451.032C403.922 460.215 388.187 470.01 373.034 481.03C366.04 485.928 360.795 489.601 354.967 492.663C352.053 493.887 349.139 495.111 346.225 495.111C338.649 495.111 333.404 488.377 332.821 477.357C332.821 470.623 332.821 463.276 334.569 454.705C338.649 427.767 337.483 402.666 332.238 378.789C329.907 367.769 326.41 356.137 323.496 345.729C319.999 333.485 316.502 320.628 314.171 308.384C311.257 296.139 308.926 282.671 309.509 268.59C310.092 256.957 314.171 250.835 322.33 250.835ZM322.33 248.386C313.006 248.386 307.76 255.121 307.178 268.59C306.595 282.058 308.926 295.527 311.84 308.996C316.502 332.873 324.662 355.525 329.907 379.402C335.735 403.89 335.735 428.992 332.238 454.093C331.072 461.439 330.49 469.398 330.49 476.745C331.072 489.601 336.9 496.948 346.225 496.948C349.139 496.948 352.636 496.336 356.133 494.499C362.544 491.438 368.372 487.153 374.2 482.867C391.684 470.01 410.333 458.99 428.983 447.97C442.387 440.012 454.626 431.44 465.116 419.196C473.276 410.013 478.521 398.993 477.938 386.136C478.521 368.382 472.11 354.301 461.62 342.056C450.546 329.199 437.725 319.404 424.32 310.221C403.922 295.527 383.524 281.446 363.126 267.365C352.636 260.631 341.563 253.284 329.324 249.611C326.993 248.998 324.662 248.386 322.33 248.386Z" fill="#4705AF"/>
<path d="M754.767 773.06C756.516 773.06 758.264 774.284 760.595 776.121C768.172 784.08 770.503 798.161 765.258 807.956C761.761 814.691 758.264 817.752 753.019 818.364C750.688 818.364 748.357 817.14 746.025 815.303C739.615 809.793 739.032 801.834 739.615 796.936C740.197 787.753 744.86 777.958 750.105 774.284C752.436 773.672 753.602 773.06 754.767 773.06ZM754.767 770.611C753.019 770.611 751.271 771.223 748.939 772.447C738.449 778.57 730.29 805.507 744.86 817.14C747.191 819.588 750.105 820.201 753.019 820.813C760.013 820.201 764.092 814.691 767.006 809.181C772.834 798.773 769.92 782.855 761.761 774.896C760.013 772.447 757.681 770.611 754.767 770.611Z" fill="#4705AF"/>
<path d="M353.218 890.607C355.549 890.607 358.463 891.219 361.377 892.443C369.536 895.504 375.947 900.402 380.609 906.524H336.317C336.317 905.912 336.317 905.912 336.899 905.3C339.231 897.953 343.893 890.607 353.218 890.607ZM353.218 887.545C344.476 887.545 338.065 893.055 334.568 903.463C333.985 905.3 333.403 906.524 332.82 908.361C350.304 908.361 367.788 908.361 385.272 908.361C379.444 899.178 371.867 893.055 362.543 889.994C359.046 888.158 356.132 887.545 353.218 887.545Z" fill="#4705AF"/>
<path d="M150.984 326.137C157.395 326.137 163.806 329.811 167.885 337.157C170.216 340.831 171.382 344.504 172.548 350.014C174.879 362.871 173.713 376.339 171.965 389.196C171.382 392.869 171.382 396.543 170.799 400.216C169.051 420.419 168.468 436.337 169.634 451.643L170.216 463.275C171.382 479.193 171.965 495.11 172.548 511.028C173.13 529.395 170.799 544.7 166.137 558.169C162.64 567.352 157.978 572.25 150.401 572.25C148.07 572.25 145.739 571.638 143.408 571.026C135.831 568.577 128.255 564.291 119.513 557.557L116.016 555.108C93.8696 538.578 70.5576 520.824 47.8284 503.682C39.6692 497.559 31.51 490.825 25.0992 482.254C8.78083 462.05 7.61523 443.684 21.6024 424.093C25.0992 418.583 29.7616 413.685 35.5896 409.399C44.9144 402.053 54.2392 394.706 62.9812 387.972C78.7168 375.727 95.0352 363.483 110.188 349.402C118.93 341.443 130.003 332.26 143.99 327.362C146.904 326.137 149.236 326.137 150.984 326.137ZM150.984 323.688C148.653 323.688 145.739 324.301 143.408 324.913C130.586 329.198 119.513 337.77 109.022 347.565C85.1276 368.993 58.9016 387.359 34.424 407.563C28.596 411.848 23.9336 416.746 19.2712 422.868C3.53563 444.908 7.61523 464.499 22.768 484.09C29.7616 492.661 37.9208 499.396 46.08 505.518C69.9748 523.885 93.8696 541.639 117.764 559.394C125.924 565.516 134.083 570.414 142.825 573.475C145.739 574.087 148.07 574.699 150.401 574.699C158.56 574.699 164.971 569.189 168.468 559.394C173.713 543.476 175.462 527.558 174.879 511.028C174.296 490.825 173.13 471.234 171.965 451.643C170.799 434.5 171.965 417.358 173.13 400.216C174.296 383.074 177.793 366.544 174.879 349.402C173.713 344.504 172.548 339.606 170.216 335.321C165.554 327.974 158.56 323.688 150.984 323.688Z" fill="#4705AF"/>
<path d="M783.323 377.564C785.654 377.564 787.403 378.176 789.734 378.788H790.9C800.224 381.237 808.966 387.972 814.212 397.767C819.457 408.175 821.205 419.807 817.708 430.215C814.794 439.398 810.132 447.357 803.721 454.704C797.31 462.05 790.9 468.173 784.489 474.907C780.992 478.58 777.495 482.254 773.998 485.927C754.766 506.13 735.534 529.395 712.222 559.393C699.983 575.311 684.83 593.066 664.432 605.31C652.193 613.269 641.12 616.942 630.047 617.554C629.464 617.554 628.881 617.554 628.298 617.554C621.888 617.554 617.225 615.106 614.311 610.208C610.814 604.698 611.98 599.8 614.894 592.453C617.808 585.719 621.305 578.372 625.385 572.25C646.365 544.088 662.684 513.477 673.757 480.417C681.916 456.54 692.406 437.562 706.394 423.48C720.381 408.175 737.282 395.318 755.349 385.523C765.256 380.013 773.998 377.564 782.158 376.952C782.74 377.564 783.323 377.564 783.323 377.564ZM783.323 375.115C782.74 375.115 782.158 375.115 781.575 375.115C771.667 375.727 762.342 379.401 753.6 384.298C735.534 394.706 719.215 406.95 704.062 422.868C688.91 438.786 678.419 458.989 670.843 481.029C659.77 514.701 643.451 544.7 623.053 572.25C618.391 578.372 615.477 585.107 611.98 592.453C609.066 599.188 606.735 605.922 611.397 612.657C615.477 618.779 621.305 620.616 627.133 620.616C627.716 620.616 628.298 620.616 629.464 620.616C642.286 620.003 653.942 614.493 664.432 607.759C683.082 596.127 698.235 579.597 712.805 561.23C732.62 536.129 753.018 511.028 774.581 488.376C784.489 477.968 794.979 468.173 804.304 457.153C810.715 449.806 815.377 441.235 818.874 431.439C825.868 408.787 811.88 381.849 790.317 376.952C789.151 375.727 786.237 375.115 783.323 375.115Z" fill="#4705AF"/>
<path d="M1147.58 503.682V506.131C1153.4 506.131 1160.4 508.579 1168.56 514.702C1187.21 528.17 1202.94 544.7 1215.18 564.904C1221.59 575.312 1225.09 583.883 1226.84 592.454C1227.42 596.127 1226.84 599.8 1225.09 602.249C1223.34 604.698 1221.01 606.535 1218.09 607.147C1214.01 607.759 1210.52 608.371 1207.02 608.371C1206.44 608.371 1205.86 608.371 1205.27 608.371C1187.21 607.147 1169.72 604.698 1153.4 601.637C1140.58 599.188 1126.59 596.127 1114.36 588.78C1105.03 583.27 1100.95 572.863 1103.87 561.23C1107.36 546.537 1113.19 533.68 1120.77 524.497C1130.67 511.64 1138.83 506.131 1147.58 506.131V503.682V503.682ZM1147.58 503.682C1137.67 503.682 1128.34 510.416 1119.02 522.66C1110.28 533.68 1105.03 546.537 1101.53 560.618C1098.62 573.475 1103.28 584.495 1113.19 590.617C1125.43 597.964 1138.83 601.025 1152.82 604.086C1170.3 607.147 1187.79 609.596 1205.27 610.82C1205.86 610.82 1206.44 610.82 1207.02 610.82C1211.1 610.82 1214.6 610.208 1218.68 609.596C1226.25 608.371 1230.92 600.413 1229.17 592.454C1227.42 582.046 1222.76 572.863 1216.93 564.292C1204.11 544.088 1188.37 526.946 1169.72 513.477C1161.56 506.131 1153.99 503.682 1147.58 503.682Z" fill="#4705AF"/>
</svg>
