<svg width="74" height="74" viewBox="0 0 74 74" fill="none" xmlns="http://www.w3.org/2000/svg">
<g filter="url(#filter0_d_662_4898)">
<rect x="5" y="5" width="64" height="64" rx="25" fill="white"/>
</g>
<path d="M44.35 26.5C44.35 26.0359 44.5344 25.5908 44.8626 25.2626C45.1908 24.9344 45.6359 24.75 46.1 24.75C47.2148 24.75 48.3085 24.974 49.3742 25.401C50.5345 25.8648 51.427 26.5525 52.2373 27.361C53.0475 28.173 53.7352 29.0655 54.199 30.2257C54.626 31.2915 54.85 32.3853 54.85 33.5C54.85 34.6147 54.626 35.7085 54.199 36.7743C53.7422 37.9205 53.065 38.8042 52.267 39.6075L50.545 41.5028C50.5262 41.5231 50.507 41.5429 50.4873 41.5623L44.8872 47.1622C44.077 47.9725 43.1845 48.6603 42.0243 49.1258C40.9845 49.5498 39.8729 49.7702 38.75 49.775C37.627 49.7696 36.5154 49.5486 35.4757 49.124C34.3155 48.6602 33.423 47.9725 32.6128 47.164C31.8025 46.352 31.1147 45.4595 30.651 44.2992C30.2098 43.2033 29.9886 42.0313 30 40.85C30 39.7352 30.224 38.6415 30.651 37.5758C31.1147 36.4155 31.8025 35.523 32.611 34.7127L34.536 32.7878C34.6985 32.6252 34.8914 32.4962 35.1037 32.4081C35.3161 32.3201 35.5436 32.2747 35.7735 32.2746C36.0034 32.2746 36.231 32.3198 36.4434 32.4076C36.6558 32.4955 36.8488 32.6244 37.0114 32.7869C37.174 32.9494 37.303 33.1423 37.391 33.3546C37.479 33.5669 37.5244 33.7945 37.5245 34.0244C37.5246 34.2542 37.4794 34.4819 37.3915 34.6943C37.3036 34.9067 37.1747 35.0997 37.0122 35.2622L35.0872 37.1873C34.4975 37.777 34.1353 38.2845 33.9008 38.8743C33.6414 39.5009 33.5053 40.1718 33.5 40.85C33.5 41.683 33.6348 42.3375 33.9008 43.0007C34.1353 43.5905 34.4975 44.098 35.0872 44.6877C35.677 45.2775 36.1845 45.6397 36.7743 45.8742C37.4585 46.149 38.1147 46.275 38.75 46.275C39.3853 46.275 40.0415 46.149 40.7257 45.8742C41.3155 45.6397 41.823 45.2775 42.4128 44.6877L47.983 39.1175L49.705 37.2222C49.7238 37.2019 49.743 37.1821 49.7627 37.1628C50.3525 36.573 50.7148 36.0655 50.9493 35.4757C51.224 34.7915 51.35 34.1353 51.35 33.5C51.35 32.8647 51.224 32.2085 50.9493 31.5243C50.7148 30.9345 50.3525 30.427 49.7627 29.8373C49.173 29.2475 48.6655 28.8853 48.0758 28.649C47.4489 28.3902 46.7781 28.2548 46.1 28.25C45.6359 28.25 45.1908 28.0656 44.8626 27.7374C44.5344 27.4092 44.35 26.9641 44.35 26.5ZM35.775 29.125C35.1398 29.125 34.4835 29.251 33.7992 29.524C33.2095 29.7603 32.702 30.1225 32.1122 30.714L26.367 36.4575L24.645 38.3527L24.5873 38.4123C23.9975 39.002 23.6353 39.5095 23.399 40.0992C23.1402 40.7261 23.0048 41.3969 23 42.075C23 42.7102 23.126 43.3665 23.399 44.0507C23.6353 44.6405 23.9975 45.148 24.589 45.7378C25.177 46.3275 25.6845 46.6898 26.2742 46.926C26.9585 47.199 27.6147 47.325 28.25 47.325C28.7141 47.325 29.1592 47.5094 29.4874 47.8376C29.8156 48.1658 30 48.6109 30 49.075C30 49.5391 29.8156 49.9842 29.4874 50.3124C29.1592 50.6406 28.7141 50.825 28.25 50.825C27.1271 50.8202 26.0155 50.5998 24.9758 50.1757C23.8155 49.7102 22.923 49.0225 22.1128 48.2122C21.3025 47.402 20.6147 46.5095 20.151 45.3493C19.7264 44.3096 19.5054 43.198 19.5 42.075C19.5 40.9602 19.724 39.8665 20.151 38.8008C20.6077 37.6545 21.285 36.7708 22.083 35.9675L23.805 34.0722L23.8628 34.0128L29.6378 28.2378C30.448 27.4275 31.3405 26.7398 32.5007 26.276C33.5404 25.8514 34.652 25.6304 35.775 25.625C36.8897 25.625 37.9835 25.849 39.0492 26.276C40.2095 26.7398 41.102 27.4275 41.9123 28.236C42.7225 29.048 43.4103 29.9405 43.874 31.1007C44.301 32.1665 44.525 33.2603 44.525 34.375C44.525 35.4897 44.301 36.5835 43.874 37.6493C43.4155 38.7955 42.7383 39.6828 41.9403 40.4843L40.0398 42.558C39.726 42.9001 39.2892 43.1035 38.8255 43.1235C38.3618 43.1435 37.9091 42.9785 37.567 42.6648C37.2249 42.351 37.0215 41.9142 37.0015 41.4505C36.9815 40.9868 37.1465 40.5341 37.4602 40.192L39.3853 38.092L39.4377 38.0378C40.0275 37.448 40.3897 36.9405 40.6243 36.3507C40.899 35.6665 41.025 35.0103 41.025 34.375C41.025 33.7397 40.899 33.0835 40.6243 32.3993C40.3897 31.8095 40.0275 31.302 39.4377 30.7122C38.848 30.1225 38.3405 29.7603 37.7507 29.524C37.1239 29.2652 36.4531 29.1298 35.775 29.125Z" fill="#F97316"/>
<defs>
<filter id="filter0_d_662_4898" x="0" y="0" width="74" height="74" filterUnits="userSpaceOnUse" color-interpolation-filters="sRGB">
<feFlood flood-opacity="0" result="BackgroundImageFix"/>
<feColorMatrix in="SourceAlpha" type="matrix" values="0 0 0 0 0 0 0 0 0 0 0 0 0 0 0 0 0 0 127 0" result="hardAlpha"/>
<feOffset/>
<feGaussianBlur stdDeviation="2.5"/>
<feComposite in2="hardAlpha" operator="out"/>
<feColorMatrix type="matrix" values="0 0 0 0 0.278431 0 0 0 0 0.0196078 0 0 0 0 0.686275 0 0 0 0.08 0"/>
<feBlend mode="normal" in2="BackgroundImageFix" result="effect1_dropShadow_662_4898"/>
<feBlend mode="normal" in="SourceGraphic" in2="effect1_dropShadow_662_4898" result="shape"/>
</filter>
</defs>
</svg>
