<svg width="479" height="238" viewBox="0 0 479 238" fill="none" xmlns="http://www.w3.org/2000/svg">
<rect y="0.324585" width="478.548" height="318.148" rx="40" fill="url(#paint0_linear_182_2426)"/>
<path opacity="0.4" d="M0 162.725C0 105.879 0 77.4566 11.0628 55.7445C20.794 36.6461 36.3215 21.1186 55.42 11.3874C77.132 0.324585 105.555 0.324585 162.4 0.324585L359.941 0.324585C377.225 0.324585 385.868 0.324585 393.11 1.39054C436.77 7.81683 471.055 42.1026 477.482 85.7625C478.548 93.0045 478.548 101.647 478.548 118.932V118.932C478.548 137.34 478.548 146.544 477.412 154.257C470.568 200.755 434.054 237.269 387.556 244.113C379.844 245.248 370.639 245.248 352.231 245.248L78.4 245.248C50.9574 245.248 37.2361 245.248 26.7545 239.908C17.5345 235.21 10.0385 227.714 5.34068 218.494C0 208.012 0 194.291 0 166.848L0 162.725Z" fill="url(#paint1_linear_182_2426)"/>
<defs>
<linearGradient id="paint0_linear_182_2426" x1="239.274" y1="104.963" x2="212.05" y2="697.67" gradientUnits="userSpaceOnUse">
<stop stop-color="#4705AF"/>
<stop offset="0.973753" stop-color="#A382D7"/>
</linearGradient>
<linearGradient id="paint1_linear_182_2426" x1="220.132" y1="201.21" x2="230.917" y2="-60.8035" gradientUnits="userSpaceOnUse">
<stop stop-color="#4705AF"/>
<stop offset="0.973753" stop-color="#A382D7"/>
</linearGradient>
</defs>
</svg>
