<svg width="24" height="24" viewBox="0 0 24 24" fill="none" xmlns="http://www.w3.org/2000/svg">
<g clip-path="url(#clip0_221_443)">
<path d="M6 12C6 12.2652 5.89464 12.5196 5.70711 12.7071C5.51957 12.8946 5.26522 13 5 13C4.73478 13 4.48043 12.8946 4.29289 12.7071C4.10536 12.5196 4 12.2652 4 12C4 11.7348 4.10536 11.4804 4.29289 11.2929C4.48043 11.1054 4.73478 11 5 11C5.26522 11 5.51957 11.1054 5.70711 11.2929C5.89464 11.4804 6 11.7348 6 12ZM9 13C9.26522 13 9.51957 12.8946 9.70711 12.7071C9.89464 12.5196 10 12.2652 10 12C10 11.7348 9.89464 11.4804 9.70711 11.2929C9.51957 11.1054 9.26522 11 9 11C8.73478 11 8.48043 11.1054 8.29289 11.2929C8.10536 11.4804 8 11.7348 8 12C8 12.2652 8.10536 12.5196 8.29289 12.7071C8.48043 12.8946 8.73478 13 9 13ZM14 12C14 12.2652 13.8946 12.5196 13.7071 12.7071C13.5196 12.8946 13.2652 13 13 13C12.7348 13 12.4804 12.8946 12.2929 12.7071C12.1054 12.5196 12 12.2652 12 12C12 11.7348 12.1054 11.4804 12.2929 11.2929C12.4804 11.1054 12.7348 11 13 11C13.2652 11 13.5196 11.1054 13.7071 11.2929C13.8946 11.4804 14 11.7348 14 12ZM20 11H16V13H20V11Z" fill="#202020"/>
<path fill-rule="evenodd" clip-rule="evenodd" d="M2 6C1.46957 6 0.960859 6.21071 0.585786 6.58579C0.210714 6.96086 0 7.46957 0 8L0 16C0 16.5304 0.210714 17.0391 0.585786 17.4142C0.960859 17.7893 1.46957 18 2 18H22C22.5304 18 23.0391 17.7893 23.4142 17.4142C23.7893 17.0391 24 16.5304 24 16V8C24 7.46957 23.7893 6.96086 23.4142 6.58579C23.0391 6.21071 22.5304 6 22 6H2ZM22.4717 7.52826H1.55601V16.444H22.4717V7.52826Z" fill="#202020"/>
</g>
<defs>
<clipPath id="clip0_221_443">
<rect width="24" height="24" fill="white"/>
</clipPath>
</defs>
</svg>
