<svg width="24" height="24" viewBox="0 0 24 24" fill="none" xmlns="http://www.w3.org/2000/svg">
<path d="M18.1495 8.88672H5.85002C4.65819 8.88672 3.69202 9.85289 3.69202 11.0447V19.5922C3.69202 20.784 4.65819 21.7502 5.85002 21.7502H18.1495C19.3413 21.7502 20.3075 20.784 20.3075 19.5922V11.0447C20.3075 9.85289 19.3413 8.88672 18.1495 8.88672Z" stroke="#202020" stroke-width="1.5" stroke-linecap="round" stroke-linejoin="round"/>
<path d="M12 17.318V13.318M6.67603 8.8865V7.58C6.67603 6.1664 7.23758 4.81069 8.23715 3.81112C9.23671 2.81155 10.5924 2.25 12.006 2.25C13.4196 2.25 14.7753 2.81155 15.7749 3.81112C16.7745 4.81069 17.336 6.1664 17.336 7.58V8.8865H6.67603Z" stroke="#202020" stroke-width="1.5" stroke-linecap="round" stroke-linejoin="round"/>
</svg>
