<svg width="36" height="36" viewBox="0 0 36 36" fill="none" xmlns="http://www.w3.org/2000/svg">
<circle cx="18" cy="18" r="18" fill="white"/>
<path fill-rule="evenodd" clip-rule="evenodd" d="M24.7165 7.63025C23.936 7.63214 23.3023 8.24987 23.3023 8.99966V15.7815H26.2828C26.9854 15.7815 27.4776 15.5685 27.7922 15.2622C28.1069 14.9558 28.3256 14.4767 28.3256 13.7926V11.1625C28.3256 10.1948 27.9201 9.31104 27.2628 8.66114C26.6131 8.02957 25.7082 7.64016 24.7165 7.63025ZM21.6279 8.99966C21.6279 7.33783 23.024 6 24.72 6H24.7277L24.7277 6.00003C26.1669 6.01289 27.4921 6.57889 28.4488 7.51034L28.4529 7.51432L28.4529 7.51433C29.4017 8.45101 30 9.74007 30 11.1625V13.7926C30 14.8257 29.6606 15.7486 28.9762 16.4149C28.2918 17.0813 27.3439 17.4118 26.2828 17.4118H22.4651C22.0028 17.4118 21.6279 17.0468 21.6279 16.5966V8.99966Z" fill="#202020"/>
<path fill-rule="evenodd" clip-rule="evenodd" d="M7.18031 7.55532C8.07867 6.54246 9.45651 6 11.3023 6H24.6977C25.1601 6 25.5349 6.36494 25.5349 6.81513C25.5349 7.26531 25.1601 7.63025 24.6977 7.63025C23.9321 7.63025 23.3023 8.24346 23.3023 8.98879V27.465C23.3023 29.0319 21.4644 29.9173 20.18 28.9889L20.1774 28.987L18.2597 27.5894C18.1635 27.5173 18.0096 27.5215 17.9111 27.6175L16.0357 29.4434C15.2734 30.1855 14.0289 30.1855 13.2666 29.4434L13.2648 29.4416L11.4136 27.6283C11.4134 27.6282 11.4138 27.6285 11.4136 27.6283C11.3028 27.521 11.1435 27.5158 11.0344 27.5954L9.12878 28.9842C9.12804 28.9847 9.12729 28.9853 9.12654 28.9858C7.83368 29.9368 6 29.0337 6 27.465V11.1625C6 9.85514 6.30177 8.54584 7.18031 7.55532ZM21.9647 7.63025H11.3023C9.7993 7.63025 8.94458 8.06051 8.4476 8.62083C7.93079 9.20351 7.67442 10.0679 7.67442 11.1625V27.465C7.67442 27.6994 7.93717 27.8178 8.11767 27.6847L8.12153 27.6819L10.0298 26.2912C10.8136 25.7188 11.9047 25.8009 12.5976 26.4756L12.5994 26.4773L14.4506 28.2906C14.4504 28.2904 14.4507 28.2908 14.4506 28.2906C14.559 28.3956 14.7435 28.396 14.8517 28.2906L16.7271 26.4647C17.4085 25.8013 18.5015 25.7175 19.2757 26.2934L21.1782 27.68C21.1785 27.6802 21.1788 27.6804 21.1791 27.6806C21.3682 27.8162 21.6279 27.6801 21.6279 27.465V8.98879C21.6279 8.5002 21.7495 8.03827 21.9647 7.63025Z" fill="#202020"/>
<path fill-rule="evenodd" clip-rule="evenodd" d="M10.4648 14.4225C10.4648 13.9724 10.8397 13.6074 11.3021 13.6074H17.9997C18.4621 13.6074 18.8369 13.9724 18.8369 14.4225C18.8369 14.8727 18.4621 15.2377 17.9997 15.2377H11.3021C10.8397 15.2377 10.4648 14.8727 10.4648 14.4225Z" fill="#202020"/>
<path fill-rule="evenodd" clip-rule="evenodd" d="M11.3027 18.7702C11.3027 18.32 11.6776 17.9551 12.1399 17.9551H17.1632C17.6256 17.9551 18.0004 18.32 18.0004 18.7702C18.0004 19.2204 17.6256 19.5853 17.1632 19.5853H12.1399C11.6776 19.5853 11.3027 19.2204 11.3027 18.7702Z" fill="#202020"/>
</svg>
