<svg width="47" height="46" viewBox="0 0 47 46" fill="none" xmlns="http://www.w3.org/2000/svg">
<circle opacity="0.2" cx="23.8159" cy="22.967" r="22.8889" fill="#F5F5FF"/>
<mask id="mask0_633_3381" style="mask-type:alpha" maskUnits="userSpaceOnUse" x="8" y="7" width="32" height="32">
<circle cx="24.0775" cy="23.2286" r="15.3029" fill="#C4C4C4"/>
</mask>
<g mask="url(#mask0_633_3381)">
<g clip-path="url(#clip0_633_3381)">
<path d="M0.927124 7.92578H48.0128V39.3163H0.927124V7.92578Z" fill="#003399"/>
<path d="M24.4671 11.4062L24.8586 12.6106H26.1313L25.1063 13.3554L25.4922 14.561L24.4671 13.8162L23.442 14.561L23.8336 13.356L22.8086 12.6112H24.0756L24.4671 11.4062ZM19.2354 12.8014L19.6269 14.0057H20.8996L19.8746 14.7505L20.2604 15.9561L19.2354 15.2114L18.2103 15.9561L18.6019 14.7511L17.5768 14.0064H18.8439L19.2354 12.8014ZM15.3987 16.638L15.7903 17.8423H17.063L16.0379 18.5871L16.4238 19.7927L15.3987 19.048L14.3737 19.7927L14.7652 18.5878L13.7402 17.843H15.0072L15.3987 16.638ZM14.0036 21.8697L14.3951 23.0741H15.6678L14.6428 23.8189L15.0287 25.0245L14.0036 24.2797L12.9785 25.0245L13.3701 23.8194L12.3451 23.0747H13.6121L14.0036 21.8697ZM15.3987 27.1015L15.7903 28.3059H17.063L16.0379 29.0506L16.4238 30.2562L15.3987 29.5115L14.3737 30.2562L14.7652 29.0512L13.7402 28.3065H15.0072L15.3987 27.1015ZM19.2354 30.9381L19.6269 32.1425H20.8996L19.8746 32.8872L20.2604 34.0928L19.2354 33.3481L18.2103 34.0928L18.6019 32.8879L17.5768 32.1431H18.8439L19.2354 30.9381ZM29.6988 12.8014L30.0904 14.0057H31.3631L30.3381 14.7505L30.7239 15.9561L29.6988 15.2114L28.6737 15.9561L29.0653 14.7511L28.0403 14.0064H29.3073L29.6988 12.8014ZM33.5355 16.638L33.927 17.8423H35.1997L34.1747 18.5871L34.5605 19.7927L33.5355 19.048L32.5103 19.7927L32.902 18.5878L31.8769 17.843H33.1439L33.5355 16.638ZM34.9306 21.8697L35.3221 23.0741H36.5948L35.5698 23.8189L35.9557 25.0245L34.9306 24.2797L33.9055 25.0245L34.2971 23.8194L33.2721 23.0747H34.5391L34.9306 21.8697ZM33.5355 27.1015L33.927 28.3059H35.1997L34.1747 29.0506L34.5605 30.2562L33.5355 29.5115L32.5104 30.2562L32.902 29.0512L31.8769 28.3065H33.144L33.5355 27.1015ZM24.4671 32.3332L24.8586 33.5376H26.1313L25.1063 34.2823L25.4922 35.488L24.4671 34.7433L23.442 35.488L23.8336 34.283L22.8086 33.5382H24.0756L24.4671 32.3332ZM29.6988 30.938L30.0904 32.1424H31.3631L30.3381 32.8872L30.724 34.0928L29.6988 33.3481L28.6738 34.0928L29.0653 32.8878L28.0403 32.1431H29.3074L29.6988 30.938Z" fill="#FFCC00"/>
</g>
</g>
<defs>
<clipPath id="clip0_633_3381">
<rect width="47.0857" height="31.3905" fill="white" transform="translate(0.927124 7.92578)"/>
</clipPath>
</defs>
</svg>
