<svg width="13" height="16" viewBox="0 0 13 16" fill="none" xmlns="http://www.w3.org/2000/svg">
<path d="M7 15.5L6.8125 13.25H6.625C4.85 13.25 3.34375 12.6312 2.10625 11.3937C0.86875 10.1562 0.25 8.65 0.25 6.875C0.25 5.1 0.86875 3.59375 2.10625 2.35625C3.34375 1.11875 4.85 0.5 6.625 0.5C7.5125 0.5 8.3405 0.6655 9.109 0.9965C9.878 1.328 10.5533 1.78425 11.1348 2.36525C11.7158 2.94675 12.1718 3.62175 12.5028 4.39025C12.8342 5.15925 13 5.9875 13 6.875C13 7.8125 12.847 8.7125 12.541 9.575C12.2345 10.4375 11.8157 11.2375 11.2847 11.975C10.7532 12.7125 10.122 13.3813 9.391 13.9813C8.6595 14.5813 7.8625 15.0875 7 15.5ZM8.5 12.7625C9.3875 12.0125 10.1092 11.1345 10.6652 10.1285C11.2217 9.122 11.5 8.0375 11.5 6.875C11.5 5.5125 11.0283 4.35925 10.0848 3.41525C9.14075 2.47175 7.9875 2 6.625 2C5.2625 2 4.1095 2.47175 3.166 3.41525C2.222 4.35925 1.75 5.5125 1.75 6.875C1.75 8.2375 2.222 9.39075 3.166 10.3348C4.1095 11.2782 5.2625 11.75 6.625 11.75H8.5V12.7625ZM6.60625 10.9813C6.81875 10.9813 7 10.9062 7.15 10.7563C7.3 10.6062 7.375 10.425 7.375 10.2125C7.375 10 7.3 9.81875 7.15 9.66875C7 9.51875 6.81875 9.44375 6.60625 9.44375C6.39375 9.44375 6.2125 9.51875 6.0625 9.66875C5.9125 9.81875 5.8375 10 5.8375 10.2125C5.8375 10.425 5.9125 10.6062 6.0625 10.7563C6.2125 10.9062 6.39375 10.9812 6.60625 10.9813ZM6.0625 8.6H7.1875C7.1875 8.225 7.225 7.9625 7.3 7.8125C7.375 7.6625 7.6125 7.3875 8.0125 6.9875C8.2375 6.7625 8.425 6.51875 8.575 6.25625C8.725 5.99375 8.8 5.7125 8.8 5.4125C8.8 4.775 8.5845 4.29675 8.1535 3.97775C7.722 3.65925 7.2125 3.5 6.625 3.5C6.075 3.5 5.6125 3.653 5.2375 3.959C4.8625 4.2655 4.6 4.6375 4.45 5.075L5.5 5.4875C5.5625 5.275 5.68125 5.0655 5.85625 4.859C6.03125 4.653 6.2875 4.55 6.625 4.55C6.9625 4.55 7.21575 4.64375 7.38475 4.83125C7.55325 5.01875 7.6375 5.225 7.6375 5.45C7.6375 5.6625 7.575 5.853 7.45 6.0215C7.325 6.1905 7.175 6.3625 7 6.5375C6.5625 6.9125 6.297 7.20925 6.2035 7.42775C6.1095 7.64675 6.0625 8.0375 6.0625 8.6Z" fill="white"/>
</svg>
