<svg width="24" height="20" viewBox="0 0 24 20" fill="none" xmlns="http://www.w3.org/2000/svg">
<path d="M9.6 0C8.2875 0 7.2 2.23125 7.2 3.51375V6.68625L0.30375 10.6275C0.11625 10.7325 0 10.935 0 11.1488V13.605C0 14.0025 0.3825 14.2913 0.765 14.1825L7.2 12.345V15.0038L5.04 16.6238C4.89 16.7362 4.8 16.9163 4.8 17.1038V18.6788C4.8 18.9713 5.03625 19.2038 5.325 19.2038C5.37375 19.2038 5.4225 19.1963 5.47125 19.185L9.6 18L13.7288 19.1813C13.7775 19.1963 13.8263 19.2 13.875 19.2C14.1 19.2 14.2913 19.0613 14.3663 18.8625C12.9188 17.6513 12 15.8325 12 13.8C12 11.5275 13.1475 9.525 14.8913 8.34L12 6.68625V3.51375C12 2.23125 10.95 0 9.6 0ZM24 13.8C24 10.8188 21.5813 8.4 18.6 8.4C15.6188 8.4 13.2 10.8188 13.2 13.8C13.2 16.7812 15.6188 19.2 18.6 19.2C21.5813 19.2 24 16.7812 24 13.8ZM21.1238 12.1763C21.3563 12.4088 21.3563 12.7913 21.1238 13.0238L18.4237 15.7238C18.1912 15.9563 17.8088 15.9563 17.5763 15.7238L16.0763 14.2238C15.8438 13.9913 15.8438 13.6088 16.0763 13.3763C16.3088 13.1438 16.6912 13.1438 16.9237 13.3763L18 14.4525L20.2763 12.1763C20.5088 11.9438 20.8913 11.9438 21.1238 12.1763Z" fill="#F97316"/>
</svg>
