<svg width="36" height="36" viewBox="0 0 36 36" fill="none" xmlns="http://www.w3.org/2000/svg">
<g clip-path="url(#clip0_662_5057)">
<path d="M18 36C27.9411 36 36 27.9411 36 18C36 8.05888 27.9411 0 18 0C8.05888 0 0 8.05888 0 18C0 27.9411 8.05888 36 18 36Z" fill="white"/>
<path d="M19.4694 20.8945H15.7959" stroke="#4705AF" stroke-width="1.5" stroke-miterlimit="10" stroke-linecap="round" stroke-linejoin="round"/>
<path d="M17.6328 19.1021V22.7755" stroke="#4705AF" stroke-width="1.5" stroke-miterlimit="10" stroke-linecap="round" stroke-linejoin="round"/>
<path d="M17.633 25.7144H14.7677C14.5914 25.7144 14.415 25.6997 14.2461 25.6776C11.9097 25.5233 10.6607 24.2744 10.5065 21.938C10.4844 21.7691 10.4697 21.5927 10.4697 21.4164V19.9837C10.4697 18.507 11.3661 17.236 12.6444 16.685C13.0852 16.5013 13.5554 16.3984 14.055 16.3984H21.2256C21.5856 16.3984 21.9383 16.4499 22.2616 16.5454C23.731 16.9862 24.8036 18.3601 24.8036 19.9764V21.409C24.8036 21.556 24.7963 21.7029 24.7889 21.8499C24.6493 24.4213 23.2167 25.7144 20.4983 25.7144" stroke="#4705AF" stroke-width="1.5" stroke-linecap="round" stroke-linejoin="round"/>
<path d="M18.2939 11.4026L18.2718 11.4541L16.1412 16.3986H14.0473C13.5477 16.3986 13.0702 16.5014 12.6367 16.6851L13.9224 13.6141L13.9518 13.5406L14.0032 13.4231C14.0179 13.379 14.0326 13.3349 14.0547 13.2982C15.0171 11.072 16.1045 10.5651 18.2939 11.4026Z" stroke="#4705AF" stroke-width="1.5" stroke-linecap="round" stroke-linejoin="round"/>
<path d="M22.2543 16.5452C21.9236 16.4423 21.571 16.3983 21.2183 16.3983H16.1416L18.2722 11.4538L18.2943 11.4023C18.4045 11.4391 18.5073 11.4905 18.6175 11.5346L20.2412 12.2179C21.1449 12.5925 21.7767 12.9819 22.1587 13.4521C22.2322 13.5403 22.291 13.6211 22.3424 13.7166C22.4085 13.8195 22.46 13.9223 22.4894 14.0325C22.5187 14.0987 22.5408 14.1648 22.5555 14.2236C22.7538 14.8407 22.6363 15.5974 22.2543 16.5452Z" stroke="#4705AF" stroke-width="1.5" stroke-linecap="round" stroke-linejoin="round"/>
<path d="M13.9223 13.6138L12.6366 16.6848C11.3582 17.2358 10.4619 18.5068 10.4619 19.9836V17.8309C10.4619 15.7444 11.946 14.0032 13.9223 13.6138Z" stroke="#4705AF" stroke-width="1.5" stroke-linecap="round" stroke-linejoin="round"/>
<path d="M24.8028 17.8311V19.9837C24.8028 18.3674 23.7301 16.9935 22.2607 16.5527C22.6428 15.5976 22.753 14.8482 22.5693 14.2237C22.5546 14.1576 22.5326 14.0915 22.5032 14.0327C23.8697 14.738 24.8028 16.1854 24.8028 17.8311Z" stroke="#4705AF" stroke-width="1.5" stroke-linecap="round" stroke-linejoin="round"/>
</g>
<defs>
<clipPath id="clip0_662_5057">
<rect width="36" height="36" fill="white"/>
</clipPath>
</defs>
</svg>
