<svg width="47" height="47" viewBox="0 0 47 47" fill="none" xmlns="http://www.w3.org/2000/svg">
<circle opacity="0.2" cx="23.8159" cy="23.5256" r="22.8889" fill="#F5F5FF"/>
<mask id="mask0_633_3392" style="mask-type:alpha" maskUnits="userSpaceOnUse" x="8" y="8" width="32" height="32">
<circle cx="24.0775" cy="23.7872" r="15.3029" fill="#C4C4C4"/>
</mask>
<g mask="url(#mask0_633_3392)">
<g clip-path="url(#clip0_633_3392)">
<path d="M0.927002 8.48438H48.0128V39.8752H0.927002V8.48438Z" fill="white"/>
<path d="M27.4127 8.48438H21.527V21.2367H0.927002V27.1224H21.527V39.8748H27.4127V27.1224H48.0128V21.2367H27.4127V8.48438Z" fill="#D80027"/>
<path d="M37.1412 29.6387L48.0128 35.6785V29.6387H37.1412ZM29.5879 29.6387L48.0128 39.8747V36.9802L34.7981 29.6387H29.5879ZM43.105 39.8747L29.5879 32.3645V39.8747H43.105Z" fill="#0052B4"/>
<path d="M29.5879 29.6387L48.0128 39.8747V36.9802L34.7981 29.6387H29.5879Z" fill="white"/>
<path d="M29.5879 29.6387L48.0128 39.8747V36.9802L34.7981 29.6387H29.5879Z" fill="#D80027"/>
<path d="M9.23516 29.6387L0.927002 34.2544V29.6387H9.23516ZM19.3519 30.9403V39.8748H3.27127L19.3519 30.9403Z" fill="#0052B4"/>
<path d="M14.1416 29.6387L0.927002 36.9802V39.8747L19.3519 29.6387H14.1416Z" fill="#D80027"/>
<path d="M11.7986 18.7204L0.927002 12.6805V18.7204H11.7986ZM19.3519 18.7204L0.927002 8.48438V11.3789L14.1416 18.7204H19.3519ZM5.83477 8.48438L19.3519 15.9946V8.48438H5.83477Z" fill="#0052B4"/>
<path d="M19.3519 18.7204L0.927002 8.48438V11.3789L14.1416 18.7204H19.3519Z" fill="white"/>
<path d="M19.3519 18.7204L0.927002 8.48438V11.3789L14.1416 18.7204H19.3519Z" fill="#D80027"/>
<path d="M39.7046 18.7205L48.0128 14.1048V18.7205H39.7046ZM29.5879 17.4188V8.48438H45.6685L29.5879 17.4188Z" fill="#0052B4"/>
<path d="M34.7981 18.7204L48.0128 11.3789V8.48438L29.5879 18.7204H34.7981Z" fill="#D80027"/>
</g>
</g>
<defs>
<clipPath id="clip0_633_3392">
<rect width="47.0858" height="31.3905" fill="white" transform="translate(0.927002 8.48438)"/>
</clipPath>
</defs>
</svg>
