<svg width="293" height="178" viewBox="0 0 293 178" fill="none" xmlns="http://www.w3.org/2000/svg">
<rect opacity="0.1" width="293" height="178" rx="10" fill="#05CB6F"/>
<rect opacity="0.1" x="90" y="116" width="139" height="40" rx="6" fill="white"/>
<path d="M108.516 141.266C107.639 141.266 106.864 141.121 106.192 140.832C105.529 140.533 104.969 140.137 104.512 139.642C104.064 139.147 103.723 138.583 103.49 137.948C103.266 137.313 103.154 136.655 103.154 135.974V135.666C103.154 135.022 103.266 134.392 103.49 133.776C103.714 133.16 104.041 132.605 104.47 132.11C104.909 131.615 105.445 131.223 106.08 130.934C106.715 130.635 107.452 130.486 108.292 130.486C109.179 130.486 109.967 130.654 110.658 130.99C111.358 131.326 111.918 131.793 112.338 132.39C112.758 132.978 113.005 133.659 113.08 134.434H111.078C111.013 133.995 110.849 133.622 110.588 133.314C110.327 132.997 109.995 132.754 109.594 132.586C109.202 132.418 108.768 132.334 108.292 132.334C107.648 132.334 107.093 132.483 106.626 132.782C106.159 133.071 105.8 133.482 105.548 134.014C105.296 134.537 105.17 135.143 105.17 135.834C105.17 136.973 105.469 137.864 106.066 138.508C106.673 139.143 107.489 139.46 108.516 139.46C109.057 139.46 109.547 139.367 109.986 139.18C110.434 138.993 110.798 138.746 111.078 138.438V137.29H108.194V135.806H113.766V137.29H112.912V139.166C112.473 139.838 111.876 140.356 111.12 140.72C110.364 141.084 109.496 141.266 108.516 141.266ZM118.903 141.266C118.249 141.266 117.675 141.154 117.181 140.93C116.695 140.706 116.289 140.407 115.963 140.034C115.645 139.651 115.403 139.227 115.235 138.76C115.076 138.293 114.997 137.817 114.997 137.332V137.066C114.997 136.562 115.076 136.077 115.235 135.61C115.403 135.143 115.645 134.723 115.963 134.35C116.289 133.977 116.691 133.683 117.167 133.468C117.643 133.244 118.193 133.132 118.819 133.132C119.64 133.132 120.326 133.314 120.877 133.678C121.427 134.033 121.843 134.504 122.123 135.092C122.412 135.671 122.557 136.296 122.557 136.968V137.668H116.845C116.91 138.265 117.106 138.746 117.433 139.11C117.769 139.474 118.259 139.656 118.903 139.656C119.369 139.656 119.752 139.563 120.051 139.376C120.359 139.18 120.555 138.942 120.639 138.662H122.431C122.263 139.446 121.866 140.076 121.241 140.552C120.615 141.028 119.836 141.266 118.903 141.266ZM118.819 134.742C118.268 134.742 117.829 134.896 117.503 135.204C117.176 135.512 116.966 135.937 116.873 136.478H120.695C120.62 135.937 120.424 135.512 120.107 135.204C119.799 134.896 119.369 134.742 118.819 134.742ZM127.736 141.098C127.036 141.098 126.458 141.009 126 140.832C125.543 140.645 125.202 140.337 124.978 139.908C124.764 139.479 124.656 138.891 124.656 138.144V134.826H123.452V133.398H124.656L124.67 131.256H126.49L126.476 133.398H128.828V134.826H126.476V138.27C126.476 138.643 126.574 138.933 126.77 139.138C126.976 139.334 127.265 139.432 127.638 139.432H128.828V141.098H127.736ZM137.623 141.266C136.718 141.266 135.952 141.121 135.327 140.832C134.702 140.543 134.226 140.146 133.899 139.642C133.582 139.138 133.423 138.559 133.423 137.906H135.369C135.369 138.186 135.444 138.452 135.593 138.704C135.742 138.956 135.98 139.161 136.307 139.32C136.643 139.479 137.082 139.558 137.623 139.558C138.351 139.558 138.897 139.409 139.261 139.11C139.625 138.811 139.807 138.447 139.807 138.018C139.807 137.663 139.653 137.374 139.345 137.15C139.037 136.926 138.561 136.786 137.917 136.73L137.021 136.66C136.041 136.576 135.257 136.273 134.669 135.75C134.09 135.218 133.801 134.518 133.801 133.65C133.801 133.006 133.95 132.446 134.249 131.97C134.557 131.494 134.991 131.13 135.551 130.878C136.111 130.617 136.764 130.486 137.511 130.486C138.276 130.486 138.939 130.621 139.499 130.892C140.068 131.163 140.507 131.545 140.815 132.04C141.123 132.525 141.277 133.099 141.277 133.762H139.331C139.331 133.351 139.177 132.987 138.869 132.67C138.57 132.353 138.118 132.194 137.511 132.194C136.914 132.194 136.47 132.339 136.181 132.628C135.892 132.917 135.747 133.258 135.747 133.65C135.747 133.967 135.859 134.247 136.083 134.49C136.316 134.723 136.69 134.859 137.203 134.896L138.099 134.98C138.827 135.045 139.462 135.204 140.003 135.456C140.554 135.699 140.983 136.035 141.291 136.464C141.599 136.893 141.753 137.411 141.753 138.018C141.753 138.662 141.58 139.231 141.235 139.726C140.899 140.211 140.423 140.589 139.807 140.86C139.191 141.131 138.463 141.266 137.623 141.266ZM146.971 141.098C146.271 141.098 145.692 141.009 145.235 140.832C144.777 140.645 144.437 140.337 144.213 139.908C143.998 139.479 143.891 138.891 143.891 138.144V134.826H142.687V133.398H143.891L143.905 131.256H145.725L145.711 133.398H148.063V134.826H145.711V138.27C145.711 138.643 145.809 138.933 146.005 139.138C146.21 139.334 146.499 139.432 146.873 139.432H148.063V141.098H146.971ZM152.075 141.196C151.235 141.196 150.563 140.981 150.059 140.552C149.564 140.123 149.317 139.521 149.317 138.746C149.317 137.915 149.615 137.304 150.213 136.912C150.819 136.511 151.631 136.31 152.649 136.31H154.203V136.24C154.203 135.372 153.764 134.938 152.887 134.938C152.653 134.938 152.373 134.943 152.047 134.952C151.72 134.961 151.389 134.975 151.053 134.994C150.726 135.003 150.432 135.017 150.171 135.036V133.384C150.488 133.356 150.866 133.333 151.305 133.314C151.753 133.295 152.163 133.286 152.537 133.286C153.703 133.286 154.581 133.524 155.169 134C155.766 134.467 156.065 135.227 156.065 136.282V141H154.525V139.544C154.179 140.645 153.363 141.196 152.075 141.196ZM152.621 139.81C152.882 139.81 153.129 139.763 153.363 139.67C153.596 139.567 153.787 139.399 153.937 139.166C154.095 138.923 154.184 138.597 154.203 138.186V137.472H152.621C152.173 137.472 151.827 137.584 151.585 137.808C151.351 138.023 151.235 138.303 151.235 138.648C151.235 139.003 151.351 139.287 151.585 139.502C151.827 139.707 152.173 139.81 152.621 139.81ZM158.399 141V133.398H159.939V135.876C160.144 134.159 161.05 133.3 162.655 133.3H162.935V134.994H162.403C161.74 134.994 161.232 135.171 160.877 135.526C160.522 135.881 160.345 136.385 160.345 137.038V141H158.399ZM167.955 141.098C167.255 141.098 166.676 141.009 166.219 140.832C165.762 140.645 165.421 140.337 165.197 139.908C164.982 139.479 164.875 138.891 164.875 138.144V134.826H163.671V133.398H164.875L164.889 131.256H166.709L166.695 133.398H169.047V134.826H166.695V138.27C166.695 138.643 166.793 138.933 166.989 139.138C167.194 139.334 167.484 139.432 167.857 139.432H169.047V141.098H167.955ZM174.291 141.266C173.638 141.266 173.064 141.154 172.569 140.93C172.084 140.706 171.678 140.407 171.351 140.034C171.034 139.651 170.791 139.227 170.623 138.76C170.465 138.293 170.385 137.817 170.385 137.332V137.066C170.385 136.562 170.465 136.077 170.623 135.61C170.791 135.143 171.034 134.723 171.351 134.35C171.678 133.977 172.079 133.683 172.555 133.468C173.031 133.244 173.582 133.132 174.207 133.132C175.029 133.132 175.715 133.314 176.265 133.678C176.816 134.033 177.231 134.504 177.511 135.092C177.801 135.671 177.945 136.296 177.945 136.968V137.668H172.233C172.299 138.265 172.495 138.746 172.821 139.11C173.157 139.474 173.647 139.656 174.291 139.656C174.758 139.656 175.141 139.563 175.439 139.376C175.747 139.18 175.943 138.942 176.027 138.662H177.819C177.651 139.446 177.255 140.076 176.629 140.552C176.004 141.028 175.225 141.266 174.291 141.266ZM174.207 134.742C173.657 134.742 173.218 134.896 172.891 135.204C172.565 135.512 172.355 135.937 172.261 136.478H176.083C176.009 135.937 175.813 135.512 175.495 135.204C175.187 134.896 174.758 134.742 174.207 134.742ZM182.971 141.252C182.262 141.252 181.632 141.084 181.081 140.748C180.53 140.403 180.096 139.936 179.779 139.348C179.471 138.76 179.317 138.097 179.317 137.36V137.066C179.317 136.338 179.466 135.68 179.765 135.092C180.064 134.504 180.479 134.037 181.011 133.692C181.552 133.337 182.187 133.16 182.915 133.16C183.456 133.16 183.942 133.272 184.371 133.496C184.81 133.711 185.169 134.037 185.449 134.476V130.78H187.395V141H185.855V139.404C185.594 140.02 185.206 140.482 184.693 140.79C184.189 141.098 183.615 141.252 182.971 141.252ZM183.405 139.614C183.788 139.614 184.138 139.53 184.455 139.362C184.772 139.185 185.024 138.933 185.211 138.606C185.407 138.279 185.505 137.887 185.505 137.43V136.87C185.505 136.431 185.402 136.058 185.197 135.75C185.001 135.442 184.744 135.209 184.427 135.05C184.11 134.882 183.769 134.798 183.405 134.798C182.77 134.798 182.252 135.022 181.851 135.47C181.459 135.909 181.263 136.492 181.263 137.22C181.263 137.948 181.464 138.531 181.865 138.97C182.266 139.399 182.78 139.614 183.405 139.614Z" fill="#05CB6F"/>
<path d="M198 136H212" stroke="#05CB6F" stroke-width="2" stroke-linecap="round" stroke-linejoin="round"/>
<path d="M205 129L212 136L205 143" stroke="#05CB6F" stroke-width="2" stroke-linecap="round" stroke-linejoin="round"/>
<g filter="url(#filter0_d_34_808)">
<rect x="13" y="25" width="64" height="64" rx="25" fill="white"/>
</g>
<path d="M52.35 46.5C52.35 46.0359 52.5344 45.5908 52.8626 45.2626C53.1908 44.9344 53.6359 44.75 54.1 44.75C55.2148 44.75 56.3085 44.974 57.3742 45.401C58.5345 45.8648 59.427 46.5525 60.2373 47.361C61.0475 48.173 61.7352 49.0655 62.199 50.2257C62.626 51.2915 62.85 52.3853 62.85 53.5C62.85 54.6147 62.626 55.7085 62.199 56.7743C61.7422 57.9205 61.065 58.8042 60.267 59.6075L58.545 61.5028C58.5262 61.5231 58.507 61.5429 58.4873 61.5623L52.8872 67.1622C52.077 67.9725 51.1845 68.6603 50.0243 69.1258C48.9845 69.5498 47.8729 69.7702 46.75 69.775C45.627 69.7696 44.5154 69.5486 43.4757 69.124C42.3155 68.6602 41.423 67.9725 40.6128 67.164C39.8025 66.352 39.1147 65.4595 38.651 64.2992C38.2098 63.2033 37.9886 62.0313 38 60.85C38 59.7352 38.224 58.6415 38.651 57.5758C39.1147 56.4155 39.8025 55.523 40.611 54.7127L42.536 52.7878C42.6985 52.6252 42.8914 52.4962 43.1037 52.4081C43.3161 52.3201 43.5436 52.2747 43.7735 52.2746C44.0034 52.2746 44.231 52.3198 44.4434 52.4076C44.6558 52.4955 44.8488 52.6244 45.0114 52.7869C45.174 52.9494 45.303 53.1423 45.391 53.3546C45.479 53.5669 45.5244 53.7945 45.5245 54.0244C45.5246 54.2542 45.4794 54.4819 45.3915 54.6943C45.3036 54.9067 45.1747 55.0997 45.0122 55.2622L43.0872 57.1873C42.4975 57.777 42.1353 58.2845 41.9008 58.8743C41.6414 59.5009 41.5053 60.1718 41.5 60.85C41.5 61.683 41.6348 62.3375 41.9008 63.0007C42.1353 63.5905 42.4975 64.098 43.0872 64.6877C43.677 65.2775 44.1845 65.6397 44.7743 65.8742C45.4585 66.149 46.1147 66.275 46.75 66.275C47.3853 66.275 48.0415 66.149 48.7257 65.8742C49.3155 65.6397 49.823 65.2775 50.4128 64.6877L55.983 59.1175L57.705 57.2222C57.7238 57.2019 57.743 57.1821 57.7627 57.1628C58.3525 56.573 58.7148 56.0655 58.9493 55.4757C59.224 54.7915 59.35 54.1353 59.35 53.5C59.35 52.8647 59.224 52.2085 58.9493 51.5243C58.7148 50.9345 58.3525 50.427 57.7627 49.8373C57.173 49.2475 56.6655 48.8853 56.0758 48.649C55.4489 48.3902 54.7781 48.2548 54.1 48.25C53.6359 48.25 53.1908 48.0656 52.8626 47.7374C52.5344 47.4092 52.35 46.9641 52.35 46.5ZM43.775 49.125C43.1398 49.125 42.4835 49.251 41.7992 49.524C41.2095 49.7603 40.702 50.1225 40.1122 50.714L34.367 56.4575L32.645 58.3527L32.5873 58.4123C31.9975 59.002 31.6353 59.5095 31.399 60.0992C31.1402 60.7261 31.0048 61.3969 31 62.075C31 62.7102 31.126 63.3665 31.399 64.0507C31.6353 64.6405 31.9975 65.148 32.589 65.7378C33.177 66.3275 33.6845 66.6898 34.2742 66.926C34.9585 67.199 35.6147 67.325 36.25 67.325C36.7141 67.325 37.1592 67.5094 37.4874 67.8376C37.8156 68.1658 38 68.6109 38 69.075C38 69.5391 37.8156 69.9842 37.4874 70.3124C37.1592 70.6406 36.7141 70.825 36.25 70.825C35.1271 70.8202 34.0155 70.5998 32.9758 70.1757C31.8155 69.7102 30.923 69.0225 30.1128 68.2122C29.3025 67.402 28.6147 66.5095 28.151 65.3493C27.7264 64.3096 27.5054 63.198 27.5 62.075C27.5 60.9602 27.724 59.8665 28.151 58.8008C28.6077 57.6545 29.285 56.7708 30.083 55.9675L31.805 54.0722L31.8628 54.0128L37.6378 48.2378C38.448 47.4275 39.3405 46.7398 40.5007 46.276C41.5404 45.8514 42.652 45.6304 43.775 45.625C44.8897 45.625 45.9835 45.849 47.0492 46.276C48.2095 46.7398 49.102 47.4275 49.9123 48.236C50.7225 49.048 51.4103 49.9405 51.874 51.1007C52.301 52.1665 52.525 53.2603 52.525 54.375C52.525 55.4897 52.301 56.5835 51.874 57.6493C51.4155 58.7955 50.7383 59.6828 49.9403 60.4843L48.0398 62.558C47.726 62.9001 47.2892 63.1035 46.8255 63.1235C46.3618 63.1435 45.9091 62.9785 45.567 62.6648C45.2249 62.351 45.0215 61.9142 45.0015 61.4505C44.9815 60.9868 45.1465 60.5341 45.4602 60.192L47.3853 58.092L47.4377 58.0378C48.0275 57.448 48.3897 56.9405 48.6243 56.3507C48.899 55.6665 49.025 55.0103 49.025 54.375C49.025 53.7397 48.899 53.0835 48.6243 52.3993C48.3897 51.8095 48.0275 51.302 47.4377 50.7122C46.848 50.1225 46.3405 49.7603 45.7507 49.524C45.1239 49.2652 44.4531 49.1298 43.775 49.125Z" fill="#05CB6F"/>
<path d="M96.704 40.304C95.6373 40.304 94.7253 40.1173 93.968 39.744C93.2213 39.3707 92.608 38.8853 92.128 38.288C91.6587 37.6907 91.312 37.0453 91.088 36.352C90.864 35.648 90.752 34.9653 90.752 34.304V33.952C90.752 33.2373 90.864 32.528 91.088 31.824C91.3227 31.1093 91.68 30.464 92.16 29.888C92.64 29.312 93.248 28.8533 93.984 28.512C94.72 28.16 95.6 27.984 96.624 27.984C97.6693 27.984 98.5867 28.176 99.376 28.56C100.165 28.944 100.795 29.4773 101.264 30.16C101.733 30.8427 102.016 31.6427 102.112 32.56H99.824C99.696 31.76 99.3387 31.152 98.752 30.736C98.176 30.3093 97.4667 30.096 96.624 30.096C95.8453 30.096 95.1893 30.272 94.656 30.624C94.1333 30.9653 93.7333 31.44 93.456 32.048C93.1893 32.656 93.056 33.3547 93.056 34.144C93.056 34.912 93.1947 35.6 93.472 36.208C93.7493 36.816 94.16 37.3013 94.704 37.664C95.248 38.016 95.9147 38.192 96.704 38.192C97.5787 38.192 98.3147 37.9787 98.912 37.552C99.52 37.1147 99.888 36.5067 100.016 35.728H102.304C102.197 36.5707 101.909 37.3387 101.44 38.032C100.981 38.7253 100.352 39.28 99.552 39.696C98.7627 40.1013 97.8133 40.304 96.704 40.304ZM104.295 40V31.312H106.055V34.144C106.29 32.1813 107.325 31.2 109.159 31.2H109.479V33.136H108.871C108.114 33.136 107.533 33.3387 107.127 33.744C106.722 34.1493 106.519 34.7253 106.519 35.472V40H104.295ZM115.043 40.304C114.296 40.304 113.64 40.176 113.075 39.92C112.52 39.664 112.056 39.3227 111.683 38.896C111.32 38.4587 111.043 37.9733 110.851 37.44C110.669 36.9067 110.579 36.3627 110.579 35.808V35.504C110.579 34.928 110.669 34.3733 110.851 33.84C111.043 33.3067 111.32 32.8267 111.683 32.4C112.056 31.9733 112.515 31.6373 113.059 31.392C113.603 31.136 114.232 31.008 114.947 31.008C115.885 31.008 116.669 31.216 117.299 31.632C117.928 32.0373 118.403 32.576 118.723 33.248C119.053 33.9093 119.219 34.624 119.219 35.392V36.192H112.691C112.765 36.8747 112.989 37.424 113.363 37.84C113.747 38.256 114.307 38.464 115.043 38.464C115.576 38.464 116.013 38.3573 116.355 38.144C116.707 37.92 116.931 37.648 117.027 37.328H119.075C118.883 38.224 118.429 38.944 117.715 39.488C117 40.032 116.109 40.304 115.043 40.304ZM114.947 32.848C114.317 32.848 113.816 33.024 113.443 33.376C113.069 33.728 112.829 34.2133 112.723 34.832H117.091C117.005 34.2133 116.781 33.728 116.419 33.376C116.067 33.024 115.576 32.848 114.947 32.848ZM123.791 40.224C122.831 40.224 122.063 39.9787 121.487 39.488C120.921 38.9973 120.639 38.3093 120.639 37.424C120.639 36.4747 120.98 35.776 121.663 35.328C122.356 34.8693 123.284 34.64 124.447 34.64H126.223V34.56C126.223 33.568 125.721 33.072 124.719 33.072C124.452 33.072 124.132 33.0773 123.759 33.088C123.385 33.0987 123.007 33.1147 122.623 33.136C122.249 33.1467 121.913 33.1627 121.615 33.184V31.296C121.977 31.264 122.409 31.2373 122.911 31.216C123.423 31.1947 123.892 31.184 124.319 31.184C125.652 31.184 126.655 31.456 127.327 32C128.009 32.5333 128.351 33.4027 128.351 34.608V40H126.591V38.336C126.196 39.5947 125.263 40.224 123.791 40.224ZM124.415 38.64C124.713 38.64 124.996 38.5867 125.263 38.48C125.529 38.3627 125.748 38.1707 125.919 37.904C126.1 37.6267 126.201 37.2533 126.223 36.784V35.968H124.415C123.903 35.968 123.508 36.096 123.231 36.352C122.964 36.5973 122.831 36.9173 122.831 37.312C122.831 37.7173 122.964 38.0427 123.231 38.288C123.508 38.5227 123.903 38.64 124.415 38.64ZM134.759 40.112C133.959 40.112 133.297 40.0107 132.775 39.808C132.252 39.5947 131.863 39.2427 131.607 38.752C131.361 38.2613 131.239 37.5893 131.239 36.736V32.944H129.863V31.312H131.239L131.255 28.864H133.335L133.319 31.312H136.007V32.944H133.319V36.88C133.319 37.3067 133.431 37.6373 133.655 37.872C133.889 38.096 134.22 38.208 134.647 38.208H136.007V40.112H134.759ZM141.965 40.304C141.218 40.304 140.562 40.176 139.997 39.92C139.442 39.664 138.978 39.3227 138.605 38.896C138.242 38.4587 137.965 37.9733 137.773 37.44C137.591 36.9067 137.501 36.3627 137.501 35.808V35.504C137.501 34.928 137.591 34.3733 137.773 33.84C137.965 33.3067 138.242 32.8267 138.605 32.4C138.978 31.9733 139.437 31.6373 139.981 31.392C140.525 31.136 141.154 31.008 141.869 31.008C142.807 31.008 143.591 31.216 144.221 31.632C144.85 32.0373 145.325 32.576 145.645 33.248C145.975 33.9093 146.141 34.624 146.141 35.392V36.192H139.613C139.687 36.8747 139.911 37.424 140.285 37.84C140.669 38.256 141.229 38.464 141.965 38.464C142.498 38.464 142.935 38.3573 143.277 38.144C143.629 37.92 143.853 37.648 143.949 37.328H145.997C145.805 38.224 145.351 38.944 144.637 39.488C143.922 40.032 143.031 40.304 141.965 40.304ZM141.869 32.848C141.239 32.848 140.738 33.024 140.365 33.376C139.991 33.728 139.751 34.2133 139.645 34.832H144.013C143.927 34.2133 143.703 33.728 143.341 33.376C142.989 33.024 142.498 32.848 141.869 32.848ZM152.128 40V28.24H156.16C157.632 28.24 158.768 28.5973 159.568 29.312C160.378 30.016 160.784 30.976 160.784 32.192V32.448C160.784 33.664 160.378 34.6293 159.568 35.344C158.768 36.0587 157.632 36.416 156.16 36.416H154.4V40H152.128ZM156.352 30.208H154.4V34.448H156.352C157.034 34.448 157.557 34.2507 157.92 33.856C158.293 33.4613 158.48 32.9493 158.48 32.32C158.48 31.6907 158.293 31.184 157.92 30.8C157.557 30.4053 157.034 30.208 156.352 30.208ZM165.087 40.224C164.127 40.224 163.359 39.9787 162.783 39.488C162.218 38.9973 161.935 38.3093 161.935 37.424C161.935 36.4747 162.277 35.776 162.959 35.328C163.653 34.8693 164.581 34.64 165.743 34.64H167.519V34.56C167.519 33.568 167.018 33.072 166.015 33.072C165.749 33.072 165.429 33.0773 165.055 33.088C164.682 33.0987 164.303 33.1147 163.919 33.136C163.546 33.1467 163.21 33.1627 162.911 33.184V31.296C163.274 31.264 163.706 31.2373 164.207 31.216C164.719 31.1947 165.189 31.184 165.615 31.184C166.949 31.184 167.951 31.456 168.623 32C169.306 32.5333 169.647 33.4027 169.647 34.608V40H167.887V38.336C167.493 39.5947 166.559 40.224 165.087 40.224ZM165.711 38.64C166.01 38.64 166.293 38.5867 166.559 38.48C166.826 38.3627 167.045 38.1707 167.215 37.904C167.397 37.6267 167.498 37.2533 167.519 36.784V35.968H165.711C165.199 35.968 164.805 36.096 164.527 36.352C164.261 36.5973 164.127 36.9173 164.127 37.312C164.127 37.7173 164.261 38.0427 164.527 38.288C164.805 38.5227 165.199 38.64 165.711 38.64ZM173.866 39.808L171.05 31.312H173.29L175.402 38.048H175.754L177.498 31.312H179.626L177.05 40.768C176.784 41.7387 176.362 42.4213 175.786 42.816C175.221 43.2213 174.405 43.424 173.338 43.424H171.914V41.52H173.546C173.994 41.52 174.341 41.4293 174.586 41.248C174.842 41.0773 175.034 40.7573 175.162 40.288L175.29 39.808H173.866ZM181.405 40V31.312H183.165V33.44C183.527 31.84 184.471 31.04 185.997 31.04H186.093C187.469 31.04 188.375 31.696 188.813 33.008C189.239 31.696 190.146 31.04 191.533 31.04H191.629C192.621 31.04 193.373 31.3813 193.885 32.064C194.407 32.7467 194.669 33.7387 194.669 35.04V40H192.445V34.832C192.445 34.288 192.306 33.856 192.029 33.536C191.751 33.2053 191.357 33.04 190.845 33.04C190.322 33.04 189.906 33.2107 189.597 33.552C189.298 33.8827 189.149 34.3307 189.149 34.896V40H186.925V34.832C186.925 34.288 186.786 33.856 186.509 33.536C186.231 33.2053 185.837 33.04 185.325 33.04C184.802 33.04 184.386 33.2107 184.077 33.552C183.778 33.8827 183.629 34.3307 183.629 34.896V40H181.405ZM201.183 40.304C200.437 40.304 199.781 40.176 199.215 39.92C198.661 39.664 198.197 39.3227 197.823 38.896C197.461 38.4587 197.183 37.9733 196.991 37.44C196.81 36.9067 196.719 36.3627 196.719 35.808V35.504C196.719 34.928 196.81 34.3733 196.991 33.84C197.183 33.3067 197.461 32.8267 197.823 32.4C198.197 31.9733 198.655 31.6373 199.199 31.392C199.743 31.136 200.373 31.008 201.087 31.008C202.026 31.008 202.81 31.216 203.439 31.632C204.069 32.0373 204.543 32.576 204.863 33.248C205.194 33.9093 205.359 34.624 205.359 35.392V36.192H198.831C198.906 36.8747 199.13 37.424 199.503 37.84C199.887 38.256 200.447 38.464 201.183 38.464C201.717 38.464 202.154 38.3573 202.495 38.144C202.847 37.92 203.071 37.648 203.167 37.328H205.215C205.023 38.224 204.57 38.944 203.855 39.488C203.141 40.032 202.25 40.304 201.183 40.304ZM201.087 32.848C200.458 32.848 199.957 33.024 199.583 33.376C199.21 33.728 198.97 34.2133 198.863 34.832H203.231C203.146 34.2133 202.922 33.728 202.559 33.376C202.207 33.024 201.717 32.848 201.087 32.848ZM207.467 40V31.312H209.227V33.456C209.6 31.8453 210.592 31.04 212.203 31.04H212.299C213.334 31.04 214.118 31.376 214.651 32.048C215.184 32.72 215.451 33.712 215.451 35.024V40H213.227V34.832C213.227 34.2987 213.072 33.8667 212.763 33.536C212.454 33.2053 212.038 33.04 211.515 33.04C210.971 33.04 210.528 33.2107 210.187 33.552C209.856 33.8933 209.691 34.3413 209.691 34.896V40H207.467ZM221.868 40.112C221.068 40.112 220.407 40.0107 219.884 39.808C219.361 39.5947 218.972 39.2427 218.716 38.752C218.471 38.2613 218.348 37.5893 218.348 36.736V32.944H216.972V31.312H218.348L218.364 28.864H220.444L220.428 31.312H223.116V32.944H220.428V36.88C220.428 37.3067 220.54 37.6373 220.764 37.872C220.999 38.096 221.329 38.208 221.756 38.208H223.116V40.112H221.868ZM229.112 40V28.32H231.384V38H236.104V40H229.112ZM239.262 30.272C238.824 30.272 238.499 30.16 238.286 29.936C238.083 29.7013 237.982 29.408 237.982 29.056C237.982 28.704 238.083 28.416 238.286 28.192C238.499 27.968 238.824 27.856 239.262 27.856C239.688 27.856 240.003 27.968 240.206 28.192C240.419 28.416 240.526 28.704 240.526 29.056C240.526 29.408 240.419 29.7013 240.206 29.936C240.003 30.16 239.688 30.272 239.262 30.272ZM238.446 40V32.976H237.23V31.312H240.67V40H238.446ZM243.483 40V31.312H245.243V33.456C245.616 31.8453 246.608 31.04 248.219 31.04H248.315C249.349 31.04 250.133 31.376 250.667 32.048C251.2 32.72 251.467 33.712 251.467 35.024V40H249.243V34.832C249.243 34.2987 249.088 33.8667 248.779 33.536C248.469 33.2053 248.053 33.04 247.531 33.04C246.987 33.04 246.544 33.2107 246.203 33.552C245.872 33.8933 245.707 34.3413 245.707 34.896V40H243.483ZM254.108 40V28.32H256.332V35.504L259.676 31.312H261.996L259.036 35.008L262.7 40H260.188L257.276 35.936H256.332V40H254.108Z" fill="#202020"/>
<path d="M93.773 66.198C93.1057 66.198 92.5373 66.088 92.068 65.868C91.5987 65.648 91.2393 65.3437 90.99 64.955C90.7407 64.5663 90.616 64.1263 90.616 63.635H91.694C91.694 63.877 91.7563 64.119 91.881 64.361C92.013 64.603 92.2293 64.8047 92.53 64.966C92.838 65.1273 93.2523 65.208 93.773 65.208C94.257 65.208 94.653 65.1383 94.961 64.999C95.269 64.8523 95.4963 64.6653 95.643 64.438C95.7897 64.2033 95.863 63.9503 95.863 63.679C95.863 63.349 95.72 63.0777 95.434 62.865C95.148 62.645 94.73 62.5093 94.18 62.458L93.289 62.381C92.5777 62.3223 92.0093 62.1023 91.584 61.721C91.1587 61.3397 90.946 60.8373 90.946 60.214C90.946 59.7227 91.0633 59.2937 91.298 58.927C91.54 58.5603 91.8737 58.2743 92.299 58.069C92.7243 57.8563 93.2193 57.75 93.784 57.75C94.3413 57.75 94.8327 57.8527 95.258 58.058C95.6833 58.2633 96.0133 58.553 96.248 58.927C96.49 59.2937 96.611 59.7337 96.611 60.247H95.533C95.533 59.9903 95.4707 59.7483 95.346 59.521C95.2287 59.2937 95.0417 59.1067 94.785 58.96C94.5283 58.8133 94.1947 58.74 93.784 58.74C93.388 58.74 93.058 58.8097 92.794 58.949C92.5373 59.0883 92.343 59.2717 92.211 59.499C92.0863 59.719 92.024 59.9573 92.024 60.214C92.024 60.5073 92.1377 60.7677 92.365 60.995C92.5923 61.2223 92.9297 61.3543 93.377 61.391L94.268 61.468C94.818 61.512 95.291 61.6293 95.687 61.82C96.0903 62.0033 96.3983 62.2527 96.611 62.568C96.831 62.876 96.941 63.2463 96.941 63.679C96.941 64.1703 96.809 64.6067 96.545 64.988C96.281 65.3693 95.9107 65.6663 95.434 65.879C94.9573 66.0917 94.4037 66.198 93.773 66.198ZM101.343 66.198C100.83 66.198 100.386 66.11 100.012 65.934C99.638 65.758 99.3337 65.527 99.099 65.241C98.8643 64.9477 98.6883 64.6213 98.571 64.262C98.461 63.9027 98.406 63.536 98.406 63.162V62.964C98.406 62.5827 98.461 62.2123 98.571 61.853C98.6883 61.4937 98.8643 61.171 99.099 60.885C99.3337 60.5917 99.6307 60.3607 99.99 60.192C100.357 60.016 100.786 59.928 101.277 59.928C101.915 59.928 102.439 60.0673 102.85 60.346C103.268 60.6173 103.576 60.9693 103.774 61.402C103.979 61.8347 104.082 62.2967 104.082 62.788V63.261H98.868V62.469H103.312L103.07 62.898C103.07 62.48 103.004 62.1207 102.872 61.82C102.74 61.512 102.542 61.2737 102.278 61.105C102.014 60.9363 101.68 60.852 101.277 60.852C100.859 60.852 100.511 60.9473 100.232 61.138C99.9607 61.3287 99.7553 61.589 99.616 61.919C99.484 62.249 99.418 62.6303 99.418 63.063C99.418 63.481 99.484 63.8587 99.616 64.196C99.7553 64.526 99.968 64.79 100.254 64.988C100.54 65.1787 100.903 65.274 101.343 65.274C101.805 65.274 102.179 65.1713 102.465 64.966C102.758 64.7607 102.934 64.5223 102.993 64.251H103.983C103.902 64.6543 103.741 65.0027 103.499 65.296C103.257 65.5893 102.953 65.813 102.586 65.967C102.219 66.121 101.805 66.198 101.343 66.198ZM105.831 66V60.126H106.667V62.645H106.535C106.535 62.0657 106.612 61.578 106.766 61.182C106.928 60.7787 107.17 60.4743 107.492 60.269C107.815 60.0563 108.222 59.95 108.713 59.95H108.757C109.498 59.95 110.044 60.181 110.396 60.643C110.756 61.105 110.935 61.7723 110.935 62.645V66H109.879V62.425C109.879 61.9703 109.751 61.6073 109.494 61.336C109.238 61.0573 108.886 60.918 108.438 60.918C107.976 60.918 107.602 61.061 107.316 61.347C107.03 61.633 106.887 62.0143 106.887 62.491V66H105.831ZM115.57 66.198C115.152 66.198 114.767 66.121 114.415 65.967C114.063 65.813 113.755 65.5967 113.491 65.318C113.235 65.0393 113.033 64.7167 112.886 64.35C112.747 63.9833 112.677 63.5873 112.677 63.162V62.964C112.677 62.546 112.747 62.1537 112.886 61.787C113.026 61.4203 113.22 61.0977 113.469 60.819C113.726 60.5403 114.027 60.324 114.371 60.17C114.723 60.0087 115.112 59.928 115.537 59.928C115.985 59.928 116.392 60.0233 116.758 60.214C117.125 60.3973 117.426 60.687 117.66 61.083C117.895 61.479 118.027 61.9923 118.056 62.623L117.616 61.919V57.97H118.672V66H117.836V63.393H118.144C118.115 64.0603 117.976 64.603 117.726 65.021C117.477 65.4317 117.162 65.7323 116.78 65.923C116.406 66.1063 116.003 66.198 115.57 66.198ZM115.713 65.274C116.073 65.274 116.399 65.1933 116.692 65.032C116.986 64.8707 117.22 64.6397 117.396 64.339C117.572 64.031 117.66 63.6717 117.66 63.261V62.755C117.66 62.3517 117.569 62.0107 117.385 61.732C117.209 61.446 116.971 61.2297 116.67 61.083C116.377 60.929 116.054 60.852 115.702 60.852C115.314 60.852 114.969 60.9437 114.668 61.127C114.375 61.3103 114.144 61.567 113.975 61.897C113.814 62.227 113.733 62.6157 113.733 63.063C113.733 63.5103 113.818 63.9027 113.986 64.24C114.155 64.57 114.39 64.8267 114.69 65.01C114.991 65.186 115.332 65.274 115.713 65.274ZM123.704 68.2V60.126H124.54V62.667L124.342 62.645C124.379 62.0143 124.511 61.501 124.738 61.105C124.973 60.7017 125.277 60.4047 125.651 60.214C126.025 60.0233 126.432 59.928 126.872 59.928C127.298 59.928 127.683 60.0087 128.027 60.17C128.379 60.3313 128.68 60.5513 128.929 60.83C129.179 61.1087 129.369 61.4313 129.501 61.798C129.633 62.1647 129.699 62.5533 129.699 62.964V63.162C129.699 63.5727 129.63 63.9613 129.49 64.328C129.351 64.6947 129.153 65.0173 128.896 65.296C128.647 65.5747 128.346 65.7947 127.994 65.956C127.65 66.1173 127.268 66.198 126.85 66.198C126.432 66.198 126.033 66.1063 125.651 65.923C125.27 65.7397 124.955 65.4427 124.705 65.032C124.456 64.6213 124.313 64.0823 124.276 63.415L124.76 64.295V68.2H123.704ZM126.685 65.274C127.081 65.274 127.426 65.1823 127.719 64.999C128.013 64.8083 128.24 64.548 128.401 64.218C128.563 63.8807 128.643 63.4957 128.643 63.063C128.643 62.623 128.563 62.238 128.401 61.908C128.24 61.578 128.013 61.3213 127.719 61.138C127.426 60.9473 127.081 60.852 126.685 60.852C126.333 60.852 126.007 60.9327 125.706 61.094C125.406 61.248 125.164 61.4753 124.98 61.776C124.804 62.0693 124.716 62.425 124.716 62.843V63.349C124.716 63.7523 124.808 64.097 124.991 64.383C125.175 64.669 125.417 64.889 125.717 65.043C126.018 65.197 126.341 65.274 126.685 65.274ZM135.091 66V64.24H134.915V62.205C134.915 61.8017 134.809 61.4973 134.596 61.292C134.391 61.0867 134.087 60.984 133.683 60.984C133.456 60.984 133.221 60.9877 132.979 60.995C132.737 61.0023 132.506 61.0097 132.286 61.017C132.066 61.0243 131.876 61.0353 131.714 61.05V60.126C131.876 60.1113 132.044 60.1003 132.22 60.093C132.404 60.0783 132.591 60.071 132.781 60.071C132.972 60.0637 133.155 60.06 133.331 60.06C133.933 60.06 134.424 60.1333 134.805 60.28C135.187 60.4193 135.469 60.6503 135.652 60.973C135.836 61.2957 135.927 61.732 135.927 62.282V66H135.091ZM133.166 66.154C132.726 66.154 132.345 66.0807 132.022 65.934C131.707 65.78 131.461 65.56 131.285 65.274C131.117 64.988 131.032 64.6433 131.032 64.24C131.032 63.822 131.124 63.4737 131.307 63.195C131.498 62.9163 131.773 62.7073 132.132 62.568C132.492 62.4213 132.924 62.348 133.43 62.348H135.025V63.14H133.386C132.961 63.14 132.635 63.2427 132.407 63.448C132.18 63.6533 132.066 63.9173 132.066 64.24C132.066 64.5627 132.18 64.823 132.407 65.021C132.635 65.219 132.961 65.318 133.386 65.318C133.636 65.318 133.874 65.274 134.101 65.186C134.329 65.0907 134.516 64.9367 134.662 64.724C134.816 64.504 134.901 64.2033 134.915 63.822L135.201 64.24C135.165 64.658 135.062 65.01 134.893 65.296C134.732 65.5747 134.505 65.7873 134.211 65.934C133.925 66.0807 133.577 66.154 133.166 66.154ZM137.698 68.288V67.342H138.545C138.794 67.342 139.003 67.309 139.172 67.243C139.348 67.1843 139.491 67.0817 139.601 66.935C139.718 66.7883 139.814 66.594 139.887 66.352L141.735 60.126H142.769L140.811 66.627C140.694 67.0157 140.529 67.331 140.316 67.573C140.103 67.8223 139.843 68.002 139.535 68.112C139.234 68.2293 138.882 68.288 138.479 68.288H137.698ZM139.491 65.868V64.988H140.767V65.868H139.491ZM139.381 65.868L137.28 60.126H138.358L140.371 65.868H139.381ZM144.36 66V60.126H145.196V62.645H145.064C145.064 62.073 145.137 61.589 145.284 61.193C145.438 60.7897 145.665 60.4817 145.966 60.269C146.266 60.0563 146.648 59.95 147.11 59.95H147.154C147.616 59.95 147.997 60.0563 148.298 60.269C148.606 60.4817 148.833 60.7897 148.98 61.193C149.126 61.589 149.2 62.073 149.2 62.645H148.892C148.892 62.073 148.969 61.589 149.123 61.193C149.277 60.7897 149.504 60.4817 149.805 60.269C150.113 60.0563 150.498 59.95 150.96 59.95H151.004C151.466 59.95 151.851 60.0563 152.159 60.269C152.467 60.4817 152.694 60.7897 152.841 61.193C152.995 61.589 153.072 62.073 153.072 62.645V66H152.016V62.414C152.016 61.9373 151.898 61.5707 151.664 61.314C151.429 61.05 151.103 60.918 150.685 60.918C150.252 60.918 149.904 61.0573 149.64 61.336C149.376 61.6073 149.244 61.9887 149.244 62.48V66H148.188V62.414C148.188 61.9373 148.07 61.5707 147.836 61.314C147.601 61.05 147.275 60.918 146.857 60.918C146.424 60.918 146.076 61.0573 145.812 61.336C145.548 61.6073 145.416 61.9887 145.416 62.48V66H144.36ZM157.752 66.198C157.239 66.198 156.795 66.11 156.421 65.934C156.047 65.758 155.743 65.527 155.508 65.241C155.273 64.9477 155.097 64.6213 154.98 64.262C154.87 63.9027 154.815 63.536 154.815 63.162V62.964C154.815 62.5827 154.87 62.2123 154.98 61.853C155.097 61.4937 155.273 61.171 155.508 60.885C155.743 60.5917 156.04 60.3607 156.399 60.192C156.766 60.016 157.195 59.928 157.686 59.928C158.324 59.928 158.848 60.0673 159.259 60.346C159.677 60.6173 159.985 60.9693 160.183 61.402C160.388 61.8347 160.491 62.2967 160.491 62.788V63.261H155.277V62.469H159.721L159.479 62.898C159.479 62.48 159.413 62.1207 159.281 61.82C159.149 61.512 158.951 61.2737 158.687 61.105C158.423 60.9363 158.089 60.852 157.686 60.852C157.268 60.852 156.92 60.9473 156.641 61.138C156.37 61.3287 156.164 61.589 156.025 61.919C155.893 62.249 155.827 62.6303 155.827 63.063C155.827 63.481 155.893 63.8587 156.025 64.196C156.164 64.526 156.377 64.79 156.663 64.988C156.949 65.1787 157.312 65.274 157.752 65.274C158.214 65.274 158.588 65.1713 158.874 64.966C159.167 64.7607 159.343 64.5223 159.402 64.251H160.392C160.311 64.6543 160.15 65.0027 159.908 65.296C159.666 65.5893 159.362 65.813 158.995 65.967C158.628 66.121 158.214 66.198 157.752 66.198ZM162.241 66V60.126H163.077V62.645H162.945C162.945 62.0657 163.022 61.578 163.176 61.182C163.337 60.7787 163.579 60.4743 163.902 60.269C164.224 60.0563 164.631 59.95 165.123 59.95H165.167C165.907 59.95 166.454 60.181 166.806 60.643C167.165 61.105 167.345 61.7723 167.345 62.645V66H166.289V62.425C166.289 61.9703 166.16 61.6073 165.904 61.336C165.647 61.0573 165.295 60.918 164.848 60.918C164.386 60.918 164.012 61.061 163.726 61.347C163.44 61.633 163.297 62.0143 163.297 62.491V66H162.241ZM171.815 66.066C171.375 66.066 170.993 66.0037 170.671 65.879C170.355 65.7543 170.11 65.5417 169.934 65.241C169.765 64.933 169.681 64.5187 169.681 63.998V58.344H170.693V64.13C170.693 64.4453 170.777 64.691 170.946 64.867C171.122 65.0357 171.367 65.12 171.683 65.12H172.717V66.066H171.815ZM168.669 60.918V60.126H172.717V60.918H168.669ZM177.279 66V57.97H178.335V66H177.279ZM176.465 58.806V57.97H178.335V58.806H176.465ZM180.897 66V60.126H181.953V66H180.897ZM179.995 60.962V60.126H181.953V60.962H179.995ZM181.194 59.18C180.959 59.18 180.783 59.1177 180.666 58.993C180.556 58.8683 180.501 58.7107 180.501 58.52C180.501 58.3293 180.556 58.1717 180.666 58.047C180.783 57.9223 180.959 57.86 181.194 57.86C181.428 57.86 181.601 57.9223 181.711 58.047C181.828 58.1717 181.887 58.3293 181.887 58.52C181.887 58.7107 181.828 58.8683 181.711 58.993C181.601 59.1177 181.428 59.18 181.194 59.18ZM184.244 66V60.126H185.08V62.645H184.948C184.948 62.0657 185.025 61.578 185.179 61.182C185.341 60.7787 185.583 60.4743 185.905 60.269C186.228 60.0563 186.635 59.95 187.126 59.95H187.17C187.911 59.95 188.457 60.181 188.809 60.643C189.169 61.105 189.348 61.7723 189.348 62.645V66H188.292V62.425C188.292 61.9703 188.164 61.6073 187.907 61.336C187.651 61.0573 187.299 60.918 186.851 60.918C186.389 60.918 186.015 61.061 185.729 61.347C185.443 61.633 185.3 62.0143 185.3 62.491V66H184.244ZM195.579 66L193.368 63.261H192.4L195.095 60.126H196.206L193.764 62.953L193.841 62.392L196.8 66H195.579ZM191.531 66V57.97H192.587V66H191.531ZM199.925 66.176C199.155 66.176 198.558 66.011 198.132 65.681C197.714 65.351 197.498 64.9 197.483 64.328H198.473C198.488 64.5553 198.602 64.7717 198.814 64.977C199.034 65.175 199.405 65.274 199.925 65.274C200.395 65.274 200.754 65.1823 201.003 64.999C201.253 64.8083 201.377 64.5773 201.377 64.306C201.377 64.064 201.286 63.877 201.102 63.745C200.919 63.6057 200.622 63.514 200.211 63.47L199.573 63.404C199.016 63.3453 198.561 63.1803 198.209 62.909C197.857 62.6303 197.681 62.2417 197.681 61.743C197.681 61.369 197.777 61.05 197.967 60.786C198.158 60.5147 198.422 60.3093 198.759 60.17C199.097 60.0233 199.485 59.95 199.925 59.95C200.585 59.95 201.121 60.0967 201.531 60.39C201.942 60.6833 202.155 61.1197 202.169 61.699H201.179C201.172 61.4643 201.062 61.2663 200.849 61.105C200.644 60.9363 200.336 60.852 199.925 60.852C199.515 60.852 199.203 60.9363 198.99 61.105C198.778 61.2737 198.671 61.4863 198.671 61.743C198.671 61.963 198.745 62.139 198.891 62.271C199.045 62.403 199.295 62.4873 199.639 62.524L200.277 62.59C200.908 62.656 201.414 62.832 201.795 63.118C202.177 63.3967 202.367 63.7927 202.367 64.306C202.367 64.6727 202.261 64.999 202.048 65.285C201.843 65.5637 201.557 65.7837 201.19 65.945C200.824 66.099 200.402 66.176 199.925 66.176ZM210.454 66V64.24H210.278V62.205C210.278 61.8017 210.171 61.4973 209.959 61.292C209.753 61.0867 209.449 60.984 209.046 60.984C208.818 60.984 208.584 60.9877 208.342 60.995C208.1 61.0023 207.869 61.0097 207.649 61.017C207.429 61.0243 207.238 61.0353 207.077 61.05V60.126C207.238 60.1113 207.407 60.1003 207.583 60.093C207.766 60.0783 207.953 60.071 208.144 60.071C208.334 60.0637 208.518 60.06 208.694 60.06C209.295 60.06 209.786 60.1333 210.168 60.28C210.549 60.4193 210.831 60.6503 211.015 60.973C211.198 61.2957 211.29 61.732 211.29 62.282V66H210.454ZM208.529 66.154C208.089 66.154 207.707 66.0807 207.385 65.934C207.069 65.78 206.824 65.56 206.648 65.274C206.479 64.988 206.395 64.6433 206.395 64.24C206.395 63.822 206.486 63.4737 206.67 63.195C206.86 62.9163 207.135 62.7073 207.495 62.568C207.854 62.4213 208.287 62.348 208.793 62.348H210.388V63.14H208.749C208.323 63.14 207.997 63.2427 207.77 63.448C207.542 63.6533 207.429 63.9173 207.429 64.24C207.429 64.5627 207.542 64.823 207.77 65.021C207.997 65.219 208.323 65.318 208.749 65.318C208.998 65.318 209.236 65.274 209.464 65.186C209.691 65.0907 209.878 64.9367 210.025 64.724C210.179 64.504 210.263 64.2033 210.278 63.822L210.564 64.24C210.527 64.658 210.424 65.01 210.256 65.296C210.094 65.5747 209.867 65.7873 209.574 65.934C209.288 66.0807 208.939 66.154 208.529 66.154ZM213.478 66V60.126H214.314V62.645H214.182C214.182 62.0657 214.259 61.578 214.413 61.182C214.574 60.7787 214.816 60.4743 215.139 60.269C215.461 60.0563 215.868 59.95 216.36 59.95H216.404C217.144 59.95 217.691 60.181 218.043 60.643C218.402 61.105 218.582 61.7723 218.582 62.645V66H217.526V62.425C217.526 61.9703 217.397 61.6073 217.141 61.336C216.884 61.0573 216.532 60.918 216.085 60.918C215.623 60.918 215.249 61.061 214.963 61.347C214.677 61.633 214.534 62.0143 214.534 62.491V66H213.478ZM223.217 66.198C222.799 66.198 222.414 66.121 222.062 65.967C221.71 65.813 221.402 65.5967 221.138 65.318C220.881 65.0393 220.68 64.7167 220.533 64.35C220.394 63.9833 220.324 63.5873 220.324 63.162V62.964C220.324 62.546 220.394 62.1537 220.533 61.787C220.672 61.4203 220.867 61.0977 221.116 60.819C221.373 60.5403 221.673 60.324 222.018 60.17C222.37 60.0087 222.759 59.928 223.184 59.928C223.631 59.928 224.038 60.0233 224.405 60.214C224.772 60.3973 225.072 60.687 225.307 61.083C225.542 61.479 225.674 61.9923 225.703 62.623L225.263 61.919V57.97H226.319V66H225.483V63.393H225.791C225.762 64.0603 225.622 64.603 225.373 65.021C225.124 65.4317 224.808 65.7323 224.427 65.923C224.053 66.1063 223.65 66.198 223.217 66.198ZM223.36 65.274C223.719 65.274 224.046 65.1933 224.339 65.032C224.632 64.8707 224.867 64.6397 225.043 64.339C225.219 64.031 225.307 63.6717 225.307 63.261V62.755C225.307 62.3517 225.215 62.0107 225.032 61.732C224.856 61.446 224.618 61.2297 224.317 61.083C224.024 60.929 223.701 60.852 223.349 60.852C222.96 60.852 222.616 60.9437 222.315 61.127C222.022 61.3103 221.791 61.567 221.622 61.897C221.461 62.227 221.38 62.6157 221.38 63.063C221.38 63.5103 221.464 63.9027 221.633 64.24C221.802 64.57 222.036 64.8267 222.337 65.01C222.638 65.186 222.979 65.274 223.36 65.274ZM91.298 81V75.126H92.354V81H91.298ZM90.396 75.962V75.126H92.354V75.962H90.396ZM91.595 74.18C91.3603 74.18 91.1843 74.1177 91.067 73.993C90.957 73.8683 90.902 73.7107 90.902 73.52C90.902 73.3293 90.957 73.1717 91.067 73.047C91.1843 72.9223 91.3603 72.86 91.595 72.86C91.8297 72.86 92.002 72.9223 92.112 73.047C92.2293 73.1717 92.288 73.3293 92.288 73.52C92.288 73.7107 92.2293 73.8683 92.112 73.993C92.002 74.1177 91.8297 74.18 91.595 74.18ZM94.6458 81V75.126H95.4818V77.645H95.3498C95.3498 77.0657 95.4268 76.578 95.5808 76.182C95.7421 75.7787 95.9841 75.4743 96.3068 75.269C96.6295 75.0563 97.0365 74.95 97.5278 74.95H97.5718C98.3125 74.95 98.8588 75.181 99.2108 75.643C99.5701 76.105 99.7498 76.7723 99.7498 77.645V81H98.6938V77.425C98.6938 76.9703 98.5655 76.6073 98.3088 76.336C98.0521 76.0573 97.7001 75.918 97.2528 75.918C96.7908 75.918 96.4168 76.061 96.1308 76.347C95.8448 76.633 95.7018 77.0143 95.7018 77.491V81H94.6458ZM103.143 81L101.141 75.126H102.241L104.199 81H103.143ZM103.407 81V80.164H104.683V81H103.407ZM103.913 81L105.618 75.126H106.652L104.914 81H103.913ZM110.882 81.198C110.369 81.198 109.918 81.11 109.529 80.934C109.14 80.758 108.81 80.527 108.539 80.241C108.275 79.9477 108.073 79.6213 107.934 79.262C107.802 78.9027 107.736 78.536 107.736 78.162V77.964C107.736 77.59 107.806 77.2233 107.945 76.864C108.084 76.4973 108.29 76.171 108.561 75.885C108.832 75.5917 109.162 75.3607 109.551 75.192C109.94 75.016 110.383 74.928 110.882 74.928C111.381 74.928 111.824 75.016 112.213 75.192C112.602 75.3607 112.932 75.5917 113.203 75.885C113.474 76.171 113.68 76.4973 113.819 76.864C113.958 77.2233 114.028 77.59 114.028 77.964V78.162C114.028 78.536 113.958 78.9027 113.819 79.262C113.687 79.6213 113.485 79.9477 113.214 80.241C112.95 80.527 112.624 80.758 112.235 80.934C111.846 81.11 111.395 81.198 110.882 81.198ZM110.882 80.252C111.322 80.252 111.696 80.1567 112.004 79.966C112.319 79.768 112.558 79.504 112.719 79.174C112.888 78.844 112.972 78.4737 112.972 78.063C112.972 77.645 112.888 77.271 112.719 76.941C112.55 76.611 112.308 76.3507 111.993 76.16C111.685 75.9693 111.315 75.874 110.882 75.874C110.457 75.874 110.086 75.9693 109.771 76.16C109.456 76.3507 109.214 76.611 109.045 76.941C108.876 77.271 108.792 77.645 108.792 78.063C108.792 78.4737 108.873 78.844 109.034 79.174C109.203 79.504 109.441 79.768 109.749 79.966C110.064 80.1567 110.442 80.252 110.882 80.252ZM116.146 81V75.126H117.202V81H116.146ZM115.244 75.962V75.126H117.202V75.962H115.244ZM116.443 74.18C116.208 74.18 116.032 74.1177 115.915 73.993C115.805 73.8683 115.75 73.7107 115.75 73.52C115.75 73.3293 115.805 73.1717 115.915 73.047C116.032 72.9223 116.208 72.86 116.443 72.86C116.677 72.86 116.85 72.9223 116.96 73.047C117.077 73.1717 117.136 73.3293 117.136 73.52C117.136 73.7107 117.077 73.8683 116.96 73.993C116.85 74.1177 116.677 74.18 116.443 74.18ZM122.012 81.198C121.506 81.198 121.066 81.11 120.692 80.934C120.326 80.758 120.021 80.5233 119.779 80.23C119.537 79.9293 119.354 79.5993 119.229 79.24C119.112 78.8807 119.053 78.5213 119.053 78.162V77.964C119.053 77.59 119.112 77.2233 119.229 76.864C119.354 76.5047 119.537 76.182 119.779 75.896C120.029 75.6027 120.337 75.368 120.703 75.192C121.07 75.016 121.499 74.928 121.99 74.928C122.482 74.928 122.922 75.0197 123.31 75.203C123.706 75.3863 124.022 75.6467 124.256 75.984C124.498 76.314 124.634 76.7063 124.663 77.161H123.651C123.6 76.7943 123.431 76.49 123.145 76.248C122.859 75.9987 122.474 75.874 121.99 75.874C121.572 75.874 121.224 75.9693 120.945 76.16C120.667 76.3507 120.458 76.611 120.318 76.941C120.179 77.271 120.109 77.645 120.109 78.063C120.109 78.4663 120.179 78.8367 120.318 79.174C120.458 79.504 120.667 79.768 120.945 79.966C121.231 80.1567 121.587 80.252 122.012 80.252C122.342 80.252 122.628 80.1933 122.87 80.076C123.112 79.9587 123.307 79.801 123.453 79.603C123.6 79.405 123.688 79.1813 123.717 78.932H124.729C124.707 79.394 124.572 79.7937 124.322 80.131C124.08 80.4683 123.758 80.7323 123.354 80.923C122.958 81.1063 122.511 81.198 122.012 81.198ZM128.911 81.198C128.398 81.198 127.954 81.11 127.58 80.934C127.206 80.758 126.902 80.527 126.667 80.241C126.433 79.9477 126.257 79.6213 126.139 79.262C126.029 78.9027 125.974 78.536 125.974 78.162V77.964C125.974 77.5827 126.029 77.2123 126.139 76.853C126.257 76.4937 126.433 76.171 126.667 75.885C126.902 75.5917 127.199 75.3607 127.558 75.192C127.925 75.016 128.354 74.928 128.845 74.928C129.483 74.928 130.008 75.0673 130.418 75.346C130.836 75.6173 131.144 75.9693 131.342 76.402C131.548 76.8347 131.65 77.2967 131.65 77.788V78.261H126.436V77.469H130.88L130.638 77.898C130.638 77.48 130.572 77.1207 130.44 76.82C130.308 76.512 130.11 76.2737 129.846 76.105C129.582 75.9363 129.249 75.852 128.845 75.852C128.427 75.852 128.079 75.9473 127.8 76.138C127.529 76.3287 127.324 76.589 127.184 76.919C127.052 77.249 126.986 77.6303 126.986 78.063C126.986 78.481 127.052 78.8587 127.184 79.196C127.324 79.526 127.536 79.79 127.822 79.988C128.108 80.1787 128.471 80.274 128.911 80.274C129.373 80.274 129.747 80.1713 130.033 79.966C130.327 79.7607 130.503 79.5223 130.561 79.251H131.551C131.471 79.6543 131.309 80.0027 131.067 80.296C130.825 80.5893 130.521 80.813 130.154 80.967C129.788 81.121 129.373 81.198 128.911 81.198ZM135.325 81.176C134.555 81.176 133.957 81.011 133.532 80.681C133.114 80.351 132.897 79.9 132.883 79.328H133.873C133.887 79.5553 134.001 79.7717 134.214 79.977C134.434 80.175 134.804 80.274 135.325 80.274C135.794 80.274 136.153 80.1823 136.403 79.999C136.652 79.8083 136.777 79.5773 136.777 79.306C136.777 79.064 136.685 78.877 136.502 78.745C136.318 78.6057 136.021 78.514 135.611 78.47L134.973 78.404C134.415 78.3453 133.961 78.1803 133.609 77.909C133.257 77.6303 133.081 77.2417 133.081 76.743C133.081 76.369 133.176 76.05 133.367 75.786C133.557 75.5147 133.821 75.3093 134.159 75.17C134.496 75.0233 134.885 74.95 135.325 74.95C135.985 74.95 136.52 75.0967 136.931 75.39C137.341 75.6833 137.554 76.1197 137.569 76.699H136.579C136.571 76.4643 136.461 76.2663 136.249 76.105C136.043 75.9363 135.735 75.852 135.325 75.852C134.914 75.852 134.602 75.9363 134.39 76.105C134.177 76.2737 134.071 76.4863 134.071 76.743C134.071 76.963 134.144 77.139 134.291 77.271C134.445 77.403 134.694 77.4873 135.039 77.524L135.677 77.59C136.307 77.656 136.813 77.832 137.195 78.118C137.576 78.3967 137.767 78.7927 137.767 79.306C137.767 79.6727 137.66 79.999 137.448 80.285C137.242 80.5637 136.956 80.7837 136.59 80.945C136.223 81.099 135.801 81.176 135.325 81.176ZM144.797 81.198C144.284 81.198 143.84 81.11 143.466 80.934C143.092 80.758 142.788 80.527 142.553 80.241C142.318 79.9477 142.142 79.6213 142.025 79.262C141.915 78.9027 141.86 78.536 141.86 78.162V77.964C141.86 77.5827 141.915 77.2123 142.025 76.853C142.142 76.4937 142.318 76.171 142.553 75.885C142.788 75.5917 143.085 75.3607 143.444 75.192C143.811 75.016 144.24 74.928 144.731 74.928C145.369 74.928 145.893 75.0673 146.304 75.346C146.722 75.6173 147.03 75.9693 147.228 76.402C147.433 76.8347 147.536 77.2967 147.536 77.788V78.261H142.322V77.469H146.766L146.524 77.898C146.524 77.48 146.458 77.1207 146.326 76.82C146.194 76.512 145.996 76.2737 145.732 76.105C145.468 75.9363 145.134 75.852 144.731 75.852C144.313 75.852 143.965 75.9473 143.686 76.138C143.415 76.3287 143.209 76.589 143.07 76.919C142.938 77.249 142.872 77.6303 142.872 78.063C142.872 78.481 142.938 78.8587 143.07 79.196C143.209 79.526 143.422 79.79 143.708 79.988C143.994 80.1787 144.357 80.274 144.797 80.274C145.259 80.274 145.633 80.1713 145.919 79.966C146.212 79.7607 146.388 79.5223 146.447 79.251H147.437C147.356 79.6543 147.195 80.0027 146.953 80.296C146.711 80.5893 146.407 80.813 146.04 80.967C145.673 81.121 145.259 81.198 144.797 81.198ZM152.838 81V79.24H152.662V77.205C152.662 76.8017 152.556 76.4973 152.343 76.292C152.138 76.0867 151.834 75.984 151.43 75.984C151.203 75.984 150.968 75.9877 150.726 75.995C150.484 76.0023 150.253 76.0097 150.033 76.017C149.813 76.0243 149.623 76.0353 149.461 76.05V75.126C149.623 75.1113 149.791 75.1003 149.967 75.093C150.151 75.0783 150.338 75.071 150.528 75.071C150.719 75.0637 150.902 75.06 151.078 75.06C151.68 75.06 152.171 75.1333 152.552 75.28C152.934 75.4193 153.216 75.6503 153.399 75.973C153.583 76.2957 153.674 76.732 153.674 77.282V81H152.838ZM150.913 81.154C150.473 81.154 150.092 81.0807 149.769 80.934C149.454 80.78 149.208 80.56 149.032 80.274C148.864 79.988 148.779 79.6433 148.779 79.24C148.779 78.822 148.871 78.4737 149.054 78.195C149.245 77.9163 149.52 77.7073 149.879 77.568C150.239 77.4213 150.671 77.348 151.177 77.348H152.772V78.14H151.133C150.708 78.14 150.382 78.2427 150.154 78.448C149.927 78.6533 149.813 78.9173 149.813 79.24C149.813 79.5627 149.927 79.823 150.154 80.021C150.382 80.219 150.708 80.318 151.133 80.318C151.383 80.318 151.621 80.274 151.848 80.186C152.076 80.0907 152.263 79.9367 152.409 79.724C152.563 79.504 152.648 79.2033 152.662 78.822L152.948 79.24C152.912 79.658 152.809 80.01 152.64 80.296C152.479 80.5747 152.252 80.7873 151.958 80.934C151.672 81.0807 151.324 81.154 150.913 81.154ZM157.788 81.176C157.018 81.176 156.42 81.011 155.995 80.681C155.577 80.351 155.36 79.9 155.346 79.328H156.336C156.35 79.5553 156.464 79.7717 156.677 79.977C156.897 80.175 157.267 80.274 157.788 80.274C158.257 80.274 158.616 80.1823 158.866 79.999C159.115 79.8083 159.24 79.5773 159.24 79.306C159.24 79.064 159.148 78.877 158.965 78.745C158.781 78.6057 158.484 78.514 158.074 78.47L157.436 78.404C156.878 78.3453 156.424 78.1803 156.072 77.909C155.72 77.6303 155.544 77.2417 155.544 76.743C155.544 76.369 155.639 76.05 155.83 75.786C156.02 75.5147 156.284 75.3093 156.622 75.17C156.959 75.0233 157.348 74.95 157.788 74.95C158.448 74.95 158.983 75.0967 159.394 75.39C159.804 75.6833 160.017 76.1197 160.032 76.699H159.042C159.034 76.4643 158.924 76.2663 158.712 76.105C158.506 75.9363 158.198 75.852 157.788 75.852C157.377 75.852 157.065 75.9363 156.853 76.105C156.64 76.2737 156.534 76.4863 156.534 76.743C156.534 76.963 156.607 77.139 156.754 77.271C156.908 77.403 157.157 77.4873 157.502 77.524L158.14 77.59C158.77 77.656 159.276 77.832 159.658 78.118C160.039 78.3967 160.23 78.7927 160.23 79.306C160.23 79.6727 160.123 79.999 159.911 80.285C159.705 80.5637 159.419 80.7837 159.053 80.945C158.686 81.099 158.264 81.176 157.788 81.176ZM162.296 81V75.126H163.352V81H162.296ZM161.394 75.962V75.126H163.352V75.962H161.394ZM162.593 74.18C162.358 74.18 162.182 74.1177 162.065 73.993C161.955 73.8683 161.9 73.7107 161.9 73.52C161.9 73.3293 161.955 73.1717 162.065 73.047C162.182 72.9223 162.358 72.86 162.593 72.86C162.828 72.86 163 72.9223 163.11 73.047C163.227 73.1717 163.286 73.3293 163.286 73.52C163.286 73.7107 163.227 73.8683 163.11 73.993C163 74.1177 162.828 74.18 162.593 74.18ZM165.71 81V72.97H166.766V81H165.71ZM164.896 73.806V72.97H166.766V73.806H164.896ZM168.645 83.288V82.342H169.492C169.742 82.342 169.951 82.309 170.119 82.243C170.295 82.1843 170.438 82.0817 170.548 81.935C170.666 81.7883 170.761 81.594 170.834 81.352L172.682 75.126H173.716L171.758 81.627C171.641 82.0157 171.476 82.331 171.263 82.573C171.051 82.8223 170.79 83.002 170.482 83.112C170.182 83.2293 169.83 83.288 169.426 83.288H168.645ZM170.438 80.868V79.988H171.714V80.868H170.438ZM170.328 80.868L168.227 75.126H169.305L171.318 80.868H170.328ZM179.314 81L177.312 75.126H178.412L180.37 81H179.314ZM179.578 81V80.164H180.854V81H179.578ZM180.084 81L181.789 75.126H182.823L181.085 81H180.084ZM184.74 81V75.126H185.796V81H184.74ZM183.838 75.962V75.126H185.796V75.962H183.838ZM185.037 74.18C184.803 74.18 184.627 74.1177 184.509 73.993C184.399 73.8683 184.344 73.7107 184.344 73.52C184.344 73.3293 184.399 73.1717 184.509 73.047C184.627 72.9223 184.803 72.86 185.037 72.86C185.272 72.86 185.444 72.9223 185.554 73.047C185.672 73.1717 185.73 73.3293 185.73 73.52C185.73 73.7107 185.672 73.8683 185.554 73.993C185.444 74.1177 185.272 74.18 185.037 74.18ZM191.641 81V79.24H191.465V77.205C191.465 76.8017 191.359 76.4973 191.146 76.292C190.941 76.0867 190.637 75.984 190.233 75.984C190.006 75.984 189.771 75.9877 189.529 75.995C189.287 76.0023 189.056 76.0097 188.836 76.017C188.616 76.0243 188.426 76.0353 188.264 76.05V75.126C188.426 75.1113 188.594 75.1003 188.77 75.093C188.954 75.0783 189.141 75.071 189.331 75.071C189.522 75.0637 189.705 75.06 189.881 75.06C190.483 75.06 190.974 75.1333 191.355 75.28C191.737 75.4193 192.019 75.6503 192.202 75.973C192.386 76.2957 192.477 76.732 192.477 77.282V81H191.641ZM189.716 81.154C189.276 81.154 188.895 81.0807 188.572 80.934C188.257 80.78 188.011 80.56 187.835 80.274C187.667 79.988 187.582 79.6433 187.582 79.24C187.582 78.822 187.674 78.4737 187.857 78.195C188.048 77.9163 188.323 77.7073 188.682 77.568C189.042 77.4213 189.474 77.348 189.98 77.348H191.575V78.14H189.936C189.511 78.14 189.185 78.2427 188.957 78.448C188.73 78.6533 188.616 78.9173 188.616 79.24C188.616 79.5627 188.73 79.823 188.957 80.021C189.185 80.219 189.511 80.318 189.936 80.318C190.186 80.318 190.424 80.274 190.651 80.186C190.879 80.0907 191.066 79.9367 191.212 79.724C191.366 79.504 191.451 79.2033 191.465 78.822L191.751 79.24C191.715 79.658 191.612 80.01 191.443 80.296C191.282 80.5747 191.055 80.7873 190.761 80.934C190.475 81.0807 190.127 81.154 189.716 81.154ZM199.915 81.198C199.402 81.198 198.958 81.11 198.584 80.934C198.21 80.758 197.906 80.527 197.671 80.241C197.437 79.9477 197.261 79.6213 197.143 79.262C197.033 78.9027 196.978 78.536 196.978 78.162V77.964C196.978 77.5827 197.033 77.2123 197.143 76.853C197.261 76.4937 197.437 76.171 197.671 75.885C197.906 75.5917 198.203 75.3607 198.562 75.192C198.929 75.016 199.358 74.928 199.849 74.928C200.487 74.928 201.012 75.0673 201.422 75.346C201.84 75.6173 202.148 75.9693 202.346 76.402C202.552 76.8347 202.654 77.2967 202.654 77.788V78.261H197.44V77.469H201.884L201.642 77.898C201.642 77.48 201.576 77.1207 201.444 76.82C201.312 76.512 201.114 76.2737 200.85 76.105C200.586 75.9363 200.253 75.852 199.849 75.852C199.431 75.852 199.083 75.9473 198.804 76.138C198.533 76.3287 198.328 76.589 198.188 76.919C198.056 77.249 197.99 77.6303 197.99 78.063C197.99 78.481 198.056 78.8587 198.188 79.196C198.328 79.526 198.54 79.79 198.826 79.988C199.112 80.1787 199.475 80.274 199.915 80.274C200.377 80.274 200.751 80.1713 201.037 79.966C201.331 79.7607 201.507 79.5223 201.565 79.251H202.555C202.475 79.6543 202.313 80.0027 202.071 80.296C201.829 80.5893 201.525 80.813 201.158 80.967C200.792 81.121 200.377 81.198 199.915 81.198ZM204.404 81V75.126H205.24V77.645H205.108C205.108 77.073 205.181 76.589 205.328 76.193C205.482 75.7897 205.709 75.4817 206.01 75.269C206.31 75.0563 206.692 74.95 207.154 74.95H207.198C207.66 74.95 208.041 75.0563 208.342 75.269C208.65 75.4817 208.877 75.7897 209.024 76.193C209.17 76.589 209.244 77.073 209.244 77.645H208.936C208.936 77.073 209.013 76.589 209.167 76.193C209.321 75.7897 209.548 75.4817 209.849 75.269C210.157 75.0563 210.542 74.95 211.004 74.95H211.048C211.51 74.95 211.895 75.0563 212.203 75.269C212.511 75.4817 212.738 75.7897 212.885 76.193C213.039 76.589 213.116 77.073 213.116 77.645V81H212.06V77.414C212.06 76.9373 211.942 76.5707 211.708 76.314C211.473 76.05 211.147 75.918 210.729 75.918C210.296 75.918 209.948 76.0573 209.684 76.336C209.42 76.6073 209.288 76.9887 209.288 77.48V81H208.232V77.414C208.232 76.9373 208.114 76.5707 207.88 76.314C207.645 76.05 207.319 75.918 206.901 75.918C206.468 75.918 206.12 76.0573 205.856 76.336C205.592 76.6073 205.46 76.9887 205.46 77.48V81H204.404ZM218.852 81V79.24H218.676V77.205C218.676 76.8017 218.57 76.4973 218.357 76.292C218.152 76.0867 217.847 75.984 217.444 75.984C217.217 75.984 216.982 75.9877 216.74 75.995C216.498 76.0023 216.267 76.0097 216.047 76.017C215.827 76.0243 215.636 76.0353 215.475 76.05V75.126C215.636 75.1113 215.805 75.1003 215.981 75.093C216.164 75.0783 216.351 75.071 216.542 75.071C216.733 75.0637 216.916 75.06 217.092 75.06C217.693 75.06 218.185 75.1333 218.566 75.28C218.947 75.4193 219.23 75.6503 219.413 75.973C219.596 76.2957 219.688 76.732 219.688 77.282V81H218.852ZM216.927 81.154C216.487 81.154 216.106 81.0807 215.783 80.934C215.468 80.78 215.222 80.56 215.046 80.274C214.877 79.988 214.793 79.6433 214.793 79.24C214.793 78.822 214.885 78.4737 215.068 78.195C215.259 77.9163 215.534 77.7073 215.893 77.568C216.252 77.4213 216.685 77.348 217.191 77.348H218.786V78.14H217.147C216.722 78.14 216.395 78.2427 216.168 78.448C215.941 78.6533 215.827 78.9173 215.827 79.24C215.827 79.5627 215.941 79.823 216.168 80.021C216.395 80.219 216.722 80.318 217.147 80.318C217.396 80.318 217.635 80.274 217.862 80.186C218.089 80.0907 218.276 79.9367 218.423 79.724C218.577 79.504 218.661 79.2033 218.676 78.822L218.962 79.24C218.925 79.658 218.823 80.01 218.654 80.296C218.493 80.5747 218.265 80.7873 217.972 80.934C217.686 81.0807 217.338 81.154 216.927 81.154ZM222.162 81V75.126H223.218V81H222.162ZM221.26 75.962V75.126H223.218V75.962H221.26ZM222.459 74.18C222.225 74.18 222.049 74.1177 221.931 73.993C221.821 73.8683 221.766 73.7107 221.766 73.52C221.766 73.3293 221.821 73.1717 221.931 73.047C222.049 72.9223 222.225 72.86 222.459 72.86C222.694 72.86 222.866 72.9223 222.976 73.047C223.094 73.1717 223.152 73.3293 223.152 73.52C223.152 73.7107 223.094 73.8683 222.976 73.993C222.866 74.1177 222.694 74.18 222.459 74.18ZM225.576 81V72.97H226.632V81H225.576ZM224.762 73.806V72.97H226.632V73.806H224.762ZM229.029 82.727L228.182 82.408L229.205 79.57L230.074 79.9L229.029 82.727ZM237.308 81.198C236.802 81.198 236.362 81.11 235.988 80.934C235.622 80.758 235.317 80.5233 235.075 80.23C234.833 79.9293 234.65 79.5993 234.525 79.24C234.408 78.8807 234.349 78.5213 234.349 78.162V77.964C234.349 77.59 234.408 77.2233 234.525 76.864C234.65 76.5047 234.833 76.182 235.075 75.896C235.325 75.6027 235.633 75.368 235.999 75.192C236.366 75.016 236.795 74.928 237.286 74.928C237.778 74.928 238.218 75.0197 238.606 75.203C239.002 75.3863 239.318 75.6467 239.552 75.984C239.794 76.314 239.93 76.7063 239.959 77.161H238.947C238.896 76.7943 238.727 76.49 238.441 76.248C238.155 75.9987 237.77 75.874 237.286 75.874C236.868 75.874 236.52 75.9693 236.241 76.16C235.963 76.3507 235.754 76.611 235.614 76.941C235.475 77.271 235.405 77.645 235.405 78.063C235.405 78.4663 235.475 78.8367 235.614 79.174C235.754 79.504 235.963 79.768 236.241 79.966C236.527 80.1567 236.883 80.252 237.308 80.252C237.638 80.252 237.924 80.1933 238.166 80.076C238.408 79.9587 238.603 79.801 238.749 79.603C238.896 79.405 238.984 79.1813 239.013 78.932H240.025C240.003 79.394 239.868 79.7937 239.618 80.131C239.376 80.4683 239.054 80.7323 238.65 80.923C238.254 81.1063 237.807 81.198 237.308 81.198ZM241.71 81V72.97H242.766V77.766H242.502C242.502 77.1867 242.576 76.688 242.722 76.27C242.876 75.8447 243.111 75.5183 243.426 75.291C243.742 75.0637 244.145 74.95 244.636 74.95H244.68C245.384 74.95 245.916 75.1847 246.275 75.654C246.635 76.116 246.814 76.7797 246.814 77.645V81H245.758V77.425C245.758 76.9483 245.623 76.578 245.351 76.314C245.087 76.05 244.743 75.918 244.317 75.918C243.848 75.918 243.47 76.0757 243.184 76.391C242.906 76.699 242.766 77.106 242.766 77.612V81H241.71ZM252.549 81V79.24H252.373V77.205C252.373 76.8017 252.267 76.4973 252.054 76.292C251.849 76.0867 251.545 75.984 251.141 75.984C250.914 75.984 250.679 75.9877 250.437 75.995C250.195 76.0023 249.964 76.0097 249.744 76.017C249.524 76.0243 249.334 76.0353 249.172 76.05V75.126C249.334 75.1113 249.502 75.1003 249.678 75.093C249.862 75.0783 250.049 75.071 250.239 75.071C250.43 75.0637 250.613 75.06 250.789 75.06C251.391 75.06 251.882 75.1333 252.263 75.28C252.645 75.4193 252.927 75.6503 253.11 75.973C253.294 76.2957 253.385 76.732 253.385 77.282V81H252.549ZM250.624 81.154C250.184 81.154 249.803 81.0807 249.48 80.934C249.165 80.78 248.919 80.56 248.743 80.274C248.575 79.988 248.49 79.6433 248.49 79.24C248.49 78.822 248.582 78.4737 248.765 78.195C248.956 77.9163 249.231 77.7073 249.59 77.568C249.95 77.4213 250.382 77.348 250.888 77.348H252.483V78.14H250.844C250.419 78.14 250.093 78.2427 249.865 78.448C249.638 78.6533 249.524 78.9173 249.524 79.24C249.524 79.5627 249.638 79.823 249.865 80.021C250.093 80.219 250.419 80.318 250.844 80.318C251.094 80.318 251.332 80.274 251.559 80.186C251.787 80.0907 251.974 79.9367 252.12 79.724C252.274 79.504 252.359 79.2033 252.373 78.822L252.659 79.24C252.623 79.658 252.52 80.01 252.351 80.296C252.19 80.5747 251.963 80.7873 251.669 80.934C251.383 81.0807 251.035 81.154 250.624 81.154ZM257.862 81.066C257.422 81.066 257.04 81.0037 256.718 80.879C256.402 80.7543 256.157 80.5417 255.981 80.241C255.812 79.933 255.728 79.5187 255.728 78.998V73.344H256.74V79.13C256.74 79.4453 256.824 79.691 256.993 79.867C257.169 80.0357 257.414 80.12 257.73 80.12H258.764V81.066H257.862ZM254.716 75.918V75.126H258.764V75.918H254.716ZM262.389 81.176C261.619 81.176 261.021 81.011 260.596 80.681C260.178 80.351 259.962 79.9 259.947 79.328H260.937C260.952 79.5553 261.065 79.7717 261.278 79.977C261.498 80.175 261.868 80.274 262.389 80.274C262.858 80.274 263.218 80.1823 263.467 79.999C263.716 79.8083 263.841 79.5773 263.841 79.306C263.841 79.064 263.749 78.877 263.566 78.745C263.383 78.6057 263.086 78.514 262.675 78.47L262.037 78.404C261.48 78.3453 261.025 78.1803 260.673 77.909C260.321 77.6303 260.145 77.2417 260.145 76.743C260.145 76.369 260.24 76.05 260.431 75.786C260.622 75.5147 260.886 75.3093 261.223 75.17C261.56 75.0233 261.949 74.95 262.389 74.95C263.049 74.95 263.584 75.0967 263.995 75.39C264.406 75.6833 264.618 76.1197 264.633 76.699H263.643C263.636 76.4643 263.526 76.2663 263.313 76.105C263.108 75.9363 262.8 75.852 262.389 75.852C261.978 75.852 261.667 75.9363 261.454 76.105C261.241 76.2737 261.135 76.4863 261.135 76.743C261.135 76.963 261.208 77.139 261.355 77.271C261.509 77.403 261.758 77.4873 262.103 77.524L262.741 77.59C263.372 77.656 263.878 77.832 264.259 78.118C264.64 78.3967 264.831 78.7927 264.831 79.306C264.831 79.6727 264.725 79.999 264.512 80.285C264.307 80.5637 264.021 80.7837 263.654 80.945C263.287 81.099 262.866 81.176 262.389 81.176ZM93.718 96.198C93.2047 96.198 92.7537 96.11 92.365 95.934C91.9763 95.758 91.6463 95.527 91.375 95.241C91.111 94.9477 90.9093 94.6213 90.77 94.262C90.638 93.9027 90.572 93.536 90.572 93.162V92.964C90.572 92.59 90.6417 92.2233 90.781 91.864C90.9203 91.4973 91.1257 91.171 91.397 90.885C91.6683 90.5917 91.9983 90.3607 92.387 90.192C92.7757 90.016 93.2193 89.928 93.718 89.928C94.2167 89.928 94.6603 90.016 95.049 90.192C95.4377 90.3607 95.7677 90.5917 96.039 90.885C96.3103 91.171 96.5157 91.4973 96.655 91.864C96.7943 92.2233 96.864 92.59 96.864 92.964V93.162C96.864 93.536 96.7943 93.9027 96.655 94.262C96.523 94.6213 96.3213 94.9477 96.05 95.241C95.786 95.527 95.4597 95.758 95.071 95.934C94.6823 96.11 94.2313 96.198 93.718 96.198ZM93.718 95.252C94.158 95.252 94.532 95.1567 94.84 94.966C95.1553 94.768 95.3937 94.504 95.555 94.174C95.7237 93.844 95.808 93.4737 95.808 93.063C95.808 92.645 95.7237 92.271 95.555 91.941C95.3863 91.611 95.1443 91.3507 94.829 91.16C94.521 90.9693 94.1507 90.874 93.718 90.874C93.2927 90.874 92.9223 90.9693 92.607 91.16C92.2917 91.3507 92.0497 91.611 91.881 91.941C91.7123 92.271 91.628 92.645 91.628 93.063C91.628 93.4737 91.7087 93.844 91.87 94.174C92.0387 94.504 92.277 94.768 92.585 94.966C92.9003 95.1567 93.278 95.252 93.718 95.252ZM98.6956 96V90.126H99.5316V92.546H99.4876C99.4876 91.688 99.6746 91.061 100.049 90.665C100.43 90.2617 100.998 90.06 101.754 90.06H101.952V91.006H101.578C100.991 91.006 100.54 91.1637 100.225 91.479C99.9093 91.787 99.7516 92.2343 99.7516 92.821V96H98.6956ZM108.135 96.176C107.365 96.176 106.768 96.011 106.342 95.681C105.924 95.351 105.708 94.9 105.693 94.328H106.683C106.698 94.5553 106.812 94.7717 107.024 94.977C107.244 95.175 107.615 95.274 108.135 95.274C108.605 95.274 108.964 95.1823 109.213 94.999C109.463 94.8083 109.587 94.5773 109.587 94.306C109.587 94.064 109.496 93.877 109.312 93.745C109.129 93.6057 108.832 93.514 108.421 93.47L107.783 93.404C107.226 93.3453 106.771 93.1803 106.419 92.909C106.067 92.6303 105.891 92.2417 105.891 91.743C105.891 91.369 105.987 91.05 106.177 90.786C106.368 90.5147 106.632 90.3093 106.969 90.17C107.307 90.0233 107.695 89.95 108.135 89.95C108.795 89.95 109.331 90.0967 109.741 90.39C110.152 90.6833 110.365 91.1197 110.379 91.699H109.389C109.382 91.4643 109.272 91.2663 109.059 91.105C108.854 90.9363 108.546 90.852 108.135 90.852C107.725 90.852 107.413 90.9363 107.2 91.105C106.988 91.2737 106.881 91.4863 106.881 91.743C106.881 91.963 106.955 92.139 107.101 92.271C107.255 92.403 107.505 92.4873 107.849 92.524L108.487 92.59C109.118 92.656 109.624 92.832 110.005 93.118C110.387 93.3967 110.577 93.7927 110.577 94.306C110.577 94.6727 110.471 94.999 110.258 95.285C110.053 95.5637 109.767 95.7837 109.4 95.945C109.034 96.099 108.612 96.176 108.135 96.176ZM115.064 96.198C114.55 96.198 114.099 96.11 113.711 95.934C113.322 95.758 112.992 95.527 112.721 95.241C112.457 94.9477 112.255 94.6213 112.116 94.262C111.984 93.9027 111.918 93.536 111.918 93.162V92.964C111.918 92.59 111.987 92.2233 112.127 91.864C112.266 91.4973 112.471 91.171 112.743 90.885C113.014 90.5917 113.344 90.3607 113.733 90.192C114.121 90.016 114.565 89.928 115.064 89.928C115.562 89.928 116.006 90.016 116.395 90.192C116.783 90.3607 117.113 90.5917 117.385 90.885C117.656 91.171 117.861 91.4973 118.001 91.864C118.14 92.2233 118.21 92.59 118.21 92.964V93.162C118.21 93.536 118.14 93.9027 118.001 94.262C117.869 94.6213 117.667 94.9477 117.396 95.241C117.132 95.527 116.805 95.758 116.417 95.934C116.028 96.11 115.577 96.198 115.064 96.198ZM115.064 95.252C115.504 95.252 115.878 95.1567 116.186 94.966C116.501 94.768 116.739 94.504 116.901 94.174C117.069 93.844 117.154 93.4737 117.154 93.063C117.154 92.645 117.069 92.271 116.901 91.941C116.732 91.611 116.49 91.3507 116.175 91.16C115.867 90.9693 115.496 90.874 115.064 90.874C114.638 90.874 114.268 90.9693 113.953 91.16C113.637 91.3507 113.395 91.611 113.227 91.941C113.058 92.271 112.974 92.645 112.974 93.063C112.974 93.4737 113.054 93.844 113.216 94.174C113.384 94.504 113.623 94.768 113.931 94.966C114.246 95.1567 114.624 95.252 115.064 95.252ZM122.56 96.198C122.054 96.198 121.614 96.11 121.24 95.934C120.874 95.758 120.569 95.5233 120.327 95.23C120.085 94.9293 119.902 94.5993 119.777 94.24C119.66 93.8807 119.601 93.5213 119.601 93.162V92.964C119.601 92.59 119.66 92.2233 119.777 91.864C119.902 91.5047 120.085 91.182 120.327 90.896C120.577 90.6027 120.885 90.368 121.251 90.192C121.618 90.016 122.047 89.928 122.538 89.928C123.03 89.928 123.47 90.0197 123.858 90.203C124.254 90.3863 124.57 90.6467 124.804 90.984C125.046 91.314 125.182 91.7063 125.211 92.161H124.199C124.148 91.7943 123.979 91.49 123.693 91.248C123.407 90.9987 123.022 90.874 122.538 90.874C122.12 90.874 121.772 90.9693 121.493 91.16C121.215 91.3507 121.006 91.611 120.866 91.941C120.727 92.271 120.657 92.645 120.657 93.063C120.657 93.4663 120.727 93.8367 120.866 94.174C121.006 94.504 121.215 94.768 121.493 94.966C121.779 95.1567 122.135 95.252 122.56 95.252C122.89 95.252 123.176 95.1933 123.418 95.076C123.66 94.9587 123.855 94.801 124.001 94.603C124.148 94.405 124.236 94.1813 124.265 93.932H125.277C125.255 94.394 125.12 94.7937 124.87 95.131C124.628 95.4683 124.306 95.7323 123.902 95.923C123.506 96.1063 123.059 96.198 122.56 96.198ZM127.248 96V90.126H128.304V96H127.248ZM126.346 90.962V90.126H128.304V90.962H126.346ZM127.545 89.18C127.311 89.18 127.135 89.1177 127.017 88.993C126.907 88.8683 126.852 88.7107 126.852 88.52C126.852 88.3293 126.907 88.1717 127.017 88.047C127.135 87.9223 127.311 87.86 127.545 87.86C127.78 87.86 127.952 87.9223 128.062 88.047C128.18 88.1717 128.238 88.3293 128.238 88.52C128.238 88.7107 128.18 88.8683 128.062 88.993C127.952 89.1177 127.78 89.18 127.545 89.18ZM134.149 96V94.24H133.973V92.205C133.973 91.8017 133.867 91.4973 133.654 91.292C133.449 91.0867 133.144 90.984 132.741 90.984C132.514 90.984 132.279 90.9877 132.037 90.995C131.795 91.0023 131.564 91.0097 131.344 91.017C131.124 91.0243 130.933 91.0353 130.772 91.05V90.126C130.933 90.1113 131.102 90.1003 131.278 90.093C131.461 90.0783 131.648 90.071 131.839 90.071C132.03 90.0637 132.213 90.06 132.389 90.06C132.99 90.06 133.482 90.1333 133.863 90.28C134.244 90.4193 134.527 90.6503 134.71 90.973C134.893 91.2957 134.985 91.732 134.985 92.282V96H134.149ZM132.224 96.154C131.784 96.154 131.403 96.0807 131.08 95.934C130.765 95.78 130.519 95.56 130.343 95.274C130.174 94.988 130.09 94.6433 130.09 94.24C130.09 93.822 130.182 93.4737 130.365 93.195C130.556 92.9163 130.831 92.7073 131.19 92.568C131.549 92.4213 131.982 92.348 132.488 92.348H134.083V93.14H132.444C132.019 93.14 131.692 93.2427 131.465 93.448C131.238 93.6533 131.124 93.9173 131.124 94.24C131.124 94.5627 131.238 94.823 131.465 95.021C131.692 95.219 132.019 95.318 132.444 95.318C132.693 95.318 132.932 95.274 133.159 95.186C133.386 95.0907 133.573 94.9367 133.72 94.724C133.874 94.504 133.958 94.2033 133.973 93.822L134.259 94.24C134.222 94.658 134.12 95.01 133.951 95.296C133.79 95.5747 133.562 95.7873 133.269 95.934C132.983 96.0807 132.635 96.154 132.224 96.154ZM137.239 96V87.97H138.295V96H137.239ZM136.425 88.806V87.97H138.295V88.806H136.425ZM143.324 96V90.126H144.16V92.645H144.028C144.028 92.073 144.101 91.589 144.248 91.193C144.402 90.7897 144.629 90.4817 144.93 90.269C145.23 90.0563 145.612 89.95 146.074 89.95H146.118C146.58 89.95 146.961 90.0563 147.262 90.269C147.57 90.4817 147.797 90.7897 147.944 91.193C148.09 91.589 148.164 92.073 148.164 92.645H147.856C147.856 92.073 147.933 91.589 148.087 91.193C148.241 90.7897 148.468 90.4817 148.769 90.269C149.077 90.0563 149.462 89.95 149.924 89.95H149.968C150.43 89.95 150.815 90.0563 151.123 90.269C151.431 90.4817 151.658 90.7897 151.805 91.193C151.959 91.589 152.036 92.073 152.036 92.645V96H150.98V92.414C150.98 91.9373 150.862 91.5707 150.628 91.314C150.393 91.05 150.067 90.918 149.649 90.918C149.216 90.918 148.868 91.0573 148.604 91.336C148.34 91.6073 148.208 91.9887 148.208 92.48V96H147.152V92.414C147.152 91.9373 147.034 91.5707 146.8 91.314C146.565 91.05 146.239 90.918 145.821 90.918C145.388 90.918 145.04 91.0573 144.776 91.336C144.512 91.6073 144.38 91.9887 144.38 92.48V96H143.324ZM156.716 96.198C156.203 96.198 155.759 96.11 155.385 95.934C155.011 95.758 154.707 95.527 154.472 95.241C154.237 94.9477 154.061 94.6213 153.944 94.262C153.834 93.9027 153.779 93.536 153.779 93.162V92.964C153.779 92.5827 153.834 92.2123 153.944 91.853C154.061 91.4937 154.237 91.171 154.472 90.885C154.707 90.5917 155.004 90.3607 155.363 90.192C155.73 90.016 156.159 89.928 156.65 89.928C157.288 89.928 157.812 90.0673 158.223 90.346C158.641 90.6173 158.949 90.9693 159.147 91.402C159.352 91.8347 159.455 92.2967 159.455 92.788V93.261H154.241V92.469H158.685L158.443 92.898C158.443 92.48 158.377 92.1207 158.245 91.82C158.113 91.512 157.915 91.2737 157.651 91.105C157.387 90.9363 157.053 90.852 156.65 90.852C156.232 90.852 155.884 90.9473 155.605 91.138C155.334 91.3287 155.128 91.589 154.989 91.919C154.857 92.249 154.791 92.6303 154.791 93.063C154.791 93.481 154.857 93.8587 154.989 94.196C155.128 94.526 155.341 94.79 155.627 94.988C155.913 95.1787 156.276 95.274 156.716 95.274C157.178 95.274 157.552 95.1713 157.838 94.966C158.131 94.7607 158.307 94.5223 158.366 94.251H159.356C159.275 94.6543 159.114 95.0027 158.872 95.296C158.63 95.5893 158.326 95.813 157.959 95.967C157.592 96.121 157.178 96.198 156.716 96.198ZM163.657 96.198C163.239 96.198 162.854 96.121 162.502 95.967C162.15 95.813 161.842 95.5967 161.578 95.318C161.322 95.0393 161.12 94.7167 160.973 94.35C160.834 93.9833 160.764 93.5873 160.764 93.162V92.964C160.764 92.546 160.834 92.1537 160.973 91.787C161.113 91.4203 161.307 91.0977 161.556 90.819C161.813 90.5403 162.114 90.324 162.458 90.17C162.81 90.0087 163.199 89.928 163.624 89.928C164.072 89.928 164.479 90.0233 164.845 90.214C165.212 90.3973 165.513 90.687 165.747 91.083C165.982 91.479 166.114 91.9923 166.143 92.623L165.703 91.919V87.97H166.759V96H165.923V93.393H166.231C166.202 94.0603 166.063 94.603 165.813 95.021C165.564 95.4317 165.249 95.7323 164.867 95.923C164.493 96.1063 164.09 96.198 163.657 96.198ZM163.8 95.274C164.16 95.274 164.486 95.1933 164.779 95.032C165.073 94.8707 165.307 94.6397 165.483 94.339C165.659 94.031 165.747 93.6717 165.747 93.261V92.755C165.747 92.3517 165.656 92.0107 165.472 91.732C165.296 91.446 165.058 91.2297 164.757 91.083C164.464 90.929 164.141 90.852 163.789 90.852C163.401 90.852 163.056 90.9437 162.755 91.127C162.462 91.3103 162.231 91.567 162.062 91.897C161.901 92.227 161.82 92.6157 161.82 93.063C161.82 93.5103 161.905 93.9027 162.073 94.24C162.242 94.57 162.477 94.8267 162.777 95.01C163.078 95.186 163.419 95.274 163.8 95.274ZM169.324 96V90.126H170.38V96H169.324ZM168.422 90.962V90.126H170.38V90.962H168.422ZM169.621 89.18C169.387 89.18 169.211 89.1177 169.093 88.993C168.983 88.8683 168.928 88.7107 168.928 88.52C168.928 88.3293 168.983 88.1717 169.093 88.047C169.211 87.9223 169.387 87.86 169.621 87.86C169.856 87.86 170.028 87.9223 170.138 88.047C170.256 88.1717 170.314 88.3293 170.314 88.52C170.314 88.7107 170.256 88.8683 170.138 88.993C170.028 89.1177 169.856 89.18 169.621 89.18ZM176.225 96V94.24H176.049V92.205C176.049 91.8017 175.943 91.4973 175.73 91.292C175.525 91.0867 175.22 90.984 174.817 90.984C174.59 90.984 174.355 90.9877 174.113 90.995C173.871 91.0023 173.64 91.0097 173.42 91.017C173.2 91.0243 173.009 91.0353 172.848 91.05V90.126C173.009 90.1113 173.178 90.1003 173.354 90.093C173.537 90.0783 173.724 90.071 173.915 90.071C174.106 90.0637 174.289 90.06 174.465 90.06C175.066 90.06 175.558 90.1333 175.939 90.28C176.32 90.4193 176.603 90.6503 176.786 90.973C176.969 91.2957 177.061 91.732 177.061 92.282V96H176.225ZM174.3 96.154C173.86 96.154 173.479 96.0807 173.156 95.934C172.841 95.78 172.595 95.56 172.419 95.274C172.25 94.988 172.166 94.6433 172.166 94.24C172.166 93.822 172.258 93.4737 172.441 93.195C172.632 92.9163 172.907 92.7073 173.266 92.568C173.625 92.4213 174.058 92.348 174.564 92.348H176.159V93.14H174.52C174.095 93.14 173.768 93.2427 173.541 93.448C173.314 93.6533 173.2 93.9173 173.2 94.24C173.2 94.5627 173.314 94.823 173.541 95.021C173.768 95.219 174.095 95.318 174.52 95.318C174.769 95.318 175.008 95.274 175.235 95.186C175.462 95.0907 175.649 94.9367 175.796 94.724C175.95 94.504 176.034 94.2033 176.049 93.822L176.335 94.24C176.298 94.658 176.196 95.01 176.027 95.296C175.866 95.5747 175.638 95.7873 175.345 95.934C175.059 96.0807 174.711 96.154 174.3 96.154ZM184.29 96.066C183.85 96.066 183.469 96.0037 183.146 95.879C182.831 95.7543 182.585 95.5417 182.409 95.241C182.241 94.933 182.156 94.5187 182.156 93.998V88.344H183.168V94.13C183.168 94.4453 183.253 94.691 183.421 94.867C183.597 95.0357 183.843 95.12 184.158 95.12H185.192V96.066H184.29ZM181.144 90.918V90.126H185.192V90.918H181.144ZM189.599 96.198C189.086 96.198 188.635 96.11 188.246 95.934C187.857 95.758 187.527 95.527 187.256 95.241C186.992 94.9477 186.79 94.6213 186.651 94.262C186.519 93.9027 186.453 93.536 186.453 93.162V92.964C186.453 92.59 186.523 92.2233 186.662 91.864C186.801 91.4973 187.007 91.171 187.278 90.885C187.549 90.5917 187.879 90.3607 188.268 90.192C188.657 90.016 189.1 89.928 189.599 89.928C190.098 89.928 190.541 90.016 190.93 90.192C191.319 90.3607 191.649 90.5917 191.92 90.885C192.191 91.171 192.397 91.4973 192.536 91.864C192.675 92.2233 192.745 92.59 192.745 92.964V93.162C192.745 93.536 192.675 93.9027 192.536 94.262C192.404 94.6213 192.202 94.9477 191.931 95.241C191.667 95.527 191.341 95.758 190.952 95.934C190.563 96.11 190.112 96.198 189.599 96.198ZM189.599 95.252C190.039 95.252 190.413 95.1567 190.721 94.966C191.036 94.768 191.275 94.504 191.436 94.174C191.605 93.844 191.689 93.4737 191.689 93.063C191.689 92.645 191.605 92.271 191.436 91.941C191.267 91.611 191.025 91.3507 190.71 91.16C190.402 90.9693 190.032 90.874 189.599 90.874C189.174 90.874 188.803 90.9693 188.488 91.16C188.173 91.3507 187.931 91.611 187.762 91.941C187.593 92.271 187.509 92.645 187.509 93.063C187.509 93.4737 187.59 93.844 187.751 94.174C187.92 94.504 188.158 94.768 188.466 94.966C188.781 95.1567 189.159 95.252 189.599 95.252ZM199.848 96.198C199.342 96.198 198.902 96.11 198.528 95.934C198.162 95.758 197.857 95.5233 197.615 95.23C197.373 94.9293 197.19 94.5993 197.065 94.24C196.948 93.8807 196.889 93.5213 196.889 93.162V92.964C196.889 92.59 196.948 92.2233 197.065 91.864C197.19 91.5047 197.373 91.182 197.615 90.896C197.865 90.6027 198.173 90.368 198.539 90.192C198.906 90.016 199.335 89.928 199.826 89.928C200.318 89.928 200.758 90.0197 201.146 90.203C201.542 90.3863 201.858 90.6467 202.092 90.984C202.334 91.314 202.47 91.7063 202.499 92.161H201.487C201.436 91.7943 201.267 91.49 200.981 91.248C200.695 90.9987 200.31 90.874 199.826 90.874C199.408 90.874 199.06 90.9693 198.781 91.16C198.503 91.3507 198.294 91.611 198.154 91.941C198.015 92.271 197.945 92.645 197.945 93.063C197.945 93.4663 198.015 93.8367 198.154 94.174C198.294 94.504 198.503 94.768 198.781 94.966C199.067 95.1567 199.423 95.252 199.848 95.252C200.178 95.252 200.464 95.1933 200.706 95.076C200.948 94.9587 201.143 94.801 201.289 94.603C201.436 94.405 201.524 94.1813 201.553 93.932H202.565C202.543 94.394 202.408 94.7937 202.158 95.131C201.916 95.4683 201.594 95.7323 201.19 95.923C200.794 96.1063 200.347 96.198 199.848 96.198ZM206.285 96.176C205.589 96.176 205.053 95.9487 204.679 95.494C204.305 95.0393 204.118 94.383 204.118 93.525V90.115H205.174V93.734C205.174 94.196 205.299 94.559 205.548 94.823C205.798 95.0797 206.135 95.208 206.56 95.208C207 95.208 207.36 95.0687 207.638 94.79C207.917 94.504 208.056 94.1153 208.056 93.624V90.115H209.112V96H208.276V93.481H208.408C208.408 94.0603 208.331 94.5517 208.177 94.955C208.023 95.351 207.792 95.6553 207.484 95.868C207.184 96.0733 206.799 96.176 206.329 96.176H206.285ZM213.333 96.176C212.563 96.176 211.965 96.011 211.54 95.681C211.122 95.351 210.905 94.9 210.891 94.328H211.881C211.895 94.5553 212.009 94.7717 212.222 94.977C212.442 95.175 212.812 95.274 213.333 95.274C213.802 95.274 214.161 95.1823 214.411 94.999C214.66 94.8083 214.785 94.5773 214.785 94.306C214.785 94.064 214.693 93.877 214.51 93.745C214.326 93.6057 214.029 93.514 213.619 93.47L212.981 93.404C212.423 93.3453 211.969 93.1803 211.617 92.909C211.265 92.6303 211.089 92.2417 211.089 91.743C211.089 91.369 211.184 91.05 211.375 90.786C211.565 90.5147 211.829 90.3093 212.167 90.17C212.504 90.0233 212.893 89.95 213.333 89.95C213.993 89.95 214.528 90.0967 214.939 90.39C215.349 90.6833 215.562 91.1197 215.577 91.699H214.587C214.579 91.4643 214.469 91.2663 214.257 91.105C214.051 90.9363 213.743 90.852 213.333 90.852C212.922 90.852 212.61 90.9363 212.398 91.105C212.185 91.2737 212.079 91.4863 212.079 91.743C212.079 91.963 212.152 92.139 212.299 92.271C212.453 92.403 212.702 92.4873 213.047 92.524L213.685 92.59C214.315 92.656 214.821 92.832 215.203 93.118C215.584 93.3967 215.775 93.7927 215.775 94.306C215.775 94.6727 215.668 94.999 215.456 95.285C215.25 95.5637 214.964 95.7837 214.598 95.945C214.231 96.099 213.809 96.176 213.333 96.176ZM219.843 96.066C219.403 96.066 219.022 96.0037 218.699 95.879C218.384 95.7543 218.138 95.5417 217.962 95.241C217.793 94.933 217.709 94.5187 217.709 93.998V88.344H218.721V94.13C218.721 94.4453 218.805 94.691 218.974 94.867C219.15 95.0357 219.396 95.12 219.711 95.12H220.745V96.066H219.843ZM216.697 90.918V90.126H220.745V90.918H216.697ZM225.152 96.198C224.638 96.198 224.187 96.11 223.799 95.934C223.41 95.758 223.08 95.527 222.809 95.241C222.545 94.9477 222.343 94.6213 222.204 94.262C222.072 93.9027 222.006 93.536 222.006 93.162V92.964C222.006 92.59 222.075 92.2233 222.215 91.864C222.354 91.4973 222.559 91.171 222.831 90.885C223.102 90.5917 223.432 90.3607 223.821 90.192C224.209 90.016 224.653 89.928 225.152 89.928C225.65 89.928 226.094 90.016 226.483 90.192C226.871 90.3607 227.201 90.5917 227.473 90.885C227.744 91.171 227.949 91.4973 228.089 91.864C228.228 92.2233 228.298 92.59 228.298 92.964V93.162C228.298 93.536 228.228 93.9027 228.089 94.262C227.957 94.6213 227.755 94.9477 227.484 95.241C227.22 95.527 226.893 95.758 226.505 95.934C226.116 96.11 225.665 96.198 225.152 96.198ZM225.152 95.252C225.592 95.252 225.966 95.1567 226.274 94.966C226.589 94.768 226.827 94.504 226.989 94.174C227.157 93.844 227.242 93.4737 227.242 93.063C227.242 92.645 227.157 92.271 226.989 91.941C226.82 91.611 226.578 91.3507 226.263 91.16C225.955 90.9693 225.584 90.874 225.152 90.874C224.726 90.874 224.356 90.9693 224.041 91.16C223.725 91.3507 223.483 91.611 223.315 91.941C223.146 92.271 223.062 92.645 223.062 93.063C223.062 93.4737 223.142 93.844 223.304 94.174C223.472 94.504 223.711 94.768 224.019 94.966C224.334 95.1567 224.712 95.252 225.152 95.252ZM230.129 96V90.126H230.965V92.645H230.833C230.833 92.073 230.907 91.589 231.053 91.193C231.207 90.7897 231.435 90.4817 231.735 90.269C232.036 90.0563 232.417 89.95 232.879 89.95H232.923C233.385 89.95 233.767 90.0563 234.067 90.269C234.375 90.4817 234.603 90.7897 234.749 91.193C234.896 91.589 234.969 92.073 234.969 92.645H234.661C234.661 92.073 234.738 91.589 234.892 91.193C235.046 90.7897 235.274 90.4817 235.574 90.269C235.882 90.0563 236.267 89.95 236.729 89.95H236.773C237.235 89.95 237.62 90.0563 237.928 90.269C238.236 90.4817 238.464 90.7897 238.61 91.193C238.764 91.589 238.841 92.073 238.841 92.645V96H237.785V92.414C237.785 91.9373 237.668 91.5707 237.433 91.314C237.199 91.05 236.872 90.918 236.454 90.918C236.022 90.918 235.673 91.0573 235.409 91.336C235.145 91.6073 235.013 91.9887 235.013 92.48V96H233.957V92.414C233.957 91.9373 233.84 91.5707 233.605 91.314C233.371 91.05 233.044 90.918 232.626 90.918C232.194 90.918 231.845 91.0573 231.581 91.336C231.317 91.6073 231.185 91.9887 231.185 92.48V96H230.129ZM243.522 96.198C243.008 96.198 242.565 96.11 242.191 95.934C241.817 95.758 241.512 95.527 241.278 95.241C241.043 94.9477 240.867 94.6213 240.75 94.262C240.64 93.9027 240.585 93.536 240.585 93.162V92.964C240.585 92.5827 240.64 92.2123 240.75 91.853C240.867 91.4937 241.043 91.171 241.278 90.885C241.512 90.5917 241.809 90.3607 242.169 90.192C242.535 90.016 242.964 89.928 243.456 89.928C244.094 89.928 244.618 90.0673 245.029 90.346C245.447 90.6173 245.755 90.9693 245.953 91.402C246.158 91.8347 246.261 92.2967 246.261 92.788V93.261H241.047V92.469H245.491L245.249 92.898C245.249 92.48 245.183 92.1207 245.051 91.82C244.919 91.512 244.721 91.2737 244.457 91.105C244.193 90.9363 243.859 90.852 243.456 90.852C243.038 90.852 242.689 90.9473 242.411 91.138C242.139 91.3287 241.934 91.589 241.795 91.919C241.663 92.249 241.597 92.6303 241.597 93.063C241.597 93.481 241.663 93.8587 241.795 94.196C241.934 94.526 242.147 94.79 242.433 94.988C242.719 95.1787 243.082 95.274 243.522 95.274C243.984 95.274 244.358 95.1713 244.644 94.966C244.937 94.7607 245.113 94.5223 245.172 94.251H246.162C246.081 94.6543 245.92 95.0027 245.678 95.296C245.436 95.5893 245.131 95.813 244.765 95.967C244.398 96.121 243.984 96.198 243.522 96.198ZM248.01 96V90.126H248.846V92.546H248.802C248.802 91.688 248.989 91.061 249.363 90.665C249.744 90.2617 250.313 90.06 251.068 90.06H251.266V91.006H250.892C250.305 91.006 249.854 91.1637 249.539 91.479C249.224 91.787 249.066 92.2343 249.066 92.821V96H248.01ZM254.697 96.176C253.927 96.176 253.329 96.011 252.904 95.681C252.486 95.351 252.269 94.9 252.255 94.328H253.245C253.259 94.5553 253.373 94.7717 253.586 94.977C253.806 95.175 254.176 95.274 254.697 95.274C255.166 95.274 255.525 95.1823 255.775 94.999C256.024 94.8083 256.149 94.5773 256.149 94.306C256.149 94.064 256.057 93.877 255.874 93.745C255.69 93.6057 255.393 93.514 254.983 93.47L254.345 93.404C253.787 93.3453 253.333 93.1803 252.981 92.909C252.629 92.6303 252.453 92.2417 252.453 91.743C252.453 91.369 252.548 91.05 252.739 90.786C252.929 90.5147 253.193 90.3093 253.531 90.17C253.868 90.0233 254.257 89.95 254.697 89.95C255.357 89.95 255.892 90.0967 256.303 90.39C256.713 90.6833 256.926 91.1197 256.941 91.699H255.951C255.943 91.4643 255.833 91.2663 255.621 91.105C255.415 90.9363 255.107 90.852 254.697 90.852C254.286 90.852 253.974 90.9363 253.762 91.105C253.549 91.2737 253.443 91.4863 253.443 91.743C253.443 91.963 253.516 92.139 253.663 92.271C253.817 92.403 254.066 92.4873 254.411 92.524L255.049 92.59C255.679 92.656 256.185 92.832 256.567 93.118C256.948 93.3967 257.139 93.7927 257.139 94.306C257.139 94.6727 257.032 94.999 256.82 95.285C256.614 95.5637 256.328 95.7837 255.962 95.945C255.595 96.099 255.173 96.176 254.697 96.176ZM258.603 96V94.658H259.879V96H258.603Z" fill="#4A4E50"/>
<defs>
<filter id="filter0_d_34_808" x="8" y="20" width="74" height="74" filterUnits="userSpaceOnUse" color-interpolation-filters="sRGB">
<feFlood flood-opacity="0" result="BackgroundImageFix"/>
<feColorMatrix in="SourceAlpha" type="matrix" values="0 0 0 0 0 0 0 0 0 0 0 0 0 0 0 0 0 0 127 0" result="hardAlpha"/>
<feOffset/>
<feGaussianBlur stdDeviation="2.5"/>
<feComposite in2="hardAlpha" operator="out"/>
<feColorMatrix type="matrix" values="0 0 0 0 0.278431 0 0 0 0 0.0196078 0 0 0 0 0.686275 0 0 0 0.08 0"/>
<feBlend mode="normal" in2="BackgroundImageFix" result="effect1_dropShadow_34_808"/>
<feBlend mode="normal" in="SourceGraphic" in2="effect1_dropShadow_34_808" result="shape"/>
</filter>
</defs>
</svg>
