<svg width="74" height="74" viewBox="0 0 74 74" fill="none" xmlns="http://www.w3.org/2000/svg">
<g filter="url(#filter0_d_34_850)">
<rect x="5" y="5" width="64" height="64" rx="25" fill="white"/>
</g>
<path d="M46.1875 37.0132C44.2101 37.0151 42.286 37.6549 40.7012 38.8376L35.1625 33.2988C36.3591 31.7256 37.0049 29.8023 37 27.8257C37.0052 25.7558 36.3112 23.7447 35.0305 22.1185C33.7499 20.4923 31.9576 19.3462 29.9441 18.8659C27.9307 18.3857 25.814 18.5994 23.9372 19.4725C22.0604 20.3456 20.5335 21.8269 19.6038 23.6764C18.6741 25.5258 18.3962 27.635 18.8151 29.6621C19.234 31.6892 20.3252 33.5154 21.9118 34.8449C23.4984 36.1743 25.4874 36.929 27.5566 36.9867C29.6257 37.0443 31.6537 36.4016 33.3119 35.1626L38.8375 40.7013C37.5988 42.3591 36.9561 44.3864 37.0133 46.455C37.0706 48.5236 37.8246 50.5123 39.1531 52.0989C40.4816 53.6855 42.3068 54.7772 44.3331 55.1971C46.3595 55.617 48.4682 55.3405 50.3178 54.4124C52.1674 53.4843 53.6495 51.959 54.524 50.0834C55.3986 48.2079 55.6144 46.0921 55.1364 44.0787C54.6584 42.0653 53.5147 40.2722 51.8906 38.9898C50.2664 37.7075 48.2569 37.011 46.1875 37.0132ZM21.25 27.8257C21.25 26.5278 21.6349 25.259 22.356 24.1798C23.0771 23.1006 24.102 22.2595 25.3011 21.7628C26.5003 21.2661 27.8198 21.1361 29.0928 21.3893C30.3658 21.6425 31.5351 22.2675 32.4529 23.1853C33.3707 24.1031 33.9957 25.2724 34.2489 26.5454C34.5021 27.8184 34.3721 29.1379 33.8754 30.3371C33.3787 31.5362 32.5376 32.5611 31.4584 33.2822C30.3792 34.0033 29.1104 34.3882 27.8125 34.3882C26.072 34.3882 24.4028 33.6968 23.1721 32.4661C21.9414 31.2354 21.25 29.5662 21.25 27.8257Z" fill="#7E57FF"/>
<defs>
<filter id="filter0_d_34_850" x="0" y="0" width="74" height="74" filterUnits="userSpaceOnUse" color-interpolation-filters="sRGB">
<feFlood flood-opacity="0" result="BackgroundImageFix"/>
<feColorMatrix in="SourceAlpha" type="matrix" values="0 0 0 0 0 0 0 0 0 0 0 0 0 0 0 0 0 0 127 0" result="hardAlpha"/>
<feOffset/>
<feGaussianBlur stdDeviation="2.5"/>
<feComposite in2="hardAlpha" operator="out"/>
<feColorMatrix type="matrix" values="0 0 0 0 0.278431 0 0 0 0 0.0196078 0 0 0 0 0.686275 0 0 0 0.08 0"/>
<feBlend mode="normal" in2="BackgroundImageFix" result="effect1_dropShadow_34_850"/>
<feBlend mode="normal" in="SourceGraphic" in2="effect1_dropShadow_34_850" result="shape"/>
</filter>
</defs>
</svg>
