<svg width="293" height="178" viewBox="0 0 293 178" fill="none" xmlns="http://www.w3.org/2000/svg">
<rect opacity="0.1" width="293" height="178" rx="10" fill="#F97316"/>
<rect opacity="0.1" x="90" y="116" width="139" height="40" rx="6" fill="white"/>
<path d="M108.516 141.266C107.639 141.266 106.864 141.121 106.192 140.832C105.529 140.533 104.969 140.137 104.512 139.642C104.064 139.147 103.723 138.583 103.49 137.948C103.266 137.313 103.154 136.655 103.154 135.974V135.666C103.154 135.022 103.266 134.392 103.49 133.776C103.714 133.16 104.041 132.605 104.47 132.11C104.909 131.615 105.445 131.223 106.08 130.934C106.715 130.635 107.452 130.486 108.292 130.486C109.179 130.486 109.967 130.654 110.658 130.99C111.358 131.326 111.918 131.793 112.338 132.39C112.758 132.978 113.005 133.659 113.08 134.434H111.078C111.013 133.995 110.849 133.622 110.588 133.314C110.327 132.997 109.995 132.754 109.594 132.586C109.202 132.418 108.768 132.334 108.292 132.334C107.648 132.334 107.093 132.483 106.626 132.782C106.159 133.071 105.8 133.482 105.548 134.014C105.296 134.537 105.17 135.143 105.17 135.834C105.17 136.973 105.469 137.864 106.066 138.508C106.673 139.143 107.489 139.46 108.516 139.46C109.057 139.46 109.547 139.367 109.986 139.18C110.434 138.993 110.798 138.746 111.078 138.438V137.29H108.194V135.806H113.766V137.29H112.912V139.166C112.473 139.838 111.876 140.356 111.12 140.72C110.364 141.084 109.496 141.266 108.516 141.266ZM118.903 141.266C118.249 141.266 117.675 141.154 117.181 140.93C116.695 140.706 116.289 140.407 115.963 140.034C115.645 139.651 115.403 139.227 115.235 138.76C115.076 138.293 114.997 137.817 114.997 137.332V137.066C114.997 136.562 115.076 136.077 115.235 135.61C115.403 135.143 115.645 134.723 115.963 134.35C116.289 133.977 116.691 133.683 117.167 133.468C117.643 133.244 118.193 133.132 118.819 133.132C119.64 133.132 120.326 133.314 120.877 133.678C121.427 134.033 121.843 134.504 122.123 135.092C122.412 135.671 122.557 136.296 122.557 136.968V137.668H116.845C116.91 138.265 117.106 138.746 117.433 139.11C117.769 139.474 118.259 139.656 118.903 139.656C119.369 139.656 119.752 139.563 120.051 139.376C120.359 139.18 120.555 138.942 120.639 138.662H122.431C122.263 139.446 121.866 140.076 121.241 140.552C120.615 141.028 119.836 141.266 118.903 141.266ZM118.819 134.742C118.268 134.742 117.829 134.896 117.503 135.204C117.176 135.512 116.966 135.937 116.873 136.478H120.695C120.62 135.937 120.424 135.512 120.107 135.204C119.799 134.896 119.369 134.742 118.819 134.742ZM127.736 141.098C127.036 141.098 126.458 141.009 126 140.832C125.543 140.645 125.202 140.337 124.978 139.908C124.764 139.479 124.656 138.891 124.656 138.144V134.826H123.452V133.398H124.656L124.67 131.256H126.49L126.476 133.398H128.828V134.826H126.476V138.27C126.476 138.643 126.574 138.933 126.77 139.138C126.976 139.334 127.265 139.432 127.638 139.432H128.828V141.098H127.736ZM137.623 141.266C136.718 141.266 135.952 141.121 135.327 140.832C134.702 140.543 134.226 140.146 133.899 139.642C133.582 139.138 133.423 138.559 133.423 137.906H135.369C135.369 138.186 135.444 138.452 135.593 138.704C135.742 138.956 135.98 139.161 136.307 139.32C136.643 139.479 137.082 139.558 137.623 139.558C138.351 139.558 138.897 139.409 139.261 139.11C139.625 138.811 139.807 138.447 139.807 138.018C139.807 137.663 139.653 137.374 139.345 137.15C139.037 136.926 138.561 136.786 137.917 136.73L137.021 136.66C136.041 136.576 135.257 136.273 134.669 135.75C134.09 135.218 133.801 134.518 133.801 133.65C133.801 133.006 133.95 132.446 134.249 131.97C134.557 131.494 134.991 131.13 135.551 130.878C136.111 130.617 136.764 130.486 137.511 130.486C138.276 130.486 138.939 130.621 139.499 130.892C140.068 131.163 140.507 131.545 140.815 132.04C141.123 132.525 141.277 133.099 141.277 133.762H139.331C139.331 133.351 139.177 132.987 138.869 132.67C138.57 132.353 138.118 132.194 137.511 132.194C136.914 132.194 136.47 132.339 136.181 132.628C135.892 132.917 135.747 133.258 135.747 133.65C135.747 133.967 135.859 134.247 136.083 134.49C136.316 134.723 136.69 134.859 137.203 134.896L138.099 134.98C138.827 135.045 139.462 135.204 140.003 135.456C140.554 135.699 140.983 136.035 141.291 136.464C141.599 136.893 141.753 137.411 141.753 138.018C141.753 138.662 141.58 139.231 141.235 139.726C140.899 140.211 140.423 140.589 139.807 140.86C139.191 141.131 138.463 141.266 137.623 141.266ZM146.971 141.098C146.271 141.098 145.692 141.009 145.235 140.832C144.777 140.645 144.437 140.337 144.213 139.908C143.998 139.479 143.891 138.891 143.891 138.144V134.826H142.687V133.398H143.891L143.905 131.256H145.725L145.711 133.398H148.063V134.826H145.711V138.27C145.711 138.643 145.809 138.933 146.005 139.138C146.21 139.334 146.499 139.432 146.873 139.432H148.063V141.098H146.971ZM152.075 141.196C151.235 141.196 150.563 140.981 150.059 140.552C149.564 140.123 149.317 139.521 149.317 138.746C149.317 137.915 149.615 137.304 150.213 136.912C150.819 136.511 151.631 136.31 152.649 136.31H154.203V136.24C154.203 135.372 153.764 134.938 152.887 134.938C152.653 134.938 152.373 134.943 152.047 134.952C151.72 134.961 151.389 134.975 151.053 134.994C150.726 135.003 150.432 135.017 150.171 135.036V133.384C150.488 133.356 150.866 133.333 151.305 133.314C151.753 133.295 152.163 133.286 152.537 133.286C153.703 133.286 154.581 133.524 155.169 134C155.766 134.467 156.065 135.227 156.065 136.282V141H154.525V139.544C154.179 140.645 153.363 141.196 152.075 141.196ZM152.621 139.81C152.882 139.81 153.129 139.763 153.363 139.67C153.596 139.567 153.787 139.399 153.937 139.166C154.095 138.923 154.184 138.597 154.203 138.186V137.472H152.621C152.173 137.472 151.827 137.584 151.585 137.808C151.351 138.023 151.235 138.303 151.235 138.648C151.235 139.003 151.351 139.287 151.585 139.502C151.827 139.707 152.173 139.81 152.621 139.81ZM158.399 141V133.398H159.939V135.876C160.144 134.159 161.05 133.3 162.655 133.3H162.935V134.994H162.403C161.74 134.994 161.232 135.171 160.877 135.526C160.522 135.881 160.345 136.385 160.345 137.038V141H158.399ZM167.955 141.098C167.255 141.098 166.676 141.009 166.219 140.832C165.762 140.645 165.421 140.337 165.197 139.908C164.982 139.479 164.875 138.891 164.875 138.144V134.826H163.671V133.398H164.875L164.889 131.256H166.709L166.695 133.398H169.047V134.826H166.695V138.27C166.695 138.643 166.793 138.933 166.989 139.138C167.194 139.334 167.484 139.432 167.857 139.432H169.047V141.098H167.955ZM174.291 141.266C173.638 141.266 173.064 141.154 172.569 140.93C172.084 140.706 171.678 140.407 171.351 140.034C171.034 139.651 170.791 139.227 170.623 138.76C170.465 138.293 170.385 137.817 170.385 137.332V137.066C170.385 136.562 170.465 136.077 170.623 135.61C170.791 135.143 171.034 134.723 171.351 134.35C171.678 133.977 172.079 133.683 172.555 133.468C173.031 133.244 173.582 133.132 174.207 133.132C175.029 133.132 175.715 133.314 176.265 133.678C176.816 134.033 177.231 134.504 177.511 135.092C177.801 135.671 177.945 136.296 177.945 136.968V137.668H172.233C172.299 138.265 172.495 138.746 172.821 139.11C173.157 139.474 173.647 139.656 174.291 139.656C174.758 139.656 175.141 139.563 175.439 139.376C175.747 139.18 175.943 138.942 176.027 138.662H177.819C177.651 139.446 177.255 140.076 176.629 140.552C176.004 141.028 175.225 141.266 174.291 141.266ZM174.207 134.742C173.657 134.742 173.218 134.896 172.891 135.204C172.565 135.512 172.355 135.937 172.261 136.478H176.083C176.009 135.937 175.813 135.512 175.495 135.204C175.187 134.896 174.758 134.742 174.207 134.742ZM182.971 141.252C182.262 141.252 181.632 141.084 181.081 140.748C180.53 140.403 180.096 139.936 179.779 139.348C179.471 138.76 179.317 138.097 179.317 137.36V137.066C179.317 136.338 179.466 135.68 179.765 135.092C180.064 134.504 180.479 134.037 181.011 133.692C181.552 133.337 182.187 133.16 182.915 133.16C183.456 133.16 183.942 133.272 184.371 133.496C184.81 133.711 185.169 134.037 185.449 134.476V130.78H187.395V141H185.855V139.404C185.594 140.02 185.206 140.482 184.693 140.79C184.189 141.098 183.615 141.252 182.971 141.252ZM183.405 139.614C183.788 139.614 184.138 139.53 184.455 139.362C184.772 139.185 185.024 138.933 185.211 138.606C185.407 138.279 185.505 137.887 185.505 137.43V136.87C185.505 136.431 185.402 136.058 185.197 135.75C185.001 135.442 184.744 135.209 184.427 135.05C184.11 134.882 183.769 134.798 183.405 134.798C182.77 134.798 182.252 135.022 181.851 135.47C181.459 135.909 181.263 136.492 181.263 137.22C181.263 137.948 181.464 138.531 181.865 138.97C182.266 139.399 182.78 139.614 183.405 139.614Z" fill="#F97316"/>
<path d="M198 136H212" stroke="#F97316" stroke-width="2" stroke-linecap="round" stroke-linejoin="round"/>
<path d="M205 129L212 136L205 143" stroke="#F97316" stroke-width="2" stroke-linecap="round" stroke-linejoin="round"/>
<g filter="url(#filter0_d_34_824)">
<rect x="13" y="25" width="64" height="64" rx="25" fill="white"/>
</g>
<path d="M27.4059 52.3014C26.4924 51.9969 26.4837 51.5052 27.4234 51.1919L60.8257 40.0584C61.7514 39.7504 62.2817 40.2684 62.0227 41.1749L52.4782 74.5754C52.2157 75.5012 51.6819 75.5327 51.2899 74.6542L45.0004 60.5002L55.5004 46.5002L41.5004 57.0002L27.4059 52.3014Z" fill="#F97316"/>
<path d="M95.424 40.304C94.3893 40.304 93.5147 40.1387 92.8 39.808C92.0853 39.4773 91.5413 39.024 91.168 38.448C90.8053 37.872 90.624 37.2107 90.624 36.464H92.848C92.848 36.784 92.9333 37.088 93.104 37.376C93.2747 37.664 93.5467 37.8987 93.92 38.08C94.304 38.2613 94.8053 38.352 95.424 38.352C96.256 38.352 96.88 38.1813 97.296 37.84C97.712 37.4987 97.92 37.0827 97.92 36.592C97.92 36.1867 97.744 35.856 97.392 35.6C97.04 35.344 96.496 35.184 95.76 35.12L94.736 35.04C93.616 34.944 92.72 34.5973 92.048 34C91.3867 33.392 91.056 32.592 91.056 31.6C91.056 30.864 91.2267 30.224 91.568 29.68C91.92 29.136 92.416 28.72 93.056 28.432C93.696 28.1333 94.4427 27.984 95.296 27.984C96.1707 27.984 96.928 28.1387 97.568 28.448C98.2187 28.7573 98.72 29.1947 99.072 29.76C99.424 30.3147 99.6 30.9707 99.6 31.728H97.376C97.376 31.2587 97.2 30.8427 96.848 30.48C96.5067 30.1173 95.9893 29.936 95.296 29.936C94.6133 29.936 94.1067 30.1013 93.776 30.432C93.4453 30.7627 93.28 31.152 93.28 31.6C93.28 31.9627 93.408 32.2827 93.664 32.56C93.9307 32.8267 94.3573 32.9813 94.944 33.024L95.968 33.12C96.8 33.1947 97.5253 33.376 98.144 33.664C98.7733 33.9413 99.264 34.3253 99.616 34.816C99.968 35.3067 100.144 35.8987 100.144 36.592C100.144 37.328 99.9467 37.9787 99.552 38.544C99.168 39.0987 98.624 39.5307 97.92 39.84C97.216 40.1493 96.384 40.304 95.424 40.304ZM106.183 40.304C105.437 40.304 104.781 40.176 104.215 39.92C103.661 39.664 103.197 39.3227 102.823 38.896C102.461 38.4587 102.183 37.9733 101.991 37.44C101.81 36.9067 101.719 36.3627 101.719 35.808V35.504C101.719 34.928 101.81 34.3733 101.991 33.84C102.183 33.3067 102.461 32.8267 102.823 32.4C103.197 31.9733 103.655 31.6373 104.199 31.392C104.743 31.136 105.373 31.008 106.087 31.008C107.026 31.008 107.81 31.216 108.439 31.632C109.069 32.0373 109.543 32.576 109.863 33.248C110.194 33.9093 110.359 34.624 110.359 35.392V36.192H103.831C103.906 36.8747 104.13 37.424 104.503 37.84C104.887 38.256 105.447 38.464 106.183 38.464C106.717 38.464 107.154 38.3573 107.495 38.144C107.847 37.92 108.071 37.648 108.167 37.328H110.215C110.023 38.224 109.57 38.944 108.855 39.488C108.141 40.032 107.25 40.304 106.183 40.304ZM106.087 32.848C105.458 32.848 104.957 33.024 104.583 33.376C104.21 33.728 103.97 34.2133 103.863 34.832H108.231C108.146 34.2133 107.922 33.728 107.559 33.376C107.207 33.024 106.717 32.848 106.087 32.848ZM112.467 40V31.312H114.227V33.456C114.6 31.8453 115.592 31.04 117.203 31.04H117.299C118.334 31.04 119.118 31.376 119.651 32.048C120.184 32.72 120.451 33.712 120.451 35.024V40H118.227V34.832C118.227 34.2987 118.072 33.8667 117.763 33.536C117.454 33.2053 117.038 33.04 116.515 33.04C115.971 33.04 115.528 33.2107 115.187 33.552C114.856 33.8933 114.691 34.3413 114.691 34.896V40H112.467ZM126.692 40.288C125.881 40.288 125.161 40.096 124.532 39.712C123.903 39.3173 123.407 38.784 123.044 38.112C122.692 37.44 122.516 36.6827 122.516 35.84V35.504C122.516 34.672 122.687 33.92 123.028 33.248C123.369 32.576 123.844 32.0427 124.452 31.648C125.071 31.2427 125.796 31.04 126.628 31.04C127.247 31.04 127.801 31.168 128.292 31.424C128.793 31.6693 129.204 32.0427 129.524 32.544V28.32H131.748V40H129.988V38.176C129.689 38.88 129.247 39.408 128.66 39.76C128.084 40.112 127.428 40.288 126.692 40.288ZM127.188 38.416C127.625 38.416 128.025 38.32 128.388 38.128C128.751 37.9253 129.039 37.6373 129.252 37.264C129.476 36.8907 129.588 36.4427 129.588 35.92V35.28C129.588 34.7787 129.471 34.352 129.236 34C129.012 33.648 128.719 33.3813 128.356 33.2C127.993 33.008 127.604 32.912 127.188 32.912C126.463 32.912 125.871 33.168 125.412 33.68C124.964 34.1813 124.74 34.848 124.74 35.68C124.74 36.512 124.969 37.1787 125.428 37.68C125.887 38.1707 126.473 38.416 127.188 38.416ZM138.409 40V28.32H141.513L144.441 35.296H144.729L147.641 28.32H150.793V40H148.537V30.752L145.673 37.616H143.353L140.489 30.8V40H138.409ZM157.924 40.304C156.9 40.304 156.036 40.096 155.332 39.68C154.628 39.2533 154.09 38.6987 153.716 38.016C153.354 37.3333 153.172 36.608 153.172 35.84V35.504C153.172 34.704 153.359 33.9627 153.732 33.28C154.116 32.5973 154.66 32.048 155.364 31.632C156.079 31.216 156.932 31.008 157.924 31.008C158.906 31.008 159.748 31.216 160.452 31.632C161.167 32.048 161.711 32.5973 162.084 33.28C162.468 33.9627 162.66 34.704 162.66 35.504V35.84C162.66 36.608 162.474 37.3333 162.1 38.016C161.738 38.6987 161.204 39.2533 160.5 39.68C159.796 40.096 158.938 40.304 157.924 40.304ZM157.924 38.4C158.735 38.4 159.354 38.144 159.78 37.632C160.218 37.1093 160.436 36.4533 160.436 35.664C160.436 34.8747 160.212 34.2187 159.764 33.696C159.316 33.1733 158.703 32.912 157.924 32.912C157.135 32.912 156.516 33.1733 156.068 33.696C155.62 34.2187 155.396 34.8747 155.396 35.664C155.396 36.4533 155.61 37.1093 156.036 37.632C156.474 38.144 157.103 38.4 157.924 38.4ZM164.858 40V31.312H166.618V33.456C166.991 31.8453 167.983 31.04 169.594 31.04H169.69C170.724 31.04 171.508 31.376 172.042 32.048C172.575 32.72 172.842 33.712 172.842 35.024V40H170.618V34.832C170.618 34.2987 170.463 33.8667 170.154 33.536C169.844 33.2053 169.428 33.04 168.906 33.04C168.362 33.04 167.919 33.2107 167.578 33.552C167.247 33.8933 167.082 34.3413 167.082 34.896V40H164.858ZM179.371 40.304C178.624 40.304 177.968 40.176 177.403 39.92C176.848 39.664 176.384 39.3227 176.011 38.896C175.648 38.4587 175.371 37.9733 175.179 37.44C174.997 36.9067 174.907 36.3627 174.907 35.808V35.504C174.907 34.928 174.997 34.3733 175.179 33.84C175.371 33.3067 175.648 32.8267 176.011 32.4C176.384 31.9733 176.843 31.6373 177.387 31.392C177.931 31.136 178.56 31.008 179.275 31.008C180.213 31.008 180.997 31.216 181.627 31.632C182.256 32.0373 182.731 32.576 183.051 33.248C183.381 33.9093 183.547 34.624 183.547 35.392V36.192H177.019C177.093 36.8747 177.317 37.424 177.691 37.84C178.075 38.256 178.635 38.464 179.371 38.464C179.904 38.464 180.341 38.3573 180.683 38.144C181.035 37.92 181.259 37.648 181.355 37.328H183.403C183.211 38.224 182.757 38.944 182.043 39.488C181.328 40.032 180.437 40.304 179.371 40.304ZM179.275 32.848C178.645 32.848 178.144 33.024 177.771 33.376C177.397 33.728 177.157 34.2133 177.051 34.832H181.419C181.333 34.2133 181.109 33.728 180.747 33.376C180.395 33.024 179.904 32.848 179.275 32.848ZM187.273 39.808L184.457 31.312H186.697L188.809 38.048H189.161L190.905 31.312H193.033L190.457 40.768C190.19 41.7387 189.769 42.4213 189.193 42.816C188.627 43.2213 187.811 43.424 186.745 43.424H185.321V41.52H186.953C187.401 41.52 187.747 41.4293 187.993 41.248C188.249 41.0773 188.441 40.7573 188.569 40.288L188.697 39.808H187.273ZM204.13 40.304C203.127 40.304 202.242 40.1387 201.474 39.808C200.717 39.4667 200.077 39.0133 199.554 38.448C199.042 37.8827 198.653 37.2373 198.386 36.512C198.13 35.7867 198.002 35.0347 198.002 34.256V33.904C198.002 33.168 198.13 32.448 198.386 31.744C198.642 31.04 199.015 30.4053 199.506 29.84C200.007 29.2747 200.621 28.8267 201.346 28.496C202.071 28.1547 202.914 27.984 203.874 27.984C204.887 27.984 205.789 28.176 206.578 28.56C207.378 28.944 208.018 29.4773 208.498 30.16C208.978 30.832 209.261 31.6107 209.346 32.496H207.058C206.983 31.9947 206.797 31.568 206.498 31.216C206.199 30.8533 205.821 30.576 205.362 30.384C204.914 30.192 204.418 30.096 203.874 30.096C203.138 30.096 202.503 30.2667 201.97 30.608C201.437 30.9387 201.026 31.408 200.738 32.016C200.45 32.6133 200.306 33.3067 200.306 34.096C200.306 35.3973 200.647 36.416 201.33 37.152C202.023 37.8773 202.957 38.24 204.13 38.24C204.749 38.24 205.309 38.1333 205.81 37.92C206.322 37.7067 206.738 37.424 207.058 37.072V35.76H203.762V34.064H210.13V35.76H209.154V37.904C208.653 38.672 207.97 39.264 207.106 39.68C206.242 40.096 205.25 40.304 204.13 40.304ZM212.189 40V29.984H211.101V28.32H214.413V40H212.189ZM221.378 40.304C220.354 40.304 219.49 40.096 218.786 39.68C218.082 39.2533 217.543 38.6987 217.17 38.016C216.807 37.3333 216.626 36.608 216.626 35.84V35.504C216.626 34.704 216.812 33.9627 217.186 33.28C217.57 32.5973 218.114 32.048 218.818 31.632C219.532 31.216 220.386 31.008 221.378 31.008C222.359 31.008 223.202 31.216 223.906 31.632C224.62 32.048 225.164 32.5973 225.538 33.28C225.922 33.9627 226.114 34.704 226.114 35.504V35.84C226.114 36.608 225.927 37.3333 225.554 38.016C225.191 38.6987 224.658 39.2533 223.954 39.68C223.25 40.096 222.391 40.304 221.378 40.304ZM221.378 38.4C222.188 38.4 222.807 38.144 223.234 37.632C223.671 37.1093 223.89 36.4533 223.89 35.664C223.89 34.8747 223.666 34.2187 223.218 33.696C222.77 33.1733 222.156 32.912 221.378 32.912C220.588 32.912 219.97 33.1733 219.522 33.696C219.074 34.2187 218.85 34.8747 218.85 35.664C218.85 36.4533 219.063 37.1093 219.49 37.632C219.927 38.144 220.556 38.4 221.378 38.4ZM233.415 40.288C232.626 40.288 231.938 40.1013 231.351 39.728C230.775 39.3547 230.348 38.8213 230.071 38.128V40H228.311V28.32H230.535V32.72C230.855 32.1653 231.271 31.7493 231.783 31.472C232.306 31.184 232.898 31.04 233.559 31.04C234.359 31.04 235.058 31.2373 235.655 31.632C236.252 32.016 236.716 32.544 237.047 33.216C237.378 33.8773 237.543 34.624 237.543 35.456V35.792C237.543 36.6347 237.372 37.3973 237.031 38.08C236.69 38.752 236.21 39.2907 235.591 39.696C234.983 40.0907 234.258 40.288 233.415 40.288ZM232.919 38.416C233.634 38.416 234.21 38.16 234.647 37.648C235.095 37.1253 235.319 36.4533 235.319 35.632C235.319 34.8107 235.095 34.1547 234.647 33.664C234.21 33.1627 233.634 32.912 232.919 32.912C232.482 32.912 232.076 33.0133 231.703 33.216C231.33 33.408 231.031 33.6907 230.807 34.064C230.583 34.4267 230.471 34.8693 230.471 35.392V36.032C230.471 36.5333 230.588 36.9653 230.823 37.328C231.058 37.68 231.362 37.952 231.735 38.144C232.108 38.3253 232.503 38.416 232.919 38.416ZM242.212 40.224C241.252 40.224 240.484 39.9787 239.908 39.488C239.343 38.9973 239.06 38.3093 239.06 37.424C239.06 36.4747 239.402 35.776 240.084 35.328C240.778 34.8693 241.706 34.64 242.868 34.64H244.644V34.56C244.644 33.568 244.143 33.072 243.14 33.072C242.874 33.072 242.554 33.0773 242.18 33.088C241.807 33.0987 241.428 33.1147 241.044 33.136C240.671 33.1467 240.335 33.1627 240.036 33.184V31.296C240.399 31.264 240.831 31.2373 241.332 31.216C241.844 31.1947 242.314 31.184 242.74 31.184C244.074 31.184 245.076 31.456 245.748 32C246.431 32.5333 246.772 33.4027 246.772 34.608V40H245.012V38.336C244.618 39.5947 243.684 40.224 242.212 40.224ZM242.836 38.64C243.135 38.64 243.418 38.5867 243.684 38.48C243.951 38.3627 244.17 38.1707 244.34 37.904C244.522 37.6267 244.623 37.2533 244.644 36.784V35.968H242.836C242.324 35.968 241.93 36.096 241.652 36.352C241.386 36.5973 241.252 36.9173 241.252 37.312C241.252 37.7173 241.386 38.0427 241.652 38.288C241.93 38.5227 242.324 38.64 242.836 38.64ZM249.517 40V29.984H248.429V28.32H251.741V40H249.517ZM254.642 40V29.984H253.554V28.32H256.866V40H254.642ZM261.351 39.808L258.535 31.312H260.775L262.887 38.048H263.239L264.983 31.312H267.111L264.535 40.768C264.268 41.7387 263.847 42.4213 263.271 42.816C262.705 43.2213 261.889 43.424 260.823 43.424H259.399V41.52H261.031C261.479 41.52 261.825 41.4293 262.071 41.248C262.327 41.0773 262.519 40.7573 262.647 40.288L262.775 39.808H261.351Z" fill="#202020"/>
<path d="M93.773 66.198C93.1057 66.198 92.5373 66.088 92.068 65.868C91.5987 65.648 91.2393 65.3437 90.99 64.955C90.7407 64.5663 90.616 64.1263 90.616 63.635H91.694C91.694 63.877 91.7563 64.119 91.881 64.361C92.013 64.603 92.2293 64.8047 92.53 64.966C92.838 65.1273 93.2523 65.208 93.773 65.208C94.257 65.208 94.653 65.1383 94.961 64.999C95.269 64.8523 95.4963 64.6653 95.643 64.438C95.7897 64.2033 95.863 63.9503 95.863 63.679C95.863 63.349 95.72 63.0777 95.434 62.865C95.148 62.645 94.73 62.5093 94.18 62.458L93.289 62.381C92.5777 62.3223 92.0093 62.1023 91.584 61.721C91.1587 61.3397 90.946 60.8373 90.946 60.214C90.946 59.7227 91.0633 59.2937 91.298 58.927C91.54 58.5603 91.8737 58.2743 92.299 58.069C92.7243 57.8563 93.2193 57.75 93.784 57.75C94.3413 57.75 94.8327 57.8527 95.258 58.058C95.6833 58.2633 96.0133 58.553 96.248 58.927C96.49 59.2937 96.611 59.7337 96.611 60.247H95.533C95.533 59.9903 95.4707 59.7483 95.346 59.521C95.2287 59.2937 95.0417 59.1067 94.785 58.96C94.5283 58.8133 94.1947 58.74 93.784 58.74C93.388 58.74 93.058 58.8097 92.794 58.949C92.5373 59.0883 92.343 59.2717 92.211 59.499C92.0863 59.719 92.024 59.9573 92.024 60.214C92.024 60.5073 92.1377 60.7677 92.365 60.995C92.5923 61.2223 92.9297 61.3543 93.377 61.391L94.268 61.468C94.818 61.512 95.291 61.6293 95.687 61.82C96.0903 62.0033 96.3983 62.2527 96.611 62.568C96.831 62.876 96.941 63.2463 96.941 63.679C96.941 64.1703 96.809 64.6067 96.545 64.988C96.281 65.3693 95.9107 65.6663 95.434 65.879C94.9573 66.0917 94.4037 66.198 93.773 66.198ZM101.343 66.198C100.83 66.198 100.386 66.11 100.012 65.934C99.638 65.758 99.3337 65.527 99.099 65.241C98.8643 64.9477 98.6883 64.6213 98.571 64.262C98.461 63.9027 98.406 63.536 98.406 63.162V62.964C98.406 62.5827 98.461 62.2123 98.571 61.853C98.6883 61.4937 98.8643 61.171 99.099 60.885C99.3337 60.5917 99.6307 60.3607 99.99 60.192C100.357 60.016 100.786 59.928 101.277 59.928C101.915 59.928 102.439 60.0673 102.85 60.346C103.268 60.6173 103.576 60.9693 103.774 61.402C103.979 61.8347 104.082 62.2967 104.082 62.788V63.261H98.868V62.469H103.312L103.07 62.898C103.07 62.48 103.004 62.1207 102.872 61.82C102.74 61.512 102.542 61.2737 102.278 61.105C102.014 60.9363 101.68 60.852 101.277 60.852C100.859 60.852 100.511 60.9473 100.232 61.138C99.9607 61.3287 99.7553 61.589 99.616 61.919C99.484 62.249 99.418 62.6303 99.418 63.063C99.418 63.481 99.484 63.8587 99.616 64.196C99.7553 64.526 99.968 64.79 100.254 64.988C100.54 65.1787 100.903 65.274 101.343 65.274C101.805 65.274 102.179 65.1713 102.465 64.966C102.758 64.7607 102.934 64.5223 102.993 64.251H103.983C103.902 64.6543 103.741 65.0027 103.499 65.296C103.257 65.5893 102.953 65.813 102.586 65.967C102.219 66.121 101.805 66.198 101.343 66.198ZM105.831 66V60.126H106.667V62.645H106.535C106.535 62.0657 106.612 61.578 106.766 61.182C106.928 60.7787 107.17 60.4743 107.492 60.269C107.815 60.0563 108.222 59.95 108.713 59.95H108.757C109.498 59.95 110.044 60.181 110.396 60.643C110.756 61.105 110.935 61.7723 110.935 62.645V66H109.879V62.425C109.879 61.9703 109.751 61.6073 109.494 61.336C109.238 61.0573 108.886 60.918 108.438 60.918C107.976 60.918 107.602 61.061 107.316 61.347C107.03 61.633 106.887 62.0143 106.887 62.491V66H105.831ZM115.57 66.198C115.152 66.198 114.767 66.121 114.415 65.967C114.063 65.813 113.755 65.5967 113.491 65.318C113.235 65.0393 113.033 64.7167 112.886 64.35C112.747 63.9833 112.677 63.5873 112.677 63.162V62.964C112.677 62.546 112.747 62.1537 112.886 61.787C113.026 61.4203 113.22 61.0977 113.469 60.819C113.726 60.5403 114.027 60.324 114.371 60.17C114.723 60.0087 115.112 59.928 115.537 59.928C115.985 59.928 116.392 60.0233 116.758 60.214C117.125 60.3973 117.426 60.687 117.66 61.083C117.895 61.479 118.027 61.9923 118.056 62.623L117.616 61.919V57.97H118.672V66H117.836V63.393H118.144C118.115 64.0603 117.976 64.603 117.726 65.021C117.477 65.4317 117.162 65.7323 116.78 65.923C116.406 66.1063 116.003 66.198 115.57 66.198ZM115.713 65.274C116.073 65.274 116.399 65.1933 116.692 65.032C116.986 64.8707 117.22 64.6397 117.396 64.339C117.572 64.031 117.66 63.6717 117.66 63.261V62.755C117.66 62.3517 117.569 62.0107 117.385 61.732C117.209 61.446 116.971 61.2297 116.67 61.083C116.377 60.929 116.054 60.852 115.702 60.852C115.314 60.852 114.969 60.9437 114.668 61.127C114.375 61.3103 114.144 61.567 113.975 61.897C113.814 62.227 113.733 62.6157 113.733 63.063C113.733 63.5103 113.818 63.9027 113.986 64.24C114.155 64.57 114.39 64.8267 114.69 65.01C114.991 65.186 115.332 65.274 115.713 65.274ZM123.704 66V60.126H124.54V62.645H124.408C124.408 62.073 124.482 61.589 124.628 61.193C124.782 60.7897 125.01 60.4817 125.31 60.269C125.611 60.0563 125.992 59.95 126.454 59.95H126.498C126.96 59.95 127.342 60.0563 127.642 60.269C127.95 60.4817 128.178 60.7897 128.324 61.193C128.471 61.589 128.544 62.073 128.544 62.645H128.236C128.236 62.073 128.313 61.589 128.467 61.193C128.621 60.7897 128.849 60.4817 129.149 60.269C129.457 60.0563 129.842 59.95 130.304 59.95H130.348C130.81 59.95 131.195 60.0563 131.503 60.269C131.811 60.4817 132.039 60.7897 132.185 61.193C132.339 61.589 132.416 62.073 132.416 62.645V66H131.36V62.414C131.36 61.9373 131.243 61.5707 131.008 61.314C130.774 61.05 130.447 60.918 130.029 60.918C129.597 60.918 129.248 61.0573 128.984 61.336C128.72 61.6073 128.588 61.9887 128.588 62.48V66H127.532V62.414C127.532 61.9373 127.415 61.5707 127.18 61.314C126.946 61.05 126.619 60.918 126.201 60.918C125.769 60.918 125.42 61.0573 125.156 61.336C124.892 61.6073 124.76 61.9887 124.76 62.48V66H123.704ZM137.306 66.198C136.793 66.198 136.342 66.11 135.953 65.934C135.564 65.758 135.234 65.527 134.963 65.241C134.699 64.9477 134.497 64.6213 134.358 64.262C134.226 63.9027 134.16 63.536 134.16 63.162V62.964C134.16 62.59 134.23 62.2233 134.369 61.864C134.508 61.4973 134.714 61.171 134.985 60.885C135.256 60.5917 135.586 60.3607 135.975 60.192C136.364 60.016 136.807 59.928 137.306 59.928C137.805 59.928 138.248 60.016 138.637 60.192C139.026 60.3607 139.356 60.5917 139.627 60.885C139.898 61.171 140.104 61.4973 140.243 61.864C140.382 62.2233 140.452 62.59 140.452 62.964V63.162C140.452 63.536 140.382 63.9027 140.243 64.262C140.111 64.6213 139.909 64.9477 139.638 65.241C139.374 65.527 139.048 65.758 138.659 65.934C138.27 66.11 137.819 66.198 137.306 66.198ZM137.306 65.252C137.746 65.252 138.12 65.1567 138.428 64.966C138.743 64.768 138.982 64.504 139.143 64.174C139.312 63.844 139.396 63.4737 139.396 63.063C139.396 62.645 139.312 62.271 139.143 61.941C138.974 61.611 138.732 61.3507 138.417 61.16C138.109 60.9693 137.739 60.874 137.306 60.874C136.881 60.874 136.51 60.9693 136.195 61.16C135.88 61.3507 135.638 61.611 135.469 61.941C135.3 62.271 135.216 62.645 135.216 63.063C135.216 63.4737 135.297 63.844 135.458 64.174C135.627 64.504 135.865 64.768 136.173 64.966C136.488 65.1567 136.866 65.252 137.306 65.252ZM142.283 66V60.126H143.119V62.645H142.987C142.987 62.0657 143.064 61.578 143.218 61.182C143.38 60.7787 143.622 60.4743 143.944 60.269C144.267 60.0563 144.674 59.95 145.165 59.95H145.209C145.95 59.95 146.496 60.181 146.848 60.643C147.208 61.105 147.387 61.7723 147.387 62.645V66H146.331V62.425C146.331 61.9703 146.203 61.6073 145.946 61.336C145.69 61.0573 145.338 60.918 144.89 60.918C144.428 60.918 144.054 61.061 143.768 61.347C143.482 61.633 143.339 62.0143 143.339 62.491V66H142.283ZM152.067 66.198C151.553 66.198 151.11 66.11 150.736 65.934C150.362 65.758 150.057 65.527 149.823 65.241C149.588 64.9477 149.412 64.6213 149.295 64.262C149.185 63.9027 149.13 63.536 149.13 63.162V62.964C149.13 62.5827 149.185 62.2123 149.295 61.853C149.412 61.4937 149.588 61.171 149.823 60.885C150.057 60.5917 150.354 60.3607 150.714 60.192C151.08 60.016 151.509 59.928 152.001 59.928C152.639 59.928 153.163 60.0673 153.574 60.346C153.992 60.6173 154.3 60.9693 154.498 61.402C154.703 61.8347 154.806 62.2967 154.806 62.788V63.261H149.592V62.469H154.036L153.794 62.898C153.794 62.48 153.728 62.1207 153.596 61.82C153.464 61.512 153.266 61.2737 153.002 61.105C152.738 60.9363 152.404 60.852 152.001 60.852C151.583 60.852 151.234 60.9473 150.956 61.138C150.684 61.3287 150.479 61.589 150.34 61.919C150.208 62.249 150.142 62.6303 150.142 63.063C150.142 63.481 150.208 63.8587 150.34 64.196C150.479 64.526 150.692 64.79 150.978 64.988C151.264 65.1787 151.627 65.274 152.067 65.274C152.529 65.274 152.903 65.1713 153.189 64.966C153.482 64.7607 153.658 64.5223 153.717 64.251H154.707C154.626 64.6543 154.465 65.0027 154.223 65.296C153.981 65.5893 153.676 65.813 153.31 65.967C152.943 66.121 152.529 66.198 152.067 66.198ZM156.116 68.288V67.342H156.963C157.212 67.342 157.421 67.309 157.59 67.243C157.766 67.1843 157.909 67.0817 158.019 66.935C158.136 66.7883 158.232 66.594 158.305 66.352L160.153 60.126H161.187L159.229 66.627C159.112 67.0157 158.947 67.331 158.734 67.573C158.521 67.8223 158.261 68.002 157.953 68.112C157.652 68.2293 157.3 68.288 156.897 68.288H156.116ZM157.909 65.868V64.988H159.185V65.868H157.909ZM157.799 65.868L155.698 60.126H156.776L158.789 65.868H157.799ZM167.984 66.198C167.566 66.198 167.181 66.121 166.829 65.967C166.477 65.813 166.169 65.5967 165.905 65.318C165.648 65.0393 165.446 64.7167 165.3 64.35C165.16 63.9833 165.091 63.5873 165.091 63.162V62.964C165.091 62.546 165.16 62.1537 165.3 61.787C165.439 61.4203 165.633 61.0977 165.883 60.819C166.139 60.5403 166.44 60.324 166.785 60.17C167.137 60.0087 167.525 59.928 167.951 59.928C168.398 59.928 168.805 60.0233 169.172 60.214C169.538 60.3973 169.839 60.687 170.074 61.083C170.308 61.479 170.44 61.9923 170.47 62.623L170.03 61.919V57.97H171.086V66H170.25V63.393H170.558C170.528 64.0603 170.389 64.603 170.14 65.021C169.89 65.4317 169.575 65.7323 169.194 65.923C168.82 66.1063 168.416 66.198 167.984 66.198ZM168.127 65.274C168.486 65.274 168.812 65.1933 169.106 65.032C169.399 64.8707 169.634 64.6397 169.81 64.339C169.986 64.031 170.074 63.6717 170.074 63.261V62.755C170.074 62.3517 169.982 62.0107 169.799 61.732C169.623 61.446 169.384 61.2297 169.084 61.083C168.79 60.929 168.468 60.852 168.116 60.852C167.727 60.852 167.382 60.9437 167.082 61.127C166.788 61.3103 166.557 61.567 166.389 61.897C166.227 62.227 166.147 62.6157 166.147 63.063C166.147 63.5103 166.231 63.9027 166.4 64.24C166.568 64.57 166.803 64.8267 167.104 65.01C167.404 65.186 167.745 65.274 168.127 65.274ZM173.651 66V60.126H174.707V66H173.651ZM172.749 60.962V60.126H174.707V60.962H172.749ZM173.948 59.18C173.713 59.18 173.537 59.1177 173.42 58.993C173.31 58.8683 173.255 58.7107 173.255 58.52C173.255 58.3293 173.31 58.1717 173.42 58.047C173.537 57.9223 173.713 57.86 173.948 57.86C174.182 57.86 174.355 57.9223 174.465 58.047C174.582 58.1717 174.641 58.3293 174.641 58.52C174.641 58.7107 174.582 58.8683 174.465 58.993C174.355 59.1177 174.182 59.18 173.948 59.18ZM176.998 66V60.126H177.834V62.546H177.79C177.79 61.688 177.977 61.061 178.351 60.665C178.733 60.2617 179.301 60.06 180.056 60.06H180.254V61.006H179.88C179.294 61.006 178.843 61.1637 178.527 61.479C178.212 61.787 178.054 62.2343 178.054 62.821V66H176.998ZM184.193 66.198C183.679 66.198 183.236 66.11 182.862 65.934C182.488 65.758 182.183 65.527 181.949 65.241C181.714 64.9477 181.538 64.6213 181.421 64.262C181.311 63.9027 181.256 63.536 181.256 63.162V62.964C181.256 62.5827 181.311 62.2123 181.421 61.853C181.538 61.4937 181.714 61.171 181.949 60.885C182.183 60.5917 182.48 60.3607 182.84 60.192C183.206 60.016 183.635 59.928 184.127 59.928C184.765 59.928 185.289 60.0673 185.7 60.346C186.118 60.6173 186.426 60.9693 186.624 61.402C186.829 61.8347 186.932 62.2967 186.932 62.788V63.261H181.718V62.469H186.162L185.92 62.898C185.92 62.48 185.854 62.1207 185.722 61.82C185.59 61.512 185.392 61.2737 185.128 61.105C184.864 60.9363 184.53 60.852 184.127 60.852C183.709 60.852 183.36 60.9473 183.082 61.138C182.81 61.3287 182.605 61.589 182.466 61.919C182.334 62.249 182.268 62.6303 182.268 63.063C182.268 63.481 182.334 63.8587 182.466 64.196C182.605 64.526 182.818 64.79 183.104 64.988C183.39 65.1787 183.753 65.274 184.193 65.274C184.655 65.274 185.029 65.1713 185.315 64.966C185.608 64.7607 185.784 64.5223 185.843 64.251H186.833C186.752 64.6543 186.591 65.0027 186.349 65.296C186.107 65.5893 185.802 65.813 185.436 65.967C185.069 66.121 184.655 66.198 184.193 66.198ZM191.2 66.198C190.694 66.198 190.254 66.11 189.88 65.934C189.513 65.758 189.209 65.5233 188.967 65.23C188.725 64.9293 188.542 64.5993 188.417 64.24C188.3 63.8807 188.241 63.5213 188.241 63.162V62.964C188.241 62.59 188.3 62.2233 188.417 61.864C188.542 61.5047 188.725 61.182 188.967 60.896C189.216 60.6027 189.524 60.368 189.891 60.192C190.258 60.016 190.687 59.928 191.178 59.928C191.669 59.928 192.109 60.0197 192.498 60.203C192.894 60.3863 193.209 60.6467 193.444 60.984C193.686 61.314 193.822 61.7063 193.851 62.161H192.839C192.788 61.7943 192.619 61.49 192.333 61.248C192.047 60.9987 191.662 60.874 191.178 60.874C190.76 60.874 190.412 60.9693 190.133 61.16C189.854 61.3507 189.645 61.611 189.506 61.941C189.367 62.271 189.297 62.645 189.297 63.063C189.297 63.4663 189.367 63.8367 189.506 64.174C189.645 64.504 189.854 64.768 190.133 64.966C190.419 65.1567 190.775 65.252 191.2 65.252C191.53 65.252 191.816 65.1933 192.058 65.076C192.3 64.9587 192.494 64.801 192.641 64.603C192.788 64.405 192.876 64.1813 192.905 63.932H193.917C193.895 64.394 193.759 64.7937 193.51 65.131C193.268 65.4683 192.945 65.7323 192.542 65.923C192.146 66.1063 191.699 66.198 191.2 66.198ZM197.89 66.066C197.45 66.066 197.069 66.0037 196.746 65.879C196.431 65.7543 196.185 65.5417 196.009 65.241C195.84 64.933 195.756 64.5187 195.756 63.998V58.344H196.768V64.13C196.768 64.4453 196.852 64.691 197.021 64.867C197.197 65.0357 197.443 65.12 197.758 65.12H198.792V66.066H197.89ZM194.744 60.918V60.126H198.792V60.918H194.744ZM200.601 66V57.97H201.657V66H200.601ZM199.787 58.806V57.97H201.657V58.806H199.787ZM203.537 68.288V67.342H204.384C204.633 67.342 204.842 67.309 205.011 67.243C205.187 67.1843 205.33 67.0817 205.44 66.935C205.557 66.7883 205.653 66.594 205.726 66.352L207.574 60.126H208.608L206.65 66.627C206.533 67.0157 206.368 67.331 206.155 67.573C205.942 67.8223 205.682 68.002 205.374 68.112C205.073 68.2293 204.721 68.288 204.318 68.288H203.537ZM205.33 65.868V64.988H206.606V65.868H205.33ZM205.22 65.868L203.119 60.126H204.197L206.21 65.868H205.22ZM215.239 66.066C214.799 66.066 214.418 66.0037 214.095 65.879C213.78 65.7543 213.534 65.5417 213.358 65.241C213.19 64.933 213.105 64.5187 213.105 63.998V58.344H214.117V64.13C214.117 64.4453 214.202 64.691 214.37 64.867C214.546 65.0357 214.792 65.12 215.107 65.12H216.141V66.066H215.239ZM212.093 60.918V60.126H216.141V60.918H212.093ZM220.548 66.198C220.035 66.198 219.584 66.11 219.195 65.934C218.806 65.758 218.476 65.527 218.205 65.241C217.941 64.9477 217.739 64.6213 217.6 64.262C217.468 63.9027 217.402 63.536 217.402 63.162V62.964C217.402 62.59 217.472 62.2233 217.611 61.864C217.75 61.4973 217.956 61.171 218.227 60.885C218.498 60.5917 218.828 60.3607 219.217 60.192C219.606 60.016 220.049 59.928 220.548 59.928C221.047 59.928 221.49 60.016 221.879 60.192C222.268 60.3607 222.598 60.5917 222.869 60.885C223.14 61.171 223.346 61.4973 223.485 61.864C223.624 62.2233 223.694 62.59 223.694 62.964V63.162C223.694 63.536 223.624 63.9027 223.485 64.262C223.353 64.6213 223.151 64.9477 222.88 65.241C222.616 65.527 222.29 65.758 221.901 65.934C221.512 66.11 221.061 66.198 220.548 66.198ZM220.548 65.252C220.988 65.252 221.362 65.1567 221.67 64.966C221.985 64.768 222.224 64.504 222.385 64.174C222.554 63.844 222.638 63.4737 222.638 63.063C222.638 62.645 222.554 62.271 222.385 61.941C222.216 61.611 221.974 61.3507 221.659 61.16C221.351 60.9693 220.981 60.874 220.548 60.874C220.123 60.874 219.752 60.9693 219.437 61.16C219.122 61.3507 218.88 61.611 218.711 61.941C218.542 62.271 218.458 62.645 218.458 63.063C218.458 63.4737 218.539 63.844 218.7 64.174C218.869 64.504 219.107 64.768 219.415 64.966C219.73 65.1567 220.108 65.252 220.548 65.252ZM92.937 81.176C92.167 81.176 91.5693 81.011 91.144 80.681C90.726 80.351 90.5097 79.9 90.495 79.328H91.485C91.4997 79.5553 91.6133 79.7717 91.826 79.977C92.046 80.175 92.4163 80.274 92.937 80.274C93.4063 80.274 93.7657 80.1823 94.015 79.999C94.2643 79.8083 94.389 79.5773 94.389 79.306C94.389 79.064 94.2973 78.877 94.114 78.745C93.9307 78.6057 93.6337 78.514 93.223 78.47L92.585 78.404C92.0277 78.3453 91.573 78.1803 91.221 77.909C90.869 77.6303 90.693 77.2417 90.693 76.743C90.693 76.369 90.7883 76.05 90.979 75.786C91.1697 75.5147 91.4337 75.3093 91.771 75.17C92.1083 75.0233 92.497 74.95 92.937 74.95C93.597 74.95 94.1323 75.0967 94.543 75.39C94.9537 75.6833 95.1663 76.1197 95.181 76.699H94.191C94.1837 76.4643 94.0737 76.2663 93.861 76.105C93.6557 75.9363 93.3477 75.852 92.937 75.852C92.5263 75.852 92.2147 75.9363 92.002 76.105C91.7893 76.2737 91.683 76.4863 91.683 76.743C91.683 76.963 91.7563 77.139 91.903 77.271C92.057 77.403 92.3063 77.4873 92.651 77.524L93.289 77.59C93.9197 77.656 94.4257 77.832 94.807 78.118C95.1883 78.3967 95.379 78.7927 95.379 79.306C95.379 79.6727 95.2727 79.999 95.06 80.285C94.8547 80.5637 94.5687 80.7837 94.202 80.945C93.8353 81.099 93.4137 81.176 92.937 81.176ZM99.1945 81.176C98.4978 81.176 97.9625 80.9487 97.5885 80.494C97.2145 80.0393 97.0275 79.383 97.0275 78.525V75.115H98.0835V78.734C98.0835 79.196 98.2081 79.559 98.4575 79.823C98.7068 80.0797 99.0441 80.208 99.4695 80.208C99.9095 80.208 100.269 80.0687 100.547 79.79C100.826 79.504 100.965 79.1153 100.965 78.624V75.115H102.021V81H101.185V78.481H101.317C101.317 79.0603 101.24 79.5517 101.086 79.955C100.932 80.351 100.701 80.6553 100.393 80.868C100.093 81.0733 99.7078 81.176 99.2385 81.176H99.1945ZM104.317 83.2V75.126H105.153V77.667L104.955 77.645C104.991 77.0143 105.123 76.501 105.351 76.105C105.585 75.7017 105.89 75.4047 106.264 75.214C106.638 75.0233 107.045 74.928 107.485 74.928C107.91 74.928 108.295 75.0087 108.64 75.17C108.992 75.3313 109.292 75.5513 109.542 75.83C109.791 76.1087 109.982 76.4313 110.114 76.798C110.246 77.1647 110.312 77.5533 110.312 77.964V78.162C110.312 78.5727 110.242 78.9613 110.103 79.328C109.963 79.6947 109.765 80.0173 109.509 80.296C109.259 80.5747 108.959 80.7947 108.607 80.956C108.262 81.1173 107.881 81.198 107.463 81.198C107.045 81.198 106.645 81.1063 106.264 80.923C105.882 80.7397 105.567 80.4427 105.318 80.032C105.068 79.6213 104.925 79.0823 104.889 78.415L105.373 79.295V83.2H104.317ZM107.298 80.274C107.694 80.274 108.038 80.1823 108.332 79.999C108.625 79.8083 108.852 79.548 109.014 79.218C109.175 78.8807 109.256 78.4957 109.256 78.063C109.256 77.623 109.175 77.238 109.014 76.908C108.852 76.578 108.625 76.3213 108.332 76.138C108.038 75.9473 107.694 75.852 107.298 75.852C106.946 75.852 106.619 75.9327 106.319 76.094C106.018 76.248 105.776 76.4753 105.593 76.776C105.417 77.0693 105.329 77.425 105.329 77.843V78.349C105.329 78.7523 105.42 79.097 105.604 79.383C105.787 79.669 106.029 79.889 106.33 80.043C106.63 80.197 106.953 80.274 107.298 80.274ZM112.151 83.2V75.126H112.987V77.667L112.789 77.645C112.825 77.0143 112.957 76.501 113.185 76.105C113.419 75.7017 113.724 75.4047 114.098 75.214C114.472 75.0233 114.879 74.928 115.319 74.928C115.744 74.928 116.129 75.0087 116.474 75.17C116.826 75.3313 117.126 75.5513 117.376 75.83C117.625 76.1087 117.816 76.4313 117.948 76.798C118.08 77.1647 118.146 77.5533 118.146 77.964V78.162C118.146 78.5727 118.076 78.9613 117.937 79.328C117.797 79.6947 117.599 80.0173 117.343 80.296C117.093 80.5747 116.793 80.7947 116.441 80.956C116.096 81.1173 115.715 81.198 115.297 81.198C114.879 81.198 114.479 81.1063 114.098 80.923C113.716 80.7397 113.401 80.4427 113.152 80.032C112.902 79.6213 112.759 79.0823 112.723 78.415L113.207 79.295V83.2H112.151ZM115.132 80.274C115.528 80.274 115.872 80.1823 116.166 79.999C116.459 79.8083 116.686 79.548 116.848 79.218C117.009 78.8807 117.09 78.4957 117.09 78.063C117.09 77.623 117.009 77.238 116.848 76.908C116.686 76.578 116.459 76.3213 116.166 76.138C115.872 75.9473 115.528 75.852 115.132 75.852C114.78 75.852 114.453 75.9327 114.153 76.094C113.852 76.248 113.61 76.4753 113.427 76.776C113.251 77.0693 113.163 77.425 113.163 77.843V78.349C113.163 78.7523 113.254 79.097 113.438 79.383C113.621 79.669 113.863 79.889 114.164 80.043C114.464 80.197 114.787 80.274 115.132 80.274ZM120.051 81V72.97H121.107V81H120.051ZM119.237 73.806V72.97H121.107V73.806H119.237ZM123.668 81V75.126H124.724V81H123.668ZM122.766 75.962V75.126H124.724V75.962H122.766ZM123.965 74.18C123.73 74.18 123.554 74.1177 123.437 73.993C123.327 73.8683 123.272 73.7107 123.272 73.52C123.272 73.3293 123.327 73.1717 123.437 73.047C123.554 72.9223 123.73 72.86 123.965 72.86C124.2 72.86 124.372 72.9223 124.482 73.047C124.599 73.1717 124.658 73.3293 124.658 73.52C124.658 73.7107 124.599 73.8683 124.482 73.993C124.372 74.1177 124.2 74.18 123.965 74.18ZM129.513 81.198C129 81.198 128.556 81.11 128.182 80.934C127.808 80.758 127.504 80.527 127.269 80.241C127.034 79.9477 126.858 79.6213 126.741 79.262C126.631 78.9027 126.576 78.536 126.576 78.162V77.964C126.576 77.5827 126.631 77.2123 126.741 76.853C126.858 76.4937 127.034 76.171 127.269 75.885C127.504 75.5917 127.801 75.3607 128.16 75.192C128.527 75.016 128.956 74.928 129.447 74.928C130.085 74.928 130.609 75.0673 131.02 75.346C131.438 75.6173 131.746 75.9693 131.944 76.402C132.149 76.8347 132.252 77.2967 132.252 77.788V78.261H127.038V77.469H131.482L131.24 77.898C131.24 77.48 131.174 77.1207 131.042 76.82C130.91 76.512 130.712 76.2737 130.448 76.105C130.184 75.9363 129.85 75.852 129.447 75.852C129.029 75.852 128.681 75.9473 128.402 76.138C128.131 76.3287 127.925 76.589 127.786 76.919C127.654 77.249 127.588 77.6303 127.588 78.063C127.588 78.481 127.654 78.8587 127.786 79.196C127.925 79.526 128.138 79.79 128.424 79.988C128.71 80.1787 129.073 80.274 129.513 80.274C129.975 80.274 130.349 80.1713 130.635 79.966C130.928 79.7607 131.104 79.5223 131.163 79.251H132.153C132.072 79.6543 131.911 80.0027 131.669 80.296C131.427 80.5893 131.123 80.813 130.756 80.967C130.389 81.121 129.975 81.198 129.513 81.198ZM134.001 81V75.126H134.837V77.546H134.793C134.793 76.688 134.98 76.061 135.354 75.665C135.736 75.2617 136.304 75.06 137.059 75.06H137.257V76.006H136.883C136.297 76.006 135.846 76.1637 135.53 76.479C135.215 76.787 135.057 77.2343 135.057 77.821V81H134.001ZM140.688 81.176C139.918 81.176 139.32 81.011 138.895 80.681C138.477 80.351 138.261 79.9 138.246 79.328H139.236C139.251 79.5553 139.364 79.7717 139.577 79.977C139.797 80.175 140.167 80.274 140.688 80.274C141.157 80.274 141.517 80.1823 141.766 79.999C142.015 79.8083 142.14 79.5773 142.14 79.306C142.14 79.064 142.048 78.877 141.865 78.745C141.682 78.6057 141.385 78.514 140.974 78.47L140.336 78.404C139.779 78.3453 139.324 78.1803 138.972 77.909C138.62 77.6303 138.444 77.2417 138.444 76.743C138.444 76.369 138.539 76.05 138.73 75.786C138.921 75.5147 139.185 75.3093 139.522 75.17C139.859 75.0233 140.248 74.95 140.688 74.95C141.348 74.95 141.883 75.0967 142.294 75.39C142.705 75.6833 142.917 76.1197 142.932 76.699H141.942C141.935 76.4643 141.825 76.2663 141.612 76.105C141.407 75.9363 141.099 75.852 140.688 75.852C140.277 75.852 139.966 75.9363 139.753 76.105C139.54 76.2737 139.434 76.4863 139.434 76.743C139.434 76.963 139.507 77.139 139.654 77.271C139.808 77.403 140.057 77.4873 140.402 77.524L141.04 77.59C141.671 77.656 142.177 77.832 142.558 78.118C142.939 78.3967 143.13 78.7927 143.13 79.306C143.13 79.6727 143.024 79.999 142.811 80.285C142.606 80.5637 142.32 80.7837 141.953 80.945C141.586 81.099 141.165 81.176 140.688 81.176ZM151.216 81V79.24H151.04V77.205C151.04 76.8017 150.934 76.4973 150.721 76.292C150.516 76.0867 150.212 75.984 149.808 75.984C149.581 75.984 149.346 75.9877 149.104 75.995C148.862 76.0023 148.631 76.0097 148.411 76.017C148.191 76.0243 148.001 76.0353 147.839 76.05V75.126C148.001 75.1113 148.169 75.1003 148.345 75.093C148.529 75.0783 148.716 75.071 148.906 75.071C149.097 75.0637 149.28 75.06 149.456 75.06C150.058 75.06 150.549 75.1333 150.93 75.28C151.312 75.4193 151.594 75.6503 151.777 75.973C151.961 76.2957 152.052 76.732 152.052 77.282V81H151.216ZM149.291 81.154C148.851 81.154 148.47 81.0807 148.147 80.934C147.832 80.78 147.586 80.56 147.41 80.274C147.242 79.988 147.157 79.6433 147.157 79.24C147.157 78.822 147.249 78.4737 147.432 78.195C147.623 77.9163 147.898 77.7073 148.257 77.568C148.617 77.4213 149.049 77.348 149.555 77.348H151.15V78.14H149.511C149.086 78.14 148.76 78.2427 148.532 78.448C148.305 78.6533 148.191 78.9173 148.191 79.24C148.191 79.5627 148.305 79.823 148.532 80.021C148.76 80.219 149.086 80.318 149.511 80.318C149.761 80.318 149.999 80.274 150.226 80.186C150.454 80.0907 150.641 79.9367 150.787 79.724C150.941 79.504 151.026 79.2033 151.04 78.822L151.326 79.24C151.29 79.658 151.187 80.01 151.018 80.296C150.857 80.5747 150.63 80.7873 150.336 80.934C150.05 81.0807 149.702 81.154 149.291 81.154ZM154.241 81V75.126H155.077V77.645H154.945C154.945 77.0657 155.022 76.578 155.176 76.182C155.337 75.7787 155.579 75.4743 155.902 75.269C156.224 75.0563 156.631 74.95 157.123 74.95H157.167C157.907 74.95 158.454 75.181 158.806 75.643C159.165 76.105 159.345 76.7723 159.345 77.645V81H158.289V77.425C158.289 76.9703 158.16 76.6073 157.904 76.336C157.647 76.0573 157.295 75.918 156.848 75.918C156.386 75.918 156.012 76.061 155.726 76.347C155.44 76.633 155.297 77.0143 155.297 77.491V81H154.241ZM163.98 81.198C163.562 81.198 163.177 81.121 162.825 80.967C162.473 80.813 162.165 80.5967 161.901 80.318C161.644 80.0393 161.442 79.7167 161.296 79.35C161.156 78.9833 161.087 78.5873 161.087 78.162V77.964C161.087 77.546 161.156 77.1537 161.296 76.787C161.435 76.4203 161.629 76.0977 161.879 75.819C162.135 75.5403 162.436 75.324 162.781 75.17C163.133 75.0087 163.521 74.928 163.947 74.928C164.394 74.928 164.801 75.0233 165.168 75.214C165.534 75.3973 165.835 75.687 166.07 76.083C166.304 76.479 166.436 76.9923 166.466 77.623L166.026 76.919V72.97H167.082V81H166.246V78.393H166.554C166.524 79.0603 166.385 79.603 166.136 80.021C165.886 80.4317 165.571 80.7323 165.19 80.923C164.816 81.1063 164.412 81.198 163.98 81.198ZM164.123 80.274C164.482 80.274 164.808 80.1933 165.102 80.032C165.395 79.8707 165.63 79.6397 165.806 79.339C165.982 79.031 166.07 78.6717 166.07 78.261V77.755C166.07 77.3517 165.978 77.0107 165.795 76.732C165.619 76.446 165.38 76.2297 165.08 76.083C164.786 75.929 164.464 75.852 164.112 75.852C163.723 75.852 163.378 75.9437 163.078 76.127C162.784 76.3103 162.553 76.567 162.385 76.897C162.223 77.227 162.143 77.6157 162.143 78.063C162.143 78.5103 162.227 78.9027 162.396 79.24C162.564 79.57 162.799 79.8267 163.1 80.01C163.4 80.186 163.741 80.274 164.123 80.274ZM172.114 81V75.126H172.95V77.645H172.818C172.818 77.073 172.891 76.589 173.038 76.193C173.192 75.7897 173.419 75.4817 173.72 75.269C174.02 75.0563 174.402 74.95 174.864 74.95H174.908C175.37 74.95 175.751 75.0563 176.052 75.269C176.36 75.4817 176.587 75.7897 176.734 76.193C176.88 76.589 176.954 77.073 176.954 77.645H176.646C176.646 77.073 176.723 76.589 176.877 76.193C177.031 75.7897 177.258 75.4817 177.559 75.269C177.867 75.0563 178.252 74.95 178.714 74.95H178.758C179.22 74.95 179.605 75.0563 179.913 75.269C180.221 75.4817 180.448 75.7897 180.595 76.193C180.749 76.589 180.826 77.073 180.826 77.645V81H179.77V77.414C179.77 76.9373 179.652 76.5707 179.418 76.314C179.183 76.05 178.857 75.918 178.439 75.918C178.006 75.918 177.658 76.0573 177.394 76.336C177.13 76.6073 176.998 76.9887 176.998 77.48V81H175.942V77.414C175.942 76.9373 175.824 76.5707 175.59 76.314C175.355 76.05 175.029 75.918 174.611 75.918C174.178 75.918 173.83 76.0573 173.566 76.336C173.302 76.6073 173.17 76.9887 173.17 77.48V81H172.114ZM185.506 81.198C184.993 81.198 184.549 81.11 184.175 80.934C183.801 80.758 183.497 80.527 183.262 80.241C183.027 79.9477 182.851 79.6213 182.734 79.262C182.624 78.9027 182.569 78.536 182.569 78.162V77.964C182.569 77.5827 182.624 77.2123 182.734 76.853C182.851 76.4937 183.027 76.171 183.262 75.885C183.497 75.5917 183.794 75.3607 184.153 75.192C184.52 75.016 184.949 74.928 185.44 74.928C186.078 74.928 186.602 75.0673 187.013 75.346C187.431 75.6173 187.739 75.9693 187.937 76.402C188.142 76.8347 188.245 77.2967 188.245 77.788V78.261H183.031V77.469H187.475L187.233 77.898C187.233 77.48 187.167 77.1207 187.035 76.82C186.903 76.512 186.705 76.2737 186.441 76.105C186.177 75.9363 185.843 75.852 185.44 75.852C185.022 75.852 184.674 75.9473 184.395 76.138C184.124 76.3287 183.918 76.589 183.779 76.919C183.647 77.249 183.581 77.6303 183.581 78.063C183.581 78.481 183.647 78.8587 183.779 79.196C183.918 79.526 184.131 79.79 184.417 79.988C184.703 80.1787 185.066 80.274 185.506 80.274C185.968 80.274 186.342 80.1713 186.628 79.966C186.921 79.7607 187.097 79.5223 187.156 79.251H188.146C188.065 79.6543 187.904 80.0027 187.662 80.296C187.42 80.5893 187.116 80.813 186.749 80.967C186.382 81.121 185.968 81.198 185.506 81.198ZM189.994 81V75.126H190.83V77.546H190.786C190.786 76.688 190.973 76.061 191.347 75.665C191.729 75.2617 192.297 75.06 193.052 75.06H193.25V76.006H192.876C192.29 76.006 191.839 76.1637 191.523 76.479C191.208 76.787 191.05 77.2343 191.05 77.821V81H189.994ZM197.211 81.198C196.705 81.198 196.265 81.11 195.891 80.934C195.524 80.758 195.22 80.5233 194.978 80.23C194.736 79.9293 194.552 79.5993 194.428 79.24C194.31 78.8807 194.252 78.5213 194.252 78.162V77.964C194.252 77.59 194.31 77.2233 194.428 76.864C194.552 76.5047 194.736 76.182 194.978 75.896C195.227 75.6027 195.535 75.368 195.902 75.192C196.268 75.016 196.697 74.928 197.189 74.928C197.68 74.928 198.12 75.0197 198.509 75.203C198.905 75.3863 199.22 75.6467 199.455 75.984C199.697 76.314 199.832 76.7063 199.862 77.161H198.85C198.798 76.7943 198.63 76.49 198.344 76.248C198.058 75.9987 197.673 75.874 197.189 75.874C196.771 75.874 196.422 75.9693 196.144 76.16C195.865 76.3507 195.656 76.611 195.517 76.941C195.377 77.271 195.308 77.645 195.308 78.063C195.308 78.4663 195.377 78.8367 195.517 79.174C195.656 79.504 195.865 79.768 196.144 79.966C196.43 80.1567 196.785 80.252 197.211 80.252C197.541 80.252 197.827 80.1933 198.069 80.076C198.311 79.9587 198.505 79.801 198.652 79.603C198.798 79.405 198.886 79.1813 198.916 78.932H199.928C199.906 79.394 199.77 79.7937 199.521 80.131C199.279 80.4683 198.956 80.7323 198.553 80.923C198.157 81.1063 197.709 81.198 197.211 81.198ZM201.613 81V72.97H202.669V77.766H202.405C202.405 77.1867 202.478 76.688 202.625 76.27C202.779 75.8447 203.013 75.5183 203.329 75.291C203.644 75.0637 204.047 74.95 204.539 74.95H204.583C205.287 74.95 205.818 75.1847 206.178 75.654C206.537 76.116 206.717 76.7797 206.717 77.645V81H205.661V77.425C205.661 76.9483 205.525 76.578 205.254 76.314C204.99 76.05 204.645 75.918 204.22 75.918C203.75 75.918 203.373 76.0757 203.087 76.391C202.808 76.699 202.669 77.106 202.669 77.612V81H201.613ZM212.452 81V79.24H212.276V77.205C212.276 76.8017 212.169 76.4973 211.957 76.292C211.751 76.0867 211.447 75.984 211.044 75.984C210.816 75.984 210.582 75.9877 210.34 75.995C210.098 76.0023 209.867 76.0097 209.647 76.017C209.427 76.0243 209.236 76.0353 209.075 76.05V75.126C209.236 75.1113 209.405 75.1003 209.581 75.093C209.764 75.0783 209.951 75.071 210.142 75.071C210.332 75.0637 210.516 75.06 210.692 75.06C211.293 75.06 211.784 75.1333 212.166 75.28C212.547 75.4193 212.829 75.6503 213.013 75.973C213.196 76.2957 213.288 76.732 213.288 77.282V81H212.452ZM210.527 81.154C210.087 81.154 209.705 81.0807 209.383 80.934C209.067 80.78 208.822 80.56 208.646 80.274C208.477 79.988 208.393 79.6433 208.393 79.24C208.393 78.822 208.484 78.4737 208.668 78.195C208.858 77.9163 209.133 77.7073 209.493 77.568C209.852 77.4213 210.285 77.348 210.791 77.348H212.386V78.14H210.747C210.321 78.14 209.995 78.2427 209.768 78.448C209.54 78.6533 209.427 78.9173 209.427 79.24C209.427 79.5627 209.54 79.823 209.768 80.021C209.995 80.219 210.321 80.318 210.747 80.318C210.996 80.318 211.234 80.274 211.462 80.186C211.689 80.0907 211.876 79.9367 212.023 79.724C212.177 79.504 212.261 79.2033 212.276 78.822L212.562 79.24C212.525 79.658 212.422 80.01 212.254 80.296C212.092 80.5747 211.865 80.7873 211.572 80.934C211.286 81.0807 210.937 81.154 210.527 81.154ZM215.476 81V75.126H216.312V77.645H216.18C216.18 77.0657 216.257 76.578 216.411 76.182C216.572 75.7787 216.814 75.4743 217.137 75.269C217.46 75.0563 217.867 74.95 218.358 74.95H218.402C219.143 74.95 219.689 75.181 220.041 75.643C220.4 76.105 220.58 76.7723 220.58 77.645V81H219.524V77.425C219.524 76.9703 219.396 76.6073 219.139 76.336C218.882 76.0573 218.53 75.918 218.083 75.918C217.621 75.918 217.247 76.061 216.961 76.347C216.675 76.633 216.532 77.0143 216.532 77.491V81H215.476ZM225.05 81.066C224.61 81.066 224.229 81.0037 223.906 80.879C223.591 80.7543 223.345 80.5417 223.169 80.241C223 79.933 222.916 79.5187 222.916 78.998V73.344H223.928V79.13C223.928 79.4453 224.012 79.691 224.181 79.867C224.357 80.0357 224.603 80.12 224.918 80.12H225.952V81.066H225.05ZM221.904 75.918V75.126H225.952V75.918H221.904ZM234.002 81V79.24H233.826V77.205C233.826 76.8017 233.719 76.4973 233.507 76.292C233.301 76.0867 232.997 75.984 232.594 75.984C232.366 75.984 232.132 75.9877 231.89 75.995C231.648 76.0023 231.417 76.0097 231.197 76.017C230.977 76.0243 230.786 76.0353 230.625 76.05V75.126C230.786 75.1113 230.955 75.1003 231.131 75.093C231.314 75.0783 231.501 75.071 231.692 75.071C231.882 75.0637 232.066 75.06 232.242 75.06C232.843 75.06 233.334 75.1333 233.716 75.28C234.097 75.4193 234.379 75.6503 234.563 75.973C234.746 76.2957 234.838 76.732 234.838 77.282V81H234.002ZM232.077 81.154C231.637 81.154 231.255 81.0807 230.933 80.934C230.617 80.78 230.372 80.56 230.196 80.274C230.027 79.988 229.943 79.6433 229.943 79.24C229.943 78.822 230.034 78.4737 230.218 78.195C230.408 77.9163 230.683 77.7073 231.043 77.568C231.402 77.4213 231.835 77.348 232.341 77.348H233.936V78.14H232.297C231.871 78.14 231.545 78.2427 231.318 78.448C231.09 78.6533 230.977 78.9173 230.977 79.24C230.977 79.5627 231.09 79.823 231.318 80.021C231.545 80.219 231.871 80.318 232.297 80.318C232.546 80.318 232.784 80.274 233.012 80.186C233.239 80.0907 233.426 79.9367 233.573 79.724C233.727 79.504 233.811 79.2033 233.826 78.822L234.112 79.24C234.075 79.658 233.972 80.01 233.804 80.296C233.642 80.5747 233.415 80.7873 233.122 80.934C232.836 81.0807 232.487 81.154 232.077 81.154ZM239.545 81.198C239.039 81.198 238.599 81.11 238.225 80.934C237.858 80.758 237.554 80.5233 237.312 80.23C237.07 79.9293 236.886 79.5993 236.762 79.24C236.644 78.8807 236.586 78.5213 236.586 78.162V77.964C236.586 77.59 236.644 77.2233 236.762 76.864C236.886 76.5047 237.07 76.182 237.312 75.896C237.561 75.6027 237.869 75.368 238.236 75.192C238.602 75.016 239.031 74.928 239.523 74.928C240.014 74.928 240.454 75.0197 240.843 75.203C241.239 75.3863 241.554 75.6467 241.789 75.984C242.031 76.314 242.166 76.7063 242.196 77.161H241.184C241.132 76.7943 240.964 76.49 240.678 76.248C240.392 75.9987 240.007 75.874 239.523 75.874C239.105 75.874 238.756 75.9693 238.478 76.16C238.199 76.3507 237.99 76.611 237.851 76.941C237.711 77.271 237.642 77.645 237.642 78.063C237.642 78.4663 237.711 78.8367 237.851 79.174C237.99 79.504 238.199 79.768 238.478 79.966C238.764 80.1567 239.119 80.252 239.545 80.252C239.875 80.252 240.161 80.1933 240.403 80.076C240.645 79.9587 240.839 79.801 240.986 79.603C241.132 79.405 241.22 79.1813 241.25 78.932H242.262C242.24 79.394 242.104 79.7937 241.855 80.131C241.613 80.4683 241.29 80.7323 240.887 80.923C240.491 81.1063 240.043 81.198 239.545 81.198ZM243.947 81V75.126H244.783V77.546H244.739C244.739 76.688 244.926 76.061 245.3 75.665C245.681 75.2617 246.249 75.06 247.005 75.06H247.203V76.006H246.829C246.242 76.006 245.791 76.1637 245.476 76.479C245.16 76.787 245.003 77.2343 245.003 77.821V81H243.947ZM251.35 81.198C250.837 81.198 250.386 81.11 249.997 80.934C249.608 80.758 249.278 80.527 249.007 80.241C248.743 79.9477 248.541 79.6213 248.402 79.262C248.27 78.9027 248.204 78.536 248.204 78.162V77.964C248.204 77.59 248.274 77.2233 248.413 76.864C248.552 76.4973 248.758 76.171 249.029 75.885C249.3 75.5917 249.63 75.3607 250.019 75.192C250.408 75.016 250.851 74.928 251.35 74.928C251.849 74.928 252.292 75.016 252.681 75.192C253.07 75.3607 253.4 75.5917 253.671 75.885C253.942 76.171 254.148 76.4973 254.287 76.864C254.426 77.2233 254.496 77.59 254.496 77.964V78.162C254.496 78.536 254.426 78.9027 254.287 79.262C254.155 79.6213 253.953 79.9477 253.682 80.241C253.418 80.527 253.092 80.758 252.703 80.934C252.314 81.11 251.863 81.198 251.35 81.198ZM251.35 80.252C251.79 80.252 252.164 80.1567 252.472 79.966C252.787 79.768 253.026 79.504 253.187 79.174C253.356 78.844 253.44 78.4737 253.44 78.063C253.44 77.645 253.356 77.271 253.187 76.941C253.018 76.611 252.776 76.3507 252.461 76.16C252.153 75.9693 251.783 75.874 251.35 75.874C250.925 75.874 250.554 75.9693 250.239 76.16C249.924 76.3507 249.682 76.611 249.513 76.941C249.344 77.271 249.26 77.645 249.26 78.063C249.26 78.4737 249.341 78.844 249.502 79.174C249.671 79.504 249.909 79.768 250.217 79.966C250.532 80.1567 250.91 80.252 251.35 80.252ZM258.252 81.176C257.482 81.176 256.885 81.011 256.459 80.681C256.041 80.351 255.825 79.9 255.81 79.328H256.8C256.815 79.5553 256.929 79.7717 257.141 79.977C257.361 80.175 257.732 80.274 258.252 80.274C258.722 80.274 259.081 80.1823 259.33 79.999C259.58 79.8083 259.704 79.5773 259.704 79.306C259.704 79.064 259.613 78.877 259.429 78.745C259.246 78.6057 258.949 78.514 258.538 78.47L257.9 78.404C257.343 78.3453 256.888 78.1803 256.536 77.909C256.184 77.6303 256.008 77.2417 256.008 76.743C256.008 76.369 256.104 76.05 256.294 75.786C256.485 75.5147 256.749 75.3093 257.086 75.17C257.424 75.0233 257.812 74.95 258.252 74.95C258.912 74.95 259.448 75.0967 259.858 75.39C260.269 75.6833 260.482 76.1197 260.496 76.699H259.506C259.499 76.4643 259.389 76.2663 259.176 76.105C258.971 75.9363 258.663 75.852 258.252 75.852C257.842 75.852 257.53 75.9363 257.317 76.105C257.105 76.2737 256.998 76.4863 256.998 76.743C256.998 76.963 257.072 77.139 257.218 77.271C257.372 77.403 257.622 77.4873 257.966 77.524L258.604 77.59C259.235 77.656 259.741 77.832 260.122 78.118C260.504 78.3967 260.694 78.7927 260.694 79.306C260.694 79.6727 260.588 79.999 260.375 80.285C260.17 80.5637 259.884 80.7837 259.517 80.945C259.151 81.099 258.729 81.176 258.252 81.176ZM264.4 81.176C263.63 81.176 263.032 81.011 262.607 80.681C262.189 80.351 261.973 79.9 261.958 79.328H262.948C262.963 79.5553 263.076 79.7717 263.289 79.977C263.509 80.175 263.879 80.274 264.4 80.274C264.869 80.274 265.229 80.1823 265.478 79.999C265.727 79.8083 265.852 79.5773 265.852 79.306C265.852 79.064 265.76 78.877 265.577 78.745C265.394 78.6057 265.097 78.514 264.686 78.47L264.048 78.404C263.491 78.3453 263.036 78.1803 262.684 77.909C262.332 77.6303 262.156 77.2417 262.156 76.743C262.156 76.369 262.251 76.05 262.442 75.786C262.633 75.5147 262.897 75.3093 263.234 75.17C263.571 75.0233 263.96 74.95 264.4 74.95C265.06 74.95 265.595 75.0967 266.006 75.39C266.417 75.6833 266.629 76.1197 266.644 76.699H265.654C265.647 76.4643 265.537 76.2663 265.324 76.105C265.119 75.9363 264.811 75.852 264.4 75.852C263.989 75.852 263.678 75.9363 263.465 76.105C263.252 76.2737 263.146 76.4863 263.146 76.743C263.146 76.963 263.219 77.139 263.366 77.271C263.52 77.403 263.769 77.4873 264.114 77.524L264.752 77.59C265.383 77.656 265.889 77.832 266.27 78.118C266.651 78.3967 266.842 78.7927 266.842 79.306C266.842 79.6727 266.736 79.999 266.523 80.285C266.318 80.5637 266.032 80.7837 265.665 80.945C265.298 81.099 264.877 81.176 264.4 81.176ZM94.114 96.198C93.63 96.198 93.1973 96.0917 92.816 95.879C92.442 95.6663 92.145 95.3583 91.925 94.955C91.705 94.5443 91.584 94.053 91.562 93.481H91.848V96H91.012V87.97H92.068V91.875L91.694 92.678C91.7233 92.04 91.8517 91.5193 92.079 91.116C92.3063 90.7127 92.6033 90.4157 92.97 90.225C93.344 90.027 93.7547 89.928 94.202 89.928C94.62 89.928 95.0013 90.0087 95.346 90.17C95.6907 90.324 95.9877 90.5403 96.237 90.819C96.4863 91.0903 96.677 91.4093 96.809 91.776C96.941 92.1353 97.007 92.524 97.007 92.942V93.14C97.007 93.558 96.9373 93.9503 96.798 94.317C96.666 94.6837 96.4717 95.01 96.215 95.296C95.9583 95.5747 95.6503 95.7947 95.291 95.956C94.939 96.1173 94.5467 96.198 94.114 96.198ZM93.993 95.274C94.389 95.274 94.7337 95.1787 95.027 94.988C95.3203 94.7973 95.5477 94.537 95.709 94.207C95.8703 93.8697 95.951 93.481 95.951 93.041C95.951 92.601 95.8667 92.216 95.698 91.886C95.5367 91.556 95.3093 91.303 95.016 91.127C94.7227 90.9437 94.3817 90.852 93.993 90.852C93.641 90.852 93.3147 90.9327 93.014 91.094C92.7133 91.248 92.4713 91.4753 92.288 91.776C92.112 92.0693 92.024 92.425 92.024 92.843V93.349C92.024 93.7523 92.1157 94.097 92.299 94.383C92.4823 94.669 92.7243 94.889 93.025 95.043C93.3257 95.197 93.6483 95.274 93.993 95.274ZM101.552 96.198C101.039 96.198 100.588 96.11 100.199 95.934C99.8103 95.758 99.4803 95.527 99.209 95.241C98.945 94.9477 98.7433 94.6213 98.604 94.262C98.472 93.9027 98.406 93.536 98.406 93.162V92.964C98.406 92.59 98.4757 92.2233 98.615 91.864C98.7543 91.4973 98.9597 91.171 99.231 90.885C99.5023 90.5917 99.8323 90.3607 100.221 90.192C100.61 90.016 101.053 89.928 101.552 89.928C102.051 89.928 102.494 90.016 102.883 90.192C103.272 90.3607 103.602 90.5917 103.873 90.885C104.144 91.171 104.35 91.4973 104.489 91.864C104.628 92.2233 104.698 92.59 104.698 92.964V93.162C104.698 93.536 104.628 93.9027 104.489 94.262C104.357 94.6213 104.155 94.9477 103.884 95.241C103.62 95.527 103.294 95.758 102.905 95.934C102.516 96.11 102.065 96.198 101.552 96.198ZM101.552 95.252C101.992 95.252 102.366 95.1567 102.674 94.966C102.989 94.768 103.228 94.504 103.389 94.174C103.558 93.844 103.642 93.4737 103.642 93.063C103.642 92.645 103.558 92.271 103.389 91.941C103.22 91.611 102.978 91.3507 102.663 91.16C102.355 90.9693 101.985 90.874 101.552 90.874C101.127 90.874 100.756 90.9693 100.441 91.16C100.126 91.3507 99.8837 91.611 99.715 91.941C99.5463 92.271 99.462 92.645 99.462 93.063C99.462 93.4737 99.5427 93.844 99.704 94.174C99.8727 94.504 100.111 94.768 100.419 94.966C100.734 95.1567 101.112 95.252 101.552 95.252ZM106.53 96V90.126H107.366V92.546H107.322C107.322 91.688 107.509 91.061 107.883 90.665C108.264 90.2617 108.832 90.06 109.588 90.06H109.786V91.006H109.412C108.825 91.006 108.374 91.1637 108.059 91.479C107.743 91.787 107.586 92.2343 107.586 92.821V96H106.53ZM113.68 96.198C113.262 96.198 112.877 96.121 112.525 95.967C112.173 95.813 111.865 95.5967 111.601 95.318C111.344 95.0393 111.143 94.7167 110.996 94.35C110.857 93.9833 110.787 93.5873 110.787 93.162V92.964C110.787 92.546 110.857 92.1537 110.996 91.787C111.135 91.4203 111.33 91.0977 111.579 90.819C111.836 90.5403 112.136 90.324 112.481 90.17C112.833 90.0087 113.222 89.928 113.647 89.928C114.094 89.928 114.501 90.0233 114.868 90.214C115.235 90.3973 115.535 90.687 115.77 91.083C116.005 91.479 116.137 91.9923 116.166 92.623L115.726 91.919V87.97H116.782V96H115.946V93.393H116.254C116.225 94.0603 116.085 94.603 115.836 95.021C115.587 95.4317 115.271 95.7323 114.89 95.923C114.516 96.1063 114.113 96.198 113.68 96.198ZM113.823 95.274C114.182 95.274 114.509 95.1933 114.802 95.032C115.095 94.8707 115.33 94.6397 115.506 94.339C115.682 94.031 115.77 93.6717 115.77 93.261V92.755C115.77 92.3517 115.678 92.0107 115.495 91.732C115.319 91.446 115.081 91.2297 114.78 91.083C114.487 90.929 114.164 90.852 113.812 90.852C113.423 90.852 113.079 90.9437 112.778 91.127C112.485 91.3103 112.254 91.567 112.085 91.897C111.924 92.227 111.843 92.6157 111.843 93.063C111.843 93.5103 111.927 93.9027 112.096 94.24C112.265 94.57 112.499 94.8267 112.8 95.01C113.101 95.186 113.442 95.274 113.823 95.274ZM121.558 96.198C121.044 96.198 120.601 96.11 120.227 95.934C119.853 95.758 119.548 95.527 119.314 95.241C119.079 94.9477 118.903 94.6213 118.786 94.262C118.676 93.9027 118.621 93.536 118.621 93.162V92.964C118.621 92.5827 118.676 92.2123 118.786 91.853C118.903 91.4937 119.079 91.171 119.314 90.885C119.548 90.5917 119.845 90.3607 120.205 90.192C120.571 90.016 121 89.928 121.492 89.928C122.13 89.928 122.654 90.0673 123.065 90.346C123.483 90.6173 123.791 90.9693 123.989 91.402C124.194 91.8347 124.297 92.2967 124.297 92.788V93.261H119.083V92.469H123.527L123.285 92.898C123.285 92.48 123.219 92.1207 123.087 91.82C122.955 91.512 122.757 91.2737 122.493 91.105C122.229 90.9363 121.895 90.852 121.492 90.852C121.074 90.852 120.725 90.9473 120.447 91.138C120.175 91.3287 119.97 91.589 119.831 91.919C119.699 92.249 119.633 92.6303 119.633 93.063C119.633 93.481 119.699 93.8587 119.831 94.196C119.97 94.526 120.183 94.79 120.469 94.988C120.755 95.1787 121.118 95.274 121.558 95.274C122.02 95.274 122.394 95.1713 122.68 94.966C122.973 94.7607 123.149 94.5223 123.208 94.251H124.198C124.117 94.6543 123.956 95.0027 123.714 95.296C123.472 95.5893 123.167 95.813 122.801 95.967C122.434 96.121 122.02 96.198 121.558 96.198ZM126.046 96V90.126H126.882V92.546H126.838C126.838 91.688 127.025 91.061 127.399 90.665C127.781 90.2617 128.349 90.06 129.104 90.06H129.302V91.006H128.928C128.342 91.006 127.891 91.1637 127.575 91.479C127.26 91.787 127.102 92.2343 127.102 92.821V96H126.046ZM132.733 96.176C131.963 96.176 131.365 96.011 130.94 95.681C130.522 95.351 130.306 94.9 130.291 94.328H131.281C131.296 94.5553 131.409 94.7717 131.622 94.977C131.842 95.175 132.212 95.274 132.733 95.274C133.202 95.274 133.562 95.1823 133.811 94.999C134.06 94.8083 134.185 94.5773 134.185 94.306C134.185 94.064 134.093 93.877 133.91 93.745C133.727 93.6057 133.43 93.514 133.019 93.47L132.381 93.404C131.824 93.3453 131.369 93.1803 131.017 92.909C130.665 92.6303 130.489 92.2417 130.489 91.743C130.489 91.369 130.584 91.05 130.775 90.786C130.966 90.5147 131.23 90.3093 131.567 90.17C131.904 90.0233 132.293 89.95 132.733 89.95C133.393 89.95 133.928 90.0967 134.339 90.39C134.75 90.6833 134.962 91.1197 134.977 91.699H133.987C133.98 91.4643 133.87 91.2663 133.657 91.105C133.452 90.9363 133.144 90.852 132.733 90.852C132.322 90.852 132.011 90.9363 131.798 91.105C131.585 91.2737 131.479 91.4863 131.479 91.743C131.479 91.963 131.552 92.139 131.699 92.271C131.853 92.403 132.102 92.4873 132.447 92.524L133.085 92.59C133.716 92.656 134.222 92.832 134.603 93.118C134.984 93.3967 135.175 93.7927 135.175 94.306C135.175 94.6727 135.069 94.999 134.856 95.285C134.651 95.5637 134.365 95.7837 133.998 95.945C133.631 96.099 133.21 96.176 132.733 96.176ZM139.994 96V90.126H141.05V96H139.994ZM139.092 90.962V90.126H141.05V90.962H139.092ZM140.291 89.18C140.057 89.18 139.881 89.1177 139.763 88.993C139.653 88.8683 139.598 88.7107 139.598 88.52C139.598 88.3293 139.653 88.1717 139.763 88.047C139.881 87.9223 140.057 87.86 140.291 87.86C140.526 87.86 140.698 87.9223 140.808 88.047C140.926 88.1717 140.984 88.3293 140.984 88.52C140.984 88.7107 140.926 88.8683 140.808 88.993C140.698 89.1177 140.526 89.18 140.291 89.18ZM143.342 96V90.126H144.178V92.645H144.046C144.046 92.0657 144.123 91.578 144.277 91.182C144.438 90.7787 144.68 90.4743 145.003 90.269C145.326 90.0563 145.733 89.95 146.224 89.95H146.268C147.009 89.95 147.555 90.181 147.907 90.643C148.266 91.105 148.446 91.7723 148.446 92.645V96H147.39V92.425C147.39 91.9703 147.262 91.6073 147.005 91.336C146.748 91.0573 146.396 90.918 145.949 90.918C145.487 90.918 145.113 91.061 144.827 91.347C144.541 91.633 144.398 92.0143 144.398 92.491V96H143.342ZM156.087 96.198C155.574 96.198 155.123 96.11 154.734 95.934C154.345 95.758 154.015 95.527 153.744 95.241C153.48 94.9477 153.278 94.6213 153.139 94.262C153.007 93.9027 152.941 93.536 152.941 93.162V92.964C152.941 92.59 153.011 92.2233 153.15 91.864C153.289 91.4973 153.495 91.171 153.766 90.885C154.037 90.5917 154.367 90.3607 154.756 90.192C155.145 90.016 155.588 89.928 156.087 89.928C156.586 89.928 157.029 90.016 157.418 90.192C157.807 90.3607 158.137 90.5917 158.408 90.885C158.679 91.171 158.885 91.4973 159.024 91.864C159.163 92.2233 159.233 92.59 159.233 92.964V93.162C159.233 93.536 159.163 93.9027 159.024 94.262C158.892 94.6213 158.69 94.9477 158.419 95.241C158.155 95.527 157.829 95.758 157.44 95.934C157.051 96.11 156.6 96.198 156.087 96.198ZM156.087 95.252C156.527 95.252 156.901 95.1567 157.209 94.966C157.524 94.768 157.763 94.504 157.924 94.174C158.093 93.844 158.177 93.4737 158.177 93.063C158.177 92.645 158.093 92.271 157.924 91.941C157.755 91.611 157.513 91.3507 157.198 91.16C156.89 90.9693 156.52 90.874 156.087 90.874C155.662 90.874 155.291 90.9693 154.976 91.16C154.661 91.3507 154.419 91.611 154.25 91.941C154.081 92.271 153.997 92.645 153.997 93.063C153.997 93.4737 154.078 93.844 154.239 94.174C154.408 94.504 154.646 94.768 154.954 94.966C155.269 95.1567 155.647 95.252 156.087 95.252ZM162.211 96L160.209 90.126H161.309L163.267 96H162.211ZM162.475 96V95.164H163.751V96H162.475ZM162.981 96L164.686 90.126H165.72L163.982 96H162.981ZM169.741 96.198C169.228 96.198 168.784 96.11 168.41 95.934C168.036 95.758 167.732 95.527 167.497 95.241C167.263 94.9477 167.087 94.6213 166.969 94.262C166.859 93.9027 166.804 93.536 166.804 93.162V92.964C166.804 92.5827 166.859 92.2123 166.969 91.853C167.087 91.4937 167.263 91.171 167.497 90.885C167.732 90.5917 168.029 90.3607 168.388 90.192C168.755 90.016 169.184 89.928 169.675 89.928C170.313 89.928 170.838 90.0673 171.248 90.346C171.666 90.6173 171.974 90.9693 172.172 91.402C172.378 91.8347 172.48 92.2967 172.48 92.788V93.261H167.266V92.469H171.71L171.468 92.898C171.468 92.48 171.402 92.1207 171.27 91.82C171.138 91.512 170.94 91.2737 170.676 91.105C170.412 90.9363 170.079 90.852 169.675 90.852C169.257 90.852 168.909 90.9473 168.63 91.138C168.359 91.3287 168.154 91.589 168.014 91.919C167.882 92.249 167.816 92.6303 167.816 93.063C167.816 93.481 167.882 93.8587 168.014 94.196C168.154 94.526 168.366 94.79 168.652 94.988C168.938 95.1787 169.301 95.274 169.741 95.274C170.203 95.274 170.577 95.1713 170.863 94.966C171.157 94.7607 171.333 94.5223 171.391 94.251H172.381C172.301 94.6543 172.139 95.0027 171.897 95.296C171.655 95.5893 171.351 95.813 170.984 95.967C170.618 96.121 170.203 96.198 169.741 96.198ZM174.23 96V90.126H175.066V92.546H175.022C175.022 91.688 175.209 91.061 175.583 90.665C175.964 90.2617 176.532 90.06 177.288 90.06H177.486V91.006H177.112C176.525 91.006 176.074 91.1637 175.759 91.479C175.443 91.787 175.286 92.2343 175.286 92.821V96H174.23ZM184.23 96.198C183.658 96.198 183.149 96.0953 182.701 95.89C182.261 95.6847 181.913 95.3987 181.656 95.032C181.407 94.6653 181.282 94.24 181.282 93.756C181.282 93.4333 181.345 93.1437 181.469 92.887C181.594 92.623 181.766 92.3957 181.986 92.205C182.206 92.0143 182.456 91.8677 182.734 91.765V91.655C182.514 91.5597 182.313 91.4313 182.129 91.27C181.953 91.1087 181.81 90.918 181.7 90.698C181.598 90.478 181.546 90.2287 181.546 89.95C181.546 89.488 181.667 89.0957 181.909 88.773C182.159 88.4503 182.485 88.2047 182.888 88.036C183.299 87.86 183.746 87.772 184.23 87.772C184.722 87.772 185.169 87.86 185.572 88.036C185.983 88.2047 186.309 88.4503 186.551 88.773C186.793 89.0957 186.914 89.488 186.914 89.95C186.914 90.2287 186.863 90.478 186.76 90.698C186.658 90.918 186.515 91.1087 186.331 91.27C186.155 91.4313 185.954 91.5597 185.726 91.655V91.765C186.012 91.8677 186.265 92.018 186.485 92.216C186.705 92.4067 186.878 92.634 187.002 92.898C187.127 93.1547 187.189 93.4407 187.189 93.756C187.189 94.24 187.061 94.6653 186.804 95.032C186.555 95.3987 186.207 95.6847 185.759 95.89C185.319 96.0953 184.81 96.198 184.23 96.198ZM184.23 95.296C184.634 95.296 184.978 95.2337 185.264 95.109C185.55 94.977 185.77 94.7937 185.924 94.559C186.078 94.317 186.155 94.0347 186.155 93.712C186.155 93.3893 186.078 93.1107 185.924 92.876C185.778 92.6413 185.561 92.4617 185.275 92.337C184.989 92.205 184.641 92.139 184.23 92.139C183.827 92.139 183.482 92.205 183.196 92.337C182.91 92.4617 182.69 92.6413 182.536 92.876C182.39 93.1107 182.316 93.3893 182.316 93.712C182.316 94.0347 182.39 94.317 182.536 94.559C182.69 94.7937 182.91 94.977 183.196 95.109C183.482 95.2337 183.827 95.296 184.23 95.296ZM184.23 91.303C184.729 91.303 185.129 91.1967 185.429 90.984C185.73 90.764 185.88 90.4303 185.88 89.983C185.88 89.5283 185.726 89.1983 185.418 88.993C185.118 88.7803 184.722 88.674 184.23 88.674C183.739 88.674 183.339 88.7803 183.031 88.993C182.731 89.2057 182.58 89.5357 182.58 89.983C182.58 90.4303 182.731 90.764 183.031 90.984C183.339 91.1967 183.739 91.303 184.23 91.303ZM192.078 96.198C191.477 96.198 190.964 96.0953 190.538 95.89C190.12 95.6773 189.779 95.3913 189.515 95.032C189.259 94.6727 189.072 94.2583 188.954 93.789C188.837 93.3123 188.778 92.81 188.778 92.282V91.688C188.778 90.9473 188.892 90.28 189.119 89.686C189.354 89.092 189.713 88.6227 190.197 88.278C190.689 87.926 191.316 87.75 192.078 87.75C192.841 87.75 193.464 87.926 193.948 88.278C194.432 88.6227 194.788 89.092 195.015 89.686C195.25 90.28 195.367 90.9473 195.367 91.688V92.282C195.367 92.81 195.309 93.3123 195.191 93.789C195.074 94.2583 194.883 94.6727 194.619 95.032C194.363 95.3913 194.025 95.6773 193.607 95.89C193.189 96.0953 192.68 96.198 192.078 96.198ZM192.078 95.23C192.841 95.23 193.398 94.9733 193.75 94.46C194.11 93.9393 194.289 93.118 194.289 91.996C194.289 90.8227 194.106 89.983 193.739 89.477C193.38 88.971 192.826 88.718 192.078 88.718C191.323 88.718 190.762 88.971 190.395 89.477C190.036 89.983 189.856 90.8153 189.856 91.974C189.856 93.1033 190.036 93.9283 190.395 94.449C190.755 94.9697 191.316 95.23 192.078 95.23ZM202.695 96.198C202.189 96.198 201.749 96.11 201.375 95.934C201.008 95.758 200.704 95.5233 200.462 95.23C200.22 94.9293 200.037 94.5993 199.912 94.24C199.795 93.8807 199.736 93.5213 199.736 93.162V92.964C199.736 92.59 199.795 92.2233 199.912 91.864C200.037 91.5047 200.22 91.182 200.462 90.896C200.711 90.6027 201.019 90.368 201.386 90.192C201.753 90.016 202.182 89.928 202.673 89.928C203.164 89.928 203.604 90.0197 203.993 90.203C204.389 90.3863 204.704 90.6467 204.939 90.984C205.181 91.314 205.317 91.7063 205.346 92.161H204.334C204.283 91.7943 204.114 91.49 203.828 91.248C203.542 90.9987 203.157 90.874 202.673 90.874C202.255 90.874 201.907 90.9693 201.628 91.16C201.349 91.3507 201.14 91.611 201.001 91.941C200.862 92.271 200.792 92.645 200.792 93.063C200.792 93.4663 200.862 93.8367 201.001 94.174C201.14 94.504 201.349 94.768 201.628 94.966C201.914 95.1567 202.27 95.252 202.695 95.252C203.025 95.252 203.311 95.1933 203.553 95.076C203.795 94.9587 203.989 94.801 204.136 94.603C204.283 94.405 204.371 94.1813 204.4 93.932H205.412C205.39 94.394 205.254 94.7937 205.005 95.131C204.763 95.4683 204.44 95.7323 204.037 95.923C203.641 96.1063 203.194 96.198 202.695 96.198ZM209.803 96.198C209.29 96.198 208.839 96.11 208.45 95.934C208.061 95.758 207.731 95.527 207.46 95.241C207.196 94.9477 206.994 94.6213 206.855 94.262C206.723 93.9027 206.657 93.536 206.657 93.162V92.964C206.657 92.59 206.727 92.2233 206.866 91.864C207.005 91.4973 207.211 91.171 207.482 90.885C207.753 90.5917 208.083 90.3607 208.472 90.192C208.861 90.016 209.304 89.928 209.803 89.928C210.302 89.928 210.745 90.016 211.134 90.192C211.523 90.3607 211.853 90.5917 212.124 90.885C212.395 91.171 212.601 91.4973 212.74 91.864C212.879 92.2233 212.949 92.59 212.949 92.964V93.162C212.949 93.536 212.879 93.9027 212.74 94.262C212.608 94.6213 212.406 94.9477 212.135 95.241C211.871 95.527 211.545 95.758 211.156 95.934C210.767 96.11 210.316 96.198 209.803 96.198ZM209.803 95.252C210.243 95.252 210.617 95.1567 210.925 94.966C211.24 94.768 211.479 94.504 211.64 94.174C211.809 93.844 211.893 93.4737 211.893 93.063C211.893 92.645 211.809 92.271 211.64 91.941C211.471 91.611 211.229 91.3507 210.914 91.16C210.606 90.9693 210.236 90.874 209.803 90.874C209.378 90.874 209.007 90.9693 208.692 91.16C208.377 91.3507 208.135 91.611 207.966 91.941C207.797 92.271 207.713 92.645 207.713 93.063C207.713 93.4737 207.794 93.844 207.955 94.174C208.124 94.504 208.362 94.768 208.67 94.966C208.985 95.1567 209.363 95.252 209.803 95.252ZM216.816 96.176C216.119 96.176 215.584 95.9487 215.21 95.494C214.836 95.0393 214.649 94.383 214.649 93.525V90.115H215.705V93.734C215.705 94.196 215.829 94.559 216.079 94.823C216.328 95.0797 216.665 95.208 217.091 95.208C217.531 95.208 217.89 95.0687 218.169 94.79C218.447 94.504 218.587 94.1153 218.587 93.624V90.115H219.643V96H218.807V93.481H218.939C218.939 94.0603 218.862 94.5517 218.708 94.955C218.554 95.351 218.323 95.6553 218.015 95.868C217.714 96.0733 217.329 96.176 216.86 96.176H216.816ZM221.938 96V90.126H222.774V92.645H222.642C222.642 92.0657 222.719 91.578 222.873 91.182C223.034 90.7787 223.276 90.4743 223.599 90.269C223.921 90.0563 224.328 89.95 224.82 89.95H224.864C225.604 89.95 226.151 90.181 226.503 90.643C226.862 91.105 227.042 91.7723 227.042 92.645V96H225.986V92.425C225.986 91.9703 225.857 91.6073 225.601 91.336C225.344 91.0573 224.992 90.918 224.545 90.918C224.083 90.918 223.709 91.061 223.423 91.347C223.137 91.633 222.994 92.0143 222.994 92.491V96H221.938ZM231.512 96.066C231.072 96.066 230.691 96.0037 230.368 95.879C230.053 95.7543 229.807 95.5417 229.631 95.241C229.462 94.933 229.378 94.5187 229.378 93.998V88.344H230.39V94.13C230.39 94.4453 230.474 94.691 230.643 94.867C230.819 95.0357 231.065 95.12 231.38 95.12H232.414V96.066H231.512ZM228.366 90.918V90.126H232.414V90.918H228.366ZM234.158 96V90.126H234.994V92.546H234.95C234.95 91.688 235.137 91.061 235.511 90.665C235.892 90.2617 236.46 90.06 237.216 90.06H237.414V91.006H237.04C236.453 91.006 236.002 91.1637 235.687 91.479C235.371 91.787 235.214 92.2343 235.214 92.821V96H234.158ZM239.205 96V90.126H240.261V96H239.205ZM238.303 90.962V90.126H240.261V90.962H238.303ZM239.502 89.18C239.268 89.18 239.092 89.1177 238.974 88.993C238.864 88.8683 238.809 88.7107 238.809 88.52C238.809 88.3293 238.864 88.1717 238.974 88.047C239.092 87.9223 239.268 87.86 239.502 87.86C239.737 87.86 239.909 87.9223 240.019 88.047C240.137 88.1717 240.195 88.3293 240.195 88.52C240.195 88.7107 240.137 88.8683 240.019 88.993C239.909 89.1177 239.737 89.18 239.502 89.18ZM245.05 96.198C244.537 96.198 244.093 96.11 243.719 95.934C243.345 95.758 243.041 95.527 242.806 95.241C242.571 94.9477 242.395 94.6213 242.278 94.262C242.168 93.9027 242.113 93.536 242.113 93.162V92.964C242.113 92.5827 242.168 92.2123 242.278 91.853C242.395 91.4937 242.571 91.171 242.806 90.885C243.041 90.5917 243.338 90.3607 243.697 90.192C244.064 90.016 244.493 89.928 244.984 89.928C245.622 89.928 246.146 90.0673 246.557 90.346C246.975 90.6173 247.283 90.9693 247.481 91.402C247.686 91.8347 247.789 92.2967 247.789 92.788V93.261H242.575V92.469H247.019L246.777 92.898C246.777 92.48 246.711 92.1207 246.579 91.82C246.447 91.512 246.249 91.2737 245.985 91.105C245.721 90.9363 245.387 90.852 244.984 90.852C244.566 90.852 244.218 90.9473 243.939 91.138C243.668 91.3287 243.462 91.589 243.323 91.919C243.191 92.249 243.125 92.6303 243.125 93.063C243.125 93.481 243.191 93.8587 243.323 94.196C243.462 94.526 243.675 94.79 243.961 94.988C244.247 95.1787 244.61 95.274 245.05 95.274C245.512 95.274 245.886 95.1713 246.172 94.966C246.465 94.7607 246.641 94.5223 246.7 94.251H247.69C247.609 94.6543 247.448 95.0027 247.206 95.296C246.964 95.5893 246.66 95.813 246.293 95.967C245.926 96.121 245.512 96.198 245.05 96.198ZM251.463 96.176C250.693 96.176 250.096 96.011 249.67 95.681C249.252 95.351 249.036 94.9 249.021 94.328H250.011C250.026 94.5553 250.14 94.7717 250.352 94.977C250.572 95.175 250.943 95.274 251.463 95.274C251.933 95.274 252.292 95.1823 252.541 94.999C252.791 94.8083 252.915 94.5773 252.915 94.306C252.915 94.064 252.824 93.877 252.64 93.745C252.457 93.6057 252.16 93.514 251.749 93.47L251.111 93.404C250.554 93.3453 250.099 93.1803 249.747 92.909C249.395 92.6303 249.219 92.2417 249.219 91.743C249.219 91.369 249.315 91.05 249.505 90.786C249.696 90.5147 249.96 90.3093 250.297 90.17C250.635 90.0233 251.023 89.95 251.463 89.95C252.123 89.95 252.659 90.0967 253.069 90.39C253.48 90.6833 253.693 91.1197 253.707 91.699H252.717C252.71 91.4643 252.6 91.2663 252.387 91.105C252.182 90.9363 251.874 90.852 251.463 90.852C251.053 90.852 250.741 90.9363 250.528 91.105C250.316 91.2737 250.209 91.4863 250.209 91.743C250.209 91.963 250.283 92.139 250.429 92.271C250.583 92.403 250.833 92.4873 251.177 92.524L251.815 92.59C252.446 92.656 252.952 92.832 253.333 93.118C253.715 93.3967 253.905 93.7927 253.905 94.306C253.905 94.6727 253.799 94.999 253.586 95.285C253.381 95.5637 253.095 95.7837 252.728 95.945C252.362 96.099 251.94 96.176 251.463 96.176ZM255.369 96V94.658H256.645V96H255.369Z" fill="#4A4E50"/>
<defs>
<filter id="filter0_d_34_824" x="8" y="20" width="74" height="74" filterUnits="userSpaceOnUse" color-interpolation-filters="sRGB">
<feFlood flood-opacity="0" result="BackgroundImageFix"/>
<feColorMatrix in="SourceAlpha" type="matrix" values="0 0 0 0 0 0 0 0 0 0 0 0 0 0 0 0 0 0 127 0" result="hardAlpha"/>
<feOffset/>
<feGaussianBlur stdDeviation="2.5"/>
<feComposite in2="hardAlpha" operator="out"/>
<feColorMatrix type="matrix" values="0 0 0 0 0.278431 0 0 0 0 0.0196078 0 0 0 0 0.686275 0 0 0 0.08 0"/>
<feBlend mode="normal" in2="BackgroundImageFix" result="effect1_dropShadow_34_824"/>
<feBlend mode="normal" in="SourceGraphic" in2="effect1_dropShadow_34_824" result="shape"/>
</filter>
</defs>
</svg>
