<svg width="38" height="38" viewBox="0 0 38 38" fill="none" xmlns="http://www.w3.org/2000/svg">
<circle cx="19" cy="19" r="18.5" stroke="#D9D9D9"/>
<path d="M9.29289 18.2929C8.90237 18.6834 8.90237 19.3166 9.29289 19.7071L15.6569 26.0711C16.0474 26.4616 16.6805 26.4616 17.0711 26.0711C17.4616 25.6805 17.4616 25.0474 17.0711 24.6569L11.4142 19L17.0711 13.3431C17.4616 12.9526 17.4616 12.3195 17.0711 11.9289C16.6805 11.5384 16.0474 11.5384 15.6569 11.9289L9.29289 18.2929ZM28.5715 20C29.1237 20 29.5715 19.5523 29.5715 19C29.5715 18.4477 29.1237 18 28.5715 18V20ZM10 20H28.5715V18H10V20Z" fill="#202020"/>
</svg>
