<svg width="18" height="17" viewBox="0 0 18 17" fill="none" xmlns="http://www.w3.org/2000/svg">
<path d="M15 7.25C15 5.6587 14.3679 4.13258 13.2426 3.00736C12.1174 1.88214 10.5913 1.25 9 1.25C7.4087 1.25 5.88258 1.88214 4.75736 3.00736C3.63214 4.13258 3 5.6587 3 7.25" stroke="white" stroke-width="1.5" stroke-linecap="round" stroke-linejoin="round"/>
<path d="M15 12.5V12.875C15 13.2728 14.842 13.6544 14.5607 13.9357C14.2794 14.217 13.8978 14.375 13.5 14.375H10.875M1.5 10.5785V9.1715C1.50005 8.83701 1.6119 8.51213 1.81778 8.2485C2.02365 7.98487 2.31174 7.79761 2.63625 7.7165L3.94125 7.3895C4.00756 7.37298 4.07676 7.37179 4.14361 7.386C4.21045 7.40022 4.27318 7.42947 4.32703 7.47154C4.38088 7.51361 4.42445 7.56739 4.45442 7.62881C4.48439 7.69023 4.49998 7.75766 4.5 7.826V11.9232C4.50012 11.9917 4.4846 12.0593 4.45464 12.1209C4.42468 12.1825 4.38105 12.2364 4.3271 12.2786C4.27314 12.3208 4.21026 12.3501 4.14327 12.3643C4.07627 12.3784 4.00692 12.3772 3.9405 12.3605L2.6355 12.0342C2.31113 11.953 2.02321 11.7657 1.81748 11.5021C1.61175 11.2384 1.50001 10.9136 1.5 10.5792V10.5785ZM16.5 10.5785V9.1715C16.4999 8.83701 16.3881 8.51213 16.1822 8.2485C15.9763 7.98487 15.6883 7.79761 15.3638 7.7165L14.0588 7.3895C13.9924 7.37298 13.9232 7.37179 13.8564 7.386C13.7895 7.40022 13.7268 7.42947 13.673 7.47154C13.6191 7.51361 13.5756 7.56739 13.5456 7.62881C13.5156 7.69023 13.5 7.75766 13.5 7.826V11.9232C13.4999 11.9916 13.5154 12.0592 13.5453 12.1207C13.5753 12.1822 13.6188 12.2361 13.6727 12.2782C13.7265 12.3204 13.7893 12.3497 13.8562 12.364C13.9231 12.3782 13.9924 12.377 14.0588 12.3605L15.3638 12.0342C15.6883 11.9531 15.9763 11.7659 16.1822 11.5023C16.3881 11.2386 16.4999 10.9137 16.5 10.5792V10.5785Z" stroke="white" stroke-width="1.5"/>
<path d="M10.125 15.5H7.875C7.57663 15.5 7.29048 15.3815 7.0795 15.1705C6.86853 14.9595 6.75 14.6734 6.75 14.375C6.75 14.0766 6.86853 13.7905 7.0795 13.5795C7.29048 13.3685 7.57663 13.25 7.875 13.25H10.125C10.4234 13.25 10.7095 13.3685 10.9205 13.5795C11.1315 13.7905 11.25 14.0766 11.25 14.375C11.25 14.6734 11.1315 14.9595 10.9205 15.1705C10.7095 15.3815 10.4234 15.5 10.125 15.5Z" stroke="white" stroke-width="1.5"/>
</svg>
