<svg width="14" height="8" viewBox="0 0 14 8" fill="none" xmlns="http://www.w3.org/2000/svg">
<path d="M6.33337 7.33335H3.66671C2.74448 7.33335 1.95849 7.00824 1.30871 6.35802C0.658485 5.70824 0.333374 4.92224 0.333374 4.00002C0.333374 3.0778 0.658485 2.29158 1.30871 1.64135C1.95849 0.991576 2.74448 0.666687 3.66671 0.666687H6.33337V2.00002H3.66671C3.11115 2.00002 2.63893 2.19446 2.25004 2.58335C1.86115 2.97224 1.66671 3.44446 1.66671 4.00002C1.66671 4.55558 1.86115 5.0278 2.25004 5.41669C2.63893 5.80558 3.11115 6.00002 3.66671 6.00002H6.33337V7.33335ZM4.33337 4.66669V3.33335H9.66671V4.66669H4.33337ZM7.66671 7.33335V6.00002H10.3334C10.8889 6.00002 11.3612 5.80558 11.75 5.41669C12.1389 5.0278 12.3334 4.55558 12.3334 4.00002C12.3334 3.44446 12.1389 2.97224 11.75 2.58335C11.3612 2.19446 10.8889 2.00002 10.3334 2.00002H7.66671V0.666687H10.3334C11.2556 0.666687 12.0418 0.991576 12.692 1.64135C13.3418 2.29158 13.6667 3.0778 13.6667 4.00002C13.6667 4.92224 13.3418 5.70824 12.692 6.35802C12.0418 7.00824 11.2556 7.33335 10.3334 7.33335H7.66671Z" fill="white"/>
</svg>
