<svg width="167" height="64" viewBox="0 0 167 64" fill="none" xmlns="http://www.w3.org/2000/svg">
<path fill-rule="evenodd" clip-rule="evenodd" d="M24.7089 13.9312C28.1481 13.9312 31.4285 14.6532 34.4106 15.9542C35.9305 14.34 36.864 12.1539 36.864 9.74705C36.864 9.65488 36.862 9.5627 36.8594 9.47114H43.7482C43.7462 13.278 42.406 16.7671 40.178 19.4823C41.3597 20.4488 42.4524 21.523 43.4418 22.6895C46.3408 25.5397 48.1429 29.5291 48.1429 33.9454C48.1429 42.6074 41.2125 49.6292 32.6628 49.6292C24.1134 49.6292 17.1831 42.6074 17.1831 33.9454C17.1831 31.0661 17.949 28.3681 19.2848 26.0492C20.5057 23.9311 22.1084 22.2058 23.9863 20.9214C14.5138 21.3088 6.88317 29.2773 6.88317 38.9658V38.9661C6.88317 48.8991 14.9046 57.0261 24.7086 57.0261H33.6214H42.5344H49.4176V64H24.7089C11.1186 64 0 52.735 0 38.9658C0 25.1962 11.1186 13.9312 24.7089 13.9312ZM40.3038 0C38.4091 0 36.8594 1.57017 36.8594 3.48981C36.8594 5.40945 38.4091 6.97962 40.3038 6.97962C42.1985 6.97962 43.7482 5.40945 43.7482 3.48981C43.7482 1.57017 42.1985 0 40.3038 0ZM32.3824 25.2362C37.2846 25.2362 41.2587 29.2627 41.2587 34.2295C41.2587 39.1963 37.2846 43.2227 32.3824 43.2227C27.4803 43.2227 23.5061 39.1963 23.5061 34.2295C23.5061 29.2627 27.4803 25.2362 32.3824 25.2362Z" fill="url(#paint0_linear_34_731)"/>
<path d="M72.1101 54.1307C69.7328 54.1307 67.7062 53.7092 66.0302 52.8661C64.3542 52.0231 62.9872 50.9273 61.9293 49.5784C60.8714 48.2296 60.0929 46.7663 59.5936 45.1887C59.0943 43.611 58.8447 42.0755 58.8447 40.5821V39.7873C58.8447 38.1735 59.1003 36.5658 59.6114 34.964C60.1225 33.3623 60.913 31.911 61.9828 30.6104C63.0526 29.3097 64.4077 28.268 66.048 27.4852C67.6883 26.7024 69.6496 26.311 71.9318 26.311C74.2616 26.311 76.3061 26.7445 78.0653 27.6117C79.8244 28.4788 81.227 29.683 82.2731 31.2246C83.3191 32.7661 83.9491 34.5726 84.1631 36.644H79.0637C78.7784 34.8375 77.988 33.4586 76.6923 32.5073C75.3967 31.5558 73.8099 31.0801 71.9318 31.0801C70.1964 31.0801 68.7402 31.4715 67.5635 32.2543C66.3868 33.0371 65.4953 34.115 64.889 35.4879C64.2829 36.8608 63.9797 38.4385 63.9797 40.2209C63.9797 41.9551 64.2888 43.5087 64.9069 44.8816C65.5249 46.2545 66.4403 47.3444 67.6527 48.1513C68.865 48.9582 70.3509 49.3616 72.1101 49.3616C74.0595 49.3616 75.7058 48.8739 77.049 47.8983C78.3921 46.9229 79.2064 45.556 79.4916 43.7977H84.591C84.3532 45.7005 83.7173 47.4347 82.6832 49.0004C81.649 50.5659 80.2464 51.8124 78.4753 52.7397C76.7042 53.6671 74.5825 54.1307 72.1101 54.1307ZM93.3221 53.9501C91.1824 53.9501 89.4767 53.3961 88.2049 52.2881C86.9331 51.1802 86.2971 49.6266 86.2971 47.6274C86.2971 45.4837 87.0638 43.9001 88.5971 42.8764C90.1305 41.8527 92.1928 41.3408 94.7841 41.3408H98.7422V41.1603C98.7422 38.9202 97.625 37.8002 95.3903 37.8002C94.796 37.8002 94.0828 37.8122 93.2507 37.8363C92.4187 37.8604 91.5807 37.8905 90.7367 37.9266C89.8928 37.9627 89.1379 38.0049 88.4723 38.0531V33.7898C89.2806 33.7175 90.2493 33.6574 91.3786 33.6092C92.5078 33.561 93.5478 33.5368 94.4988 33.5368C97.4705 33.5368 99.7111 34.145 101.221 35.3614C102.73 36.5778 103.485 38.5469 103.485 41.2686V53.4443H99.5624V49.6868C98.6829 52.5289 96.6027 53.9501 93.3221 53.9501ZM94.7128 50.3733C95.3784 50.3733 96.0084 50.2468 96.6027 49.9939C97.197 49.7409 97.6903 49.3075 98.0826 48.6932C98.4749 48.079 98.6948 47.2421 98.7422 46.1822V44.3396H94.7128C93.5717 44.3396 92.698 44.6227 92.0918 45.1887C91.4856 45.7547 91.1824 46.4833 91.1824 47.3745C91.1824 48.2898 91.4856 49.0184 92.0918 49.5604C92.698 50.1023 93.5717 50.3733 94.7128 50.3733ZM108.151 53.4443V33.826H112.073V40.2209C112.596 35.789 114.902 33.5731 118.991 33.5731H119.705V37.9447H118.349C116.662 37.9447 115.366 38.4023 114.463 39.3177C113.559 40.2329 113.108 41.5336 113.108 43.2197V53.4443H108.151ZM130.254 54.0946C128.448 54.0946 126.843 53.655 125.44 52.7759C124.038 51.8967 122.938 50.6984 122.142 49.1809C121.345 47.6636 120.947 45.9534 120.947 44.0506V43.2919C120.947 41.4132 121.328 39.715 122.088 38.1976C122.849 36.6801 123.913 35.4698 125.28 34.5665C126.647 33.6634 128.257 33.2117 130.112 33.2117C131.491 33.2117 132.733 33.4947 133.838 34.0607C134.944 34.6268 135.853 35.4758 136.566 36.6079V27.0697H141.523V53.4443H137.6V49.3255C136.935 50.9152 135.954 52.1074 134.658 52.9024C133.363 53.6972 131.895 54.0946 130.254 54.0946ZM131.36 49.8674C132.335 49.8674 133.226 49.6447 134.034 49.199C134.843 48.7534 135.49 48.1091 135.978 47.2661C136.465 46.4231 136.709 45.4114 136.709 44.2312V42.7861C136.709 41.654 136.453 40.6906 135.942 39.8957C135.431 39.1009 134.771 38.4927 133.963 38.0712C133.155 37.6497 132.287 37.4388 131.36 37.4388C129.743 37.4388 128.43 38.0109 127.419 39.155C126.409 40.2992 125.904 41.8105 125.904 43.6893C125.904 45.568 126.415 47.0674 127.437 48.1875C128.459 49.3075 129.767 49.8674 131.36 49.8674ZM146.51 53.4443V33.826H150.432V40.2209C150.955 35.789 153.261 33.5731 157.35 33.5731H158.063V37.9447H156.708C155.02 37.9447 153.725 38.4023 152.821 39.3177C151.918 40.2329 151.466 41.5336 151.466 43.2197V53.4443H146.51ZM163.478 31.4776C162.503 31.4776 161.784 31.2186 161.321 30.7008C160.857 30.1829 160.625 29.5265 160.625 28.7317C160.625 27.9368 160.857 27.2865 161.321 26.7807C161.784 26.2749 162.503 26.022 163.478 26.022C164.429 26.022 165.136 26.2749 165.6 26.7807C166.063 27.2865 166.295 27.9368 166.295 28.7317C166.295 29.5265 166.063 30.1829 165.6 30.7008C165.136 31.2186 164.429 31.4776 163.478 31.4776ZM161.659 53.4443V37.5834H158.949V33.826H166.616V53.4443H161.659Z" fill="#1F1F1F"/>
<defs>
<linearGradient id="paint0_linear_34_731" x1="5.11502" y1="32.7312" x2="58.5272" y2="33.6805" gradientUnits="userSpaceOnUse">
<stop stop-color="#4705AF"/>
<stop offset="1" stop-color="#A382D7"/>
</linearGradient>
</defs>
</svg>
