<svg width="60" height="31" viewBox="0 0 60 31" fill="none" xmlns="http://www.w3.org/2000/svg">
<g clip-path="url(#clip0_662_1382)">
<path fill-rule="evenodd" clip-rule="evenodd" d="M20.8965 27.4672H36.6492V3.39062H20.8965V27.4672Z" fill="#FF5F00"/>
<path fill-rule="evenodd" clip-rule="evenodd" d="M20.8908 15.1348C20.8908 10.3442 23.4264 6.07753 27.3749 3.32804C24.487 1.31693 20.8436 0.117188 16.8834 0.117188C7.50805 0.117188 -0.0917969 6.84092 -0.0917969 15.1348C-0.0917969 23.4287 7.50805 30.1525 16.8834 30.1525C20.8436 30.1525 24.487 28.9527 27.3749 26.9416C23.4264 24.1917 20.8908 19.9255 20.8908 15.1348Z" fill="#EB001B"/>
<path fill-rule="evenodd" clip-rule="evenodd" d="M54.3116 24.4408V23.858H54.1395L53.9419 24.2589L53.7439 23.858H53.5717V24.4408H53.6929V24.0011L53.8787 24.3803H54.0046L54.1904 24.0003V24.4408H54.3116ZM53.2218 24.4408V23.9573H53.4425V23.8588H52.8813V23.9573H53.1016V24.4408H53.2218ZM54.8417 15.1348C54.8417 23.4287 47.2414 30.1525 37.8665 30.1525C33.9063 30.1525 30.2624 28.9527 27.375 26.9416C31.3235 24.1921 33.8591 19.9255 33.8591 15.1348C33.8591 10.3446 31.3235 6.07794 27.375 3.32804C30.2624 1.31693 33.9063 0.117188 37.8665 0.117188C47.2414 0.117188 54.8417 6.84092 54.8417 15.1348Z" fill="#F79E1B"/>
</g>
<defs>
<clipPath id="clip0_662_1382">
<rect width="58.8571" height="30.6684" fill="white" transform="translate(0.955078 0.117188)"/>
</clipPath>
</defs>
</svg>
