<svg width="74" height="74" viewBox="0 0 74 74" fill="none" xmlns="http://www.w3.org/2000/svg">
<rect width="74" height="74" rx="10" fill="#F2EEFF"/>
<path d="M37 15.667C39.829 15.667 42.5421 16.7908 44.5425 18.7912C46.5429 20.7916 47.6667 23.5047 47.6667 26.3337C47.6667 29.1626 46.5429 31.8757 44.5425 33.8761C42.5421 35.8765 39.829 37.0003 37 37.0003C34.171 37.0003 31.4579 35.8765 29.4575 33.8761C27.4571 31.8757 26.3333 29.1626 26.3333 26.3337C26.3333 23.5047 27.4571 20.7916 29.4575 18.7912C31.4579 16.7908 34.171 15.667 37 15.667ZM37 42.3337C48.7867 42.3337 58.3333 47.107 58.3333 53.0003V58.3337H15.6667V53.0003C15.6667 47.107 25.2133 42.3337 37 42.3337Z" fill="#9292A0"/>
</svg>
