<svg width="250" height="242" viewBox="0 0 250 242" fill="none" xmlns="http://www.w3.org/2000/svg">
<g clip-path="url(#clip0_39_797)">
<g filter="url(#filter0_d_39_797)">
<mask id="mask0_39_797" style="mask-type:luminance" maskUnits="userSpaceOnUse" x="78" y="12" width="94" height="209">
<path d="M160.298 12H90.2174C83.9262 12 78.8262 17.1 78.8262 23.3912V209.118C78.8262 215.409 83.9262 220.509 90.2174 220.509H160.298C166.59 220.509 171.69 215.409 171.69 209.118V23.3912C171.69 17.1 166.59 12 160.298 12Z" fill="white"/>
</mask>
<g mask="url(#mask0_39_797)">
<path d="M160.298 12H90.2174C83.9262 12 78.8262 17.1 78.8262 23.3912V209.118C78.8262 215.409 83.9262 220.509 90.2174 220.509H160.298C166.59 220.509 171.69 215.409 171.69 209.118V23.3912C171.69 17.1 166.59 12 160.298 12Z" fill="white"/>
<mask id="mask1_39_797" style="mask-type:luminance" maskUnits="userSpaceOnUse" x="78" y="12" width="94" height="11">
<path d="M171.69 12H78.8262V22.896H171.69V12Z" fill="white"/>
</mask>
<g mask="url(#mask1_39_797)">
<path d="M171.69 12H78.8262V22.896H171.69V12Z" fill="white"/>
<path opacity="0.35" d="M162.692 16.4141H166.819C167.115 16.4141 167.355 16.6544 167.355 16.9507V18.4365C167.355 18.7328 167.115 18.973 166.819 18.973H162.692C162.395 18.973 162.155 18.7328 162.155 18.4365V16.9507C162.155 16.6544 162.395 16.4141 162.692 16.4141Z" stroke="#706E6E" stroke-width="0.247636"/>
<path opacity="0.4" d="M167.727 17.1992V18.1898C167.926 18.1059 168.055 17.9107 168.055 17.6945C168.055 17.4783 167.926 17.2831 167.727 17.1992Z" fill="#706E6E"/>
<path d="M162.527 17.1154C162.527 16.9331 162.675 16.7852 162.858 16.7852H166.655C166.837 16.7852 166.985 16.9331 166.985 17.1154V18.271C166.985 18.4534 166.837 18.6012 166.655 18.6012H162.858C162.675 18.6012 162.527 18.4534 162.527 18.271V17.1154Z" fill="#706E6E"/>
<path fill-rule="evenodd" clip-rule="evenodd" d="M158.893 16.855C159.442 16.855 159.97 17.0658 160.367 17.4439C160.397 17.4731 160.445 17.4727 160.475 17.4431L160.761 17.1542C160.776 17.1392 160.784 17.1188 160.784 17.0976C160.784 17.0764 160.775 17.0561 160.76 17.0413C159.716 16.0409 158.07 16.0409 157.026 17.0413C157.011 17.0561 157.002 17.0764 157.002 17.0976C157.002 17.1188 157.01 17.1391 157.025 17.1542L157.311 17.4431C157.341 17.4728 157.389 17.4732 157.419 17.4439C157.816 17.0658 158.344 16.855 158.893 16.855ZM158.893 17.7949C159.195 17.7949 159.485 17.9069 159.709 18.1093C159.739 18.138 159.787 18.1374 159.816 18.1079L160.102 17.819C160.117 17.8038 160.126 17.7833 160.125 17.7619C160.125 17.7405 160.116 17.7202 160.101 17.7053C159.42 17.0723 158.367 17.0723 157.686 17.7053C157.671 17.7202 157.662 17.7406 157.662 17.7619C157.661 17.7833 157.67 17.8039 157.685 17.819L157.971 18.1079C158 18.1374 158.048 18.138 158.078 18.1093C158.301 17.9071 158.592 17.795 158.893 17.7949ZM159.466 18.4272C159.466 18.4487 159.458 18.4693 159.443 18.4843L158.948 18.9835C158.934 18.9981 158.914 19.0064 158.893 19.0064C158.873 19.0064 158.853 18.9981 158.838 18.9835L158.344 18.4843C158.328 18.4693 158.32 18.4486 158.32 18.4272C158.321 18.4058 158.33 18.3855 158.346 18.3712C158.662 18.104 159.125 18.104 159.44 18.3712C159.456 18.3855 159.466 18.4058 159.466 18.4272Z" fill="#706E6E"/>
<path fill-rule="evenodd" clip-rule="evenodd" d="M155.509 16.373H155.261C155.125 16.373 155.014 16.4839 155.014 16.6207V18.7668C155.014 18.9036 155.125 19.0145 155.261 19.0145H155.509C155.646 19.0145 155.757 18.9036 155.757 18.7668V16.6207C155.757 16.4839 155.646 16.373 155.509 16.373ZM154.106 16.9508H154.354C154.49 16.9508 154.601 17.0616 154.601 17.1984V18.7668C154.601 18.9035 154.49 19.0144 154.354 19.0144H154.106C153.969 19.0144 153.858 18.9035 153.858 18.7668V17.1984C153.858 17.0616 153.969 16.9508 154.106 16.9508ZM153.198 17.5287H152.95C152.813 17.5287 152.702 17.6396 152.702 17.7764V18.7669C152.702 18.9037 152.813 19.0146 152.95 19.0146H153.198C153.334 19.0146 153.445 18.9037 153.445 18.7669V17.7764C153.445 17.6396 153.334 17.5287 153.198 17.5287ZM152.042 18.024H151.795C151.658 18.024 151.547 18.1349 151.547 18.2716V18.7669C151.547 18.9037 151.658 19.0146 151.795 19.0146H152.042C152.179 19.0146 152.29 18.9037 152.29 18.7669V18.2716C152.29 18.1349 152.179 18.024 152.042 18.024Z" fill="#706E6E"/>
<path d="M88.067 18.998C88.7327 18.998 89.1281 18.4774 89.1281 17.596C89.1281 17.264 89.0646 16.9847 88.9431 16.7689C88.7671 16.4334 88.4642 16.252 88.0815 16.252C87.512 16.252 87.1094 16.6347 87.1094 17.1715C87.1094 17.6758 87.4721 18.0421 87.9709 18.0421C88.2774 18.0421 88.5259 17.8989 88.6492 17.6504H88.6547H88.6637C88.6674 17.6504 88.6801 17.6504 88.6801 17.6504C88.6801 18.2489 88.4534 18.6062 88.0707 18.6062C87.8458 18.6062 87.6716 18.4829 87.6118 18.2852H87.1456C87.2236 18.715 87.5882 18.998 88.067 18.998ZM88.0834 17.6703C87.7823 17.6703 87.5683 17.4563 87.5683 17.157C87.5683 16.865 87.7932 16.6419 88.0852 16.6419C88.3772 16.6419 88.6021 16.8686 88.6021 17.1643C88.6021 17.4563 88.3826 17.6703 88.0834 17.6703Z" fill="#706E6E"/>
<path d="M89.8937 18.9707C90.066 18.9707 90.1839 18.8474 90.1839 18.6841C90.1839 18.5191 90.066 18.3975 89.8937 18.3975C89.7232 18.3975 89.6035 18.5191 89.6035 18.6841C89.6035 18.8474 89.7232 18.9707 89.8937 18.9707ZM89.8937 17.6104C90.066 17.6104 90.1839 17.4889 90.1839 17.3256C90.1839 17.1606 90.066 17.0391 89.8937 17.0391C89.7232 17.0391 89.6035 17.1606 89.6035 17.3256C89.6035 17.4889 89.7232 17.6104 89.8937 17.6104Z" fill="#706E6E"/>
<path d="M91.8812 18.9336H92.3292V18.4457H92.6828V18.0503H92.3292V16.3164H91.669C91.2065 17.0128 90.8383 17.5951 90.6025 18.0285V18.4457H91.8812V18.9336ZM91.036 18.034C91.3407 17.4971 91.6127 17.0673 91.863 16.6973H91.8884V18.0612H91.036V18.034Z" fill="#706E6E"/>
<path d="M93.681 18.9336H94.1489V16.3164H93.6828L92.999 16.7952V17.245L93.6501 16.7879H93.681V18.9336Z" fill="#706E6E"/>
</g>
</g>
<path d="M160.298 10.0195H90.217C82.8317 10.0195 76.8447 16.0065 76.8447 23.3918V209.119C76.8447 216.505 82.8317 222.492 90.217 222.492H160.298C167.683 222.492 173.67 216.505 173.67 209.119V23.3918C173.67 16.0065 167.683 10.0195 160.298 10.0195Z" stroke="#4705AF" stroke-width="3.96217"/>
</g>
<path d="M136.046 234.277C135.846 234.286 135.648 234.234 135.479 234.127C135.31 234.02 135.178 233.864 135.101 233.68C135.024 233.496 135.005 233.292 135.048 233.097C135.09 232.902 135.192 232.725 135.339 232.589L135.406 232.324C135.397 232.303 135.388 232.281 135.379 232.26C135.178 231.786 134.84 231.381 134.409 231.097C133.978 230.813 133.473 230.663 132.956 230.664C132.44 230.666 131.935 230.821 131.507 231.108C131.078 231.395 130.743 231.802 130.545 232.278C129.755 234.179 128.748 236.082 128.501 238.092C128.391 238.98 128.438 239.88 128.637 240.753C126.78 236.71 125.816 232.316 125.81 227.869C125.809 226.753 125.871 225.638 125.996 224.529C126.098 223.619 126.241 222.717 126.423 221.82C127.419 216.957 129.555 212.399 132.658 208.521C134.16 207.703 135.374 206.445 136.138 204.917C136.414 204.368 136.61 203.782 136.718 203.176C136.549 203.199 136.079 200.624 136.207 200.466C135.971 200.108 135.549 199.93 135.291 199.581C134.008 197.846 132.242 198.149 131.319 200.507C129.349 201.5 129.33 203.146 130.539 204.729C131.308 205.736 131.414 207.099 132.089 208.177C132.019 208.266 131.947 208.352 131.878 208.44C130.608 210.069 129.502 211.818 128.575 213.663C128.801 211.597 128.531 209.506 127.79 207.564C127.038 205.754 125.629 204.23 124.388 202.665C122.898 200.786 119.842 201.606 119.58 203.989C119.577 204.012 119.575 204.035 119.572 204.058C119.756 204.162 119.937 204.272 120.113 204.388C120.335 204.536 120.507 204.747 120.606 204.994C120.706 205.241 120.728 205.513 120.67 205.773C120.613 206.032 120.478 206.269 120.283 206.451C120.088 206.633 119.843 206.752 119.58 206.792L119.553 206.797C119.618 207.46 119.734 208.117 119.9 208.762C118.308 214.906 121.745 217.143 126.651 217.244C126.759 217.299 126.865 217.355 126.973 217.408C126.042 220.043 125.457 222.788 125.235 225.574C125.109 227.217 125.116 228.868 125.257 230.51L125.249 230.452C124.893 228.626 123.917 226.978 122.485 225.787C120.359 224.043 117.355 223.401 115.061 222C114.817 221.844 114.533 221.76 114.244 221.76C113.954 221.759 113.67 221.841 113.425 221.996C113.181 222.151 112.986 222.373 112.863 222.635C112.741 222.897 112.696 223.188 112.734 223.475C112.737 223.495 112.74 223.516 112.743 223.536C113.085 223.675 113.418 223.835 113.74 224.016C113.925 224.12 114.105 224.23 114.281 224.346C114.503 224.494 114.675 224.705 114.774 224.952C114.874 225.199 114.896 225.47 114.838 225.73C114.781 225.99 114.646 226.227 114.451 226.409C114.256 226.591 114.011 226.71 113.748 226.75L113.721 226.754C113.701 226.757 113.685 226.76 113.665 226.763C114.25 228.155 115.07 229.437 116.09 230.552C117.085 235.915 121.359 236.424 125.932 234.862H125.935C126.436 237.038 127.163 239.156 128.104 241.182H135.852C135.879 241.096 135.904 241.008 135.929 240.922C135.212 240.967 134.492 240.924 133.785 240.794C134.36 240.09 134.935 239.38 135.51 238.676C135.523 238.663 135.535 238.649 135.546 238.635C135.838 238.274 136.132 237.917 136.424 237.557C136.439 236.453 136.312 235.35 136.046 234.277Z" fill="#05BA83"/>
<path d="M124.566 111.992C115.836 111.992 107.302 109.409 100.043 104.567C92.7843 99.7263 87.1267 92.8454 83.7858 84.7949C80.4449 76.7444 79.5708 67.8859 81.2739 59.3395C82.9771 50.7931 87.1811 42.9428 93.3543 36.7812C99.5274 30.6196 107.392 26.4235 115.955 24.7235C124.517 23.0235 133.392 23.896 141.458 27.2306C149.524 30.5653 156.418 36.2123 161.268 43.4575C166.118 50.7028 168.707 59.2209 168.707 67.9347C168.694 79.6155 164.039 90.8141 155.764 99.0737C147.489 107.333 136.269 111.979 124.566 111.992ZM124.566 24.5708C115.974 24.5708 107.574 27.114 100.429 31.8789C93.2848 36.6438 87.7163 43.4163 84.428 51.3401C81.1397 59.2638 80.2794 67.9828 81.9557 76.3946C83.6321 84.8064 87.7698 92.5331 93.8458 98.5977C99.9217 104.662 107.663 108.792 116.091 110.465C124.518 112.139 133.254 111.28 141.192 107.998C149.131 104.716 155.916 99.1576 160.69 92.0264C165.464 84.8953 168.012 76.5113 168.012 67.9347C167.999 56.4379 163.417 45.4156 155.272 37.2861C147.128 29.1566 136.085 24.5838 124.566 24.5708Z" fill="#F2F2F2"/>
<path d="M129.409 83.8929H120.025C119.564 83.8929 119.122 83.7102 118.796 83.3849C118.47 83.0596 118.287 82.6184 118.287 82.1584C118.287 81.6983 118.47 81.2571 118.796 80.9318C119.122 80.6066 119.564 80.4238 120.025 80.4238H129.409C129.87 80.4238 130.312 80.6066 130.638 80.9318C130.964 81.2571 131.147 81.6983 131.147 82.1584C131.147 82.6184 130.964 83.0596 130.638 83.3849C130.312 83.7102 129.87 83.8929 129.409 83.8929Z" fill="white"/>
<path d="M131.566 134.237H117.87C117.198 134.237 116.552 133.97 116.077 133.495C115.601 133.021 115.334 132.377 115.334 131.705C115.334 131.034 115.601 130.39 116.077 129.915C116.552 129.441 117.198 129.174 117.87 129.174H131.566C132.239 129.174 132.884 129.441 133.36 129.915C133.835 130.39 134.102 131.034 134.102 131.705C134.102 132.377 133.835 133.021 133.36 133.495C132.884 133.97 132.239 134.237 131.566 134.237Z" fill="#4705AF"/>
<path d="M170.495 123.623H78.9384C78.1226 123.622 77.3405 123.299 76.7636 122.723C76.1868 122.147 75.8623 121.366 75.8613 120.552V93.3076C75.8623 92.4933 76.1868 91.7127 76.7636 91.1369C77.3405 90.5611 78.1226 90.2372 78.9384 90.2363H170.495C171.311 90.2372 172.093 90.5611 172.67 91.1369C173.247 91.7127 173.571 92.4933 173.572 93.3076V120.552C173.571 121.366 173.247 122.147 172.67 122.723C172.093 123.299 171.311 123.622 170.495 123.623Z" fill="white"/>
<path d="M161.599 121.553H81.0145C80.1987 121.552 79.4166 121.228 78.8398 120.652C78.2629 120.076 77.9384 119.296 77.9375 118.481V95.3818C77.9384 94.5675 78.2629 93.7869 78.8398 93.2111C79.4166 92.6354 80.1987 92.3115 81.0145 92.3105H168.42C169.236 92.3115 170.018 92.6354 170.594 93.2111C171.171 93.7869 171.496 94.5675 171.497 95.3818V111.674C171.494 114.293 170.45 116.804 168.595 118.656C166.739 120.508 164.223 121.55 161.599 121.553Z" fill="white"/>
<path d="M133.803 100.528H97.0045C96.794 100.528 96.5922 100.444 96.4434 100.296C96.2945 100.147 96.2109 99.9455 96.2109 99.7354C96.2109 99.5254 96.2945 99.3239 96.4434 99.1754C96.5922 99.0268 96.794 98.9434 97.0045 98.9434H133.803C134.014 98.9434 134.216 99.0268 134.364 99.1754C134.513 99.3239 134.597 99.5254 134.597 99.7354C134.597 99.9455 134.513 100.147 134.364 100.296C134.216 100.444 134.014 100.528 133.803 100.528Z" fill="#4705AF"/>
<path d="M152.432 103.768H97.0045C96.794 103.768 96.5922 103.684 96.4434 103.536C96.2945 103.387 96.2109 103.186 96.2109 102.976C96.2109 102.766 96.2945 102.564 96.4434 102.416C96.5922 102.267 96.794 102.184 97.0045 102.184H152.432C152.642 102.184 152.844 102.267 152.993 102.416C153.141 102.564 153.225 102.766 153.225 102.976C153.225 103.186 153.141 103.387 152.993 103.536C152.844 103.684 152.642 103.768 152.432 103.768Z" fill="white"/>
<path d="M152.431 107.485H97.0042C96.8999 107.485 96.7965 107.464 96.7 107.425C96.6036 107.385 96.5159 107.327 96.442 107.253C96.3681 107.18 96.3095 107.092 96.2695 106.996C96.2296 106.9 96.209 106.797 96.209 106.692C96.209 106.588 96.2296 106.485 96.2695 106.389C96.3095 106.293 96.3681 106.205 96.442 106.132C96.5159 106.058 96.6036 106 96.7 105.96C96.7965 105.92 96.8999 105.9 97.0042 105.9H152.431C152.641 105.901 152.843 105.984 152.991 106.133C153.14 106.281 153.223 106.483 153.223 106.692C153.223 106.902 153.14 107.103 152.991 107.252C152.843 107.4 152.641 107.484 152.431 107.485Z" fill="white"/>
<path d="M152.431 111.203H97.0042C96.8999 111.204 96.7965 111.183 96.7 111.143C96.6036 111.104 96.5159 111.045 96.442 110.972C96.3681 110.898 96.3095 110.811 96.2695 110.715C96.2296 110.619 96.209 110.515 96.209 110.411C96.209 110.307 96.2296 110.204 96.2695 110.108C96.3095 110.012 96.3681 109.924 96.442 109.851C96.5159 109.777 96.6036 109.719 96.7 109.679C96.7965 109.639 96.8999 109.619 97.0042 109.619H152.431C152.641 109.62 152.843 109.703 152.991 109.852C153.14 110 153.223 110.201 153.223 110.411C153.223 110.621 153.14 110.822 152.991 110.971C152.843 111.119 152.641 111.203 152.431 111.203Z" fill="white"/>
<path d="M152.431 114.924H97.0042C96.8999 114.924 96.7965 114.904 96.7 114.864C96.6036 114.824 96.5159 114.766 96.442 114.693C96.3681 114.619 96.3095 114.532 96.2695 114.435C96.2296 114.339 96.209 114.236 96.209 114.132C96.209 114.028 96.2296 113.925 96.2695 113.828C96.3095 113.732 96.3681 113.645 96.442 113.571C96.5159 113.498 96.6036 113.439 96.7 113.4C96.7965 113.36 96.8999 113.34 97.0042 113.34H152.431C152.641 113.34 152.843 113.424 152.991 113.572C153.14 113.721 153.223 113.922 153.223 114.132C153.223 114.342 153.14 114.543 152.991 114.691C152.843 114.84 152.641 114.924 152.431 114.924Z" fill="white"/>
<path d="M159.482 164.265H88.0329C87.3096 164.264 86.6161 163.977 86.1047 163.467C85.5932 162.956 85.3055 162.264 85.3047 161.542V141.061C85.3055 140.339 85.5932 139.647 86.1047 139.136C86.6161 138.626 87.3096 138.339 88.0329 138.338H165.53C166.253 138.339 166.946 138.626 167.458 139.136C167.969 139.647 168.257 140.339 168.258 141.061V155.506C168.255 157.828 167.33 160.055 165.685 161.697C164.039 163.339 161.809 164.262 159.482 164.265Z" fill="white"/>
<path d="M134.837 145.623H102.209C102.023 145.623 101.844 145.549 101.712 145.418C101.58 145.286 101.506 145.107 101.506 144.921C101.506 144.735 101.58 144.556 101.712 144.424C101.844 144.293 102.023 144.219 102.209 144.219H134.837C135.023 144.219 135.202 144.293 135.334 144.424C135.466 144.556 135.54 144.735 135.54 144.921C135.54 145.107 135.466 145.286 135.334 145.418C135.202 145.549 135.023 145.623 134.837 145.623Z" fill="#4705AF"/>
<path d="M151.353 148.494H102.209C102.023 148.494 101.844 148.42 101.712 148.289C101.58 148.157 101.506 147.978 101.506 147.792C101.506 147.606 101.58 147.427 101.712 147.296C101.844 147.164 102.023 147.09 102.209 147.09H151.353C151.54 147.09 151.719 147.164 151.851 147.296C151.983 147.427 152.057 147.606 152.057 147.792C152.057 147.978 151.983 148.157 151.851 148.289C151.719 148.42 151.54 148.494 151.353 148.494Z" fill="#E6E6E6"/>
<path d="M151.353 151.791H102.209C102.116 151.792 102.025 151.773 101.939 151.738C101.854 151.703 101.776 151.651 101.711 151.586C101.645 151.521 101.593 151.443 101.558 151.358C101.522 151.273 101.504 151.181 101.504 151.089C101.504 150.997 101.522 150.905 101.558 150.82C101.593 150.735 101.645 150.657 101.711 150.592C101.776 150.527 101.854 150.475 101.939 150.44C102.025 150.405 102.116 150.387 102.209 150.387H151.353C151.539 150.387 151.718 150.461 151.849 150.593C151.981 150.725 152.055 150.903 152.055 151.089C152.055 151.275 151.981 151.453 151.849 151.585C151.718 151.717 151.539 151.791 151.353 151.791Z" fill="#E6E6E6"/>
<path d="M151.353 155.09H102.209C102.116 155.09 102.025 155.072 101.939 155.037C101.854 155.002 101.776 154.95 101.711 154.885C101.645 154.82 101.593 154.742 101.558 154.657C101.522 154.572 101.504 154.48 101.504 154.388C101.504 154.296 101.522 154.204 101.558 154.119C101.593 154.033 101.645 153.956 101.711 153.891C101.776 153.826 101.854 153.774 101.939 153.739C102.025 153.703 102.116 153.685 102.209 153.686H151.353C151.539 153.686 151.718 153.76 151.849 153.892C151.981 154.023 152.055 154.202 152.055 154.388C152.055 154.574 151.981 154.752 151.849 154.884C151.718 155.016 151.539 155.09 151.353 155.09Z" fill="#E6E6E6"/>
<path d="M151.353 158.387H102.209C102.116 158.387 102.025 158.369 101.939 158.334C101.854 158.299 101.776 158.247 101.711 158.182C101.645 158.117 101.593 158.039 101.558 157.954C101.522 157.868 101.504 157.777 101.504 157.685C101.504 157.592 101.522 157.501 101.558 157.416C101.593 157.33 101.645 157.253 101.711 157.188C101.776 157.122 101.854 157.071 101.939 157.035C102.025 157 102.116 156.982 102.209 156.982H151.353C151.539 156.983 151.718 157.057 151.849 157.189C151.981 157.32 152.055 157.499 152.055 157.685C152.055 157.871 151.981 158.049 151.849 158.181C151.718 158.312 151.539 158.387 151.353 158.387Z" fill="#E6E6E6"/>
<path d="M201.131 237.519H197.412L195.643 223.199L201.132 223.2L201.131 237.519Z" fill="#A0616A"/>
<path d="M201.262 241.391H189.824V241.246C189.824 240.068 190.293 238.938 191.128 238.104C191.963 237.271 193.095 236.803 194.276 236.803L196.366 235.221L200.264 236.803H201.262V241.391Z" fill="#2F2E41"/>
<path d="M231.539 232.767L228.207 234.415L220.252 222.368L225.171 219.936L231.539 232.767Z" fill="#A0616A"/>
<path d="M233.379 236.176L223.13 241.244L223.066 241.114C222.542 240.058 222.46 238.838 222.837 237.721C223.215 236.604 224.021 235.683 225.079 235.16L226.248 232.816L230.444 232.507L231.339 232.064L233.379 236.176Z" fill="#2F2E41"/>
<path d="M190.112 160.55C190.112 160.55 185.878 166.441 188.934 176.619C191.99 186.797 190.275 195.896 191.133 197.721C191.99 199.545 193.717 201.278 192.29 202.661C190.863 204.045 190.112 205.17 191.239 205.545C192.366 205.92 196.123 232.167 196.123 232.167L202.509 232.542C202.509 232.542 204.822 220.349 202.351 210.51C202.351 210.51 202.894 203.367 201.762 201.268C200.631 199.17 200.853 201.063 200.929 198.429C200.972 196.525 201.25 194.633 201.758 192.796C202.133 191.296 202.351 176.18 202.351 176.18L208.568 196.24C208.817 196.931 208.911 197.668 208.842 198.4C208.688 199.433 208.687 200.977 208.875 201.517C209.064 202.058 209.274 202.171 209.169 203.239C209.064 204.308 221.576 226.822 221.576 226.822L227.793 222.659L221.668 202.92C221.06 202.247 220.553 201.489 220.165 200.67C219.414 199.17 219.385 199.088 219.775 198.004C220.165 196.921 220.165 194.81 220.165 194.178C220.165 193.546 220.555 164.863 215.665 160.644C210.774 156.425 190.112 160.55 190.112 160.55Z" fill="#2F2E41"/>
<path d="M213.077 114.915L211.804 111.299L208.329 107.83L201.918 107.066L197.744 109.805L193.879 113.609L188.17 160.908C188.17 160.908 215.135 171.285 218.668 162.576L213.077 114.915Z" fill="#CCCCCC"/>
<path d="M215.264 114.916L211.519 111.178C211.519 111.178 209.729 135.07 210.492 136.751C211.254 138.431 212.151 138.002 211.181 138.91C210.211 139.819 209.168 138.917 210.211 140.582C210.826 141.516 211.127 142.62 211.072 143.735C211.072 143.735 216.467 177.632 219.595 177.632C222.723 177.632 224.682 176.718 224.571 175.787C224.461 174.857 222.616 172.539 223.191 171.964C223.766 171.388 225.184 171.823 223.78 170.738C222.376 169.653 221.681 170 222.028 168.612C222.376 167.225 219.719 149.236 219.719 149.236L219.46 119.189L215.264 114.916Z" fill="#3F3D56"/>
<path d="M197.746 109.805L192.895 110.49L187.129 112.687C187.129 112.687 189.763 142.341 189.213 143.334C188.663 144.327 187.686 143.707 188.522 144.711C189.358 145.715 190.11 145.27 189.213 146.186C188.315 147.103 186.805 145.942 187.734 147.563C188.663 149.184 184.186 171.505 185.391 172.702C186.597 173.9 189.703 173.155 189.704 172.271C189.609 171.318 189.249 170.41 188.663 169.652C188.495 169.46 188.402 169.213 188.402 168.958C188.402 168.703 188.495 168.456 188.663 168.264C189.156 167.791 189.494 167.181 189.634 166.514C189.706 165.836 190.237 165.003 190.492 164.378C190.748 163.754 197.193 121.503 197.193 121.503L197.746 109.805Z" fill="#3F3D56"/>
<path d="M177.05 133.154L179.237 132.014C176.506 129.555 169.729 125.531 169.729 125.531L158.049 117.672C157.878 117.27 157.604 116.92 157.254 116.658C156.905 116.395 156.492 116.229 156.058 116.176C155.624 116.124 155.183 116.186 154.781 116.357C154.379 116.528 154.029 116.802 153.766 117.151C153.504 117.5 153.338 117.912 153.285 118.346C153.233 118.779 153.296 119.219 153.468 119.62C153.64 120.022 153.915 120.371 154.265 120.632C154.615 120.894 155.028 121.059 155.462 121.111L168.552 132.816L177.05 133.154Z" fill="#A0616A"/>
<path d="M193.037 124.483L193.061 114.897L187.726 112.35L174.269 126.565L173.226 125.871H170.793L164.885 132.809C164.885 132.809 168.032 134.67 169.586 133.913C171.141 133.156 170.995 134.244 170.995 134.244C171.225 134.533 171.547 134.737 171.908 134.822C172.268 134.906 172.647 134.867 172.983 134.711C174.269 134.197 176.702 135.584 176.702 135.584L193.037 124.483Z" fill="#3F3D56"/>
<path d="M205.826 104.864C210.123 104.864 213.606 101.387 213.606 97.0981C213.606 92.809 210.123 89.332 205.826 89.332C201.528 89.332 198.045 92.809 198.045 97.0981C198.045 101.387 201.528 104.864 205.826 104.864Z" fill="#A0616A"/>
<path d="M215.217 99.071C214.482 100.506 213.496 101.798 212.306 102.886C211.964 103.274 211.528 103.567 211.04 103.738C210.794 103.818 210.528 103.81 210.289 103.714C210.049 103.619 209.85 103.442 209.727 103.215L209.583 103.019C210 102.892 210.394 102.697 210.748 102.444C210.924 102.316 211.067 102.148 211.165 101.954C211.263 101.761 211.313 101.546 211.311 101.329C211.299 101.112 211.202 100.908 211.042 100.761C210.882 100.613 210.671 100.533 210.453 100.538C209.967 100.595 209.533 101.162 209.097 100.943C208.746 100.765 208.796 100.254 208.897 99.8679C209.438 97.8541 209.212 94.7326 208.433 94.6235C207.658 94.4661 206.919 94.1644 206.256 93.7344C205.592 93.3038 204.851 93.0061 204.073 92.858C204.017 92.8506 203.96 92.8466 203.9 92.8418C203.878 92.4265 203.805 92.0155 203.684 91.6176C203.6 92.0378 203.47 92.4477 203.299 92.8406C202.625 92.9322 201.945 92.9666 201.265 92.9432C200.541 92.8593 198.459 94.5438 198.444 94.312C198.422 93.8968 198.349 93.4858 198.228 93.0879C198.143 93.5081 198.014 93.918 197.843 94.3108C197.835 94.3269 197.831 94.3404 197.824 94.3565C197.602 93.8179 197.539 93.2156 197.544 93.6654C197.08 90.8036 198.001 89.0806 200.354 87.3836C200.824 87.0093 201.382 86.7602 201.975 86.6597C202.271 86.6125 202.574 86.6422 202.855 86.7459C203.136 86.8496 203.386 87.0238 203.58 87.2518C204.484 86.7748 205.498 86.5476 206.52 86.5938C207.541 86.64 208.531 86.9578 209.387 87.5145C211.08 88.6463 212.415 89.3993 212.19 91.4232C213.794 91.5774 215.149 92.8635 215.656 94.3876C216.158 95.9143 215.897 97.6179 215.217 99.071Z" fill="#2F2E41"/>
<path d="M225.15 139.536L219.568 138.738C217.68 141.889 217.009 150.276 217.009 150.276L211.546 163.236C211.184 163.481 210.893 163.817 210.703 164.21C210.513 164.603 210.43 165.04 210.462 165.475C210.494 165.91 210.641 166.33 210.887 166.69C211.133 167.051 211.47 167.341 211.864 167.53C212.258 167.72 212.695 167.802 213.131 167.77C213.567 167.737 213.987 167.59 214.348 167.344C214.71 167.098 215 166.761 215.189 166.368C215.378 165.974 215.46 165.538 215.427 165.102L224.397 150.017L225.15 139.536Z" fill="#A0616A"/>
<path d="M212.297 120.217L214.662 116.965L219.458 119.19L223.448 134.548C223.448 134.548 226.361 136.44 225.739 137.775C225.118 139.11 224.787 140.187 225.43 140.952C226.072 141.717 227.943 141.773 226.549 143.02C225.156 144.267 226.349 147.525 226.349 147.525L225.013 150.5L216.672 150.154L212.297 120.217Z" fill="#3F3D56"/>
<path d="M19.3723 167.851C19.8988 167.438 20.2434 166.837 20.3326 166.175C20.4219 165.513 20.2488 164.842 19.8502 164.306C19.7675 164.198 19.676 164.097 19.5766 164.004L23.1384 155.795L19.6008 152.525L15.9397 164.298C15.5864 164.739 15.3893 165.285 15.3793 165.849C15.3693 166.414 15.5468 166.966 15.8842 167.419C16.0787 167.676 16.3218 167.891 16.5996 168.053C16.8775 168.216 17.1847 168.322 17.5037 168.366C17.8226 168.41 18.1471 168.39 18.4586 168.309C18.7702 168.228 19.0626 168.086 19.3192 167.892C19.3371 167.878 19.3548 167.865 19.3723 167.851Z" fill="#FFB6B6"/>
<path d="M40.0661 114.596C40.0661 114.596 37.4295 109.593 31.3131 114.996C25.1967 120.399 17.9691 147.442 18.1094 148.459C18.2498 149.476 19.7447 149.073 17.8538 150.537C15.9629 152.001 14.9174 150.686 15.9629 152.001C17.0084 153.316 19.3465 154.71 17.2763 154.905C15.2062 155.101 22.7951 158.36 22.7951 158.36C22.7951 158.36 23.9888 158.074 24.355 155.325C24.5607 153.781 23.8637 152.904 25.0906 152.646C26.3176 152.389 25.1675 149.597 25.3441 149.157C25.5208 148.718 35.3176 129.529 35.3176 129.529L40.0661 114.596Z" fill="#4705AF"/>
<path d="M52.1065 236.781H56.5352L58.6424 219.729H52.1055L52.1065 236.781Z" fill="#FFB6B6"/>
<path d="M51.9495 241.393L65.5697 241.392V241.22C65.5696 239.817 65.0111 238.471 64.0169 237.479C63.0227 236.486 61.6743 235.929 60.2684 235.929L57.7801 234.045L53.1382 235.929H51.9492L51.9495 241.393Z" fill="#2F2E41"/>
<path d="M21.0605 228.647L24.6835 231.189L36.2344 218.45L30.8865 214.697L21.0605 228.647Z" fill="#FFB6B6"/>
<path d="M18.2754 232.329L29.4172 240.148L29.5163 240.007C30.325 238.859 30.6436 237.438 30.4022 236.055C30.1608 234.673 29.3791 233.443 28.2291 232.635L27.2793 229.666L22.3963 228.542L21.4237 227.859L18.2754 232.329Z" fill="#2F2E41"/>
<path d="M34.4594 151.945L34.0913 152.73C31.6723 157.888 31.0537 163.654 31.9938 169.272C32.0637 169.491 32.0504 169.729 31.9563 169.939C31.3733 170.621 32.288 173.587 32.8123 175.242L33.2849 178.17C33.2849 178.17 32.5013 180.89 33.6915 180.69C34.8818 180.49 33.1094 183.391 34.2447 184.118L37.1899 202.366L24.9023 222.58L29.4533 229.166L47.6571 205.773L47.8847 184.651L50.6153 201.685L50.8428 228.485L59.1221 227.607L62.1555 201.623L59.2621 165.69L54.7111 150.109L34.4594 151.945Z" fill="#2F2E41"/>
<path d="M40.1473 105.162L46.8453 105.48L50.0483 111.003C51.4686 111.429 52.7751 112.167 53.8713 113.164C54.9676 114.16 55.8255 115.39 56.3819 116.762L58.4675 121.905L56.0949 151.642C56.0949 151.642 55.6193 153.44 56.495 153.178C57.3707 152.915 57.0138 155.169 57.0138 155.169L60.2413 167.56L30.8977 165.013L32.5271 151.885C32.5271 151.885 30.2617 151.958 31.8546 150.368C33.4474 148.779 34.222 149.285 32.6919 147.405C31.1618 145.526 30.9342 144.163 30.9342 144.163L30.2516 134.851L29.1262 121.746C28.9476 119.666 29.2897 117.575 30.1216 115.66C30.9536 113.746 32.2493 112.067 33.8923 110.776L40.1473 105.162Z" fill="#4705AF"/>
<path d="M43.6212 103.631C48.3124 103.631 52.1154 99.8345 52.1154 95.1521C52.1154 90.4696 48.3124 86.6738 43.6212 86.6738C38.93 86.6738 35.127 90.4696 35.127 95.1521C35.127 99.8345 38.93 103.631 43.6212 103.631Z" fill="#FFB6B6"/>
<path d="M40.3385 102.935C42.776 102.855 42.9974 102.213 45.4349 102.133C46.2111 102.107 47.127 102.001 47.5022 101.323C47.6114 101.068 47.66 100.792 47.6443 100.516C47.6285 100.24 47.5487 99.9712 47.4113 99.731C47.1331 99.2542 46.8824 98.7619 46.6603 98.2566C46.5266 97.8604 46.4915 97.4376 46.5581 97.0247C46.6247 96.6119 46.7911 96.2215 47.0428 95.8872C47.2945 95.553 47.6239 95.2849 48.0027 95.1062C48.3814 94.9275 48.7981 94.8435 49.2166 94.8616C49.9584 94.8936 50.6551 95.2418 51.3948 95.3054C52.4093 95.3927 54.6526 92.0494 54.1855 91.1463C53.7308 90.2672 52.8159 89.6039 52.672 88.6251C52.578 87.9849 52.8427 87.3488 52.8789 86.7027C52.9326 85.7448 50.4998 87.9047 50.9454 87.0546C52.0383 84.9692 41.7394 82.3839 40.0438 84.996C39.4101 85.9723 38.2808 85.9057 37.2742 86.492C36.6145 86.8763 34.9486 88.202 34.5699 89.0283C34.2219 89.8714 34.0574 90.7788 34.0875 91.6902C34.0722 95.9288 34.7192 99.8277 38.1445 102.333" fill="#2F2E41"/>
<path d="M64.4524 167.487C63.9515 167.044 63.6435 166.424 63.594 165.758C63.5445 165.091 63.7574 164.432 64.1874 163.92C64.2764 163.818 64.3738 163.722 64.4786 163.636L61.4141 155.229L65.1409 152.176L68.0914 164.145C68.4177 164.607 68.5818 165.163 68.558 165.727C68.5343 166.292 68.324 166.832 67.9601 167.265C67.7507 167.509 67.4951 167.709 67.208 167.855C66.921 168 66.608 168.088 66.2869 168.113C65.9659 168.138 65.6431 168.099 65.337 167.999C65.031 167.9 64.7475 167.741 64.503 167.532C64.4859 167.517 64.4691 167.502 64.4524 167.487Z" fill="#FFB6B6"/>
<path d="M46.9824 113.092C46.9824 113.092 49.9135 108.255 55.6959 114.013C61.4782 119.771 67.0756 147.196 66.8747 148.203C66.6738 149.21 65.2055 148.719 67.0055 150.293C68.8055 151.867 69.9278 150.616 68.8055 151.867C67.6832 153.117 65.266 154.369 67.3208 154.687C69.3755 155.006 61.6052 157.807 61.6052 157.807C61.6052 157.807 60.4308 157.45 60.2296 154.684C60.1167 153.131 60.8649 152.297 59.6555 151.967C58.4461 151.637 59.7611 148.918 59.6111 148.469C59.461 148.02 50.8293 128.281 50.8293 128.281L46.9824 113.092Z" fill="#4705AF"/>
<path d="M131.5 66.9909C131.5 68.3635 131.093 69.7054 130.329 70.8468C129.565 71.9883 128.48 72.8781 127.209 73.4037C125.939 73.9292 124.541 74.067 123.192 73.7996C121.843 73.5321 120.604 72.8715 119.631 71.9012C118.659 70.9308 117.996 69.6944 117.728 68.3483C117.459 67.0021 117.596 65.6067 118.122 64.3384C118.648 63.0702 119.539 61.9861 120.682 61.2232C121.826 60.4604 123.17 60.053 124.545 60.0527C125.458 60.0514 126.363 60.2301 127.207 60.5783C128.051 60.9265 128.818 61.4374 129.464 62.0819C130.11 62.7264 130.623 63.4917 130.972 64.334C131.321 65.1764 131.501 66.0792 131.5 66.9909Z" fill="#4705AF"/>
<path d="M124.701 67.9935C126.044 67.9935 127.133 66.9063 127.133 65.5651C127.133 64.2239 126.044 63.1367 124.701 63.1367C123.357 63.1367 122.268 64.2239 122.268 65.5651C122.268 66.9063 123.357 67.9935 124.701 67.9935Z" fill="white"/>
<path d="M127.309 68.8633H122.095C121.773 68.8636 121.464 68.9917 121.236 69.2193C121.008 69.4469 120.879 69.7556 120.879 70.0775C120.953 71.1174 121.116 72.1491 121.365 73.1615C122.411 73.6993 123.576 73.9633 124.752 73.9287C125.928 73.8941 127.075 73.5621 128.087 72.9638C128.311 72.0149 128.457 71.0497 128.525 70.0775C128.525 69.7556 128.397 69.4469 128.169 69.2193C127.941 68.9917 127.631 68.8636 127.309 68.8633Z" fill="white"/>
<path d="M1.83062e-06 241.589C-0.000160158 241.643 0.01043 241.697 0.0311592 241.747C0.0518885 241.797 0.0823457 241.843 0.120787 241.881C0.159227 241.919 0.204892 241.95 0.255148 241.97C0.305404 241.991 0.359262 242.002 0.413624 242.001H249.022C249.132 242.001 249.237 241.958 249.314 241.881C249.392 241.803 249.436 241.698 249.436 241.589C249.436 241.479 249.392 241.374 249.314 241.297C249.237 241.219 249.132 241.176 249.022 241.176H0.413624C0.359262 241.176 0.305403 241.186 0.255148 241.207C0.204893 241.228 0.159232 241.258 0.120792 241.296C0.0823514 241.335 0.0518892 241.38 0.0311592 241.43C0.0104293 241.481 -0.000158313 241.534 1.83062e-06 241.589Z" fill="#CCCCCC"/>
</g>
<defs>
<filter id="filter0_d_39_797" x="64.8633" y="0.358293" width="124.788" height="240.434" filterUnits="userSpaceOnUse" color-interpolation-filters="sRGB">
<feFlood flood-opacity="0" result="BackgroundImageFix"/>
<feColorMatrix in="SourceAlpha" type="matrix" values="0 0 0 0 0 0 0 0 0 0 0 0 0 0 0 0 0 0 127 0" result="hardAlpha"/>
<feOffset dx="2" dy="4.31923"/>
<feGaussianBlur stdDeviation="6"/>
<feComposite in2="hardAlpha" operator="out"/>
<feColorMatrix type="matrix" values="0 0 0 0 0 0 0 0 0 0 0 0 0 0 0 0 0 0 0.25 0"/>
<feBlend mode="normal" in2="BackgroundImageFix" result="effect1_dropShadow_39_797"/>
<feBlend mode="normal" in="SourceGraphic" in2="effect1_dropShadow_39_797" result="shape"/>
</filter>
<clipPath id="clip0_39_797">
<rect width="250" height="242" fill="white"/>
</clipPath>
</defs>
</svg>
