<svg width="24" height="24" viewBox="0 0 24 24" fill="none" xmlns="http://www.w3.org/2000/svg">
<g clip-path="url(#clip0_54_320)">
<path d="M23.9458 1.02871C24.0003 0.892413 24.0137 0.743103 23.9842 0.599288C23.9547 0.455474 23.8836 0.32348 23.7798 0.21967C23.676 0.11586 23.544 0.0448002 23.4002 0.015299C23.2564 -0.0142021 23.1071 -0.000846891 22.9708 0.0537091L1.15029 8.78221C0.958125 8.85913 0.790906 8.98758 0.667038 9.15341C0.54317 9.31924 0.467454 9.51604 0.448225 9.72213C0.428996 9.92822 0.466998 10.1356 0.55805 10.3215C0.649101 10.5074 0.789672 10.6646 0.964291 10.7757L8.45679 15.5427L10.7533 19.1517C10.8618 19.3155 11.0301 19.4301 11.2222 19.4711C11.4143 19.512 11.6148 19.476 11.7807 19.3707C11.9465 19.2654 12.0643 19.0992 12.109 18.9079C12.1536 18.7167 12.1214 18.5155 12.0193 18.3477L9.95529 15.1047L21.1963 3.86371L18.3538 10.9707C18.3147 11.0626 18.2944 11.1613 18.294 11.2611C18.2936 11.3609 18.3131 11.4598 18.3514 11.5519C18.3897 11.6441 18.446 11.7277 18.517 11.7978C18.588 11.8679 18.6723 11.9232 18.7649 11.9603C18.8576 11.9975 18.9567 12.0157 19.0565 12.0141C19.1563 12.0124 19.2547 11.9909 19.3461 11.9507C19.4374 11.9105 19.5198 11.8524 19.5885 11.78C19.6571 11.7075 19.7106 11.6221 19.7458 11.5287L23.9458 1.02871ZM20.1358 2.80321L8.89479 14.0442L2.38629 9.90271L20.1358 2.80321Z" fill="#05CB6F"/>
<path d="M24 18.75C24 20.1424 23.4469 21.4777 22.4623 22.4623C21.4777 23.4469 20.1424 24 18.75 24C17.3576 24 16.0223 23.4469 15.0377 22.4623C14.0531 21.4777 13.5 20.1424 13.5 18.75C13.5 17.3576 14.0531 16.0223 15.0377 15.0377C16.0223 14.0531 17.3576 13.5 18.75 13.5C20.1424 13.5 21.4777 14.0531 22.4623 15.0377C23.4469 16.0223 24 17.3576 24 18.75ZM21.0105 16.2315C20.926 16.1809 20.8323 16.1474 20.7349 16.1329C20.6374 16.1185 20.5381 16.1234 20.4426 16.1473C20.347 16.1713 20.2571 16.2138 20.178 16.2726C20.0989 16.3313 20.0321 16.405 19.9815 16.4895L18.2265 19.4145L17.406 18.594C17.2652 18.4532 17.0742 18.3741 16.875 18.3741C16.6758 18.3741 16.4848 18.4532 16.344 18.594C16.2032 18.7348 16.1241 18.9258 16.1241 19.125C16.1241 19.3242 16.2032 19.5152 16.344 19.656L17.505 20.8155C17.6258 20.9366 17.7727 21.0285 17.9344 21.0843C18.0961 21.1401 18.2684 21.1582 18.4382 21.1374C18.608 21.1166 18.7708 21.0573 18.9143 20.9641C19.0577 20.8709 19.178 20.7462 19.266 20.5995L21.2685 17.2605C21.3191 17.176 21.3526 17.0823 21.3671 16.9849C21.3815 16.8874 21.3766 16.7881 21.3527 16.6926C21.3287 16.597 21.2862 16.5071 21.2274 16.428C21.1687 16.3489 21.095 16.2821 21.0105 16.2315Z" fill="#05CB6F"/>
</g>
<defs>
<clipPath id="clip0_54_320">
<rect width="24" height="24" fill="white"/>
</clipPath>
</defs>
</svg>
