<svg width="36" height="36" viewBox="0 0 36 36" fill="none" xmlns="http://www.w3.org/2000/svg">
<g clip-path="url(#clip0_282_866)">
<path d="M18 36C27.9411 36 36 27.9411 36 18C36 8.05888 27.9411 0 18 0C8.05888 0 0 8.05888 0 18C0 27.9411 8.05888 36 18 36Z" fill="white"/>
<path d="M21.2247 19.8876L22.347 18.7654L18.3674 14.7857L14.3878 18.7654L15.51 19.8876L17.5715 17.8341V25.5306H19.1633V17.8341L21.2247 19.8876ZM11.2041 12.796V23.9388C11.2041 24.361 11.3718 24.7659 11.6703 25.0644C11.9688 25.3629 12.3737 25.5306 12.796 25.5306H15.9796V23.9388H12.796V12.796H23.9388V23.9388H20.7551V25.5306H23.9388C24.361 25.5306 24.7659 25.3629 25.0644 25.0644C25.3629 24.7659 25.5306 24.361 25.5306 23.9388V12.796C25.5306 11.9204 24.8143 11.2041 23.9388 11.2041H12.796C11.9204 11.2041 11.2041 11.9204 11.2041 12.796Z" fill="#4705AF"/>
</g>
<defs>
<clipPath id="clip0_282_866">
<rect width="36" height="36" fill="white"/>
</clipPath>
</defs>
</svg>
