<svg width="47" height="47" viewBox="0 0 47 47" fill="none" xmlns="http://www.w3.org/2000/svg">
<circle opacity="0.2" cx="23.8159" cy="23.7444" r="22.8889" fill="#F5F5FF"/>
<mask id="mask0_633_3436" style="mask-type:alpha" maskUnits="userSpaceOnUse" x="8" y="8" width="32" height="32">
<circle cx="24.0775" cy="24.006" r="15.3029" fill="#C4C4C4"/>
</mask>
<g mask="url(#mask0_633_3436)">
<g clip-path="url(#clip0_633_3436)">
<path d="M0.927124 8.70312H48.0129V40.094H0.927124V8.70312Z" fill="white"/>
<path d="M0.927124 8.70312H48.0129V17.0332H0.927124V8.70312Z" fill="black"/>
<path d="M0.927124 31.7637H48.0129V40.0927H0.927124V31.7637Z" fill="#496E2D"/>
<path d="M0.927124 19.1211H48.0129V29.6785H0.927124V19.1211Z" fill="#A2001D"/>
<path d="M30.656 13.713L28.3033 12.627L24.47 21.3067L20.6368 12.627L18.2841 13.713L23.0431 24.3984L18.2841 35.0839L20.6368 36.1698L24.47 27.4901L28.3033 36.1698L30.656 35.0839L25.897 24.3984L30.656 13.713Z" fill="white"/>
<path d="M26.068 14.7364C25.1572 13.7417 24.47 13.1699 24.47 13.1699C24.47 13.1699 23.7829 13.7416 22.8721 14.7363V34.0605C23.7829 35.0551 24.47 35.627 24.47 35.627C24.47 35.627 25.1572 35.0553 26.068 34.0606V14.7364Z" fill="white"/>
<path d="M20.1514 18.4418V30.3544C21.1138 32.0596 22.2917 33.4575 23.1744 34.3841V14.4121C22.2917 15.3387 21.1137 16.7365 20.1514 18.4418ZM28.7887 18.4418C27.8263 16.7365 26.6483 15.3387 25.7656 14.4121V34.3842C26.6484 33.4575 27.8263 32.0597 28.7887 30.3545V18.4418Z" fill="#A2001D"/>
<path d="M28.7887 18.4414V30.354C29.763 28.6275 30.5162 26.586 30.5162 24.3978C30.5162 22.2096 29.763 20.168 28.7887 18.4414ZM20.1514 18.4414V30.354C19.1771 28.6275 18.424 26.586 18.424 24.3978C18.424 22.2096 19.1771 20.168 20.1514 18.4414Z" fill="black"/>
</g>
</g>
<defs>
<clipPath id="clip0_633_3436">
<rect width="47.0858" height="31.3905" fill="white" transform="translate(0.927124 8.70312)"/>
</clipPath>
</defs>
</svg>
