<svg width="355" height="515" viewBox="0 0 355 515" fill="none" xmlns="http://www.w3.org/2000/svg">
<rect y="239.273" width="478.548" height="318.148" rx="40" transform="rotate(-30 0 239.273)" fill="url(#paint0_linear_182_2415)"/>
<path opacity="0.4" d="M81.2 379.916C52.7773 330.686 38.566 306.072 37.2907 281.737C36.1689 260.332 41.8523 239.121 53.5265 221.144C66.7983 200.707 91.413 186.496 140.643 158.073L386.722 15.9996C396.422 10.3991 401.272 7.5988 406.067 7.34751C410.285 7.12646 414.465 8.24636 418.007 10.5467C422.034 13.1618 424.834 18.012 430.434 27.7124L451.696 64.5391C481.519 116.194 496.431 142.021 497.769 167.554C498.946 190.014 492.982 212.27 480.733 231.132C466.808 252.576 440.98 267.487 389.326 297.31L190.358 412.184C166.592 425.905 154.709 432.766 142.962 433.381C132.628 433.923 122.388 431.179 113.71 425.543C103.844 419.136 96.9832 407.253 83.2619 383.487L81.2 379.916Z" fill="url(#paint1_linear_182_2415)"/>
<defs>
<linearGradient id="paint0_linear_182_2415" x1="239.274" y1="343.912" x2="212.05" y2="936.619" gradientUnits="userSpaceOnUse">
<stop stop-color="#4705AF"/>
<stop offset="0.973753" stop-color="#A382D7"/>
</linearGradient>
<linearGradient id="paint1_linear_182_2415" x1="291.083" y1="303.18" x2="169.416" y2="70.8766" gradientUnits="userSpaceOnUse">
<stop stop-color="#4705AF"/>
<stop offset="0.973753" stop-color="#A382D7"/>
</linearGradient>
</defs>
</svg>
