<svg width="20" height="21" viewBox="0 0 20 21" fill="none" xmlns="http://www.w3.org/2000/svg">
<mask id="mask0_2196_2704" style="mask-type:alpha" maskUnits="userSpaceOnUse" x="0" y="0" width="20" height="21">
<ellipse cx="10" cy="10.5" rx="10" ry="10.5" fill="#C4C4C4"/>
</mask>
<g mask="url(#mask0_2196_2704)">
<g clip-path="url(#clip0_2196_2704)">
<path d="M-5.12823 0H25.641V21.5385H-5.12823V0Z" fill="white"/>
<path d="M-5.12823 0H25.641V1.65632H-5.12823V0ZM-5.12823 3.31264H25.641V4.96896H-5.12823V3.31264ZM-5.12823 6.62528H25.641V8.2816H-5.12823V6.62528ZM-5.12823 9.93792H25.641V11.5942H-5.12823V9.93792ZM-5.12823 13.2569H25.641V14.9132H-5.12823V13.2569ZM-5.12823 16.5695H25.641V18.2258H-5.12823V16.5695ZM-5.12823 19.8821H25.641V21.5385H-5.12823V19.8821Z" fill="#D80027"/>
<path d="M-5.12823 0H10.2564V11.5942H-5.12823V0Z" fill="#2E52B2"/>
<path d="M-2.26122 8.74677L-2.50113 7.94065L-2.76504 8.74677H-3.55676L-2.91499 9.2317L-3.1549 10.0378L-2.50113 9.54029L-1.86535 10.0378L-2.11127 9.2317L-1.4575 8.74677H-2.26122ZM1.1156 8.74677L0.869689 7.94065L0.617777 8.74677H-0.173947L0.467829 9.2317L0.227913 10.0378L0.869689 9.54029L1.51746 10.0378L1.27755 9.2317L1.91932 8.74677H1.1156ZM4.50442 8.74677L4.24651 7.94065L4.00659 8.74677H3.19687L3.85664 9.2317L3.60473 10.0378L4.24651 9.54029L4.90628 10.0378L4.65436 9.2317L5.29614 8.74677H4.50442ZM7.87524 8.74677L7.63532 7.94065L7.38341 8.74677H6.58569L7.23346 9.2317L6.99355 10.0378L7.63532 9.54029L8.28309 10.0378L8.02518 9.2317L8.68495 8.74677H7.87524ZM0.869689 4.74137L0.617777 5.54749H-0.173947L0.467829 6.04502L0.227913 6.83854L0.869689 6.34731L1.51746 6.83854L1.27755 6.04502L1.91932 5.54749H1.1156L0.869689 4.74137ZM-2.50113 4.74137L-2.76504 5.54749H-3.55676L-2.91499 6.04502L-3.1549 6.83854L-2.50113 6.34731L-1.86535 6.83854L-2.11127 6.04502L-1.4575 5.54749H-2.26122L-2.50113 4.74137ZM4.24651 4.74137L4.00659 5.54749H3.19687L3.85664 6.04502L3.60473 6.83854L4.24651 6.34731L4.90628 6.83854L4.65436 6.04502L5.29614 5.54749H4.50442L4.24651 4.74137ZM7.63532 4.74137L7.38341 5.54749H6.58569L7.23346 6.04502L6.99355 6.83854L7.63532 6.34731L8.28309 6.83854L8.02518 6.04502L8.68495 5.54749H7.87524L7.63532 4.74137ZM-2.50113 1.55469L-2.76504 2.34821H-3.55676L-2.91499 2.84574L-3.1549 3.64556L-2.50113 3.14803L-1.86535 3.64556L-2.11127 2.84574L-1.4575 2.34821H-2.26122L-2.50113 1.55469ZM0.869689 1.55469L0.617777 2.34821H-0.173947L0.467829 2.84574L0.227913 3.64556L0.869689 3.14803L1.51746 3.64556L1.27755 2.84574L1.91932 2.34821H1.1156L0.869689 1.55469ZM4.24651 1.55469L4.00659 2.34821H3.19687L3.85664 2.84574L3.60473 3.64556L4.24651 3.14803L4.90628 3.64556L4.65436 2.84574L5.29614 2.34821H4.50442L4.24651 1.55469ZM7.63532 1.55469L7.38341 2.34821H6.58569L7.23346 2.84574L6.99355 3.64556L7.63532 3.14803L8.28309 3.64556L8.02518 2.84574L8.68495 2.34821H7.87524L7.63532 1.55469Z" fill="white"/>
</g>
</g>
<defs>
<clipPath id="clip0_2196_2704">
<rect width="30.7692" height="21.5385" fill="white" transform="translate(-5.12823)"/>
</clipPath>
</defs>
</svg>
