<svg width="14" height="11" viewBox="0 0 14 11" fill="none" xmlns="http://www.w3.org/2000/svg">
<path d="M3.66671 6.99998H5.66671C5.84352 6.99998 6.01309 6.92974 6.13811 6.80472C6.26314 6.67969 6.33337 6.51012 6.33337 6.33331C6.33337 6.1565 6.26314 5.98693 6.13811 5.86191C6.01309 5.73688 5.84352 5.66665 5.66671 5.66665H3.66671C3.4899 5.66665 3.32033 5.73688 3.1953 5.86191C3.07028 5.98693 3.00004 6.1565 3.00004 6.33331C3.00004 6.51012 3.07028 6.67969 3.1953 6.80472C3.32033 6.92974 3.4899 6.99998 3.66671 6.99998ZM11.6667 0.333313H2.33337C1.80294 0.333313 1.29423 0.544027 0.91916 0.9191C0.544088 1.29417 0.333374 1.80288 0.333374 2.33331V8.33331C0.333374 8.86375 0.544088 9.37245 0.91916 9.74753C1.29423 10.1226 1.80294 10.3333 2.33337 10.3333H11.6667C12.1971 10.3333 12.7058 10.1226 13.0809 9.74753C13.456 9.37245 13.6667 8.86375 13.6667 8.33331V2.33331C13.6667 1.80288 13.456 1.29417 13.0809 0.9191C12.7058 0.544027 12.1971 0.333313 11.6667 0.333313ZM12.3334 8.33331C12.3334 8.51012 12.2631 8.67969 12.1381 8.80472C12.0131 8.92974 11.8435 8.99998 11.6667 8.99998H2.33337C2.15656 8.99998 1.98699 8.92974 1.86197 8.80472C1.73695 8.67969 1.66671 8.51012 1.66671 8.33331V4.33331H12.3334V8.33331ZM12.3334 2.99998H1.66671V2.33331C1.66671 2.1565 1.73695 1.98693 1.86197 1.86191C1.98699 1.73688 2.15656 1.66665 2.33337 1.66665H11.6667C11.8435 1.66665 12.0131 1.73688 12.1381 1.86191C12.2631 1.98693 12.3334 2.1565 12.3334 2.33331V2.99998Z" fill="white"/>
</svg>
