<svg width="47" height="47" viewBox="0 0 47 47" fill="none" xmlns="http://www.w3.org/2000/svg">
<circle opacity="0.2" cx="23.8159" cy="23.1916" r="22.8889" fill="#F5F5FF"/>
<mask id="mask0_633_3425" style="mask-type:alpha" maskUnits="userSpaceOnUse" x="8" y="8" width="32" height="31">
<circle cx="24.0775" cy="23.4532" r="15.3029" fill="#C4C4C4"/>
</mask>
<g mask="url(#mask0_633_3425)">
<g clip-path="url(#clip0_633_3425)">
<path d="M0.927124 8.15039H48.0128V39.5409H0.927124V8.15039Z" fill="#D80027"/>
<path d="M21.744 30.1061L20.8537 28.6742L19.2107 29.0781L20.303 27.7839L19.4127 26.3521L20.9822 26.9854L22.0652 25.6912L21.9459 27.38L23.5154 28.0134L21.8725 28.4172L21.744 30.1061ZM27.5999 15.6775L26.6728 17.0909L27.7376 18.4035L26.113 17.9629L25.1859 19.3856L25.0941 17.6967L23.4696 17.2562L25.0483 16.6504L24.9565 14.9615L26.0212 16.2741L27.5999 15.6775ZM22.6068 10.4824L22.4232 12.1621L23.9652 12.8597L22.3131 13.2084L22.1295 14.8881L21.2851 13.4195L19.6421 13.7683L20.7711 12.5109L19.9267 11.0515L21.4686 11.7399L22.6068 10.4824ZM27.8018 23.0019L26.4342 24.0024L26.9666 25.6086L25.599 24.6173L24.2314 25.627L24.7454 24.0115L23.3778 23.0294L25.0666 23.0203L25.5806 21.4048L26.113 23.0111L27.8018 23.0019ZM11.4824 12.4007L13.0703 17.3112H18.2286L14.0616 20.331L15.6495 25.2415L11.4824 22.2125L7.30621 25.2415L8.90327 20.331L4.72705 17.3112H9.89455L11.4824 12.4007Z" fill="#FFDA44"/>
</g>
</g>
<defs>
<clipPath id="clip0_633_3425">
<rect width="47.0857" height="31.3905" fill="white" transform="translate(0.927124 8.15039)"/>
</clipPath>
</defs>
</svg>
